<?xml version="1.0" encoding="utf-8"?>
<!-- Generator: Adobe Illustrator 20.0.0, SVG Export Plug-In . SVG Version: 6.00 Build 0)  -->
<svg version="1.1" id="Layer_2" xmlns="http://www.w3.org/2000/svg" xmlns:xlink="http://www.w3.org/1999/xlink" x="0px" y="0px"
	 viewBox="0 0 50 54" style="enable-background:new 0 0 50 54;" xml:space="preserve">
<style type="text/css">
	.st0{opacity:0.4;}
	.st1{fill:#858585;}
	.st2{fill:#777777;}
</style>
<g class="st0">
	<path class="st1" d="M9.4,41c-3.3,0-5.6-1-6.7-2.8c-2.7-4.7,3.9-13.5,15-19.9c5.3-3,10.7-5,15.3-5.7c4.7-0.6,8.1,0.3,9.4,2.6
		c2.7,4.7-3.9,13.5-15,19.9c-5.3,3-10.7,5-15.3,5.7C11.2,40.9,10.3,41,9.4,41z M35.8,13.2c-0.8,0-1.7,0.1-2.6,0.2
		c-4.5,0.6-9.8,2.6-15,5.6C7.6,25.1,1,33.5,3.4,37.8c1.2,2,4.2,2.8,8.6,2.2c4.5-0.6,9.8-2.6,15-5.6c10.6-6.1,17.2-14.5,14.7-18.8
		C40.9,14.1,38.8,13.2,35.8,13.2z"/>
</g>
<g class="st0">
	<path class="st1" d="M13.3,47.2c-3.2,0-5.6-0.9-6.7-2.8c-2.7-4.7,3.9-13.5,15-19.9c11.2-6.4,22-7.8,24.8-3l0,0
		c2.7,4.7-3.9,13.5-15,19.9C24.7,45.1,18.1,47.2,13.3,47.2z M39.6,19.4c-4.6,0-11.1,2-17.6,5.8C11.4,31.2,4.8,39.7,7.3,43.9
		c2.5,4.3,13,2.7,23.6-3.4C41.5,34.5,48.1,26,45.6,21.8C44.7,20.2,42.5,19.4,39.6,19.4z"/>
</g>
<g>
	<path class="st2" d="M16.6,35.2l0.9-5.4L7.3,32.4L18.3,26l0.6-4.8l4.6,1.8l11.1-6.4l-7.1,7.6l4.6,2.1l-8.7,2.2L16.6,35.2z
		 M18.5,28.8l-0.7,4l5-5l6.6-1.6L26,24.6l4.1-4.4L23.5,24l-4-1.6L19,26.6l-6.2,3.6L18.5,28.8z"/>
</g>
<g class="st0">
	<rect x="43.9" y="15.6" transform="matrix(0.8447 -0.5352 0.5352 0.8447 -3.3186 26.6591)" class="st1" width="0.8" height="6.8"/>
</g>
<g>
	<path class="st1" d="M43.3,40.9l3.8-1.2L47,39.3c-1-5.6-5.9-6.4-5.9-6.4L41,33.7c0,0,4.1,0.7,5.2,5.4l-3.5,1.1L41,44
		c-1-1.8-3.7-6-7.3-5.3l0.2,0.8c3.8-0.8,6.8,5.5,6.8,5.6l0.4,0.8L43.3,40.9z"/>
</g>
<g>
	<path class="st1" d="M33.8,48.7l3.6,3.6l0.2-0.6c1.4-4.3,1.5-7.8,0.2-10.2c-1.1-2.1-2.9-2.7-2.9-2.7l-0.2,0.8
		c0.1,0,1.5,0.5,2.5,2.3c1.1,2.1,1.1,5.2-0.1,8.9l-3.2-3.2l-4.4,4c0.2-1.9,0.4-5.5-1-7.4c-0.5-0.7-1.1-1.1-1.9-1.2l-0.1,0.8
		c0.5,0.1,1,0.4,1.3,0.9c1.6,2.3,0.7,7.9,0.7,8l-0.2,1.2L33.8,48.7z"/>
</g>
</svg>
