<?xml version="1.0" encoding="utf-8"?>
<!-- Generator: Adobe Illustrator 20.0.0, SVG Export Plug-In . SVG Version: 6.00 Build 0)  -->
<svg version="1.1" id="Layer_1" xmlns="http://www.w3.org/2000/svg" xmlns:xlink="http://www.w3.org/1999/xlink" x="0px" y="0px"
	 viewBox="0 0 54 50" style="enable-background:new 0 0 54 50;" xml:space="preserve">
<style type="text/css">
	.st0{opacity:0.4;enable-background:new    ;}
	.st1{fill:#858585;}
	.st2{fill:#777777;}
</style>
<g class="st0">
	<path class="st1" d="M22.4,49.4c-5.1,0-9.6-0.9-11.5-2.4c-0.7-0.5-1-1.1-1.1-1.8c-0.4-3.5,8.4-6.7,17.1-7.7
		c7.2-0.9,13.6-0.2,16.2,1.8c0.7,0.5,1.1,1.2,1.2,1.9l0,0c0.4,3.2-6.6,6.7-15.9,7.8C26.2,49.3,24.2,49.4,22.4,49.4z M32.8,38
		c-1.8,0-3.8,0.1-5.8,0.4c-8.9,1.1-16.7,4.3-16.4,6.8c0,0.4,0.3,0.8,0.8,1.2c2.5,1.9,9.7,2.7,16.8,1.9c9.3-1.2,15.5-4.6,15.2-6.9
		l0,0c-0.1-0.5-0.3-0.9-0.9-1.3C40.8,38.7,37.2,38,32.8,38z"/>
</g>
<g class="st0">
	<path class="st1" d="M33.2,31c-2.6,0-5.6-2.1-7.3-3.3l-0.2-0.2c-3.9-2.7-4.9-11.7-4.9-12l0,0c-0.2-2.6,0.9-5,2.9-6.6
		c2.5-1.9,6-2.1,9.7-0.6c2.5,0.9,4.2,2.6,5.1,5.1c1.9,5,0,12-1.8,15.4c-0.6,1.1-1.4,1.8-2.5,2.1C33.9,31,33.5,31,33.2,31z
		 M21.6,15.5c0,0.2,1,8.9,4.5,11.4l0.2,0.2c1.8,1.3,5.2,3.6,7.6,3c0.8-0.2,1.5-0.8,2-1.7c1.6-3.2,3.6-9.9,1.8-14.7
		c-0.8-2.2-2.4-3.7-4.6-4.6c-3.5-1.4-6.7-1.2-8.9,0.5C22.4,11,21.4,13.2,21.6,15.5z"/>
</g>
<g>
	<path class="st2" d="M25.8,22c-1.2,0-2.2-1.3-2.3-3.1c-0.1-0.8,0.1-1.6,0.4-2.3c0.4-0.7,0.9-1.1,1.6-1.1l0,0c0.6,0,1.2,0.3,1.7,0.9
		c0.4,0.6,0.7,1.3,0.8,2.2c0.1,1.8-0.7,3.3-2,3.4C25.9,22,25.9,22,25.8,22z M25.6,16.4C25.6,16.4,25.5,16.4,25.6,16.4L25.6,16.4
		c-0.5,0-0.8,0.5-0.9,0.7c-0.3,0.5-0.4,1.1-0.3,1.8c0.1,1.3,0.8,2.3,1.5,2.3c0.7-0.1,1.3-1.2,1.2-2.5c-0.1-0.7-0.3-1.3-0.6-1.7
		C26.3,16.7,26,16.4,25.6,16.4z"/>
</g>
<g class="st0">
	<path class="st1" d="M10.6,44.6l-0.9-0.1c0,0,0.3-3.6,0.7-6.7c0.5-3.5,8.4-6.9,11.1-7.8c2.7-0.9,1.8-5.3,1.8-5.3l0.8-0.2
		c0,0.2,1.1,5.2-2.3,6.3c-3.5,1.2-10.1,4.4-10.5,7.1C10.9,40.9,10.6,44.5,10.6,44.6z"/>
</g>
<g>
	<path class="st2" d="M32.7,28.3l-3.2-1.4c-3.3-1.4-3.9-5.1-3.9-5.3l0.8-0.1c0,0,0.5,3.5,3.4,4.6l3.2,1.4L32.7,28.3z"/>
</g>
<g>
	<path class="st2" d="M25,15.9c-0.1-3,0.7-5.2,2.2-6.6c2.1-1.8,4.8-1.4,4.9-1.4L32,8.7c0,0-2.4-0.4-4.2,1.2c-1.3,1.2-2,3.2-1.9,5.9
		L25,15.9z"/>
</g>
<g class="st0">
	<path class="st1" d="M43.4,41.3c0,0-0.3-3.6-1.3-6.4c-0.8-2.4-5.6-3.5-7.3-4c-0.2-0.1-0.4-0.1-0.5-0.1l0.2-0.8
		c0.1,0,0.3,0.1,0.5,0.1c2.1,0.5,6.9,1.7,7.9,4.5c1,2.9,1.3,6.5,1.3,6.6L43.4,41.3z"/>
</g>
</svg>
