<?xml version="1.0" encoding="utf-8"?>
<!-- Generator: Adobe Illustrator 20.0.0, SVG Export Plug-In . SVG Version: 6.00 Build 0)  -->
<svg version="1.1" id="Layer_2" xmlns="http://www.w3.org/2000/svg" xmlns:xlink="http://www.w3.org/1999/xlink" x="0px" y="0px"
	 viewBox="0 0 54 50" style="enable-background:new 0 0 54 50;" xml:space="preserve">
<style type="text/css">
	.st0{opacity:0.39;}
	.st1{fill:#858585;}
	.st2{fill:#777777;}
</style>
<g class="st0">
	<g>
		<path class="st1" d="M28.6,9.8c10.8,0,19.7,8.8,19.7,19.7s-8.8,19.7-19.7,19.7S8.9,40.4,8.9,29.5S17.7,9.8,28.6,9.8 M28.6,9
			C17.2,9,8.1,18.2,8.1,29.5C8.1,40.8,17.2,50,28.6,50S49,40.8,49,29.5C49,18.2,39.9,9,28.6,9L28.6,9z"/>
	</g>
</g>
<g class="st0">
	<path class="st1" d="M32.3,35.2c-5.9,0-10.7-4.8-10.7-10.7s4.8-10.7,10.7-10.7s10.7,4.8,10.7,10.7S38.2,35.2,32.3,35.2z M32.3,14.7
		c-5.4,0-9.8,4.4-9.8,9.8s4.4,9.8,9.8,9.8s9.8-4.4,9.8-9.8S37.7,14.7,32.3,14.7z"/>
</g>
<g>
	<polygon class="st2" points="33.7,24.2 30.1,23.6 30.3,22.8 33.2,23.3 34.1,21.1 34.8,21.4 	"/>
</g>
<g>
	<rect x="33.5" y="23.7" transform="matrix(0.9372 -0.3488 0.3488 0.9372 -6.6379 13.4197)" class="st2" width="0.8" height="2.9"/>
</g>
<g>
	<path class="st2" d="M36.2,31.3l-0.5-0.4c-1.3-1.1-4.7-4.1-10.9-7.6l-0.7-0.4l12.7-5.4l0.1,0.5c0.1,0.2,1.3,6.1-0.5,12.7L36.2,31.3
		z M25.9,23c5.2,3,8.3,5.6,9.8,6.9c1.2-5.1,0.6-9.7,0.4-11.2L25.9,23z"/>
</g>
</svg>
