<?xml version="1.0" encoding="utf-8"?>
<!-- Generator: Adobe Illustrator 20.0.0, SVG Export Plug-In . SVG Version: 6.00 Build 0)  -->
<svg version="1.1" id="Layer_1" xmlns="http://www.w3.org/2000/svg" xmlns:xlink="http://www.w3.org/1999/xlink" x="0px" y="0px"
	 viewBox="0 0 59.1 21.5" style="enable-background:new 0 0 59.1 21.5;" xml:space="preserve">
<style type="text/css">
	.st0{fill:#6E6E6E;}
</style>
<g>
	<path class="st0" d="M13.3,12.4c-2.4,0-4.4,2-4.4,4.4s2,4.4,4.4,4.4s4.4-2,4.4-4.4C17.7,14.4,15.8,12.5,13.3,12.4L13.3,12.4z
		 M13.3,20.2c-1.9,0-3.5-1.6-3.5-3.5s1.6-3.5,3.5-3.5s3.5,1.6,3.5,3.5l0,0C16.8,18.7,15.2,20.2,13.3,20.2z"/>
	<path class="st0" d="M50.9,16.8l-1.9-1c-0.6-0.2-1-0.7-1-1.3c0.1-0.8,0.8-1.4,1.6-1.3h0.1c0.5,0,1.1,0.2,1.5,0.5
		c0.1,0,0.1,0.1,0.2,0.1c0.2,0,0.4-0.2,0.4-0.4s-0.1-0.3-0.2-0.4c-0.6-0.3-1.2-0.6-1.9-0.6c-1.2-0.1-2.3,0.7-2.5,2
		c0,0.1,0,0.2,0,0.2c0.1,0.9,0.6,1.7,1.5,2.1c0.2,0.1,1.6,0.8,1.9,1c0.5,0.2,0.9,0.7,0.9,1.3c-0.1,0.8-0.8,1.5-1.6,1.4h-0.1
		c-0.8-0.1-1.5-0.4-2.1-0.9l-0.1-0.1L47,19.8l0.1,0.1c0.7,0.7,1.7,1.2,2.7,1.2c1.3,0.1,2.4-0.9,2.5-2.2c0,0,0,0,0-0.1
		C52.3,17.9,51.7,17.2,50.9,16.8z"/>
	<path class="st0" d="M4.4,13.2c0.9,0,1.8,0.4,2.5,1c0.1,0.2,0.4,0.2,0.5,0.1l0.1-0.1c0.1-0.2,0.1-0.4,0-0.6l-0.1-0.1
		c-0.8-0.8-1.9-1.2-3-1.2c-2.4,0-4.4,2-4.4,4.4s2,4.4,4.4,4.4c1.2,0,2.4-0.5,3.2-1.4L7,19.1c-0.7,0.7-1.6,1.2-2.6,1.2
		c-1.9,0-3.5-1.6-3.5-3.5C0.8,14.9,2.4,13.3,4.4,13.2C4.3,13.2,4.4,13.2,4.4,13.2z"/>
	<path class="st0" d="M33.9,13.2c0.9,0,1.8,0.4,2.5,1c0.1,0.2,0.4,0.2,0.5,0.1l0.1-0.1c0.1-0.2,0.1-0.4,0-0.6l0,0
		c-0.8-0.8-1.9-1.2-3-1.2c-2.4,0-4.4,2-4.4,4.4s2,4.4,4.4,4.4c1.2,0,2.4-0.5,3.2-1.4l-0.6-0.6c-1.3,1.5-3.4,1.6-4.9,0.4
		c-0.8-0.7-1.2-1.6-1.2-2.7c-0.1-1.9,1.3-3.6,3.2-3.7C33.8,13.2,33.8,13.2,33.9,13.2z"/>
	<path class="st0" d="M26.6,12.4c-0.2,0-0.3,0.1-0.4,0.2c-0.1,0.1-2.6,6.3-2.6,6.3s-2.5-6.2-2.6-6.3s-0.2-0.2-0.4-0.2
		c-0.2,0-0.3,0.1-0.4,0.3c0,0.2-1.5,8-1.5,8v0.1c0,0.2,0.2,0.4,0.4,0.4c0.2,0,0.3-0.1,0.4-0.3l1.2-6.7c0,0,2.4,5.8,2.4,6
		c0.2,0.2,0.5,0.3,0.7,0.1l0.1-0.1c0.1-0.1,2.4-6,2.4-6l1.3,6.9h0.8c0,0-1.5-8.2-1.5-8.4C26.9,12.6,26.8,12.4,26.6,12.4z"/>
	<path class="st0" d="M42.1,12.4c-0.2,0-0.3,0.1-0.4,0.2c-0.1,0.1-3.2,7.9-3.2,7.9v0.2c0,0.2,0.2,0.4,0.4,0.4s0.3-0.1,0.4-0.2l1.2-3
		h3.3l1.3,3.2h0.8c0,0-3.4-8.3-3.4-8.4C42.4,12.6,42.3,12.5,42.1,12.4z M40.8,17l1.3-3.2l1.3,3.2H40.8z"/>
	<path class="st0" d="M59.1,12.8c0-0.2-0.2-0.4-0.4-0.4h-4.9c-0.2,0-0.4,0.2-0.4,0.4s0.2,0.4,0.4,0.4h2V21h0.8v-7.8h2
		c0.2,0.1,0.4,0,0.5-0.2C59.1,13,59.1,12.9,59.1,12.8z"/>
	<path class="st0" d="M32.8,1.2c-0.1-0.2-0.2-0.4-0.4-0.6c-0.5-0.4-1.1-0.5-1.7-0.2c-0.5,0.3-0.8,0.8-0.8,1.3h0.7
		c0.1,0,0.1,0,0.1,0.1l0,0l0,0c-0.1,0-0.1,0.1-0.2,0.1C30.2,2,30,2.3,30,2.6l0.7,4.5l2-4.5l0,0C32.9,2.2,32.9,1.7,32.8,1.2z"/>
	<path class="st0" d="M28.3,0.4c-0.6-0.2-1.2-0.1-1.7,0.3c-0.4,0.4-0.6,1-0.4,1.6c0,0.1,2.1,4.6,2.1,4.6l0.2,0.3
		C28.6,6.5,29.3,2,29.3,2c0.1-0.3,0-0.7-0.2-1C28.9,0.8,28.6,0.6,28.3,0.4z"/>
	<path class="st0" d="M35.8,3.3c-0.2-0.4-0.6-0.7-1.1-0.8c-0.7-0.1-1.3,0.2-1.6,0.8l-2.3,5.1l0,0C31.4,8,35,5.5,35,5.5
		c0-0.1,0-0.1,0.1-0.1c0.2-0.1,0.4-0.3,0.6-0.5C36,4.4,36,3.9,35.8,3.3z"/>
	<path class="st0" d="M24.1,2.5c-0.4,0.2-0.7,0.6-0.9,1c-0.2,0.6,0,1.2,0.5,1.6l4.7,3.2L26,3.2C25.6,2.6,24.8,2.3,24.1,2.5z"/>
	<path class="st0" d="M37,7c-0.2-0.4-0.4-0.6-0.8-0.8c-0.5-0.2-1-0.2-1.5,0.1l-4.1,2.9h5c0.5,0,1-0.2,1.3-0.6
		C37.1,8.1,37.2,7.6,37,7z"/>
	<path class="st0" d="M22.9,6.2c-0.4,0.2-0.6,0.4-0.8,0.8c-0.2,0.5-0.1,1.1,0.2,1.5c0.3,0.4,0.8,0.6,1.3,0.6h4.8
		c-0.9-0.6-4-2.8-4-2.8C23.9,6.1,23.4,6.1,22.9,6.2z"/>
</g>
</svg>
