<?xml version="1.0" encoding="utf-8"?>
<!-- Generator: Adobe Illustrator 20.0.0, SVG Export Plug-In . SVG Version: 6.00 Build 0)  -->
<svg version="1.1" id="Layer_1" xmlns="http://www.w3.org/2000/svg" xmlns:xlink="http://www.w3.org/1999/xlink" x="0px" y="0px"
	 viewBox="0 0 41.6 30.4" style="enable-background:new 0 0 41.6 30.4;" xml:space="preserve">
<style type="text/css">
	.st0{fill:#6E6E6E;}
</style>
<title>logo_5</title>
<path class="st0" d="M31.7,0.2C31.6,0.1,31.5,0,31.3,0c-0.1,0-0.2,0-0.2,0.1c-3.1,1.6-6.5,2.5-10,2.5c-3.5,0-6.9-0.9-10-2.5
	C11.1,0,11,0,10.9,0c-0.2,0-0.3,0.1-0.4,0.2c-0.1,0.2-0.1,0.5,0.1,0.7c1.5,1.1,3.1,2,4.9,2.6c1.8,0.6,3.7,0.9,5.6,0.9l0,0
	c1.9,0,3.8-0.3,5.6-0.9c1.8-0.6,3.4-1.5,4.9-2.6C31.8,0.7,31.8,0.4,31.7,0.2"/>
<path class="st0" d="M28.3,4.8c-0.1-0.1-0.1-0.1-0.2-0.1H28c-0.9,0.3-1.7,0.6-2.5,0.8c-0.2,0-0.3,0.1-0.4,0.3
	c-0.6,1.6-2.1,3.1-3.6,4.7c-0.1,0.1-0.2,0.1-0.3,0.1c-0.1,0-0.2-0.1-0.3-0.1c-1.5-1.3-2.7-2.9-3.6-4.7c-0.1-0.1-0.2-0.2-0.3-0.3
	c-0.9-0.2-1.7-0.4-2.5-0.8h-0.1c-0.1,0-0.2,0-0.2,0.1C14.1,4.9,14,5,14,5.2c0.2,1.4,0.7,2.8,1.6,4c0.9,1.3,2,2.5,3.2,3.6
	c2.1,2.1,4,4.1,4.2,6.4c0,0.2,0.2,0.4,0.4,0.4h2.4c0.2,0,0.4-0.1,0.4-0.3c0,0,0-0.1,0-0.1c-0.2-1.7-0.8-3.3-1.8-4.7
	c-0.2-0.3-0.5-0.7-0.7-1c-0.1-0.1-0.1-0.3,0-0.4l0.2-0.2c1.2-1.1,2.2-2.3,3.2-3.6c0.9-1.2,1.4-2.6,1.6-4C28.5,5.2,28.4,5,28.3,4.8"
	/>
<path class="st0" d="M18.5,14.6c-0.1-0.1-0.2-0.1-0.3-0.1c-0.1,0-0.3,0.1-0.3,0.2c0,0,0,0,0,0c-0.9,1.3-1.5,2.9-1.6,4.5
	c0,0.2,0.1,0.4,0.3,0.4c0,0,0.1,0,0.1,0h2.4c0.2,0,0.4-0.2,0.4-0.4c0.1-0.8,0.3-1.5,0.7-2.2c0.1-0.2,0.1-0.4,0-0.6
	C19.7,15.9,19.2,15.3,18.5,14.6"/>
<path class="st0" d="M21.1,6h1.4c0.2,0,0.4,0.2,0.4,0.4v0.1c-0.4,0.8-0.8,1.5-1.4,2.1c-0.1,0.1-0.2,0.1-0.3,0.1l0,0
	c-0.1,0-0.2,0-0.3-0.1c-0.6-0.6-1.1-1.3-1.4-2.1V6.4c0-0.2,0.2-0.4,0.4-0.4H21.1z"/>
<path class="st0" d="M4.8,22.3c0-0.1-0.1-0.1-0.2-0.1h-2c-0.1,0-0.1,0-0.2,0.1L0,30v0.2c0,0.1,0.1,0.1,0.2,0.1h1.3
	c0.1,0,0.1,0,0.2-0.1l1.7-5.7c0,0,0-0.1,0.2-0.1s0.2,0.1,0.2,0.1l0.8,2.7h-1c-0.1,0-0.2,0.1-0.2,0.2L3,28.3v0.2
	c0,0.1,0.1,0.1,0.2,0.1H5l0.5,1.5c0,0.1,0.1,0.1,0.2,0.1H7c0.1,0,0.2,0,0.2-0.1v-0.2L4.8,22.3z"/>
<path class="st0" d="M10.5,29c0-0.1,0-0.1-0.1-0.1h-0.2C10,28.9,9.9,29,9.7,29c-0.2,0-0.4-0.1-0.4-0.2c0-0.1,0-0.1,0-0.2v-3h1.2
	c0.1,0,0.2-0.1,0.2-0.2v-0.9c0-0.1-0.1-0.2-0.2-0.2H9.3v-1.4c0-0.1,0-0.2-0.1-0.2c-0.1-0.1-0.1-0.1-0.2,0c0,0,0,0,0,0l-1.2,0.2
	c-0.1,0-0.2,0.1-0.2,0.2v1.3H7c-0.1,0-0.2,0.1-0.2,0.2v0.9c0,0.1,0.1,0.2,0.2,0.2h0.7v3.1c-0.1,0.8,0.5,1.5,1.3,1.6
	c0.1,0,0.3,0,0.4,0c0.4,0,0.8-0.1,1.2-0.2c0.1,0,0.2-0.1,0.1-0.2L10.5,29z"/>
<path class="st0" d="M12.8,22h-1.2c-0.1,0-0.2,0.1-0.2,0.2V30c0,0.1,0.1,0.2,0.2,0.2h1.2c0.1,0,0.2-0.1,0.2-0.2v-7.9
	C12.9,22,12.9,22,12.8,22"/>
<path class="st0" d="M15.9,24.1c-0.6,0-1.3,0.1-1.9,0.2c-0.1,0-0.2,0.1-0.1,0.2l0.1,0.9c0,0.1,0,0.1,0.1,0.1h0.2
	c0.5-0.1,1-0.2,1.5-0.2c0.9,0,1,0.2,1,0.8v0.5h-1.3c-0.8-0.2-1.6,0.4-1.8,1.2c0,0.2,0,0.3,0,0.5c-0.1,0.8,0.4,1.6,1.3,1.8
	c0.1,0,0.2,0,0.3,0c0.6,0,1.2-0.2,1.7-0.5l0.1,0.2c0,0.1,0.1,0.2,0.2,0.2h1c0.1,0,0.2-0.1,0.2-0.2v-3.7
	C18.4,24.7,17.7,24.1,15.9,24.1 M16.8,28v0.7c-0.3,0.2-0.6,0.3-1,0.3c-0.4,0-0.5-0.1-0.5-0.5s0.1-0.5,0.5-0.5H16.8z"/>
<path class="st0" d="M21.4,26.5c-0.8-0.2-0.8-0.2-0.8-0.6s0-0.4,0.7-0.4c0.4,0,1.1,0.1,1.5,0.1H23l0.1-0.1l0.1-0.9
	c0-0.1-0.1-0.2-0.2-0.2c-0.6-0.1-1.1-0.2-1.7-0.2c-1.9,0-2.3,0.7-2.3,1.8s0.2,1.6,1.7,1.9c0.9,0.2,0.9,0.4,0.9,0.7s0,0.5-0.7,0.5
	c-0.5,0-1.1-0.1-1.6-0.2h-0.2L19,29v0.8c0,0.1,0,0.2,0.1,0.2c0.6,0.2,1.3,0.3,1.9,0.3c1.8,0,2.2-0.8,2.2-1.9S23.1,27,21.4,26.5"/>
<path class="st0" d="M26.2,26.5c-0.8-0.2-0.8-0.2-0.8-0.6s0-0.4,0.7-0.4c0.4,0,1.1,0.1,1.5,0.1h0.2l0.1-0.1l0.1-0.9
	c0-0.1-0.1-0.2-0.2-0.2c-0.6-0.1-1.1-0.2-1.7-0.2c-1.9,0-2.3,0.7-2.3,1.8s0.2,1.6,1.7,1.9c0.9,0.2,0.9,0.4,0.9,0.7s0,0.5-0.7,0.5
	c-0.5,0-1.1-0.1-1.6-0.2h-0.2L23.8,29l-0.2,0.9c0,0.1,0,0.2,0.1,0.2c0.6,0.2,1.3,0.3,1.9,0.3c1.8,0,2.2-0.8,2.2-1.9
	C28,27.2,27.8,27,26.2,26.5"/>
<path class="st0" d="M30.1,22h-1.2c-0.1,0-0.2,0.1-0.2,0.2v1.1c0,0.1,0.1,0.2,0.2,0.2h1.2c0.1,0,0.2-0.1,0.2-0.2v-1.1
	C30.3,22.1,30.2,22,30.1,22"/>
<path class="st0" d="M30.1,24.2h-1.2c-0.1,0-0.2,0.1-0.2,0.2V30c0,0.1,0.1,0.2,0.2,0.2h1.2c0.1,0,0.2-0.1,0.2-0.2v-5.6
	C30.3,24.3,30.2,24.2,30.1,24.2"/>
<path class="st0" d="M33.3,24.1c-0.6,0-1.3,0.1-1.9,0.2c-0.1,0-0.2,0.1-0.1,0.2l0.1,0.9c0,0.1,0,0.1,0.1,0.1h0.2
	c0.5-0.1,1-0.2,1.5-0.2c0.9,0,1,0.2,1,0.8v0.5h-1.3c-0.8-0.2-1.6,0.4-1.8,1.2c0,0.2,0,0.3,0,0.5c-0.1,0.8,0.4,1.6,1.3,1.8
	c0.1,0,0.2,0,0.3,0c0.6,0,1.2-0.2,1.7-0.5l0.1,0.2c0,0.1,0.1,0.2,0.2,0.2h1c0.1,0,0.2-0.1,0.2-0.2v-3.7
	C35.7,24.7,35.1,24.1,33.3,24.1 M34.1,28v0.7c-0.3,0.2-0.6,0.3-1,0.3c-0.4,0-0.5-0.1-0.5-0.5s0.1-0.5,0.5-0.5H34.1z"/>
<path class="st0" d="M40.2,24.1c-0.8,0-1.6,0.2-2.3,0.6l-0.1-0.3c0-0.1-0.1-0.1-0.2-0.1h-0.9c-0.1,0-0.2,0.1-0.2,0.2V30
	c0,0.1,0.1,0.2,0.2,0.2H38c0.1,0,0.2-0.1,0.2-0.2v-3.9c0.4-0.2,0.9-0.4,1.4-0.5c0.2,0,0.4,0.1,0.4,0.2c0,0.1,0,0.1,0,0.2v4
	c0,0.1,0.1,0.2,0.2,0.2h1.2c0.1,0,0.2-0.1,0.2-0.2v-4.1C41.6,24.7,41.2,24.1,40.2,24.1"/>
</svg>
