<?xml version="1.0" encoding="utf-8"?>
<!-- Generator: Adobe Illustrator 20.0.0, SVG Export Plug-In . SVG Version: 6.00 Build 0)  -->
<svg version="1.1" id="Layer_1" xmlns="http://www.w3.org/2000/svg" xmlns:xlink="http://www.w3.org/1999/xlink" x="0px" y="0px"
	 viewBox="0 0 1100 1000" style="enable-background:new 0 0 1100 1000;" xml:space="preserve">
<style type="text/css">
	.st0{fill:#6E6E6E;}
</style>
<title>amazon-icon</title>
<path class="st0" d="M2,776c3.3-5.3,8.7-5.7,16-1c166.7,96.7,348,145,544,145c130.7,0,259.7-24.3,387-73c3.3-1.3,8.2-3.3,14.5-6
	s10.8-4.7,13.5-6c10-4,17.8-2,23.5,6s3.8,15.3-5.5,22c-12,8.7-27.3,18.7-46,30c-57.3,34-121.3,60.3-192,79s-139.7,28-207,28
	c-104,0-202.3-18.2-295-54.5C163.4,909.8,79,857.8,6,792c-4-3.3-6-6.7-6-10C0,779.8,0.7,777.8,2,776z M303,491
	c0-46,11.3-85.3,34-118s53.7-57.3,93-74c36-15.3,80.3-26.3,133-33c18-2,47.3-4.7,88-8v-17c0-42.7-4.7-71.3-14-86c-14-20-36-30-66-30
	h-8c-22,2-41,9-57,21s-26.3,28.7-31,50c-2.7,13.3-9.3,21-20,23l-115-14c-11.3-2.7-17-8.7-17-18c0.1-2.4,0.4-4.7,1-7
	c11.3-59.3,39.2-103.3,83.5-132S503.7,3.3,563,0h25c76,0,135.3,19.7,178,59c6.7,6.7,12.9,13.9,18.5,21.5c4.9,6.5,9.4,13.4,13.5,20.5
	c3.3,6,6.3,14.7,9,26s4.7,19.2,6,23.5s2.3,13.7,3,28s1,22.8,1,25.5v242c0,17.3,2.5,33.2,7.5,47.5s9.8,24.7,14.5,31
	s12.3,16.5,23,30.5c4,6,6,11.3,6,16c0,5.3-2.7,10-8,14c-55.3,48-85.3,74-90,78c-8,6-17.7,6.7-29,2c-9.3-8-17.5-15.7-24.5-23
	s-12-12.7-15-16s-7.8-9.8-14.5-19.5s-11.3-16.2-14-19.5c-37.3,40.7-74,66-110,76c-22.7,6.7-50.7,10-84,10
	c-51.3,0-93.5-15.8-126.5-47.5S303,549,303,491z M475,471c0,26,6.5,46.8,19.5,62.5S525,557,547,557c2.9-0.1,5.7-0.4,8.5-1
	c2.5-0.5,5-0.9,7.5-1c28-7.3,49.7-25.3,65-54c7.5-13,13-26.9,16.5-41.5c3.7-15,5.7-27.2,6-36.5s0.5-24.7,0.5-46v-25
	c-38.7,0-68,2.7-88,8C504.3,376.7,475,413.7,475,471z M895,793c1.6-3,3.6-5.7,6-8c16.7-11.3,32.7-19,48-23c24.2-6.5,49-10.2,74-11
	c6.3-0.7,12.8-0.3,19,1c30,2.7,48,7.7,54,15c2.7,4,4,10,4,18v7c0,23.3-6.3,50.8-19,82.5s-30.3,57.2-53,76.5c-3.3,2.7-6.3,4-9,4
	c-1.4,0-2.8-0.4-4-1c-4-2-5-5.7-3-11c24.7-58,37-98.3,37-121c0-7.3-1.3-12.7-4-16c-6.7-8-25.3-12-56-12c-11.3,0-24.7,0.7-40,2
	c-16.7,2-32,4-46,6c-4,0-6.7-0.7-8-2s-1.7-2.7-1-4C894.1,794.9,894.5,793.9,895,793z"/>
</svg>
