<?xml version="1.0" encoding="utf-8"?>
<!-- Generator: Adobe Illustrator 20.0.0, SVG Export Plug-In . SVG Version: 6.00 Build 0)  -->
<svg version="1.1" id="Layer_1" xmlns="http://www.w3.org/2000/svg" xmlns:xlink="http://www.w3.org/1999/xlink" x="0px" y="0px"
	 viewBox="0 0 71.8 25.2" style="enable-background:new 0 0 71.8 25.2;" xml:space="preserve">
<style type="text/css">
	.st0{fill:#6E6E6E;}
</style>
<title>logo_22</title>
<path class="st0" d="M13.5,11.3v4.6c-0.1,0.9,0.5,1.7,1.3,1.8c0.2,0,0.3,0,0.5,0h0.5c0.9,0.1,1.7-0.5,1.8-1.3c0-0.2,0-0.3,0-0.5
	v-2.3h2.7v2.2c0,3-1.5,4.5-4.5,4.5h-0.6c-3,0-4.5-1.5-4.5-4.1V4.8c0-3.3,1.5-4.8,4.5-4.8h0.6c3,0,4.5,1.5,4.5,4.5v6.8H13.5z
	 M13.6,8.6h4V4.4c0.1-0.9-0.5-1.7-1.3-1.8c-0.2,0-0.3,0-0.5,0h-0.4c-0.9-0.1-1.7,0.5-1.8,1.3c0,0.2,0,0.3,0,0.5
	C13.6,4.4,13.6,8.6,13.6,8.6z"/>
<path class="st0" d="M22.1,0.2h2.8v1.3C25.8,0.6,27,0,28.3,0c2.4,0,3.6,1.6,3.6,3.9v12.4c0,2.4-1.2,3.9-3.6,3.9
	c-1.3,0-2.5-0.5-3.4-1.4v6.4h-2.8V0.2z M24.9,16.6c0.7,0.6,1.6,1,2.6,1c0.8,0.1,1.5-0.5,1.6-1.2c0-0.1,0-0.2,0-0.4V4.3
	c0.1-0.8-0.5-1.5-1.2-1.6c-0.1,0-0.2,0-0.4,0c-1,0-1.9,0.4-2.6,1V16.6z"/>
<path class="st0" d="M33.6,13.2c0-2.5,0.8-3.5,2.9-4.2l3.8-1.3V4.4c0.1-0.9-0.5-1.7-1.3-1.8c-0.2,0-0.3,0-0.5,0H38
	c-0.9-0.1-1.7,0.5-1.8,1.3c0,0.2,0,0.3,0,0.5v2.8h-2.7V4.5C33.5,1.5,35,0,38,0h0.5c3,0,4.5,1.5,4.5,4.5v15.6h-2.8v-1.2
	c-0.9,0.9-2.1,1.5-3.4,1.5c-2.2,0-3.3-1.3-3.3-3.5L33.6,13.2L33.6,13.2z M40.3,16.7v-6.5l-2.5,1c-0.9,0.2-1.5,1.1-1.4,2.1v3
	c-0.1,0.7,0.3,1.3,1,1.4c0.1,0,0.3,0,0.4,0C38.7,17.6,39.6,17.2,40.3,16.7z"/>
<path class="st0" d="M54.4,20.1h-2.8v-16c0.1-0.6-0.3-1.3-1-1.4c-0.1,0-0.2,0-0.3,0c-1,0-1.9,0.4-2.6,1v16.4h-2.8V0.2h2.8v1.3
	C48.6,0.6,49.8,0,51.1,0c1.2-0.1,2.3,0.5,2.9,1.6c1-1,2.4-1.5,3.8-1.6c2.2,0,3.3,1.3,3.3,3.5v16.6h-2.8v-16c0.1-0.6-0.3-1.3-1-1.4
	c-0.1,0-0.2,0-0.3,0c-1,0-1.9,0.4-2.6,1V20.1z"/>
<path class="st0" d="M7.2,2v3.6l-4.7,4.5l4.7,4.4v3.7L0,11.6V8.9L7.2,2z"/>
<path class="st0" d="M71.8,8.9v2.7l-7.2,6.7v-3.7l4.7-4.4l-4.7-4.5V2L71.8,8.9z"/>
</svg>
