<?xml version="1.0" encoding="utf-8"?>
<!-- Generator: Adobe Illustrator 20.0.0, SVG Export Plug-In . SVG Version: 6.00 Build 0)  -->
<svg version="1.1" id="Layer_1" xmlns="http://www.w3.org/2000/svg" xmlns:xlink="http://www.w3.org/1999/xlink" x="0px" y="0px"
	 viewBox="0 0 45.9 20.7" style="enable-background:new 0 0 45.9 20.7;" xml:space="preserve">
<style type="text/css">
	.st0{fill:#6E6E6E;}
</style>
<title>logo_7</title>
<path class="st0" d="M42.2,10.4c1,2.7,2.9,9.7,3.7,10.3h-5.2c0-0.6-0.1-1.2-0.2-1.8c-0.2-0.8-2.1-6.9-2.1-6.9h-8.3l-1.3,1.8
	c0,0,1.6,4.9,1.7,5.1c0.2,0.4,0.9,1.7,0.9,1.7h-5c0,0-0.1-0.7-0.2-1.1c-0.1-0.5-0.3-1.1-0.5-1.6c-0.5,0.6-1,1.2-1.4,1.8
	c-0.1,0.3-0.3,0.6-0.5,0.9h-3.9c0,0-0.1-0.7-0.2-1.1c0-0.2-0.5-1.7-0.5-1.7c-0.5,0.6-1,1.2-1.4,1.9c-0.2,0.3-0.3,0.6-0.4,0.9h-3.9
	c0.5-0.5,1-1,1.5-1.5c0.6-0.8,3-3.9,3-3.9l-1-3.3H8.9c0,0-4.7,6.1-4.9,6.3c-0.6,0.8-1.1,1.6-1.6,2.4H0v-1.5L0.1,19
	c0.1-0.1,3.5-4.4,6.7-8.6c2.9-3.7,5.6-7.3,5.8-7.7c0.5-0.8,1-1.7,1.4-2.6h4.2c0,0.7,0.1,1.3,0.3,2c0.1,0.4,2.7,8.8,2.8,8.9l1.4-1.8
	l-2.4-7.5c-0.2-0.6-0.5-1.1-0.8-1.6h5c0,0.4,0.1,0.9,0.2,1.3C24.9,2,26,5.9,26,5.9s3.4-4.2,3.6-4.5c0.1-0.4,0.2-0.9,0.3-1.3H34
	c-0.8,0.7-1.5,1.4-2.1,2.2c-0.4,0.6-4.8,6.1-4.8,6.1s0.4,1.3,0.6,1.9c0.1,0.1,0.1,0.2,0.1,0.3l0.3-0.3c1.1-1.4,6.2-8.1,6.6-8.7
	c0.3-0.5,0.6-1,0.8-1.6h4c0,0.5,0.1,1,0.2,1.5L42.2,10.4z M36.1,4c-1.2,1.9-2.6,3.8-4.1,5.5h5.5c0,0-1.1-3.3-1.3-4
	C36.1,5,36.1,4.5,36.1,4C36.1,4,36.1,4,36.1,4z M14.9,4c-1.2,1.9-2.6,3.8-4.1,5.5h5.5c0,0-1.1-3.3-1.3-4C14.9,5,14.9,4.5,14.9,4
	C14.9,4,14.9,4,14.9,4z M23.2,16.9l1.5-2.1c-0.1-0.1-1-2.7-1-2.7L22.2,14L23.2,16.9z"/>
</svg>
