<?xml version="1.0" encoding="utf-8"?>
<!-- Generator: Adobe Illustrator 20.0.0, SVG Export Plug-In . SVG Version: 6.00 Build 0)  -->
<svg version="1.1" id="Layer_1" xmlns="http://www.w3.org/2000/svg" xmlns:xlink="http://www.w3.org/1999/xlink" x="0px" y="0px"
	 viewBox="0 0 91.2 21.1" style="enable-background:new 0 0 91.2 21.1;" xml:space="preserve">
<style type="text/css">
	.st0{fill:#6E6E6E;}
</style>
<title>logo_6</title>
<path class="st0" d="M23.3,13.7h2.1c0.5-0.1,1,0.2,1.1,0.6c0,0.1,0,0.2,0,0.4c0.1,0.5-0.3,0.9-0.7,1c-0.1,0-0.2,0-0.4,0h-2.1V13.7z
	 M20,20.7h3.3v-2.9h3.5c1.6,0.2,3-0.9,3.2-2.5c0-0.2,0-0.4,0-0.6c0-2-0.9-3.2-3.2-3.2h-6.7v9.2C20.1,20.7,20,20.7,20,20.7z"/>
<path class="st0" d="M31,11.5h8.8v2.2h-5.5V15h5.1v2.2h-5.1v1.2h5.5v2.2H31V11.5z"/>
<path class="st0" d="M44.5,13.7h2.1c0.5-0.1,1,0.2,1.1,0.6c0,0.1,0,0.2,0,0.4c0.1,0.5-0.3,0.9-0.7,1c-0.1,0-0.2,0-0.4,0h-2.1V13.7z
	 M41.2,20.7h3.3v-2.9H48c1.6,0.2,3-0.9,3.2-2.5c0-0.2,0-0.4,0-0.6c0-2-0.9-3.2-3.2-3.2h-6.7v9.2C41.3,20.7,41.2,20.7,41.2,20.7z"/>
<path class="st0" d="M54.3,16.8c-1.3-0.1-2.4-1.3-2.3-2.6c0-2.4,2.1-3,4.8-3c3.7,0,5.2,1.1,5.3,3h-3.8c0-0.3-0.2-0.6-0.5-0.7
	c-0.3-0.1-0.7-0.2-1-0.2c-1,0-1.3,0.3-1.3,0.7c0,0.2,0.1,0.5,0.4,0.5c0,0,0,0,0,0l3.9,0.6c1.6,0.3,2.7,1.1,2.7,2.7
	c0,2.2-1.6,3.3-5.3,3.3c-2.5-0.1-5.3-0.4-5.3-3.1h4c0,0.3,0.1,0.5,0.3,0.7c0.3,0.1,0.7,0.2,1.1,0.2c1,0,1.3-0.3,1.3-0.7
	c0-0.3-0.3-0.6-0.6-0.6L54.3,16.8z"/>
<path class="st0" d="M63.6,11.5h3.3v9.2h-3.3V11.5z"/>
<path class="st0" d="M79,17.1c-0.1,1.1-0.6,2.1-1.4,2.9c-0.8,0.7-2.1,1-4,1s-5.7-0.2-5.7-4.9s3.7-4.9,5.7-4.9s5,0.3,5.4,3.9h-3.7
	c0-0.9-0.8-1.6-1.7-1.6c-1.3,0-2.2,0.7-2.2,2.6s0.8,2.6,2,2.6c1,0,1.8-0.7,1.9-1.6C75.3,17.1,79,17.1,79,17.1z"/>
<path class="st0" d="M83.2,16.1c0-1.9,0.8-2.6,2.2-2.6s2.2,0.7,2.2,2.6s-0.8,2.6-2.2,2.6S83.2,18,83.2,16.1z M79.8,16.1
	c0,4.8,3.7,4.9,5.7,4.9s5.7-0.2,5.7-4.9s-3.7-4.9-5.7-4.9S79.8,11.4,79.8,16.1z"/>
<path class="st0" d="M15.1,11.6c-0.1-5-3.8-9.3-8.8-10V1.5c5.1,0,9,4.7,9,8.5C15.4,10.5,15.3,11.1,15.1,11.6L15.1,11.6z M14.8,12.2
	c-0.4,0.4-0.8,0.9-1.3,1.2C12.6,8.1,8.7,3.5,5.9,2.1v0.1c3.5,3,6.1,7,7.4,11.5c-0.6,0.5-1.3,0.9-2.1,1.2C8.4,11.2,6.4,7,5.4,2.5H5.3
	C5.2,6,7.7,12,10.8,15c-0.7,0.3-1.4,0.5-2.2,0.6c-2.9-1.2-5-4.9-5-8.7c0-1.5,0.3-3,0.9-4.4H4.4C3.5,3.8,3.1,5.4,3.1,7
	c0,4.3,2.1,7.6,5,8.7c-1,0.1-2,0.1-3-0.1v0.1C6,16,7,16.2,8,16.2C10.8,16.1,13.4,14.6,14.8,12.2C14.8,12.2,14.8,12.2,14.8,12.2z"/>
<path class="st0" d="M7.6,0C4.9,0,1.8,1.9,1.8,3.7C1.8,4.4,2.4,5,3.7,5c3,0,5.8-2.1,5.8-3.7C9.5,0.4,8.7,0,7.6,0z M8.7,1.2
	c0,1.4-2.6,3-4.8,3c-1,0-1.5-0.4-1.5-1c0-1.4,2.6-3,4.7-3C8.4,0.3,8.7,0.9,8.7,1.2z"/>
<path class="st0" d="M0.7,4.5C0.5,4.9,0.3,5.4,0.3,5.9C0.3,7,1.4,8,3.5,8c4,0,8.7-3,8.7-5.7c-0.1-1.1-0.9-1.9-2-2l0,0
	c0.7,0.2,1.2,0.9,1.2,1.6c0,2.2-4.1,5.2-8.2,5.2c-1.6,0-2.6-0.8-2.6-1.9C0.6,5,0.7,4.7,0.7,4.5L0.7,4.5z"/>
<path class="st0" d="M13.9,2.5c0.5,0.4,0.8,1,0.8,1.7c0,3.6-5.6,7.1-10.5,7.1c-2.9,0-4.3-1.5-4.2-2.7h0.1c0.1,0.7,1.1,1.9,3.6,1.9
	c4.9,0,10.5-3.6,10.5-6.8C14.1,3.1,13.9,2.7,13.9,2.5C13.9,2.5,13.9,2.5,13.9,2.5z"/>
<path class="st0" d="M15.7,5.8c0.1,0.3,0.1,0.6,0.1,0.9c0,4-5.6,7.3-10.6,7.3c-1.6,0.1-3.1-0.5-4.1-1.7l0,0c1.1,0.8,2.4,1.2,3.8,1.2
	C9.3,13.5,15.7,10.2,15.7,5.8L15.7,5.8z"/>
</svg>
