<?xml version="1.0" encoding="utf-8"?>
<!-- Generator: Adobe Illustrator 20.0.0, SVG Export Plug-In . SVG Version: 6.00 Build 0)  -->
<svg version="1.1" id="Layer_1" xmlns="http://www.w3.org/2000/svg" xmlns:xlink="http://www.w3.org/1999/xlink" x="0px" y="0px"
	 viewBox="0 0 58.3 44.3" style="enable-background:new 0 0 58.3 44.3;" xml:space="preserve">
<style type="text/css">
	.st0{fill:#6E6E6E;}
	.st1{fill:#545454;}
	.st2{fill:#727272;}
	.st3{fill:#424242;}
	.st4{fill:#333232;}
</style>
<title>d</title>
<path class="st0" d="M39.5,29.3c-1.9,0.3-2.8,1.7-2.8,4.1s1.3,4.1,3.2,4.1c0.9,0,1.7-0.3,3.5-1.2v2c-1.5,0.8-3.3,1.3-5,1.3
	c-1.6,0.1-3.1-0.5-4.2-1.6c-1.1-1.1-1.7-2.6-1.6-4.1c0-3.5,2.6-5.9,6.4-5.9c2.5,0,4.3,1.2,4.3,2.8c0,1-0.8,1.8-1.8,1.8
	c-0.1,0-0.2,0-0.2,0c-0.6,0-1.2-0.2-1.8-0.5C39.5,32.1,39.5,29.3,39.5,29.3z"/>
<path class="st0" d="M30.3,33.9c1.7-2.1,2.3-3,2.3-4c0-1-0.9-1.9-1.9-1.9c-0.6,0-1.2,0.2-1.6,0.7V33l-2.8,3.7v-8.4h-2.6l-4.4,7.2
	v-7.2h-1.5l-4,1v1l2.2,0.2v8.9h2.8l4.2-6.9v6.9h3L30.3,33.9z"/>
<path class="st0" d="M5.5,38h0.6c2.2,0,3.5-1.4,3.5-4.1c0-2.3-1-3.5-2.8-3.5c-0.4,0-0.9,0-1.3,0.1V38z M5.5,42.9l1.8,0.4v1H0.2v-1
	l1.6-0.4V30.5H0v-1.1l4.3-1.3h1.1v1.5c2-1.2,2.7-1.4,3.8-1.4c2.4,0,4.2,2.2,4.2,5.3c0.2,3.1-2.2,5.8-5.4,6c-0.2,0-0.5,0-0.7,0
	c-0.6,0-1.3,0-1.9-0.1v3.5H5.5z"/>
<rect x="37.1" y="13.6" class="st1" width="21.2" height="5.4"/>
<rect x="37.1" y="2.1" class="st2" width="13" height="16.9"/>
<rect x="37.1" class="st1" width="10.8" height="19"/>
<rect x="37.1" y="5.4" class="st3" width="18.5" height="13.6"/>
<rect x="37.1" y="10.9" class="st4" width="6.8" height="8.2"/>
<rect x="26.3" y="19" class="st0" width="10.9" height="2.7"/>
</svg>
