<?xml version="1.0" encoding="utf-8"?>
<!-- Generator: Adobe Illustrator 20.0.0, SVG Export Plug-In . SVG Version: 6.00 Build 0)  -->
<svg version="1.1" id="Layer_1" xmlns="http://www.w3.org/2000/svg" xmlns:xlink="http://www.w3.org/1999/xlink" x="0px" y="0px"
	 viewBox="0 0 81.4 26.8" style="enable-background:new 0 0 81.4 26.8;" xml:space="preserve">
<style type="text/css">
	.st0{fill:#6E6E6E;}
</style>
<title>Google</title>
<path class="st0" d="M34.8,14.1c0,3.7-3,6.7-6.7,6.7s-6.7-3-6.7-6.7l0,0c0-3.7,3-6.7,6.7-6.7C31.8,7.4,34.8,10.4,34.8,14.1z
	 M31.9,14.1c0.2-2.1-1.4-3.9-3.5-4.1c-2.1-0.2-3.9,1.4-4.1,3.5c0,0.2,0,0.4,0,0.6c-0.1,2.1,1.5,4,3.6,4.1c0.1,0,0.1,0,0.2,0
	C30.3,18.1,32,16.3,31.9,14.1C31.9,14.1,31.9,14.1,31.9,14.1z"/>
<path class="st0" d="M49.3,14.1c0,3.7-3,6.7-6.7,6.7c-3.7,0-6.7-3-6.7-6.7c0-3.7,3-6.7,6.7-6.7C46.3,7.4,49.3,10.4,49.3,14.1z
	 M46.4,14.1c0.2-2.1-1.4-3.9-3.5-4.1c-2.1-0.2-3.9,1.4-4.1,3.5c0,0.2,0,0.4,0,0.6c-0.1,2.1,1.5,4,3.6,4.1c0.1,0,0.1,0,0.2,0
	C44.8,18.1,46.5,16.3,46.4,14.1C46.4,14.1,46.4,14.1,46.4,14.1z"/>
<path class="st0" d="M63.2,7.8v12c0,4.9-2.9,7-6.4,7c-2.6,0-4.9-1.5-5.9-3.9l2.6-1.1c0.6,1.4,1.9,2.3,3.4,2.4c2.2,0,3.6-1.4,3.6-3.9
	v-1h-0.1c-0.9,1-2.2,1.5-3.5,1.5c-3.7-0.2-6.5-3.4-6.3-7.1c0.2-3.4,2.9-6.1,6.3-6.3c1.3-0.1,2.6,0.5,3.5,1.5h0.1V7.8H63.2z
	 M60.6,14.1c0-2.4-1.6-4.1-3.6-4.1c-2.1,0.1-3.8,1.9-3.7,4c0,0,0,0.1,0,0.1c-0.1,2.1,1.5,3.9,3.7,4c0,0,0,0,0,0
	C59,18.2,60.6,16.5,60.6,14.1z"/>
<path class="st0" d="M67.8,0.8v19.6h-2.9V0.8H67.8z"/>
<path class="st0" d="M79,16.3l2.3,1.5c-1.2,1.9-3.3,3-5.6,3c-3.6,0.1-6.5-2.8-6.6-6.4c0-0.1,0-0.2,0-0.3c-0.2-3.5,2.5-6.5,6-6.7
	c0.1,0,0.2,0,0.3,0c2.6,0.1,4.9,1.8,5.7,4.3l0.3,0.8l-8.9,3.7c0.6,1.2,1.8,2,3.2,2C77.1,18.2,78.3,17.4,79,16.3z M71.9,13.9l6-2.5
	c-0.5-0.9-1.5-1.5-2.5-1.4C73.4,10.1,71.8,11.8,71.9,13.9C71.9,13.9,71.9,13.9,71.9,13.9z"/>
<path class="st0" d="M10.5,12.4V9.5h9.6c0.1,0.6,0.1,1.1,0.1,1.7c0.1,2.4-0.8,4.8-2.5,6.6c-1.9,1.9-4.5,3-7.2,2.9
	C4.8,20.8,0.1,16.2,0,10.4c0,0,0,0,0,0C0.1,4.6,4.7,0,10.5,0c2.7-0.1,5.2,1,7.1,2.9l-2,2c-1.4-1.3-3.2-2-5.1-2C6.4,2.9,3,6.3,3,10.4
	c0,0,0,0.1,0,0.1c0,4.1,3.3,7.5,7.4,7.6c0,0,0.1,0,0.1,0c2,0.1,3.9-0.7,5.2-2.1c0.9-1,1.4-2.2,1.5-3.5L10.5,12.4z"/>
</svg>
