<?xml version="1.0" encoding="utf-8"?>
<!-- Generator: Adobe Illustrator 20.0.0, SVG Export Plug-In . SVG Version: 6.00 Build 0)  -->
<svg version="1.1" id="Layer_1" xmlns="http://www.w3.org/2000/svg" xmlns:xlink="http://www.w3.org/1999/xlink" x="0px" y="0px"
	 viewBox="0 0 192.8 118.5" style="enable-background:new 0 0 192.8 118.5;" xml:space="preserve">
<style type="text/css">
	.st0{fill:#6E6E6E;}
</style>
<g>
	<path class="st0" d="M187.5,82c1.1,0,2,0.8,2.1,1.9s-0.8,2-1.9,2.1c-1.1,0-2-0.8-2.1-1.9c0,0,0,0,0-0.1
		C185.6,82.9,186.4,82,187.5,82C187.4,82,187.4,82,187.5,82v-0.4c-1.3,0-2.4,1.1-2.4,2.4s1.1,2.4,2.4,2.4c1.3,0,2.4-1.1,2.4-2.4
		s-1.1-2.4-2.4-2.4l0,0V82L187.5,82z"/>
	<path class="st0" d="M187,83h0.6c0.3,0,0.6,0.1,0.6,0.4s-0.3,0.4-0.7,0.4H187v0.4h0.5l0.7,1.2h0.5l-0.8-1.2c0.4,0,0.7-0.3,0.7-0.7
		c0,0,0,0,0-0.1c0-0.4-0.3-0.8-0.7-0.8c-0.1,0-0.2,0-0.3,0h-1v2.7h0.4L187,83L187,83L187,83z"/>
	<path class="st0" d="M131.1,2.9c-13.1,0-25.9,4.6-36,13c-24-19.8-59.5-16.5-79.3,7.5s-16.5,59.5,7.5,79.3c20.8,17.2,51,17.2,71.8,0
		c24,19.8,59.5,16.5,79.3-7.5c8.4-10.1,12.9-22.8,12.9-35.9l0,0C187.4,28.2,162.2,3,131.1,2.9z M171.5,92.3
		c-18.2,22.3-51,25.7-73.4,7.5c7-6.7,12.1-15,14.9-24.3h-4.3c-2.7,8.2-7.4,15.6-13.7,21.6c-6.2-5.9-10.9-13.4-13.6-21.5h-4.3
		c2.8,9.2,7.8,17.5,14.8,24.2c-19.2,15.7-46.8,15.7-66,0C3.5,81.5,0.2,48.6,18.4,26.3s51.1-25.7,73.4-7.4c-6.9,6.7-12,15-14.8,24.2
		h4.3c2.8-8.2,7.5-15.6,13.7-21.6c6.3,5.9,11,13.4,13.7,21.6h4.3c-2.8-9.2-7.9-17.6-14.9-24.3c9.3-7.6,21-11.7,33-11.7
		c28.8,0,52.1,23.4,52.1,52.2l0,0l0,0l0,0C183.3,71.3,179.1,82.9,171.5,92.3z"/>
	<path class="st0" d="M144.9,71.5l3.6-19.3h4.6l0.5,1.9c1.3-1.3,3.1-2,5-1.9l-1.4,5c-1.3,0-3.7-0.3-5.3,5.4l-1.6,8.8L144.9,71.5
		L144.9,71.5z"/>
	<path class="st0" d="M75.1,47.3h5.2l-1.1,5.1H82l-0.9,4.2h-2.7l-1.5,7.8c-0.3,1.5-0.1,2.8,2.9,2.4l-0.3,3.9c-1.2,0.7-2.5,1-3.9,0.9
		c-1.2,0-5.2-0.7-4.2-6L75.1,47.3L75.1,47.3L75.1,47.3z"/>
	<path class="st0" d="M90.6,52.1c-8.5,0-9.6,8.4-9.8,9.6c-0.2,1.2-0.3,9.8,8.8,9.8c2.2,0.1,5.5-0.2,6.7-0.9l0.8-4
		c-2,0.3-3.9,0.5-5.9,0.5c-2.1,0-5.5,0.1-4.8-4.2h11.5l0,0C98.4,59.8,99.8,52.1,90.6,52.1z M93.2,59.4h-6.5c0.6-2.4,2.1-3.5,4.2-3.5
		S93.6,57.5,93.2,59.4z"/>
	<path class="st0" d="M70.1,56.7l1.2-3.9c-1.7-0.6-3.4-0.9-5.2-0.7c-0.7,0-7-0.1-8,4.6c-0.7,3.6,0.6,5,1.8,5.6
		c2,0.9,3.2,1.7,4.2,2.2c0.8,0.4,1.1,1.3,0.7,2c-0.3,0.5-0.8,0.9-1.4,0.9c-0.8,0-4.3,0.4-6.9-0.5l-0.7,4c2,0.5,4.1,0.7,6.2,0.7
		c1.3,0,7.5,0.3,8.4-5.4c0.4-2.8-0.8-4.1-1.8-4.7c-1.2-0.8-2.5-1.5-3.8-2.2c-1.1-0.5-1.9-2.3,0.1-2.8C66.6,56.2,68.4,56.3,70.1,56.7
		L70.1,56.7L70.1,56.7z"/>
	<polygon class="st0" points="36,71.5 40.4,48.2 31.8,48.2 25.4,62.4 24.4,48.2 15.9,48.2 11.4,71.5 16.7,71.5 19.9,54.7 21.3,71.5 
		26.3,71.5 33.7,55.1 30.6,71.5 	"/>
	<path class="st0" d="M48.7,52c-2.3,0-4.6,0.2-6.9,0.7l0,0L41,56.9c2.2-0.3,4.3-0.5,6.5-0.6c1.8,0.1,3.8-0.2,3.2,2.7
		c-1.4,0.1-10.8-1.3-12.2,6.7c-0.6,4,2.8,6,5.5,5.9s3.4-0.5,4.4-1.1l0.7,1.1H54l2.1-10.5C56.6,58.4,57.5,52,48.7,52z M49.5,65
		c-0.3,1.8-2.8,2.9-4.5,2.2s-1.3-2.7,0.4-3.8c1.7-1.1,3.6-0.6,4.5-0.5L49.5,65z"/>
	<path class="st0" d="M126.9,53.6c-1.2-0.7-2.6-1.1-4-0.9c-3.4,0.4-6,3-6.4,6.4c-0.9,5.6,3,8.3,8.3,6.5l1.6,4.7
		c-2,0.9-4.2,1.3-6.4,1.2c-5.4,0-11.4-4.8-8.7-14.7c2-7.2,8.2-9.9,11.8-9.8c4.3,0.2,5.9,1.6,7.2,3.1L126.9,53.6L126.9,53.6
		L126.9,53.6z"/>
	<path class="st0" d="M173.1,47l-1.4,7.4c-1-0.7-1.6-2.3-4.1-2.3c-2.9,0-7.4-0.5-10,8.2c-1.7,5.9,1.8,11.2,5.5,11.2
		c1.6-0.1,3.2-0.6,4.6-1.5l0.7,1.5h5.7l4.6-24.5C178.7,47,173.1,47,173.1,47z M169.8,62.3c-1,2.4-2.3,3.9-4.1,3.9s-3.4-2.1-2.7-4.8
		c1.1-4.2,4.8-5.9,6.5-3.8C170.2,59.1,170.3,60.7,169.8,62.3z"/>
	<path class="st0" d="M137.5,52c-2.3,0-4.6,0.2-6.9,0.7l0,0l-0.8,4.2c2.2-0.3,4.3-0.5,6.5-0.6c1.8,0.1,3.8-0.2,3.2,2.7
		c-1.3,0.1-10.8-1.4-12.2,6.7c-0.6,4,2.8,6,5.5,5.9s3.4-0.5,4.4-1.1l0.7,1.1h4.9l2.1-10.5C145.5,58.4,146.4,52,137.5,52z M138.3,65
		c-0.3,1.8-2.8,2.9-4.5,2.2s-1.3-2.7,0.4-3.8c1.7-1.1,3.6-0.6,4.5-0.5L138.3,65z"/>
	<path class="st0" d="M98,71.5l3.6-19.1h4.5l0.5,1.9c1.3-1.3,3.1-2,5-1.9l-1.3,5c-1.3,0-3.8-0.4-5.3,5.3l-1.6,8.8H98L98,71.5z"/>
</g>
</svg>
