<?xml version="1.0" encoding="utf-8"?>
<!-- Generator: Adobe Illustrator 20.0.0, SVG Export Plug-In . SVG Version: 6.00 Build 0)  -->
<svg version="1.1" id="Layer_1" xmlns="http://www.w3.org/2000/svg" xmlns:xlink="http://www.w3.org/1999/xlink" x="0px" y="0px"
	 viewBox="0 0 68.4 24.4" style="enable-background:new 0 0 68.4 24.4;" xml:space="preserve">
<style type="text/css">
	.st0{fill:#6E6E6E;}
</style>
<title>43</title>
<path class="st0" d="M18.4,7.1L18,7.5L18.4,9L17,8.3l-0.5,0.4l1.6,0.8l-1.7,1.3L16,10.2l0.6-0.5l-0.4-0.5l-0.6,0.5l-0.4-0.6l0.6-0.5
	L15.4,8l-3,2.5l2.9,2.3l0.5-0.6c0.4,0,0.7,0.3,0.8,0.6l-0.5,0.6l0.3,0.2c0.7-0.6,1.6-1,2.6-1.1c2,0,3.6,1.7,3.6,3.7
	c0,0.7-0.2,1.4-0.5,2l0.5,0.4c-0.1,0.4-0.4,0.8-0.8,0.9l-0.5-0.4c-0.7,0.7-1.6,1.1-2.6,1.1c-2,0-3.6-1.6-3.6-3.6c0,0,0-0.1,0-0.1
	c0-0.7,0.2-1.3,0.5-1.9l-0.3-0.3L14.8,15c-0.4,0-0.7-0.3-0.8-0.7l0.5-0.6l-2.4-2v3.2h0.8c0.1,0.1,0.2,0.3,0.2,0.5
	c0,0.2-0.1,0.3-0.1,0.5h-0.8v0.4c1.8,0.3,3.2,1.8,3.3,3.6c-0.1,1.9-1.4,3.4-3.3,3.7v0.6c-0.2,0.1-0.4,0.2-0.6,0.2
	c-0.2,0-0.5-0.1-0.7-0.2v-0.6c-2-0.3-3.4-2.1-3.2-4.1c0.2-1.7,1.5-3,3.2-3.2v-0.4H9.8c-0.1-0.1-0.1-0.3-0.1-0.5c0-0.2,0-0.4,0.1-0.5
	h0.8v-3.2l-2.5,2l0.5,0.6c-0.1,0.4-0.4,0.6-0.8,0.7l-0.5-0.7L7,14.8c0.3,0.6,0.5,1.2,0.5,1.9c0,2-1.5,3.6-3.5,3.7
	c-1,0-2-0.4-2.7-1.1l-0.5,0.4c-0.4,0-0.8-0.4-0.8-0.8l0.5-0.4c-0.3-0.6-0.5-1.3-0.5-2c0-2,1.6-3.7,3.6-3.7c1,0,1.9,0.4,2.6,1.1
	l0.3-0.2L6,13c0.1-0.3,0.4-0.6,0.8-0.6L7.4,13l2.9-2.3l-3-2.5L6.8,8.7l0.6,0.5L6.9,9.7L6.3,9.2L5.9,9.8l0.6,0.5L6,10.8L4.4,9.5
	l1.5-0.8L5.5,8.3L4.1,9l0.5-1.5L4.1,7.1L3.6,8.8L1.9,7.5L2.3,7l0.6,0.5L3.4,7L2.8,6.4l0.4-0.5l0.6,0.4l0.4-0.5L3,4.7
	c0.1-0.4,0.4-0.8,0.8-1l6.9,5.6V5.6H9.9v0.7H9.2V5.6H8.5v0.7H7.8V4.2l1.6,0.7V4.3L7.9,3.7l1.5-0.6V2.5L7.8,3.2V1h0.7v0.8h0.7V1h0.7
	v0.8h0.7V0.1C10.8,0,11.1,0,11.3,0c0.2,0,0.4,0,0.6,0.1v9.2l6.8-5.6c0.4,0.2,0.7,0.6,0.8,1l-1.3,1l0.4,0.5l0.6-0.4l0.4,0.5L19,6.8
	l0.4,0.5L20,6.8l0.4,0.5l-1.7,1.3L18.4,7.1z M4.4,17.3c0,0.5,0.4,1,0.9,1c0,0,0.1,0,0.1,0L4.5,19c-0.7-0.3-1.1-0.9-1.1-1.6
	c0-0.2,0-0.3,0.1-0.5H3.3c-0.8,0-1.5-0.7-1.6-1.5l0.9-0.7v0.2c0.1,0.5,0.5,0.9,1,0.9c0.6,0,1-0.4,1-1c0-0.6-0.5-1.1-1.1-1.1
	c-1.4,0.1-2.4,1.3-2.4,2.7c0,0.4,0.1,0.8,0.3,1.2l0.5-0.4c0.4,0.2,0.7,0.6,0.8,1l-0.5,0.4C2.7,19,3.4,19.2,4,19.2
	c1.2,0,2.3-0.9,2.5-2.1c0.1-0.5-0.3-1-0.9-1.1c0,0-0.1,0-0.1,0C4.9,16.2,4.5,16.7,4.4,17.3z M11.7,19.4c0,0.6,0.4,1,1,1
	c0.3,0,0.6-0.1,0.8-0.4v1.1c-0.3,0.1-0.5,0.2-0.8,0.2c-0.6,0-1.1-0.2-1.4-0.7c-0.3,0.5-0.8,0.7-1.4,0.7c-0.3,0-0.6-0.1-0.8-0.2V20
	c0.2,0.3,0.5,0.4,0.8,0.4c0.6,0,1-0.4,1-1c0-0.5-0.3-1-0.8-1c0,0,0,0-0.1,0c-1,0-1.4,1-1.4,1.9c0,1.3,0.9,2.4,2.2,2.6v-0.7
	c0.2-0.1,0.4-0.1,0.6-0.1c0.2,0,0.4,0,0.6,0.1v0.7c1.2-0.3,2.1-1.3,2.2-2.6c0-0.9-0.4-1.9-1.4-1.9c-0.5-0.1-1,0.3-1.1,0.9
	C11.7,19.3,11.7,19.4,11.7,19.4z M17.9,15c0,0.5,0.5,1,1,1c0.5,0,0.9-0.4,1-0.9v-0.2l0.9,0.7c-0.2,0.9-0.9,1.5-1.8,1.5
	c0.1,0.1,0.1,0.3,0.1,0.5c-0.1,0.7-0.5,1.3-1.1,1.6l-0.9-0.7c0.6,0,1-0.4,1-1s-0.4-1-1-1c-0.6,0-1,0.4-1,1c0,0,0,0.1,0,0.1
	c0.2,1.2,1.3,2.1,2.5,2.1c0.7,0,1.3-0.2,1.8-0.6l-0.5-0.4c0.1-0.4,0.4-0.8,0.8-1l0.5,0.4c0.2-0.4,0.3-0.8,0.3-1.2
	c0-1.4-1-2.6-2.4-2.7c-0.4-0.2-0.9-0.1-1.1,0.3C17.9,14.6,17.9,14.8,17.9,15z"/>
<path class="st0" d="M39.9,14.9c0,5.1-2.8,5.7-5.6,5.7c-4.8,0-5.8-2.5-5.8-6V4.7h-1.8v-1h6.7v1h-1.9v9.6c0,3.4,0.9,5.1,3.3,5.1
	s3.7-1.2,3.7-4.8v-10h-1.8v-1h4.8v1h-1.6V14.9z M44.5,19.5V4.7h-1.7v-1h7.5c3.2,0,4.7,1.8,4.7,3.9s-2,3.5-3.8,3.9
	c3.5,0.3,4.5,2.6,4.5,4.2c0,3.4-2.9,4.7-5.7,4.7h-7.2v-1h1.7V19.5z M51.9,7.9c0-1.6-0.8-3.1-2.6-3.1h-1.9v6.4h1.7
	C51,11.1,51.9,9.6,51.9,7.9z M52.5,15.8c0-2.2-1-3.7-3.2-3.7h-1.9v7.4H49C51.4,19.5,52.5,18.1,52.5,15.8z M63.1,4.5
	c-1.4-0.2-2.7,0.9-2.9,2.3c0,0.2,0,0.4,0,0.6c0,1.6,1.8,2.4,3.5,3c1.2,0.3,2.3,0.9,3.2,1.7c1,1,1.6,2.3,1.5,3.7
	c-0.1,2.9-2.1,4.9-5.7,4.9c-1.6,0-3.2-0.3-4.7-1l-0.1-4.4H59c0.1,2.9,1.5,4.5,3.9,4.5c1.9,0,3-1.3,3-3.3c0-1.7-1.4-2.4-3.6-3.2
	c-1.1-0.4-2.2-0.9-3.1-1.7c-0.8-0.8-1.3-1.9-1.3-3.1c0-3.4,2.4-4.9,5.4-4.9c1.4,0,2.8,0.4,4,1l0.1,3.8h-1.1
	C66.2,5.7,65,4.5,63.1,4.5z"/>
</svg>
