<?xml version="1.0" encoding="utf-8"?>
<!-- Generator: Adobe Illustrator 16.0.0, SVG Export Plug-In . SVG Version: 6.00 Build 0)  -->
<!DOCTYPE svg PUBLIC "-//W3C//DTD SVG 1.1//EN" "http://www.w3.org/Graphics/SVG/1.1/DTD/svg11.dtd">
<svg version="1.1" id="Layer_1" xmlns="http://www.w3.org/2000/svg" xmlns:xlink="http://www.w3.org/1999/xlink" x="0px" y="0px"
	 width="1200px" height="1200px" viewBox="-200 -200 1200 1200" enable-background="new -200 -200 1200 1200" xml:space="preserve">
<title>logo_7</title>
<path fill="#6E6E6E" d="M650.55,735.266v51.586H486.42V772.52c0-22.32,3.575-37.254,29.907-37.254H650.55z M506.214,703.421
	c-43.192,0-62.982,22.957-62.982,59.638v103.408h43.188v-47.584h164.13v47.584h43.19V703.421H506.214z M746.619,703.421v31.847
	h101.349v131.199h43.192V735.268h101.535v-31.847H746.619z M166.6,803.7c0,22.781,4.603,30.983,29.895,30.983h179.957v31.783H186.38
	c-43.149,0-63.212-19.36-63.212-56.016v-107.03h253.283v31.847H166.6v32.017h201.397v31.155H166.6V803.7z M-141.851,760.091
	c-13.272-1.046-15.592-5.68-15.592-13.684c0-7.346,3.986-11.602,14.118-11.602H55.354v-31.385h-203.718
	c-29.106,0-48.904,11.158-48.904,43.612c0,32.667,14.953,43.612,48.046,46.354l161.171,13.485
	c12.451,1.049,15.804,5.238,15.804,14.111c0,8.449-3.792,13.7-14.757,13.7h-202.244v31.784H16.593
	c35.395,0,50.987-14.13,50.987-47.585c0-30.556-14.148-42.564-48.669-45.518L-141.851,760.091z"/>
<g>
	<path fill="#6E6E6E" d="M60.314,150.675c0.561-21.695,1.946-74.786,3.017-106.059c1.342-40.023,9.765-64.405,26.291-79.073
		C112.455-54.704,139.048-59.542,202.562-63c147.164-7.991,296.96-6.91,484.704,6.261c19.535,1.353,26.91,5.016,30.743,7.677
		c8.328,5.687,9.38,12.068,11.575,45.375c1.284,19.076,3.827,69.925,5.21,97.873c-64.761-3.322-174.655-8.969-270.406-9.913
		c-95.733-0.982-181.915,0.577-192.146,1.87C251.32,88.808,241.72,98.6,238.886,102.88l496.832,92.104v72.491L60.314,150.675z"/>
	<path fill="#6E6E6E" d="M59.707,186.024l675.451,125.771c-0.462,18.369-1.97,76.622-3.093,110.015
		c-1.38,40.057-9.807,64.438-26.323,79.13c-22.843,20.247-49.395,25.051-112.944,28.514c-147.154,8.008-296.95,6.915-484.701-6.241
		c-19.537-1.357-26.902-5.042-30.764-7.693c-8.275-5.689-9.352-12.07-11.559-45.385c-1.484-22.281-4.694-88.085-5.755-109.876
		c87.116,5.875,220.881,10.205,329.96,10.205c27.386,0,98.566,0.838,117.518,0.838c14.807,0,34.717-4.041,44.817-19.82
		L59.707,267.472V186.024z"/>
</g>
</svg>
