<?xml version="1.0" encoding="utf-8"?>
<!-- Generator: Adobe Illustrator 20.0.0, SVG Export Plug-In . SVG Version: 6.00 Build 0)  -->
<svg version="1.1" id="Layer_1" xmlns="http://www.w3.org/2000/svg" xmlns:xlink="http://www.w3.org/1999/xlink" x="0px" y="0px"
	 viewBox="0 0 82.5 10.8" style="enable-background:new 0 0 82.5 10.8;" xml:space="preserve">
<style type="text/css">
	.st0{clip-path:url(#SVGID_2_);}
	.st1{fill:#FFFFFF;}
	.st2{clip-path:url(#SVGID_4_);}
	.st3{clip-path:url(#SVGID_6_);}
	.st4{clip-path:url(#SVGID_8_);}
	.st5{clip-path:url(#SVGID_10_);}
	.st6{clip-path:url(#SVGID_12_);}
	.st7{clip-path:url(#SVGID_14_);}
	.st8{clip-path:url(#SVGID_16_);}
	.st9{clip-path:url(#SVGID_18_);}
	.st10{clip-path:url(#SVGID_20_);}
	.st11{clip-path:url(#SVGID_22_);}
	.st12{clip-path:url(#SVGID_24_);}
	.st13{clip-path:url(#SVGID_26_);}
	.st14{fill:#6E6E6E;}
	.st15{clip-path:url(#SVGID_28_);}
	.st16{clip-path:url(#SVGID_30_);}
	.st17{clip-path:url(#SVGID_32_);}
	.st18{clip-path:url(#SVGID_34_);}
	.st19{fill:none;}
	.st20{clip-path:url(#SVGID_36_);}
	.st21{clip-path:url(#SVGID_38_);}
	.st22{clip-path:url(#SVGID_40_);}
	.st23{fill:url(#SVGID_41_);}
	.st24{fill:#1F1F1F;}
	.st25{clip-path:url(#SVGID_43_);}
	.st26{clip-path:url(#SVGID_45_);}
	.st27{clip-path:url(#SVGID_47_);}
</style>
<title>so_14</title>
<g>
	<defs>
		<polyline id="SVGID_1_" points="0,12.9 0,-0.2 82.5,-0.2 82.5,12.9 		"/>
	</defs>
	<clipPath id="SVGID_2_">
		<use xlink:href="#SVGID_1_"  style="overflow:visible;"/>
	</clipPath>
	<g class="st0">
		<path class="st1" d="M2.9,8.9c-0.7,0-1.5-0.3-2-0.8C0.4,7.5,0.1,6.8,0.1,6c0-0.8,0.3-1.5,0.8-2.1C1.4,3.3,2.1,3,2.9,3
			c0.7,0,1.4,0.3,1.9,0.8L4.1,4.5C3.8,4.2,3.3,4.1,2.9,4.1C1.9,4.2,1.2,5,1.3,5.9c0,0,0,0,0,0.1c0,0.5,0.2,1,0.5,1.4
			C2.1,7.7,2.5,7.9,3,7.9c0.5,0,0.9-0.2,1.3-0.5L5,8.1C4.4,8.6,3.7,8.9,2.9,8.9"/>
	</g>
</g>
<g>
	<defs>
		<polyline id="SVGID_3_" points="0,12.9 0,-0.2 82.5,-0.2 82.5,12.9 		"/>
	</defs>
	<clipPath id="SVGID_4_">
		<use xlink:href="#SVGID_3_"  style="overflow:visible;"/>
	</clipPath>
	<g class="st2">
		<path class="st1" d="M8.5,8.9C7,9,5.7,7.8,5.6,6.2c0-0.1,0-0.2,0-0.2c0-1.7,1.3-3,3-3l0,0c1.5-0.1,2.8,1.1,2.9,2.7
			c0,0.1,0,0.2,0,0.2C11.5,7.6,10.2,8.9,8.5,8.9 M8.5,4c-1,0.1-1.8,0.9-1.7,1.9c0,0,0,0,0,0.1C6.7,7,7.4,7.8,8.4,7.9
			c0.1,0,0.1,0,0.2,0c1,0,1.8-0.8,1.8-1.8c0,0,0,0,0-0.1c0-0.5-0.2-1-0.5-1.4C9.5,4.2,9,4,8.5,4"/>
	</g>
</g>
<g>
	<defs>
		<polyline id="SVGID_5_" points="0,12.9 0,-0.2 82.5,-0.2 82.5,12.9 		"/>
	</defs>
	<clipPath id="SVGID_6_">
		<use xlink:href="#SVGID_5_"  style="overflow:visible;"/>
	</clipPath>
	<g class="st3">
		<path class="st1" d="M19.2,8.8h-1.1l-0.3-3c-0.1-0.4-0.1-0.9-0.1-1.3c0-0.1,0-0.1-0.1-0.1l0,0c-0.1,0-0.1,0-0.1,0.1c0,0,0,0,0,0
			c-0.1,0.4-0.2,0.8-0.3,1.2l-1,3.1h-1l-1-3.1c-0.1-0.4-0.2-0.8-0.3-1.2l-0.1-0.1l0,0c-0.1,0-0.1,0-0.1,0.1c0,0.4,0,0.8-0.1,1.2
			l-0.3,3.1h-1l0.6-5.7h1.6l1,2.9c0.1,0.4,0.2,0.7,0.3,1.1l0.1,0.1c0.1,0,0.1,0,0.1-0.1c0.1-0.4,0.2-0.7,0.3-1.1l0.9-2.8h1.5
			L19.2,8.8z"/>
	</g>
</g>
<g>
	<defs>
		<polyline id="SVGID_7_" points="0,12.9 0,-0.2 82.5,-0.2 82.5,12.9 		"/>
	</defs>
	<clipPath id="SVGID_8_">
		<use xlink:href="#SVGID_7_"  style="overflow:visible;"/>
	</clipPath>
	<g class="st4">
		<path class="st1" d="M27.4,8.8h-1.1l-0.3-3V4.5c0-0.1,0-0.1-0.1-0.1l0,0c-0.1,0-0.1,0-0.1,0.1c0,0,0,0,0,0
			c-0.1,0.4-0.2,0.8-0.3,1.2l-1,3.1h-1l-1-3.1c-0.1-0.4-0.2-0.8-0.3-1.2l-0.1-0.1l0,0c-0.1,0-0.1,0-0.1,0.1c0,0.4,0,0.8-0.1,1.2
			l-0.3,3.1h-1l0.6-5.7h1.6L23.7,6C23.8,6.4,24,7,24,7.1l0.1,0.1c0.1,0,0.1,0,0.1-0.1c0,0,0,0,0,0c0.1-0.4,0.2-0.7,0.3-1.1l0.9-2.8
			h1.5L27.4,8.8z"/>
	</g>
</g>
<g>
	<defs>
		<polyline id="SVGID_9_" points="0,12.9 0,-0.2 82.5,-0.2 82.5,12.9 		"/>
	</defs>
	<clipPath id="SVGID_10_">
		<use xlink:href="#SVGID_9_"  style="overflow:visible;"/>
	</clipPath>
	<g class="st5">
		<path class="st1" d="M32.6,8.8H29V3.1h3.6V4h-2.4c-0.1,0-0.1,0-0.1,0.1v1.2c0,0.1,0,0.1,0.1,0.1h2v0.9h-2c-0.1,0-0.1,0-0.1,0.1
			v1.3c0,0.1,0,0.1,0.1,0.1h2.4C32.6,7.8,32.6,8.8,32.6,8.8z"/>
	</g>
</g>
<g>
	<defs>
		<polyline id="SVGID_11_" points="0,12.9 0,-0.2 82.5,-0.2 82.5,12.9 		"/>
	</defs>
	<clipPath id="SVGID_12_">
		<use xlink:href="#SVGID_11_"  style="overflow:visible;"/>
	</clipPath>
	<g class="st6">
		<path class="st1" d="M38.5,8.8h-1.3L36,6.7h-0.5c-0.1,0-0.1,0-0.1,0.1v2h-1.1V3.1H36c0.6,0,1.3,0.1,1.8,0.5
			c0.3,0.3,0.5,0.8,0.5,1.3c0,0.7-0.4,1.3-1.1,1.5c-0.1,0-0.1,0-0.1,0.1v0.1L38.5,8.8z M35.5,4C35.4,4,35.4,4,35.5,4l-0.1,1.7
			c0,0.1,0,0.1,0.1,0.1H36c0.8,0,1.2-0.3,1.2-0.9S36.8,4,36,4H35.5z"/>
	</g>
</g>
<g>
	<defs>
		<polyline id="SVGID_13_" points="0,12.9 0,-0.2 82.5,-0.2 82.5,12.9 		"/>
	</defs>
	<clipPath id="SVGID_14_">
		<use xlink:href="#SVGID_13_"  style="overflow:visible;"/>
	</clipPath>
	<g class="st7">
		<path class="st1" d="M43.4,8.8h-3.9V8L42,4.2V4.1L41.9,4h-2.3V3.1h3.8V4L41,7.7v0.1l0.1,0.1h2.4L43.4,8.8L43.4,8.8z"/>
	</g>
</g>
<g>
	<defs>
		<polyline id="SVGID_15_" points="0,12.9 0,-0.2 82.5,-0.2 82.5,12.9 		"/>
	</defs>
	<clipPath id="SVGID_16_">
		<use xlink:href="#SVGID_15_"  style="overflow:visible;"/>
	</clipPath>
	<g class="st8">
		<path class="st1" d="M47.1,8.8H45V3.1h1.9c1.4,0,2,0.4,2,1.4c0,0.6-0.4,1.1-0.9,1.2l-0.1,0.1l0,0c0,0.1,0,0.1,0.1,0.2
			c0.7,0.1,1.2,0.6,1.2,1.3C49.2,8.4,48,8.8,47.1,8.8 M46.1,6.4C46,6.4,46,6.4,46.1,6.4L46,7.8c0,0.1,0,0.1,0.1,0.1H47
			c0.4,0.1,0.9-0.2,1-0.6c0-0.1,0-0.1,0-0.2c0-0.3-0.2-0.7-1-0.7C47,6.4,46.1,6.4,46.1,6.4z M46.1,4C46,4,46,4,46,4.1v1.3
			c0,0.1,0,0.1,0.1,0.1h0.8c0.5,0,0.9-0.3,0.9-0.7c0,0,0,0,0-0.1c0-0.5-0.3-0.7-0.9-0.7C46.9,4,46.1,4,46.1,4z"/>
	</g>
</g>
<g>
	<defs>
		<polyline id="SVGID_17_" points="0,12.9 0,-0.2 82.5,-0.2 82.5,12.9 		"/>
	</defs>
	<clipPath id="SVGID_18_">
		<use xlink:href="#SVGID_17_"  style="overflow:visible;"/>
	</clipPath>
	<g class="st9">
		<path class="st1" d="M55.3,8.8h-1.2l-0.4-1.1l-0.1-0.1h-2.3c-0.1,0-0.1,0-0.1,0.1l-0.4,1.1h-1.1l2-5.7h1.4L55.3,8.8z M52.5,4.1
			L52.5,4.1c-0.1,0.3-0.2,0.6-0.3,0.9l-0.5,1.5v0.1h1.7V6.5L52.9,5C52.7,4.6,52.6,4.2,52.5,4.1C52.6,4.2,52.6,4.1,52.5,4.1"/>
	</g>
</g>
<g>
	<defs>
		<polyline id="SVGID_19_" points="0,12.9 0,-0.2 82.5,-0.2 82.5,12.9 		"/>
	</defs>
	<clipPath id="SVGID_20_">
		<use xlink:href="#SVGID_19_"  style="overflow:visible;"/>
	</clipPath>
	<g class="st10">
		<path class="st1" d="M61,8.8h-1l-2-2.9C57.8,5.5,57.5,5,57.5,5l-0.1-0.1l0,0L57.3,5v3.8h-1V3.1h1.1l1.9,2.7
			c0.3,0.5,0.6,0.9,0.6,0.9L60,6.8l0,0l0.1-0.1V3.1h1L61,8.8L61,8.8z"/>
	</g>
</g>
<g>
	<defs>
		<polyline id="SVGID_21_" points="0,12.9 0,-0.2 82.5,-0.2 82.5,12.9 		"/>
	</defs>
	<clipPath id="SVGID_22_">
		<use xlink:href="#SVGID_21_"  style="overflow:visible;"/>
	</clipPath>
	<g class="st11">
		<path class="st1" d="M67,8.8h-1.3l-1.8-2.7h-0.1l-0.1,0.1v2.6h-1.1V3.1h1.1v2.5c0,0.1,0,0.1,0.1,0.1h0.1l1.7-2.6h1.2L65,5.7v0.1
			L67,8.8z"/>
	</g>
</g>
<g>
	<defs>
		<polyline id="SVGID_23_" points="0,12.9 0,-0.2 82.5,-0.2 82.5,12.9 		"/>
	</defs>
	<clipPath id="SVGID_24_">
		<use xlink:href="#SVGID_23_"  style="overflow:visible;"/>
	</clipPath>
	<g class="st12">
		<path class="st1" d="M79.5,10.8h-6.6l-2.9-5l0,0l0.1-0.2L73.3,0h5.8l3.3,5.7l0,0L81.1,8L79.5,10.8L79.5,10.8z M76.2,0.9L76.2,0.9
			c-0.3,0.3-0.5,0.6-0.7,0.9l-1.4,2.5l-1.4,2.5c-0.2,0.3-0.4,0.6-0.5,1l0,0C72.6,7.9,72.9,8,73.3,8h5.8c0.4,0,0.7,0,1.1-0.1l0,0
			c-0.1-0.4-0.3-0.7-0.5-1l-1.4-2.5l-1.4-2.5C76.7,1.5,76.5,1.2,76.2,0.9L76.2,0.9"/>
	</g>
</g>
<g>
	<defs>
		<polyline id="SVGID_25_" points="0,12.9 0,-0.2 82.5,-0.2 82.5,12.9 		"/>
	</defs>
	<clipPath id="SVGID_26_">
		<use xlink:href="#SVGID_25_"  style="overflow:visible;"/>
	</clipPath>
	<g class="st13">
		<path class="st14" d="M2.9,9C3.7,9,4.5,8.7,5,8.1L4.2,7.3C3.9,7.6,3.5,7.8,3,7.8C2.1,7.8,1.4,7,1.4,6.1c0,0,0-0.1,0-0.1
			C1.3,5.1,1.9,4.3,2.8,4.2c0,0,0,0,0.1,0c0.5,0,0.9,0.2,1.2,0.5L5,3.8C4.5,3.2,3.8,2.9,3,2.9c-1.7,0-3,1.3-3,3C0,5.9,0,6,0,6
			c-0.1,1.6,1.2,2.9,2.7,3C2.8,9,2.8,9,2.9,9"/>
	</g>
</g>
<g>
	<defs>
		<polyline id="SVGID_27_" points="0,12.9 0,-0.2 82.5,-0.2 82.5,12.9 		"/>
	</defs>
	<clipPath id="SVGID_28_">
		<use xlink:href="#SVGID_27_"  style="overflow:visible;"/>
	</clipPath>
	<g class="st15">
		<path class="st14" d="M8.5,7.8C7.6,7.8,6.9,7,6.9,6.1c0,0,0-0.1,0-0.1C6.8,5.1,7.5,4.3,8.4,4.2c0.1,0,0.1,0,0.2,0
			c0.9,0,1.7,0.8,1.7,1.7c0,0,0,0.1,0,0.1C10.3,7,9.5,7.8,8.5,7.8 M8.5,9c1.7,0,3.1-1.4,3.1-3.1c0.1-1.6-1.2-2.9-2.8-3
			c-0.1,0-0.1,0-0.2,0c-1.7,0-3.1,1.3-3.1,3c0,0,0,0.1,0,0.1C5.4,7.6,6.7,8.9,8.3,9C8.4,9,8.4,9,8.5,9"/>
	</g>
</g>
<g>
	<defs>
		<polyline id="SVGID_29_" points="0,12.9 0,-0.2 82.5,-0.2 82.5,12.9 		"/>
	</defs>
	<clipPath id="SVGID_30_">
		<use xlink:href="#SVGID_29_"  style="overflow:visible;"/>
	</clipPath>
	<g class="st16">
		<path class="st14" d="M16.4,8.9l1-3.2c0.1-0.4,0.2-0.8,0.3-1.2l0,0c0,0.4,0,0.9,0.1,1.3l0.3,3.1h1.3L18.8,3h-1.7l-0.9,3
			c-0.1,0.4-0.3,1-0.3,1c-0.1-0.4-0.2-0.7-0.3-1.1L14.7,3H13l-0.6,5.9h1.2l0.3-3.2C14,5.3,14,4.8,14,4.4l0,0
			c0.1,0.4,0.2,0.8,0.3,1.2l1,3.2L16.4,8.9L16.4,8.9z"/>
	</g>
</g>
<g>
	<defs>
		<polyline id="SVGID_31_" points="0,12.9 0,-0.2 82.5,-0.2 82.5,12.9 		"/>
	</defs>
	<clipPath id="SVGID_32_">
		<use xlink:href="#SVGID_31_"  style="overflow:visible;"/>
	</clipPath>
	<g class="st17">
		<path class="st14" d="M24.6,8.9l1-3.2c0.1-0.4,0.2-0.8,0.3-1.2l0,0c0,0.4,0,0.9,0.1,1.3l0.3,3.1h1.3L27,3h-1.7l-0.9,3
			c-0.1,0.3-0.2,0.7-0.3,1c-0.1-0.4-0.2-0.7-0.3-1.1L22.9,3h-1.7l-0.6,5.9h1.2L22,5.7c0.1-0.4,0.1-0.9,0.1-1.3l0,0
			c0.1,0.4,0.2,0.8,0.3,1.2l1,3.2h1.2V8.9z"/>
	</g>
</g>
<g>
	<defs>
		<polyline id="SVGID_33_" points="0,12.9 0,-0.2 82.5,-0.2 82.5,12.9 		"/>
	</defs>
	<clipPath id="SVGID_34_">
		<use xlink:href="#SVGID_33_"  style="overflow:visible;"/>
	</clipPath>
	<g class="st18">
		<polygon class="st14" points="28.9,8.9 32.7,8.9 32.7,7.8 30.2,7.8 30.2,6.5 32.4,6.5 32.4,5.4 30.2,5.4 30.2,4.2 32.7,4.2 
			32.7,3 28.9,3 		"/>
	</g>
</g>
<polyline class="st19" points="0,12.9 0,-0.2 82.5,-0.2 82.5,12.9 "/>
<g>
	<path class="st14" d="M37.1,4.9c0,0.5-0.5,0.9-1,0.8c0,0-0.1,0-0.1,0h-0.5V4.1H36c0.5-0.1,1,0.2,1.1,0.7
		C37.1,4.8,37.1,4.9,37.1,4.9 M38.7,8.9l-1.4-2.4c0.7-0.2,1.2-0.9,1.2-1.6C38.4,3.7,37.8,3,36,3h-1.8v5.9h1.3V6.8h0.4l1.2,2.1
		C37.1,8.9,38.7,8.9,38.7,8.9z"/>
</g>
<g>
	<defs>
		<polyline id="SVGID_35_" points="0,12.9 0,-0.2 82.5,-0.2 82.5,12.9 		"/>
	</defs>
	<clipPath id="SVGID_36_">
		<use xlink:href="#SVGID_35_"  style="overflow:visible;"/>
	</clipPath>
	<g class="st20">
		<polygon class="st14" points="39.4,8.9 43.5,8.9 43.5,7.8 41,7.8 43.5,4 43.5,3 39.5,3 39.5,4.2 41.9,4.2 39.4,7.9 		"/>
	</g>
</g>
<g>
	<defs>
		<polyline id="SVGID_37_" points="0,12.9 0,-0.2 82.5,-0.2 82.5,12.9 		"/>
	</defs>
	<clipPath id="SVGID_38_">
		<use xlink:href="#SVGID_37_"  style="overflow:visible;"/>
	</clipPath>
	<g class="st21">
		<path class="st14" d="M46.1,6.5H47c0.6,0,0.9,0.2,0.9,0.6c0,0.5-0.3,0.7-0.9,0.7h-0.9V6.5z M46.1,4.1h0.7c0.3-0.1,0.7,0.1,0.8,0.5
			c0,0,0,0.1,0,0.1c0,0.4-0.3,0.7-0.7,0.7c0,0-0.1,0-0.1,0H46L46.1,4.1L46.1,4.1z M44.8,8.9H47c1,0,2.2-0.5,2.2-1.7
			c0-0.7-0.5-1.4-1.3-1.4c0,0,0,0,0,0l0,0c0.6-0.1,1-0.7,1-1.3c0.1-1.2-1-1.5-2-1.5h-2v5.9H44.8z"/>
	</g>
</g>
<g>
	<defs>
		<polyline id="SVGID_39_" points="0,12.9 0,-0.2 82.5,-0.2 82.5,12.9 		"/>
	</defs>
	<clipPath id="SVGID_40_">
		<use xlink:href="#SVGID_39_"  style="overflow:visible;"/>
	</clipPath>
	<g class="st22">
		<path class="st14" d="M51,8.9l0.4-1.2h2.3l0.4,1.2h1.4L53.4,3h-1.6l-2.1,5.9H51z M53.3,6.6h-1.5l0.5-1.5c0.1-0.3,0.2-0.5,0.3-0.8
			c0.1,0.3,0.2,0.5,0.3,0.8L53.3,6.6z"/>
	</g>
</g>
<polyline class="st19" points="0,12.9 0,-0.2 82.5,-0.2 82.5,12.9 "/>
<g>
	<path class="st14" d="M56.3,8.9h1.2V5c0.1,0.3,0.3,0.7,0.5,1l2,2.9h1.1V3h-1.2v3.8c0,0-0.3-0.5-0.6-0.9L57.5,3h-1.2V8.9z"/>
</g>
<polyline class="st19" points="0,-0.2 82.5,-0.2 82.5,12.9 "/>
<g>
	<polygon class="st14" points="62.5,3 62.5,8.9 63.8,8.9 63.8,6.2 65.7,8.9 67.2,8.9 65.1,5.8 67,3 65.5,3 63.8,5.7 63.8,3 	"/>
</g>
<path class="st19" d="M77.9,0c-0.7,0-1.3,0.4-1.7,1l0,0l0.7-0.7C77.1,0.1,77.4,0,77.7,0C77.7,0,77.9,0,77.9,0z"/>
<g>
	
		<radialGradient id="SVGID_41_" cx="-2866.0476" cy="-1807.4626" r="0.39" gradientTransform="matrix(24.9 0 0 -24.9 71449.1797 -44999.7578)" gradientUnits="userSpaceOnUse">
		<stop  offset="0" style="stop-color:#FFDD5C"/>
		<stop  offset="0.1" style="stop-color:#FED34F"/>
		<stop  offset="0.31" style="stop-color:#FCC239"/>
		<stop  offset="0.44" style="stop-color:#FBBC31"/>
		<stop  offset="0.61" style="stop-color:#F9B931"/>
		<stop  offset="0.76" style="stop-color:#F4AE30"/>
		<stop  offset="0.9" style="stop-color:#EB9C2F"/>
		<stop  offset="0.9" style="stop-color:#EB9C2F"/>
		<stop  offset="1" style="stop-color:#DE852C"/>
	</radialGradient>
	<rect x="76.2" class="st23" width="3" height="1"/>
</g>
<path class="st24" d="M73.3,0L73.3,0l-2.5,4.3L70,5.6v0.1l0,0l2.3,4.1l0,0c-0.1-0.1-0.1-0.1-0.1-0.2C72.1,9.4,72,9.1,72,8.8
	c0.1-0.7,0.3-1.3,0.7-1.9l1.4-2.5c0.5-0.8,1-1.6,1.4-2.5c0.3-0.6,0.8-1.1,1.3-1.5c0.3-0.2,0.6-0.3,0.9-0.4H73.3z"/>
<g>
	<defs>
		<path id="SVGID_42_" d="M73.3,0L73.3,0l-2.5,4.3L70,5.6v0.1l0,0l2.3,4.1l0,0c-0.1-0.1-0.1-0.1-0.1-0.2C72.1,9.4,72,9.1,72,8.8
			c0.1-0.7,0.3-1.3,0.7-1.9l1.4-2.5c0.5-0.8,1-1.6,1.4-2.5c0.3-0.6,0.8-1.1,1.3-1.5c0.3-0.2,0.6-0.3,0.9-0.4H73.3z"/>
	</defs>
	<use xlink:href="#SVGID_42_"  style="overflow:visible;fill:#6E6E6E;"/>
	<clipPath id="SVGID_43_">
		<use xlink:href="#SVGID_42_"  style="overflow:visible;"/>
	</clipPath>
	<g class="st25">
		<rect x="69.9" class="st14" width="9.2" height="9.8"/>
	</g>
</g>
<path class="st24" d="M81.7,7c-0.2,0.2-0.4,0.4-0.6,0.5c-0.6,0.3-1.3,0.4-2,0.4h-5.8c-0.7,0-1.4-0.1-2-0.4C71,7.4,70.8,7.2,70.7,7
	c-0.1-0.1-0.3-0.5-0.6-1l0.6,1l2.2,3.8h6.7l2.9-5C82.1,6.4,81.8,6.9,81.7,7 M70,5.8C70,5.9,70,6,70.1,6L70,5.8z"/>
<g>
	<defs>
		<path id="SVGID_44_" d="M81.7,7c-0.2,0.2-0.4,0.4-0.6,0.5c-0.6,0.3-1.3,0.4-2,0.4h-5.8c-0.7,0-1.4-0.1-2-0.4
			C71,7.4,70.8,7.2,70.7,7c-0.1-0.1-0.3-0.5-0.6-1l0.6,1l2.2,3.8h6.7l2.9-5C82.1,6.4,81.8,6.9,81.7,7 M70,5.8C70,5.9,70,6,70.1,6
			L70,5.8z"/>
	</defs>
	<use xlink:href="#SVGID_44_"  style="overflow:visible;fill:#6E6E6E;"/>
	<clipPath id="SVGID_45_">
		<use xlink:href="#SVGID_44_"  style="overflow:visible;"/>
	</clipPath>
	<g class="st26">
		<rect x="70" y="5.8" class="st14" width="12.5" height="5"/>
	</g>
</g>
<path class="st24" d="M77.7,0c-0.3,0-0.6,0.1-0.8,0.3c-0.3,0.2-0.5,0.4-0.7,0.7c0.2,0.3,0.4,0.6,0.6,0.9l1.4,2.5
	c0.5,0.8,1,1.6,1.4,2.5c0.3,0.6,0.6,1.2,0.7,1.9c0,0.3,0,0.5-0.1,0.8c-0.2,0.4-0.4,0.8-0.7,1.2l2.9-5l0,0L79.1,0H77.7"/>
<g>
	<defs>
		<path id="SVGID_46_" d="M77.7,0c-0.3,0-0.6,0.1-0.8,0.3c-0.3,0.2-0.5,0.4-0.7,0.7c0.2,0.3,0.4,0.6,0.6,0.9l1.4,2.5
			c0.5,0.8,1,1.6,1.4,2.5c0.3,0.6,0.6,1.2,0.7,1.9c0,0.3,0,0.5-0.1,0.8c-0.2,0.4-0.4,0.8-0.7,1.2l2.9-5l0,0L79.1,0H77.7"/>
	</defs>
	<use xlink:href="#SVGID_46_"  style="overflow:visible;fill:#6E6E6E;"/>
	<clipPath id="SVGID_47_">
		<use xlink:href="#SVGID_46_"  style="overflow:visible;"/>
	</clipPath>
	<g class="st27">
		<rect x="76.2" class="st14" width="6.3" height="10.8"/>
	</g>
</g>
</svg>
