<?xml version="1.0" encoding="utf-8"?>
<!-- Generator: Adobe Illustrator 20.0.0, SVG Export Plug-In . SVG Version: 6.00 Build 0)  -->
<svg version="1.1" id="Layer_1" xmlns="http://www.w3.org/2000/svg" xmlns:xlink="http://www.w3.org/1999/xlink" x="0px" y="0px"
	 viewBox="0 0 1022.9 483.6" style="enable-background:new 0 0 1022.9 483.6;" xml:space="preserve">
<style type="text/css">
	.st0{fill:#6E6E6E;}
	.st1{fill:#6E6E6E;stroke:#000000;stroke-width:3.000000e-02;stroke-miterlimit:3.86;}
	.st2{fill:#6E6E6E;stroke:#FDB827;stroke-width:3.000000e-02;stroke-miterlimit:3.86;}
	.st3{fill:#6E6E6E;stroke:#FFFFFF;stroke-width:3.000000e-02;stroke-miterlimit:3.86;}
	.st4{fill:#6E6E6E;stroke:#ED1846;stroke-width:3.000000e-02;stroke-miterlimit:3.86;}
</style>
<g>
	<g>
		<path class="st0" d="M485.7,483.6c-61.4,0-111.3-49.9-111.3-111.3S424.4,261,485.7,261S597,310.9,597,372.3
			S547.1,483.6,485.7,483.6z M485.7,267c-58.1,0-105.3,47.2-105.3,105.3s47.2,105.3,105.3,105.3S591,430.4,591,372.3
			S543.8,267,485.7,267z"/>
	</g>
	<g id="_Group_3">
		<rect x="913.6" y="3.4" class="st0" width="42.4" height="223"/>
		<rect x="842.2" y="3.4" class="st0" width="42.4" height="223"/>
		<path class="st0" d="M686.8,180.7V96.3h42.4l-0.4,76.4c0,12.7,11,23.1,24.4,23.1s23.9-10.4,23.9-23.1l0.4-76l41.6-0.4v84.4
			c0,28.6-29.9,51.7-66.4,51.7S686.8,209.3,686.8,180.7z"/>
		<path class="st0" d="M599.8,189.1c16.3-1,25.5-11.8,26-27.3c0-15-11-26.9-26-26.9h-27.3V96.7h14.7c12.5-0.1,22.6-10.2,22.7-22.7
			c-0.1-12.4-10.3-22.4-22.7-22.3h-28.1v137.4L599.8,189.1L599.8,189.1z M653.6,69.4c0,15.9-6.9,30.4-18.5,41.2
			c28.5,13.2,37,30.5,37,54.6c0,33.2-28.9,60.3-64.7,60.9h-93.3V15.6h72.2c24.1,0,42,4.8,52.1,16C648.2,41.8,653.6,55.3,653.6,69.4z
			"/>
		<path class="st0" d="M383.5,125.7c-17.1,0-31.1,15.2-31.1,34s13.9,33.6,31.1,33.6s31.1-14.8,31.1-33.6S400.6,125.7,383.5,125.7z
			 M308.3,160.1c0-38.2,28.1-68.9,63-68.9c16.1,0,31.5,6.3,42.9,17.6l-0.4-105h42.4v221.8h-42v-14.3c-11.3,11.5-26.7,18-42.9,18.1
			C336.4,229.4,308.3,198.4,308.3,160.1z"/>
		<path class="st0" d="M284.4,196.6c-11.9,20.9-35.2,34-64.7,34c-38.6,0-69.7-31.9-69.7-71s31.1-70.5,69.7-70.5s69.1,25.2,68.5,71
			c0,2.9-0.1,5.9-0.4,8.8h-93.2c-0.1,0.4-0.1,0.8,0,1.3c0,14.6,13.1,26.5,29,26.5c11.9,0,22.1-6.5,26.5-16L284.4,196.6z
			 M194.5,144.6h51.7c-0.1-14.3-11.7-25.9-26-26C205.9,118.7,194.4,130.3,194.5,144.6C194.5,144.5,194.5,144.6,194.5,144.6
			L194.5,144.6z"/>
		<path class="st0" d="M92.4,137.4l62.2,88.6h-52.9l-45-69.3v-50.8h10.6c16.6,0,30.2-12.4,30.2-27.7S84.7,50.5,68,50.5H44.9v175.6H0
			V13.9h74.3c1.1-0.1,1.9,0,2.9,0c35.2,0,63.8,28,63.8,62.6C141.1,106,120.3,130.7,92.4,137.4z"/>
		<path class="st0" d="M1017.1,6c-3.8-3.9-9-6-14.4-6c-11.1,0-20.2,9.1-20.2,20.2s9.1,20.2,20.2,20.2c11.1,0,20.2-9.1,20.2-20.2
			C1022.9,14.9,1020.8,9.8,1017.1,6z M999.4,3.5c1.1-0.1,2.1-0.1,3.3,0c9.2,0,16.7,7.5,16.7,16.7s-7.5,16.7-16.7,16.7
			S986,29.4,986,20.2C986,12.1,991.5,5.3,999.4,3.5z"/>
		<path class="st0" d="M1013.2,15.2c0-2.2-1-4.2-2.7-5.4c-1.6-0.9-3.3-0.9-4.9-0.9c-0.3,0-0.5,0-0.8,0L995,8.8v22.8h3.5v-10h4.2
			l6.3,10.1h4.1l-6.2-10.1C1011.2,21.2,1013.2,19.1,1013.2,15.2z M1009.7,14.8c0,1-0.3,1.8-0.9,2.4c-1.3,1.3-4,1.3-6.1,1.3h-4.3v-7
			h5.8C1008.1,11.5,1009.7,12.5,1009.7,14.8z"/>
	</g>
	<path id="path2815" class="st1" d="M596,316.8c2.9,1.9,4.2,5.8,7.7,6.6c5.9,1.3,11.8,2.7,17.1,5.3c3.9,2.1,7.5,4.6,10.7,7.6
		c3.2,1.8,7.2,1.6,10.7,2.8c5.1,1.3,9.2,5.2,13.7,8.1c6,4.7,14.3,4,21,7c10.7,3.4,19.4,11.7,29.3,16.7c5.2,2.8,12.9,3.9,18.1,0.7
		c3.4-2.5,5.6-5.7,4.9-10.1c-1.9-10.9-14-16.8-19.7-25.8c-1.3-2.3-1.8-5-1.3-7.6c2-5.3,7.8-8.2,12.5-10.2c3.8-1.9,8.6-1.5,12.2-3.6
		c1.2-0.8,2.3-1.8,3.3-2.8c0.8,0,0.8,0.8,1,1.4c1.1,6.5-0.1,13.1-5.7,16.9c-2.2,1.4-4.7,2.3-7.3,2.8c-2.1,0.9-6.3-0.9-6.2,2.9
		c0.5,1.8,2.2,3,3.6,4.2c7.5,6.3,14.4,14.2,15.3,23.9c0.3,7.5-4.9,14-11.3,17.1c-5,2.2-10.6,2.6-15.9,1.3c-1.4-0.2-3.6-1.5-4.5,0.3
		c-0.4,2,1,3.7,1.1,5.7c0.6,3.8,0.4,7.7-0.6,11.4c-0.5,2.7-3.3,5.9-0.7,8.7c2.5,3.7,7.3,2.6,11.2,3.2c2.2,0.4,2.8,2.8,3.5,4.4
		c0.7,2,0.9,4.5,1.8,6.1c-0.1,4,4.4,5.5,6.7,8.2c2.8,2.9,5.1,8,9.8,7.7c1.5,3.2,2.5,6.5,2.9,10l-0.6,0.5c-3.8,0-8.8,1.1-11.6-1.6
		c-3.2-2.1-4.3-8-9-6.5c-2.1,1.7-5,2.2-7.6,1.2c-2.3-0.8-4-3-6.1-4.2c-6.7-5-15.1-6.9-23.3-5.3c-4.8,1.3-8.6-2-12.4-4.3
		c-5-2.1-6.5-7.6-7.6-12.2l-0.9-5.7c0-0.6,0.4-1,1-1.2h0.7c2.9,6.6,8.5,14.1,15.7,16.5c6.6,2.7,12.9-0.7,20,0.5
		c6.7,0.8,12,5.2,17.2,9.2c0.5,0,0.9-0.3,1-0.7v-0.5c-6.1-7.7-14.6-11.8-24.6-11.1c-8.2,1.8-16.5-1-21.2-8
		c-2.7-3.9-4.5-8.3-5.3-12.9c-0.7-5.5-1.9-10.9-3.7-16.1c-0.4-0.5-1.1-0.7-1.7-0.5l-0.5,0.8c0.9,5.2,2.3,11.3,0.5,16.8
		c-1.3,4.2-5.7,5.9-9.8,6.1s-7.8-0.5-12-0.5c-9.8-0.4-18.2,3.6-28.2,2.6c0.8-2.3,2.4-4.8,1.6-7.5c-0.4-0.5-1-0.7-1.6-0.5
		c-1.8,1.2-1.7,3.5-2.8,5.1c-2.2,3.7-5.9,6.4-10.1,7.5c-2.9,2.4-5.5,5-7.9,7.9c-0.9,0.8-0.9,2.3-0.6,3.5c2,4.8,7.5,5.4,11.9,6.6
		c2,0.3,4.1-0.6,5.2-2.4c1.8-2.9,2.2-7.7,6.5-8.3h9.4c0.8,0.2,1.4,0.8,1.8,1.6l-0.3,1.3c-2,2.5-3,5.8-5.7,7.6
		c-1.5,0.5-3.5-0.1-4.5,1.3c-0.5,3.2-1.4,6.6-4.6,8.4c-2.3,2.1-6,1.1-8.6,0.3c-5-1.9-10.3-2.9-15.3-4.5c-2.2-0.6-3-3.3-5.3-3.9
		s-4.6,1.2-6.3-0.7c-1.1-2.1-1.8-4.3-2.2-6.6c-0.8-1.7-1.4-3.4-1.7-5.2c-0.4-1.6,0.1-2.7,0.5-4.1l6.9-12.5c0.5-0.8,1.1-1.5,1.9-1.9
		c1.7,0.5,3.4,1.1,5,2l-0.3,0.8l-7.1,11c-1.6,3.6,0.1,7.5,1.6,10.5c0.4,0.2,0.5,0.7,0.9,0.5c-0.3-2.2-0.3-4.5,0-6.7
		c0.6-2.1,1.6-4.1,3-5.9l5.6-8.3c0.6-1.6,0.5-3.4-0.5-4.9c-2.5-2.5-6-3.1-8-6.4c-4.7-6.2-5.1-13.4-5.6-21.2
		c-0.1-0.8-0.6-1.4-1.3-1.7c-0.6,0-1.1,0.3-1.3,0.8c-1.5,5-0.5,11.2,0.7,15.7c1,3.5,2.3,7,4,10.3c0.1,0.6-0.2,1.3-0.8,1.5
		c-3.7,0.2-7.5,0-11.2-0.5c-4.9-0.7-8.4-4.5-12.3-7.4c-0.5-0.4-0.9,0.2-1.2,0.5c1.1,5.4,7.1,8.5,8.9,13.5c1.2,4,5,7.1,5.9,11.3
		c0,0.7-0.4,1.3-1,1.6c-1.3,0.4-2.7-0.5-3.9,0.2c-0.2,2.3,1.3,4.7,0.3,7.1c-1.3,2-3.1,4.4-5.6,4.5c-4.9-1.6-9.6-3.7-14.5-5.2
		c-3.5-0.2-6.9,0.1-10.3,0.6c-3.1-0.6-5.3-3.4-7.7-5.3c-0.7-0.3-1.4-0.2-2,0.3c-5.4,5.4-11.2,11.2-19.4,10.9c-0.5-0.1-0.8-0.5-0.9-1
		l0.1-0.5c3.6-3.1,7.8-6.5,9.3-11c1.1-3.7,4.4-6.4,5.5-10c0.1-0.4-0.2-0.9-0.6-1c-0.1,0-0.1,0-0.2,0l-0.9,0.5c-3.7,4-6.9,8.4-9.8,13
		c-3,3.2-7.4,4.6-11.7,3.7c-0.5-0.4-0.6-1.1-0.3-1.7c16.7-10.2,18.6-28.5,23.2-45c3.2-11,5.5-22.3,14.2-31.2
		c12.9-14.1,29-22.6,43.1-34.9c2.1-1.9,4.2-3.7,7-3.9C585.7,310.2,591.2,312.9,596,316.8z"/>
	<path id="path2819" class="st2" d="M580.8,334c0.7,1.2-0.1,2.1-0.7,3c-3.8,3.6-8.4,7.3-11.1,11.6c-1,1.4-1.8,2.9-2.5,4.5
		c-0.1,0.2-0.4,0.3-0.6,0.2c-0.7-2.2,0.2-4.5,0.7-6.6c2-5.2,6.3-10,10.7-13.3C578.3,332.8,580.2,332.6,580.8,334z"/>
	<path id="path2827" class="st2" d="M441.2,382.7c3,3.4,5.1,7.2,4,11.9c-0.5,0.9-0.4,2.3-1.6,2.6c-0.4,0.1-0.8,0-1-0.4
		c0-0.1-0.1-0.2,0-0.3c-0.2-2.5-0.2-5.1-1.7-7.1c-1.7-1.8-3.4-4.8-6.1-4.8c-1.8,0.5-3.2,2.7-4.3,4.1c-0.1,0.2-0.4,0.2-0.5,0.1
		c-1-2.6,1-4.8,1.8-7c1.6-1.6,1.2-6.2,4.7-4.7C439,378.3,439.4,380.9,441.2,382.7z"/>
	<path class="st0" d="M738.1,437.8c-4.7,0.3-7.3-5-10.1-8c-2.3-2.7-6.8-4-6.7-8c-0.8-1.6-1-4.3-1.7-6.3c-0.7-1.7-1.2-3.8-3.4-4.2
		c-3.9-0.7-8.8,0.3-11.3-3.4c-2.6-2.8,0.3-5.7,0.8-8.4c1.1-3.4,1-8.3,0.4-11.8c0-2.1-1.2-3.5-0.8-5.5c0.9-1.7,2.8-0.6,4.2-0.4
		c5.3,1.3,11,0.9,16-1.3c6.4-3.1,11.6-9.7,11.3-17.2c-0.9-9.6-7.6-17.6-15.1-23.9c-1.4-1.2-3.3-2.5-3.8-4.2
		c-0.2-3.8,4.2-1.6,6.3-2.5c2.5-0.5,4.9-1.5,7.1-2.9c5.7-3.8,7-10.3,5.9-16.8c-0.1-0.6,0-1.3-0.8-1.3c-1.1,0.9-2.2,1.8-3.4,2.5
		c-3.6,2.1-8.4,2-12.2,3.8c-4.7,2-10.6,4.8-12.6,10.1c-0.4,2.6,0,5.3,1.3,7.6c5.7,9,17.8,15.1,19.7,26c0.8,4.4-1.6,7.6-5,10.1
		c-5.2,3.2-12.9,2-18.1-0.8c-10-5-18.3-13.4-29-16.8c-6.7-3-15-2-21-6.7c-4.6-3-8.9-7.1-13.9-8.4c-3.5-1.2-7.7-0.8-10.9-2.5
		c-3.2-3-6.7-5.5-10.5-7.6c-5.3-2.7-11.3-4.2-17.2-5.5c-3.5-0.8-4.7-4.8-7.6-6.7c-4.9-3.9-10.2-6.4-16.8-5.9c-2.7,0.2-5,2-7.1,3.8
		c-14.1,12.3-30.4,20.8-43.3,34.9c-8.7,9-10.7,20.1-13.9,31.1c-4.6,16.5-6.8,34.7-23.5,44.9c-0.3,0.6-0.1,1.3,0.4,1.7
		c4.3,1,8.8-0.2,11.8-3.4c2.8-4.6,6.1-9,9.6-12.9l0.8-0.4c0.4,0,1,0.2,0.8,0.8c-1.1,3.7-4.4,6.4-5.5,10.1c-1.4,4.4-5.6,7.8-9.2,10.9
		v0.4c0,0.6,0.3,1.1,0.8,1.3c8.1,0.3,13.9-5.5,19.2-10.9c0.6-0.5,1.4-0.6,2.1-0.4c2.4,1.9,4.5,4.9,7.6,5.5c3.5-0.6,7-0.9,10.5-0.8
		c4.9,1.4,9.4,3.4,14.3,5c2.5-0.1,4.6-2.2,5.9-4.2c1-2.4-0.6-4.8-0.4-7.1c1.2-0.7,2.5,0,3.8-0.4c0.7-0.4,1.1-1,1.3-1.7
		c-0.9-4.2-4.7-7.3-5.9-11.3c-1.8-5-8.1-8-9.2-13.4c0-0.1,0-0.1,0-0.1c0.2-0.5,0.8-0.6,1.2-0.4c4,2.8,7.3,6.4,12.2,7.1
		c3.7,0.3,7.6,1.1,11.3,0.8c0.6-0.3,0.9-1,0.8-1.7c-1.6-3.2-2.9-6.6-3.8-10.1c-1.3-4.5-2.3-11-0.8-16c0.3-0.3,0.8-1,1.3-0.8
		c0.7,0.3,1.2,0.9,1.3,1.7c0.6,7.8,0.8,15.2,5.5,21.4c2,3.2,5.5,3.8,8,6.3c1,1.3,1.3,3,0.8,4.6l-5.9,8.4c-1.3,1.8-2.3,3.8-2.9,5.9
		c-0.3,2.2-0.3,4.5,0,6.7c-0.3,0.2-0.4-0.2-0.8-0.4c-1.5-3-3.3-6.9-1.7-10.5l7.1-10.9l0.4-0.8c-1.6-0.9-3.3-1.6-5-2.1
		c-0.8,0.5-1.6,1.3-2.1,2.1l-6.7,12.2c-0.4,1.5-1.2,2.6-0.8,4.2c0.3,1.9,0.9,3.8,1.7,5.5c0.5,2.3,1.3,4.6,2.5,6.7
		c1.8,1.9,4.1-0.2,6.3,0.4s2.8,3.6,5,4.2c4.9,1.7,10.5,2.3,15.5,4.2c2.6,0.8,6.1,2.1,8.4,0c3.2-1.8,4.1-5.2,4.6-8.4
		c1-1.4,3.1-0.8,4.6-1.3c2.8-1.9,3.5-5.5,5.5-8l0.4-1.3c-0.3-0.7-1-1.2-1.7-1.3h-9.2c-4.3,0.6-4.9,5.1-6.7,8c-1,1.8-3,2.8-5,2.5
		c-4.4-1.2-10.2-1.9-12.2-6.7c-0.4-1.2-0.1-2.5,0.8-3.4c2.4-2.9,5.1-5.6,8-8c4.3-1.1,7.9-3.8,10.1-7.6c1.1-1.5,1.1-3.8,2.9-5
		c0.6-0.1,1.1,0.3,1.3,0.8c0.8,2.6-0.5,4.8-1.3,7.1c10.1,1,18.4-2.9,28.2-2.5c4.2,0,7.7,0.6,11.8,0.4s8.4-1.7,9.7-5.9
		c1.8-5.4,0.5-11.6-0.4-16.8l0.4-0.8c0.6-0.3,1.3-0.1,1.7,0.4c1.8,5.3,3.1,10.8,3.8,16.4c0.8,4.7,2.9,8.6,5.5,12.6
		c4.7,7,12.8,9.8,21,8c10-0.7,18.7,3.7,24.8,11.4v0.4c-0.3,0.4-0.8,0.8-1.3,0.8c-5.2-4-10.5-8.4-17.2-9.2c-7-1.3-13.1,1.9-19.7-0.8
		c-7.3-2.4-13.2-9.8-16-16.4h-0.4c-0.7,0.2-1.1,0.7-1.3,1.3l0.8,5.5c1.1,4.6,2.6,10.1,7.6,12.2c3.9,2.3,7.8,5.9,12.6,4.6
		c8.1-1.8,16.5,0.1,23.1,5c2.1,1.2,4,3.4,6.3,4.2c2.6,0.9,5.5,0.4,7.6-1.3c4.7-1.6,5.6,4.6,8.8,6.7c2.9,2.8,8,1.7,11.8,1.7l0.8-0.4
		C740.6,444.4,739.6,441,738.1,437.8z M541.2,419.9c-1.1,0.8-3,0.4-4.4,0.2c-1.7-0.9-2-2.9-2.2-4.7c0-0.5,0.2-1,0.5-1.3
		c2-0.2,3.9,0.6,5.2,2C540.8,417.3,541.9,418.6,541.2,419.9z M543.1,389c-0.3,0.4-0.7,0.8-1.1,0.8c-0.2,0-0.3-0.1-0.5-0.2
		c-1.7-0.6-1.6-3.1-3.5-3.3c-0.1,0-0.3,0-0.4,0c-1.8-0.1-2.8,1.4-4.2,2.1c-2.4,2.1-5.6,4.3-6.2,7.6c-0.5,1.2-0.3,2.9-1.3,3.5
		c-0.2,0-0.3,0-0.4,0c-0.4-0.1-0.8-0.4-1-0.8v-0.1c-0.5-4.2,1.1-8.3,4.2-11.1c3-2.5,5.2-5.9,7.6-8.8l0,0c1.4-0.2,2.6,0.5,3.1,1.7
		c1.6,2.1,2.9,4.4,3.9,6.9C543.4,387.9,543.4,388.4,543.1,389z M580.1,337c-3.8,3.6-8.4,7.3-11.1,11.6c-1,1.4-1.8,2.9-2.5,4.5
		c-0.1,0.2-0.4,0.3-0.6,0.2c-0.7-2.2,0.2-4.5,0.7-6.6c2-5.2,6.3-10,10.7-13.3c1-0.6,2.9-0.8,3.5,0.6
		C581.5,335.2,580.7,336.1,580.1,337z"/>
	<path class="st0" d="M477,424.4l-3.4-1.7c-5.5-3.2-7.5-9.5-10.9-14.3c-1.2-1.7-3.5-2.8-4.6-4.6c-4-10.8-7.4-21.6-8.4-34
		c-0.8-3-1.2-5.9-2.9-8.8c-4.9-8.1-11.3-15.6-17.6-23.1c-0.6-0.6-1.8-1-2.1-1.7l-21.8-18.1c-2.6-1.8-5.4-3.4-8.4-4.6
		c-5-1.7-10.5-1.6-15.5,0.4c-4.7,2.5-8.9,5.9-13.9,7.6c-7.2,3.3-15.2,4.2-21.4,9.7c-3.6,3.1-6.9,7.9-12.2,7.1
		c-5.6-0.2-11.2,1.7-15.5,5.5c-4,3.6-8.2,8.2-13.4,9.2c-4.6,1.9-10,0.7-14.7,2.5c-7.5,1.8-13.4,8.1-19.8,12.6
		c-6.4,3.7-12.7,7.3-20.6,7.1c-5.4-0.3-10-3.8-11.8-8.8c-1.7-5.6,0.2-11.7,4.6-15.5c4.8-5.6,12.3-8.6,16-15.1c2-3.4,1.8-9-0.8-12.2
		c-4.9-5-12.1-5.5-18.5-7.1c-4.1-1.1-6.9-4-10.5-5.9c-1.4,2-1.9,4.3-1.7,6.7c0.9,5.9,4.9,10.9,10.5,13c3.2,1.4,7.2,0.6,10.5,1.3
		c1,0.5,1.6,1.4,1.7,2.5c-0.1,0.9,0,1.9-0.8,2.5c-5.1,4.3-10.8,8-15.1,13.4c-4.6,5-4.9,14-2.5,20.2c2.6,7.2,10,12.1,17.2,13
		c5.2,0.8,9.9-0.7,14.7-1.7c0.6,0,1.1,0.3,1.3,0.8c0.4,4.3-0.5,7.9,0.4,11.8c0.9,3.3,2.1,6.6,3.4,9.7c0.3,1.2,0,2.5-0.8,3.4
		c-2.6,2-5.4,3.7-8.4,5l-7.1,0.4l-1.3,0.4c-2.7,3.2-2.9,6.6-4.6,10.1c-2.2,3.7-6.3,5.5-9.7,7.6c-1,1.8-2.3,3.5-3.8,5
		c-1.2,1.1-2.6,1.1-4.2,1.3c-2.5,2.9-3,6.8-3.8,10.5v0.4c4,0.4,8.6,2.6,12.6,0.4c3.4-1.6,4.1-5.9,6.7-8.4c2-2.2,4.7-0.5,7.1,0
		c3.6,0.2,6.2-2.6,9.2-3.8c2.1-1.4,4.1-3.6,6.3-5c4.3-2,9.9-0.8,14.3,0c3.5,0.8,7.2,0.3,10.5-1.2c2.8-1.7,5.6-3.9,8.8-4.6
		c2.9-1.4,4.3-4.4,5.5-7.1c0.9-2.5,3.1-4.7,2.9-7.6c-0.7-0.7-1.4-1.8-2.5-1.7c-1.4,1.9-2.6,4.1-4.2,5.9c-6.1,8.3-15.4,9.7-25.2,9.7
		c-10-0.4-19.1,2.7-26,10.5c-0.5,0.3-1.2,0.3-1.7,0c-0.2-1.1,0.9-2.2,1.3-3c6.1-8.7,15.9-10.7,26-10.9c5.5-0.4,10.4-1,15.1-3.4
		c5.2-2.6,9.1-8.2,11.3-13.4c1.1-5.7,1.4-12.1,2.9-17.6c0-0.1,0-0.1,0-0.1c0.2-0.4,0.8-0.5,1.2-0.3c0.6,0,1.3,0.2,1.3,0.8
		c-1,5.7-1.8,12.6,0.4,18.1c4.4,5.8,12.5,2,18.5,1.7c6.2-0.5,11.6,1.7,17.6,2.1c2.9-0.1,6.5,0.6,8.8-1.3c0.7-1-0.2-1.8-0.4-2.9
		c-0.2-1.7-1.2-4.1,0.4-5.5c0.5-0.4,0.9-0.1,1.3,0.4c0.8,2.3,1.4,4.7,2.9,6.7c3.1,3.7,6.9,6.7,11.3,8.8c3.8,2.6,6.8,6.2,7.1,10.9
		c0,2.4-1.9,4.4-3.8,5.5c-3.1,1.5-6.8,2.9-10.5,2.5c-4.8-2.5-6-7.6-9.2-11.4c-1.6-1.8-4.2-2.3-6.7-2.1c-2.6,0.2-5.1,0.6-7.6,1.3
		c-0.6,0.5-0.9,1.3-0.8,2.1c1.7,3,3.6,5.8,5.5,8.8c2.1,1.3,4.9-0.6,6.7,1.7c1.5,2.4,2.6,5.2,5,7.1c2.4,2.2,5.8,2.8,8.8,1.7
		c6.8-2.1,13.8-4.2,20.2-7.6h2.1c2.6-0.3,5.3-0.2,7.1-2.1c2.1-2.8,3.9-5.7,5.5-8.8c1.6-2.1,0.6-5.7,0-8c-2.9-3.8-5.2-8.1-6.7-12.6
		c-1.5-0.5-2.8-1.4-4.6-1.3c-0.8,0.4-2,0.4-2.5,1.3l7.6,14.3c0.5,1.3,0.7,2.8,0.4,4.2c-0.9,3.2-2.6,6.1-5,8.4c0,0-0.1,0.1-0.2,0.1
		c-0.4,0.2-0.9-0.1-1-0.5c0.8-3.1,2.3-6.5,2.1-10.1l-7.1-12.6c-0.8-1.8-2.2-3.5-2.1-5.5c0.2-0.9,0.8-1.7,1.7-2.1
		c3.1-1.1,6.8-0.9,9.2-3.4c3.1-4.5,5.1-9.7,5.9-15.1c0.1-0.4,0.2-1.3,0.8-1.3c0.5-0.2,0.5,0.5,0.8,0.8c1,6.4-0.5,12.8-4.2,18.1
		c-0.3,0.6-0.2,1.3,0.4,1.7c3.5,1.1,7.2-0.1,10.1-1.7c3.8,0.1,7.1-0.7,10.5-1.3c0.4,0.1,0.7,0.4,0.8,0.8c-2.2,2.5-3.6,5.5-4.2,8.8
		c-2.7,2.9-6.8,5.6-7.1,9.7c0.5,2,2.2-0.2,3.4,0c0.7,0.2,1.2,0.7,1.3,1.3l-2.9,4.2c-1.5,2.4,0.4,4.8,0.4,7.1c0.7,1.9,2.6,3.1,4.6,3
		c4.2-0.2,8.1-1.7,11.8-3c4-1.7,9-1.5,13.4-0.8c4.3-0.3,7.3-3.5,10.5-6.3c1.7,0,3.4,1.2,4.6,2.5c5,5.4,11.6,7.8,18.9,7.6l0.4-0.4
		l0.1-0.1c0.4-0.5,0.4-1.2-0.1-1.6l-4.6-2.1c-3.1-2-6.6-4.6-7.6-8c-1.1-3.2-2.7-6.3-4.6-9.2c-0.6-1.5-1.8-2.7-2.5-4.2
		c0.2-0.2,0.1-0.5,0.4-0.4c4.8,1.7,7.9,6.3,10.1,10.5c3.5,4.9,8.5,9.1,15.1,8l0.3-0.4C477.2,425,477.2,424.6,477,424.4z
		 M398.7,358.8c-0.2,0.2-0.5,0.3-0.7,0.1c-0.6-3.8-1.6-7.6-3-11.2c-0.8-2.1-3.6-3.9-2.3-6.4c0.6-0.5,1.5-0.7,2.3-0.4
		c1.2,1.1,2.3,2.5,3.1,4.1C399.9,349,399.9,354.5,398.7,358.8z M434.1,419.5c-1.8,0.5-3.7,0.8-5.6,0.6c-0.5-0.2-1.1-0.5-0.9-1
		c0.9-2.7,3.1-4.8,5.9-5.5c0.7-0.1,1.7-0.2,1.9,0.9C435.6,416.3,435.6,418.4,434.1,419.5z M445.2,394.6c-0.5,0.9-0.4,2.3-1.6,2.6
		c-0.4,0.1-0.8,0-1-0.4c0-0.1-0.1-0.2,0-0.3c-0.2-2.5-0.2-5.1-1.7-7.1c-1.7-1.8-3.4-4.8-6.1-4.8c-1.8,0.6-3.2,2.7-4.3,4.1
		c-0.1,0.2-0.4,0.2-0.6,0.1c-1-2.6,1-4.8,1.8-7c1.6-1.6,1.2-6.2,4.7-4.7c2.6,1.2,3,3.8,4.8,5.6C444.2,386.1,446.3,389.9,445.2,394.6
		z"/>
	<path class="st3" d="M540.3,416.1c0.5,1.2,1.6,2.5,0.9,3.8c-1.1,0.8-3,0.4-4.4,0.2c-1.7-0.9-2-2.9-2.2-4.7c0-0.5,0.2-1,0.5-1.3
		C537.1,413.9,539,414.7,540.3,416.1z"/>
	<path id="path2843" class="st4" d="M369.9,424.1c0.2,1.2,2,2.5,0.7,3.5c-2,1.8-4.7,2.6-7.4,2.3c-2.1-1.6-2-4.7-3.9-6.7
		c-0.5-1.6-3-1.6-2.5-3.3l0.8-0.5c3,0.1,5.9-0.1,8.8-0.5C369.5,418.9,368.7,422.4,369.9,424.1z"/>
	<path id="path2845" class="st0" d="M606.2,421.3c-0.4,2.6-1.1,5.1-2.1,7.6c-0.8,1.7-3.1,1.1-4.7,0.9c-1.7-0.6-4.2-0.8-4.5-3.1
		c-0.1-2.1,0.5-4.2,1.8-5.9c2.5-0.4,5.3,0.2,7.8-0.3C605.2,420.2,605.9,420.5,606.2,421.3C606.2,421.2,606.2,421.2,606.2,421.3"/>
	<path id="path2851" class="st4" d="M235.5,425.2c-1.5,2.7-3.3,5.8-6.2,7.5c-1.1,0.4-2.3,0.3-3.4-0.2c-0.6-0.5-1.7-1.2-1.7-2.1
		c0.2-1-0.2-2.4,0.7-3c2.2-1.3,4.4-2.8,6.4-4.5c0.6-0.2,1.5-0.5,2-0.1C234.3,423.4,235,424.2,235.5,425.2z"/>
	<path id="path2855" class="st4" d="M735.4,423.3c2.2,1.9,5,3.3,6.7,5.7c0.1,1.1-0.3,2.2-1.1,3c-0.9,0.8-2,1.3-3.2,1.4
		c-1.3-0.1-2.5-0.8-3.2-1.9c-1.4-2-3.2-3.9-3.9-6.1C731.6,424,733.6,421.7,735.4,423.3z"/>
	<path id="path2859" class="st4" d="M223.7,436.5v0.9c-1.3,3.1-2.1,7.1-3.2,10.7l-0.4,0.2c-2.1-0.5-4.1-1.3-6.1-1.9
		c-0.6-0.5,0-1.2,0.1-1.8c2.3-2.1,1.7-4.9,2.1-7.9c0.6-1.7,1.8-3,3.4-3.8C221.5,433.3,222.6,435.1,223.7,436.5z"/>
	<g id="_Group_5">
		<path class="st0" d="M750.3,442.4c0.4,1.6,2.3,2.9,1.3,4.5l-5.9,1.9c-1,0-0.6-1.3-1-1.9c-0.6-3.1-1.4-6.1-2.5-9.1
			c-0.3-1.9,1.7-3.2,2.9-4.3c1.6-0.4,2.7,1,3.9,1.9C750.4,437.4,749.9,440.3,750.3,442.4z"/>
		<path class="st0" d="M742.1,429c0.1,1.1-0.3,2.2-1.1,3c-0.9,0.8-2,1.3-3.2,1.4c-1.3-0.1-2.5-0.8-3.2-1.9c-1.4-2-3.2-3.9-3.9-6.1
			c0.9-1.4,2.8-3.7,4.7-2.1C737.6,425.1,740.4,426.6,742.1,429z"/>
		<path class="st0" d="M604.5,420.4c0.7-0.2,1.4,0.1,1.6,0.7v0.1c-0.4,2.6-1.1,5.1-2.1,7.6c-0.8,1.7-3.1,1.1-4.7,0.9
			c-1.7-0.6-4.2-0.8-4.5-3.1c-0.1-2.1,0.5-4.2,1.8-5.9C599.2,420.4,602,420.9,604.5,420.4z"/>
		<path class="st0" d="M369.9,424.1c0.2,1.2,2,2.5,0.7,3.5c-2,1.8-4.7,2.6-7.4,2.3c-2.1-1.6-2-4.7-3.9-6.7c-0.5-1.6-3-1.6-2.5-3.3
			l0.8-0.6c3,0.1,5.9-0.1,8.8-0.5C369.5,418.9,368.7,422.4,369.9,424.1z"/>
		<path class="st0" d="M233.4,422.7c0.9,0.6,1.7,1.5,2.1,2.5c-1.5,2.7-3.3,5.8-6.2,7.5c-1.1,0.4-2.3,0.3-3.4-0.2
			c-0.6-0.6-1.7-1.2-1.7-2.1c0.2-1-0.2-2.4,0.7-3c2.2-1.3,4.4-2.8,6.4-4.5C232,422.6,232.8,422.3,233.4,422.7z"/>
		<path class="st0" d="M223.7,436.5v0.9c-1.3,3.1-2.1,7.1-3.2,10.7l-0.4,0.2c-2.1-0.5-4.1-1.3-6.1-1.9c-0.6-0.5,0-1.2,0.1-1.7
			c2.3-2.1,1.7-4.9,2.1-7.9c0.6-1.7,1.8-3,3.4-3.8C221.5,433.3,222.6,435.1,223.7,436.5z"/>
		<path class="st0" d="M606.2,421.3c-0.4,2.6-1.1,5.1-2.1,7.6c-0.8,1.7-3.1,1.1-4.7,0.9c-1.7-0.6-4.2-0.8-4.5-3.1
			c-0.1-2.1,0.5-4.2,1.8-5.9c2.5-0.4,5.3,0.2,7.8-0.3C605.2,420.2,605.9,420.5,606.2,421.3C606.2,421.2,606.2,421.2,606.2,421.3z"/>
	</g>
	<path id="path2863" class="st1" d="M749.1,435.5c1.4,1.9,0.8,4.9,1.3,7c0.4,1.6,2.3,2.9,1.3,4.5l-5.9,1.9c-1,0-0.6-1.3-1-1.9
		c-0.6-3.1-1.4-6.1-2.5-9.1c-0.3-1.9,1.7-3.2,2.9-4.3C746.7,433.1,747.8,434.5,749.1,435.5z"/>
</g>
</svg>
