<?xml version="1.0" encoding="utf-8"?>
<!-- Generator: Adobe Illustrator 20.1.0, SVG Export Plug-In . SVG Version: 6.00 Build 0)  -->
<svg version="1.1" id="Layer_1" xmlns="http://www.w3.org/2000/svg" xmlns:xlink="http://www.w3.org/1999/xlink" x="0px" y="0px" width="42.1px" height="42.1px"
	 viewBox="0 0 42.1 42.1" style="enable-background:new 0 0 42.1 42.1;" xml:space="preserve">
<style type="text/css">
	.st0{fill:#959595;}
</style>
<g>
	<path class="st0" d="M39.3,30c0.1,0.8-0.2,1.5-0.7,2.6c-0.4,0.9-1.1,1.5-1.8,2.4s-1.6,1.7-2.5,2.4c-1,0.7-1.8,1.4-2.9,1.9
		s-2.1,1-3.1,1.2c-0.9,0.1-1.8,0-2.5-0.2s-1.2-0.6-1.6-1.1s-0.5-1.2-0.5-2s0.3-1.6,0.7-2.5c0.4-0.8,0.9-1.7,1.6-2.5s1.5-1.6,2.4-2.2
		c0.9-0.7,1.8-1.3,2.9-1.8c1-0.5,2-0.8,2.9-0.9c0.9-0.2,1.8-0.2,2.5,0s1.4,0.4,1.8,0.9C38.9,28.6,39.3,29.2,39.3,30z M35.9,33
		c0-0.4-0.1-0.7-0.3-0.9s-0.5-0.4-0.8-0.5s-0.7-0.1-1.2,0c-0.4,0.1-0.9,0.2-1.4,0.4s-1,0.5-1.4,0.9c-0.4,0.3-0.8,0.7-1.1,1.1
		c-0.3,0.4-0.6,0.8-0.8,1.2c-0.2,0.4-0.3,0.8-0.3,1.2s0.1,0.7,0.3,0.9c0.2,0.2,0.5,0.4,0.8,0.5s0.7,0.1,1.2,0.1
		c0.5-0.1,0.9-0.2,1.5-0.4c0.5-0.2,1-0.5,1.5-0.9c0.4-0.3,0.8-0.7,1.2-1.1c0.3-0.4,0.6-0.8,0.8-1.2C35.8,33.8,35.9,33.4,35.9,33z"/>
	<path class="st0" d="M11,3C8.1,4.8,6.4,5.7,4.3,8.3c-0.8,1-1.3,1.6-1.9,2.8c-0.3,0.6-0.6,1.6-0.6,1.6l-0.1,1.1l-0.2,1.5l-0.1,1.3
		v0.5c0-0.1,0-0.2,0-0.3c0-0.1,0-0.2,0-0.4c0-0.1,0-0.2,0.1-0.4c0-0.1,0.1-0.3,0.1-0.4c0.3-1.3,0.9-2.7,1.9-4.3c1-1.7,1.8-2.6,3.2-4
		C8,6,8.9,5,10.6,3.8c1-0.8,3.6-2.4,5.1-2.6c0.6-0.1-1.4,0.1-2.1,0.4C12.5,2.1,12,2.4,11,3z"/>
	<path class="st0" d="M31.8,4.2l-1-1.2l-1.2-1L29,1.6L27.7,1c-0.7-0.2-1.6-0.6-2.6-0.7c-0.9-0.1-2.3-0.3-3.5-0.1
		c-1.1,0.2-1.8,0.5-3.1,1c-1.2,0.5-2.6,1.2-3.9,2C12.8,4.5,11,5.8,9.4,7.3c-1.6,1.4-3.2,3-4.5,4.6s-2.5,3.3-3.3,4.9
		c-1,1.6-1.3,3.2-1.6,4.7c0,0.3,0,0.6,0,0.8c0,0.3,0.2,2,0.5,3.3c0.1,0.5,0.2,0.8,0.4,1.4s0.7,1.5,0.7,1.5l0.2,0.4l0.5,0.8
		c-0.2-0.3-0.3-0.6-0.5-0.9c-0.1-0.3-0.2-0.7-0.3-1.1c-0.1-0.4-0.1-0.8-0.1-1.2c0-0.4,0-0.9,0.1-1.3c0.2-1.6,0.9-3.3,1.8-5.1
		c0.9-1.7,2.1-3.5,3.5-5.2s3-3.3,4.7-4.8s3.6-2.9,5.6-4.1c1.6-1,3.1-1.7,4.6-2.3s2.9-0.9,4.2-1.1c1.3-0.2,2.5-0.1,3.5,0.1
		C30.4,3,31.2,3.5,31.8,4.2"/>
	<path class="st0" d="M38.9,12.8L37.1,8l-0.5-1C36,6,35,5.3,33.8,4.9c-1.1-0.4-3.2-0.4-4.7-0.2c-1.5,0.2-3.2,0.6-4.9,1.3
		c-1.7,0.7-3.5,1.6-5.4,2.8c-2.1,1.3-4,2.9-5.8,4.6s-3.4,3.5-4.7,5.3c-1.4,1.9-2.5,3.8-3.3,5.6c-0.8,1.9-1.3,3.7-1.4,5.4
		c0,0.6,0,1.2,0.1,1.8C3.6,32.1,3.8,32.6,4,33c0.2,0.5,0.4,0.9,0.7,1.3c0.3,0.4,0.7,0.7,1.1,1l1.4,0.9l1.3,0.7l1.5,0.7l1.3,0.5
		c-0.6-0.2-1.2-0.5-1.7-0.9s-0.9-0.8-1.2-1.3s-0.6-1.1-0.7-1.7c-0.2-0.6-0.2-1.4-0.2-2.1c0-1.6,0.5-3.3,1.2-5.1
		c0.7-1.7,1.8-3.5,3-5.3c1.2-1.7,2.7-3.4,4.4-5c1.6-1.6,3.5-3,5.4-4.2s3.8-2.2,5.6-2.8c1.8-0.6,4.2-1.1,5.7-1.1s2.9,0.4,3.9,1
		c1.1,0.7,1.3,1.9,1.6,3.3L38.9,12.8z"/>
	<path class="st0" d="M40.3,22.7c0.1-0.3,0.9-0.6,1-1s0.2-0.7,0.3-1.1s0.3-2.3,0.3-2.7c-0.1-0.2-0.1-0.4-0.2-0.6c-0.5-1-1.1-1.4-2-2
		c-1-0.7-3-1.1-4.4-1.2c-1.5,0-3.1,0.2-4.9,0.8c-1.7,0.6-3.6,1.5-5.5,2.6c-1.9,1.2-3.6,2.5-5.2,4c-1.6,1.5-3,3.1-4.2,4.7
		s-2.1,3.3-2.8,4.9c-0.7,1.7-1,3.3-1,4.8c0,0.9,0.2,1.8,0.5,2.5s0.7,1.3,1.3,1.8s1.2,0.9,2.1,1.1c0.8,0.2,1.7,0.3,2.7,0.4h0.2
		l1.6-0.1l1.5-0.2l0.8-0.1l1.4-0.3l1.4-0.4l0.4-0.1l1.2-0.5l0.2,0c-1.4,0.6-2.8,0.9-4,1.1c-1.2,0.1-2.3,0-3.2-0.3
		c-0.9-0.3-1.6-0.8-2.1-1.5s-0.8-1.6-0.8-2.6c-0.1-1.2,0.2-2.5,0.7-3.8s1.2-2.7,2.2-4c0.9-1.3,2.1-2.6,3.3-3.8
		c1.3-1.2,2.7-2.3,4.2-3.2c1.5-0.9,3-1.6,4.4-2s2.7-0.6,3.9-0.6c1.2,0.1,2.2,0.4,3,1C39.5,20.7,40,21.5,40.3,22.7"/>
	<path class="st0" d="M23,2.7c-0.2,0.7-0.7,1.4-1.3,2.1C21,5.5,20.2,6.3,19.1,7c-1,0.7-2.2,1.4-3.4,2s-2.5,1.1-3.9,1.5
		c-1.3,0.4-2.5,0.6-3.5,0.6S6.5,11,5.9,10.8s-1-0.6-1.2-1.1C4.5,9.2,4.5,8.6,4.8,7.9C4.9,7.7,5,7.5,5.2,7.3c0.1-0.2,0.3-0.4,0.5-0.6
		C5.8,6.5,6,6.3,6.2,6c0.2-0.2,0.4-0.4,0.6-0.6l0.6-0.5L8,4.4L8.6,4l0.6-0.4l0.6-0.4l0.6-0.3l0.5-0.3c0,0-1.1,0.8-1.7,1.5
		c-0.3,0.3-0.5,0.7-0.7,1C8.4,5.5,8.4,5.7,8.5,6c0.1,0.2,0.3,0.4,0.6,0.5s0.7,0.1,1.2,0.1s1.1-0.1,1.7-0.3c0.6-0.2,1.3-0.4,1.9-0.7
		c0.6-0.3,1.2-0.6,1.7-1c0.5-0.3,0.9-0.7,1.3-1.1c0.3-0.4,0.6-0.7,0.7-1s0.1-0.6,0-0.8s-0.4-0.4-0.7-0.5c-0.3-0.1-0.7-0.1-1.2,0
		c-0.5,0.1-1,0.1-1.6,0.3c-0.4,0.1-0.6,0.2-1,0.4c1.2-0.6,1.8-0.9,3.1-1.3c0.8-0.3,1.4-0.4,2.1-0.5S19.7,0,20.4,0
		C21,0.1,21.6,0.2,22,0.4s0.7,0.5,0.9,0.9C23.1,1.7,23.1,2.2,23,2.7z"/>
	<path class="st0" d="M39.1,31.5c0,0-0.3,0.8-0.5,1.2s-0.7,1-0.7,1s-0.2,0.2-0.3,0.3c-0.3,0.4-0.8,0.9-0.8,0.9l-0.6,0.7
		c-0.7,0.7-1.4,1.3-2.3,2c-0.8,0.6-1.7,1.2-2.7,1.7s-2,1-3,1.4s-2.1,0.7-3.2,0.9c-0.2,0-0.4,0.1-0.6,0.1s-0.4,0.1-0.6,0.1
		s-0.4,0.1-0.6,0.1s-0.4,0-0.6,0.1l-1.2,0.1h-0.3h-1.3L18.5,42c0,0-0.2,0-0.4,0c-0.5-0.1-0.8-0.1-1.4-0.2c-0.5-0.1-1.4-0.3-1.4-0.3
		l-0.7-0.2L14.5,41c0.5,0.2,1.1,0.4,1.8,0.5c0.6,0.1,1.3,0.2,2,0.2s1.5,0,2.3-0.1s1.6-0.2,2.5-0.4c2-0.4,3.9-1.1,5.8-1.9
		c1.9-0.8,3.6-1.8,5.2-2.9c1.6-1.1,2.9-2.3,4-3.6C38.5,32.3,38.8,31.9,39.1,31.5C39.1,31.4,39.1,31.5,39.1,31.5z"/>
	<path class="st0" d="M27.7,1l1.4,0.5l1.4,0.6L31,2.4c0.4,0.2,0.7,0.4,1,0.7s0.5,0.6,0.7,0.9C32.9,4.3,33,4.7,33,5.1s0,0.9-0.1,1.3
		c-0.2,1.2-1,2.6-2.1,4s-2.7,2.8-4.5,4.1s-3.9,2.6-6.2,3.7s-4.7,2-7,2.6C11,21.4,9,21.6,7.3,21.7c-1.7,0-3.1-0.2-4.2-0.6
		s-1.9-1-2.3-1.7c-0.5-0.7-0.6-1.7-0.4-2.7l0.1-0.4l0.4-1.5l0.5-1.4l0.5-1.2l0.5-1l-0.1,0.2l0,0c-0.4,1-0.5,1.8-0.3,2.5
		s0.8,1.3,1.7,1.7s2.1,0.6,3.5,0.6s3.1-0.3,5-0.8s3.8-1.2,5.6-2.1c1.8-0.9,3.5-1.8,5-2.9c1.5-1,2.7-2.1,3.6-3.2s1.6-2.1,1.8-3.1
		c0.1-0.5,0.1-1,0.1-1.4c-0.1-0.4-0.3-0.8-0.5-1.1c-0.3-0.3-0.6-0.6-1-0.8c-0.3-0.1-0.6-0.3-0.9-0.4l-0.5-0.1c0.2,0,0.3,0.1,0.5,0.1
		c0,0,0.5,0.1,0.8,0.2C27,0.8,27.7,1,27.7,1z"/>
	<path class="st0" d="M36.9,7.2l1,1.3l0.9,1.4l0.4,0.7c0.1,0.2,0.2,0.5,0.3,0.7s0.2,0.5,0.2,0.8s0.1,0.5,0.1,0.8s0,0.6-0.1,0.9
		c-0.2,1.6-1,3.3-2.3,5c-1.3,1.8-3.1,3.5-5.2,5.2c-2.2,1.7-4.7,3.2-7.4,4.5s-5.6,2.3-8.5,3c-2.1,0.5-4,0.8-5.7,0.8
		c-1.6,0.1-3.1,0-4.4-0.3S3.8,31.2,3,30.6s-1.4-1.4-1.7-2.2l-0.3-1l-0.4-1.6l-0.3-1.6l-0.1-0.5L0,22.8c0-0.1,0,0,0,0
		c0.1,0.9,0.5,1.6,1.1,2.3c0.7,0.7,1.6,1.3,2.9,1.6c1.3,0.4,2.8,0.5,4.5,0.5c1.8-0.1,3.8-0.3,6-0.9c2.7-0.7,5.5-1.7,8-2.9
		c2.6-1.2,5-2.7,7-4.2c2-1.5,3.8-3.2,5-4.8s2-3.2,2.2-4.6C36.9,9.4,37,9,36.9,8.6c0-0.4-0.1-0.7-0.2-1c-0.1-0.3-0.2-0.6-0.4-0.9
		c-0.1-0.2-0.2-0.3-0.4-0.5l0,0l0.9,0.9L36.9,7.2z"/>
	<path class="st0" d="M42,19.3c0.1,1.3,0.2,2.1,0,3.4c-0.3,2-0.8,3.2-2,4.8c-1.1,1.7-2.7,3.3-4.7,4.9c-1.9,1.6-4.2,3-6.7,4.1
		c-2.5,1.2-5.1,2.1-7.7,2.7c-1.4,0.3-2.7,0.5-3.9,0.6s-2.3,0.1-3.4,0c-1-0.1-2-0.3-2.8-0.6s-1.5-0.6-2.1-1.1l-1.3-1l-1.1-1
		c0,0-0.7-0.7-1.1-1.2C4.9,34.6,4.5,34,4.5,34c-0.1-0.1,0,0,0,0c0.5,0.6,1.1,1,1.9,1.4c0.9,0.5,1.9,0.8,3.2,1
		c1.2,0.2,2.6,0.3,4.2,0.2c1.5-0.1,3.2-0.3,5-0.7c2.9-0.6,5.7-1.7,8.4-2.9c2.7-1.3,5.2-2.8,7.3-4.5c2.1-1.7,3.8-3.4,5.1-5.2
		c1.2-1.7,2-3.5,2.2-5.1c0-0.2,0-0.3,0-0.5s0-0.4,0-0.5c0-0.2,0.2,0.7,0.2,0.7S42,18.8,42,19.3z"/>
</g>
</svg>
