<?xml version="1.0" encoding="utf-8"?>
<!-- Generator: Adobe Illustrator 20.1.0, SVG Export Plug-In . SVG Version: 6.00 Build 0)  -->
<svg version="1.1" id="Слой_1" xmlns="http://www.w3.org/2000/svg" xmlns:xlink="http://www.w3.org/1999/xlink" x="0px" y="0px"
	 viewBox="0 0 279.1 69.5" style="enable-background:new 0 0 279.1 69.5;" xml:space="preserve">
<style type="text/css">
	.st0{fill:#6E6E6E;}
	.st1{fill-rule:evenodd;clip-rule:evenodd;fill:#6E6E6E;}
</style>
<g>
	<polygon class="st1" points="240.2,27.9 227.4,27.9 226.7,31.7 238.5,31.7 237.7,36.7 225.8,36.7 225,41.5 238.1,41.5 237.1,47.1 
		216.4,47.1 220.7,22.6 241.1,22.6 	"/>
	<polygon class="st1" points="219,28.7 211.2,28.7 207.9,47.1 200.3,47.1 203.6,28.7 195.8,28.7 196.9,22.6 220,22.6 	"/>
	<polygon class="st1" points="192,47.1 184.8,47.1 178,33.7 175.6,47.1 168.5,47.1 172.8,22.6 179.9,22.6 186.8,36.2 189.2,22.6 
		196.3,22.6 	"/>
	<path class="st1" d="M167.9,37.2c-0.3,1.4-0.7,2.8-1.4,4.1c-0.7,1.3-1.6,2.4-2.7,3.4c-1.1,1-2.3,1.6-3.4,2
		c-1.6,0.5-3.4,0.8-5.5,0.8c-1.2,0-2.5-0.1-3.9-0.3c-1.4-0.2-2.5-0.5-3.4-1c-0.9-0.5-1.6-1.2-2.2-2.1c-0.6-0.9-1-1.8-1.1-2.8
		c-0.2-1.6-0.2-2.9,0-4.1l2.6-14.6h7.6l-2.6,14.9c-0.2,1.3-0.1,2.4,0.6,3.1c0.6,0.8,1.6,1.1,2.9,1.1c1.3,0,2.4-0.4,3.3-1.1
		c0.9-0.7,1.4-1.8,1.7-3.1l2.6-14.9h7.6L167.9,37.2z"/>
	<polygon class="st1" points="140.2,47.1 132.6,47.1 134.4,37.2 126,37.2 124.3,47.1 116.7,47.1 121,22.6 128.6,22.6 127.1,31.2 
		135.4,31.2 136.9,22.6 144.6,22.6 	"/>
	<polygon class="st1" points="90.4,47.1 83.2,47.1 76.4,33.7 74,47.1 66.8,47.1 71.2,22.6 78.3,22.6 85.1,36.2 87.5,22.6 94.7,22.6 
			"/>
	<polygon class="st1" points="68.5,27.9 55.7,27.9 55,31.7 66.9,31.7 66,36.7 54.1,36.7 53.3,41.5 66.4,41.5 65.4,47.1 44.7,47.1 
		49,22.6 69.4,22.6 	"/>
	<polygon class="st1" points="23.3,28.7 15.5,28.7 12.3,47.1 4.7,47.1 7.9,28.7 0.2,28.7 1.2,22.6 24.3,22.6 	"/>
	<path class="st1" d="M263.9,29.4c-0.2,1.4-0.7,2.5-1.5,3.5c-0.8,1-1.7,1.8-2.8,2.4c-0.7,0.4-1.7,0.7-2.8,1c0.9,0.3,1.5,0.6,1.8,0.9
		c0.2,0.2,0.6,0.6,1,1.3c0.4,0.7,0.7,1.2,0.8,1.5l2.4,7.1h-8.6l-2.7-7.5c-0.3-1-0.7-1.6-1-1.9c-0.5-0.4-1.1-0.6-1.8-0.6H248
		l-1.8,9.9h-7.6l4.3-24.4h12.7c2.3,0,4.1,0.2,5.3,0.6c1.2,0.4,2,1.1,2.6,2.2C264,26.6,264.2,27.9,263.9,29.4 M255.7,28.2
		c-0.4-0.4-1.3-0.6-2.7-0.6h-3.3l-0.9,5h3.2c0.3,0,1-0.1,2.1-0.3c0.5-0.1,1-0.4,1.4-0.8c0.4-0.4,0.6-0.9,0.7-1.4
		C256.3,29.2,256.2,28.6,255.7,28.2"/>
	<path class="st0" d="M57.2,0C66.5,0,75,3.9,81.1,10.2c2.6,2.7,4.8,5.9,6.4,9.3h-6.8c-1.1-1.9-2.4-3.6-3.9-5.1
		C71.9,9.2,64.9,6,57.2,6c-7.6,0-14.6,3.2-19.6,8.3c-1.5,1.6-2.8,3.3-3.9,5.1H27c1.6-3.4,3.8-6.6,6.4-9.3C39.5,3.9,47.9,0,57.2,0"/>
	<path class="st0" d="M56.9,69.5c-9.4-0.1-17.7-4-23.7-10.3c-2.6-2.7-4.9-5.9-6.5-9.4l6.8,0.1c1.1,1.9,2.4,3.6,3.9,5.2
		c5,5.2,11.9,8.4,19.6,8.5c7.7,0.1,14.6-3.1,19.6-8.2c1.5-1.5,2.8-3.3,4-5.1l6.7,0.1c-1.7,3.4-3.8,6.5-6.6,9.2
		C74.7,65.8,66.3,69.6,56.9,69.5"/>
	<path class="st1" d="M117.6,34.8c-0.5,2.6-1.1,4.6-2,6.1c-0.9,1.4-1.9,2.6-3.1,3.6c-1.2,1-2.5,1.6-3.8,1.9
		c-1.7,0.4-3.3,0.7-4.6,0.7H92.8l4.3-24.4h11.3c2.2,0,4,0.3,5.2,0.9c1.3,0.6,2.2,1.5,2.9,2.6c0.7,1.1,1.1,2.4,1.3,3.9
		C118,31.5,117.9,33.1,117.6,34.8 M109.6,29.6c-0.7-1-2-1.4-4-1.4h-1.9l-2.4,13.4h1.9c1.6,0,2.8-0.2,3.5-0.5c0.7-0.4,1.4-1,1.9-1.8
		c0.5-0.9,1-2.3,1.3-4.2C110.4,32.3,110.3,30.6,109.6,29.6"/>
	<polygon class="st0" points="93.3,55.5 91,55.5 91.5,53.7 98.2,53.7 97.8,55.5 95.4,55.5 93.9,61.4 91.7,61.4 	"/>
	<polygon class="st0" points="99.4,53.7 101.6,53.7 100.8,56.5 103.5,56.5 104.3,53.7 106.4,53.7 104.3,61.4 102.2,61.4 103,58.5 
		100.3,58.5 99.5,61.4 97.3,61.4 	"/>
	<polygon class="st0" points="108,53.7 114.2,53.7 113.8,55.5 109.7,55.5 109.4,56.7 113.1,56.7 112.6,58.3 108.9,58.3 108.6,59.6 
		112.7,59.6 112.2,61.4 106,61.4 	"/>
	<path class="st0" d="M117.7,58.2c0-2.3,1.9-4.7,4.8-4.7c1.6,0,2.7,0.8,3.1,2l-1.9,1c-0.3-0.6-0.8-1-1.6-1c-1.3,0-2.3,1.2-2.3,2.6
		c0,1,0.7,1.6,1.5,1.6c0.7,0,1.2-0.3,1.7-0.8l1.4,1.3c-0.7,0.9-1.8,1.4-3.2,1.4C119.2,61.5,117.7,60.2,117.7,58.2"/>
	<path class="st0" d="M125.9,58.8c0-0.4,0.1-0.8,0.2-1.2l1.1-3.9h2.2l-1.1,4.1c-0.1,0.2-0.1,0.5-0.1,0.7c0,0.7,0.4,1.1,1.2,1.1
		c0.4,0,0.8-0.1,1-0.4c0.3-0.3,0.5-0.7,0.6-1.3l1.2-4.3h2.2l-1.2,4.6c-0.3,1-0.7,1.8-1.2,2.3c-0.7,0.7-1.7,1-2.9,1
		C127.1,61.5,125.9,60.5,125.9,58.8"/>
	<polygon class="st0" points="137.2,55.5 134.9,55.5 135.4,53.7 142.2,53.7 141.7,55.5 139.4,55.5 137.8,61.4 135.6,61.4 	"/>
	<polygon class="st0" points="144.6,55.5 142.3,55.5 142.8,53.7 149.6,53.7 149.1,55.5 146.8,55.5 145.2,61.4 143,61.4 	"/>
	<polygon class="st0" points="150.8,53.7 152.9,53.7 150.9,61.4 148.7,61.4 	"/>
	<polygon class="st0" points="154.6,53.7 156.6,53.7 158.6,58 159.8,53.7 161.9,53.7 159.8,61.4 157.9,61.4 155.9,56.9 154.7,61.4 
		152.5,61.4 	"/>
	<path class="st0" d="M162.1,58.1c0-2.5,2-4.6,5-4.6c1.6,0,2.7,0.6,3.2,1.3l-1.4,1.4c-0.5-0.5-1.1-0.8-1.9-0.8
		c-1.6,0-2.6,1.2-2.6,2.6c0,1.1,0.8,1.6,1.7,1.6c0.4,0,0.8-0.1,1-0.2l0.3-1h-1.5l0.4-1.6h3.6l-1.1,3.9c-0.8,0.4-1.8,0.8-2.9,0.8
		C164,61.5,162.1,60.5,162.1,58.1"/>
	<polygon class="st0" points="175.6,53.7 181.8,53.7 181.3,55.5 177.2,55.5 176.9,56.7 180.6,56.7 180.1,58.3 176.4,58.3 
		176.1,59.6 180.2,59.6 179.8,61.4 173.5,61.4 	"/>
	<path class="st0" d="M183.3,53.7h2.5c1.5,0,2.4,0.4,3,1c0.6,0.6,0.8,1.3,0.8,2.3c0,1.2-0.4,2.2-1.3,3.1c-0.9,0.9-2.3,1.4-4.1,1.4
		h-3.1L183.3,53.7z M184.6,59.5c0.9,0,1.7-0.3,2.2-0.8c0.4-0.4,0.7-1,0.7-1.6c0-0.5-0.1-0.8-0.4-1.1c-0.3-0.3-0.8-0.5-1.5-0.5h-0.6
		l-1.1,3.9H184.6z"/>
	<path class="st0" d="M190.6,58.1c0-2.5,2-4.6,5-4.6c1.5,0,2.7,0.6,3.2,1.3l-1.4,1.4c-0.5-0.5-1.1-0.8-1.9-0.8
		c-1.6,0-2.6,1.2-2.6,2.6c0,1.1,0.8,1.6,1.7,1.6c0.4,0,0.8-0.1,1-0.2l0.3-1h-1.5l0.4-1.6h3.5l-1.1,3.9c-0.8,0.4-1.8,0.8-2.9,0.8
		C192.4,61.5,190.6,60.5,190.6,58.1"/>
	<polygon class="st0" points="200.7,53.7 206.9,53.7 206.4,55.5 202.3,55.5 202,56.7 205.7,56.7 205.2,58.3 201.5,58.3 201.2,59.6 
		205.3,59.6 204.8,61.4 198.6,61.4 	"/>
	<path class="st0" d="M210.3,58.1c0-2.4,1.9-4.6,4.6-4.6c2.2,0,3.7,1.5,3.7,3.5c0,2.4-1.9,4.6-4.6,4.6
		C211.8,61.5,210.3,60,210.3,58.1 M216.4,57.1c0-1-0.6-1.7-1.7-1.7c-1.4,0-2.2,1.3-2.2,2.5c0,1,0.6,1.7,1.7,1.7
		C215.6,59.6,216.4,58.3,216.4,57.1"/>
	<polygon class="st0" points="221,53.7 227.1,53.7 226.6,55.5 222.6,55.5 222.2,56.8 225.9,56.8 225.4,58.6 221.8,58.6 221,61.4 
		218.9,61.4 	"/>
	<path class="st0" d="M230.4,58.2c0-2.3,1.9-4.7,4.8-4.7c1.6,0,2.7,0.8,3.1,2l-1.9,1c-0.3-0.6-0.8-1-1.6-1c-1.3,0-2.3,1.2-2.3,2.6
		c0,1,0.7,1.6,1.5,1.6c0.7,0,1.2-0.3,1.7-0.8l1.4,1.3c-0.8,0.9-1.8,1.4-3.2,1.4C231.9,61.5,230.4,60.2,230.4,58.2"/>
	<path class="st0" d="M238.6,58.1c0-2.4,1.9-4.6,4.6-4.6c2.2,0,3.7,1.5,3.7,3.5c0,2.4-1.9,4.6-4.6,4.6
		C240.1,61.5,238.6,60,238.6,58.1 M244.7,57.1c0-1-0.6-1.7-1.7-1.7c-1.4,0-2.2,1.3-2.2,2.5c0,1,0.6,1.7,1.7,1.7
		C243.8,59.6,244.7,58.3,244.7,57.1"/>
	<path class="st0" d="M247.8,58.1c0-2.4,1.9-4.6,4.6-4.6c2.2,0,3.7,1.5,3.7,3.5c0,2.4-1.9,4.6-4.6,4.6
		C249.3,61.5,247.8,60,247.8,58.1 M254,57.1c0-1-0.6-1.7-1.7-1.7c-1.4,0-2.2,1.3-2.2,2.5c0,1,0.6,1.7,1.7,1.7
		C253.1,59.6,254,58.3,254,57.1"/>
	<polygon class="st0" points="258.5,53.7 260.6,53.7 259.1,59.5 262.8,59.5 262.3,61.4 256.4,61.4 	"/>
	<polygon class="st0" points="269.4,23.8 267.9,23.8 268.2,22.5 272.7,22.5 272.4,23.8 270.8,23.8 269.8,27.7 268.4,27.7 	"/>
	<polygon class="st0" points="273.5,22.5 274.9,22.5 275.6,24.5 277.4,22.5 279,22.5 277.6,27.7 276.1,27.7 276.9,24.7 275.1,26.7 
		275.1,26.7 274.3,24.7 273.5,27.7 272.1,27.7 	"/>
	<path class="st1" d="M46.1,29.4c-0.2,1.4-0.7,2.5-1.5,3.5c-0.8,1-1.7,1.8-2.8,2.4c-0.7,0.4-1.7,0.7-2.8,1c0.9,0.3,1.5,0.6,1.8,0.9
		c0.2,0.2,0.6,0.6,1,1.3c0.4,0.7,0.7,1.2,0.8,1.5l2.4,7.1h-8.6l-2.7-7.5c-0.3-1-0.7-1.6-1-1.9c-0.5-0.4-1.1-0.6-1.8-0.6h-0.7
		l-1.8,9.9h-7.6l4.3-24.4h12.7c2.4,0,4.1,0.2,5.3,0.6c1.2,0.4,2,1.1,2.6,2.2C46.3,26.6,46.4,27.9,46.1,29.4 M38,28.2
		c-0.4-0.4-1.3-0.6-2.7-0.6h-3.3l-0.9,5h3.2c0.3,0,1-0.1,2.1-0.3c0.5-0.1,1-0.4,1.4-0.8c0.4-0.4,0.6-0.9,0.7-1.4
		C38.5,29.2,38.4,28.6,38,28.2"/>
</g>
</svg>
