<?xml version="1.0" encoding="utf-8"?>
<!-- Generator: Adobe Illustrator 16.0.0, SVG Export Plug-In . SVG Version: 6.00 Build 0)  -->
<!DOCTYPE svg PUBLIC "-//W3C//DTD SVG 1.1//EN" "http://www.w3.org/Graphics/SVG/1.1/DTD/svg11.dtd">
<svg version="1.1" id="Layer_1" xmlns="http://www.w3.org/2000/svg" xmlns:xlink="http://www.w3.org/1999/xlink" x="0px" y="0px"
	 width="82.578px" height="41.974px" viewBox="0 0 82.578 41.974" enable-background="new 0 0 82.578 41.974" xml:space="preserve">
<g>
	<g>
		<rect y="34.82" fill="#6E6E6E" width="82.573" height="7.153"/>
	</g>
	<g>
		<rect x="0.08" y="0.1" fill="#6E6E6E" width="1.631" height="18.164"/>
		<polygon fill="#6E6E6E" points="53.888,11.502 49.485,11.502 49.485,7.095 49.485,5.516 47.709,5.516 43.307,5.516 43.307,0.18 
			41.729,0.18 41.729,5.516 41.729,7.095 43.114,7.095 47.709,7.095 47.709,11.502 47.709,13.078 49.29,13.078 53.888,13.078 
			53.888,18.414 55.465,18.414 55.465,13.078 55.465,11.502 		"/>
		<polygon fill="#6E6E6E" points="70.521,0 68.524,0 80.421,18.283 82.433,18.283 		"/>
		<path fill="#6E6E6E" d="M27.912,4.21c-1.704-2.477-4.134-3.759-7.084-4.009c-0.39-0.034-0.781-0.048-1.174-0.05l0,0h-3.813v1.645
			h3.511c0.077,0,0.158,0.002,0.236,0.002c0.691-0.006,1.378,0.05,2.056,0.193c1.796,0.373,3.328,1.201,4.496,2.632
			c1.218,1.49,1.709,3.222,1.617,5.132c-0.074,1.499-0.539,2.867-1.46,4.055c-1.489,1.912-3.497,2.877-5.875,3.042
			c-0.687,0.05-1.376,0.067-2.063,0.08h-2.517v1.643h3.815l0,0c0.843,0,1.677-0.09,2.501-0.285c2.162-0.507,3.986-1.577,5.371-3.334
			c1.248-1.579,1.863-3.39,1.907-5.403C29.471,7.61,29.016,5.809,27.912,4.21z"/>
	</g>
	<g>
		<path fill="#6E6E6E" d="M0.984,26.541h-0.91v-5.146h0.91V26.541L0.984,26.541z"/>
		<path fill="#6E6E6E" d="M6.113,26.541H5.182l-2.398-3.786v3.786H1.929v-5.146h0.948l2.371,3.796v-3.796h0.867v5.146H6.113z"/>
		<path fill="#6E6E6E" d="M10.726,22.176H9.085v4.365H8.181v-4.365H6.541v-0.781h4.185V22.176z"/>
		<path fill="#6E6E6E" d="M14.888,22.156h-2.812v1.361h2.609v0.732h-2.609v1.519h2.854v0.772h-3.749v-5.146h3.707V22.156z"/>
		<path fill="#6E6E6E" d="M18.039,21.395c0.924,0,1.733,0.369,1.733,1.431c0,0.622-0.311,1.076-0.854,1.264
			c0.658,0.146,0.724,0.645,0.766,1.171c0.05,0.616,0.065,1.049,0.274,1.281h-0.965c-0.128-0.193-0.136-0.55-0.167-1.027
			c-0.05-0.808-0.252-1.096-1.128-1.096h-1.201v2.125h-0.895v-5.146h2.436V21.395z M16.498,23.745h1.195
			c0.591,0,1.184-0.086,1.184-0.826c0-0.677-0.526-0.786-1.069-0.786h-1.309V23.745L16.498,23.745z"/>
		<path fill="#6E6E6E" d="M24.738,26.541h-0.935l-2.398-3.786v3.786h-0.854v-5.146H21.5l2.37,3.796v-3.796h0.868V26.541z"/>
		<path fill="#6E6E6E" d="M29.99,26.541h-0.967l-0.493-1.368h-2.037l-0.505,1.368h-0.933l1.988-5.154h0.96L29.99,26.541z
			 M27.526,22.328l-0.802,2.168h1.567L27.526,22.328z"/>
		<path fill="#6E6E6E" d="M33.373,22.176h-1.641v4.365h-0.903v-4.365h-1.642v-0.781h4.184v0.781H33.373z"/>
		<path fill="#6E6E6E" d="M34.754,26.541h-0.911v-5.146h0.911V26.541z"/>
		<path fill="#6E6E6E" d="M40.391,23.97c0,1.606-1.004,2.694-2.472,2.694c-1.474,0-2.472-1.088-2.472-2.694
			c0-1.511,0.911-2.696,2.486-2.696C39.387,21.273,40.391,22.371,40.391,23.97z M36.358,23.954c0,1.199,0.606,1.951,1.575,1.951
			c0.939,0,1.547-0.768,1.547-1.943c0-1.178-0.607-1.93-1.562-1.93C36.973,22.032,36.358,22.79,36.358,23.954z"/>
		<path fill="#6E6E6E" d="M45.245,26.541h-0.932l-2.4-3.786v3.786h-0.852v-5.146h0.945l2.372,3.796v-3.796h0.868L45.245,26.541
			L45.245,26.541z"/>
		<path fill="#6E6E6E" d="M50.499,26.541h-0.967l-0.493-1.368h-2.037l-0.504,1.368h-0.934l1.988-5.154h0.96L50.499,26.541z
			 M48.037,22.328l-0.804,2.168h1.567L48.037,22.328z"/>
		<path fill="#6E6E6E" d="M54.373,26.541h-3.527v-5.146h0.909v4.366h2.618V26.541L54.373,26.541z"/>
		<path fill="#6E6E6E" d="M58.707,21.395c0.637,0,1.192,0.087,1.686,0.527c0.493,0.441,0.759,1.134,0.759,1.958
			c0,0.767-0.164,1.532-0.722,2.088c-0.425,0.427-0.859,0.571-1.669,0.571h-2.01v-5.145H58.707L58.707,21.395z M57.645,25.782h1.063
			c1.208,0,1.54-0.803,1.54-1.857c0-1.057-0.469-1.765-1.597-1.765h-1.006V25.782L57.645,25.782z"/>
		<path fill="#6E6E6E" d="M65.536,22.156h-2.812v1.361h2.61v0.732h-2.61v1.519h2.853v0.772h-3.749v-5.146h3.706v0.762H65.536z"/>
		<path fill="#6E6E6E" d="M69.1,22.915c-0.057-0.644-0.483-0.904-1.119-0.904c-0.612,0-0.982,0.267-0.982,0.715
			c0,0.491,0.321,0.519,1.31,0.78c0.874,0.226,1.856,0.435,1.856,1.54c0,1.164-1.033,1.61-2.045,1.61
			c-1.219,0-2.168-0.575-2.168-1.819h0.891c0,0.792,0.599,1.104,1.33,1.104c0.693,0,1.105-0.304,1.105-0.809
			c0-0.534-0.439-0.628-1.199-0.823c-1.092-0.282-1.939-0.462-1.939-1.511c0-0.918,0.746-1.503,1.902-1.503
			c1.047,0,1.881,0.471,1.922,1.62H69.1z"/>
		<path fill="#6E6E6E" d="M71.729,26.541h-0.912v-5.146h0.912V26.541z"/>
		<path fill="#6E6E6E" d="M77.208,26.541h-0.577l-0.139-0.616c-0.419,0.505-0.918,0.739-1.603,0.739
			c-1.446,0-2.437-1.076-2.437-2.661c0-1.495,0.924-2.716,2.515-2.716c1.07,0,2.061,0.629,2.176,1.749H76.27
			c-0.11-0.614-0.607-0.99-1.31-0.99c-0.99,0-1.599,0.746-1.599,1.945c0,1.215,0.608,1.945,1.628,1.945
			c0.939,0,1.403-0.681,1.403-1.456h-1.388v-0.692h2.205v2.753H77.208z"/>
		<path fill="#6E6E6E" d="M82.218,26.541h-0.932l-2.401-3.786v3.786h-0.851v-5.146h0.945l2.369,3.796v-3.796h0.869V26.541
			L82.218,26.541z"/>
		<path fill="#6E6E6E" d="M3.306,28.684H0.799V29.9h2.327v0.651H0.799v1.354h2.547v0.69H0v-4.59h3.306V28.684z"/>
		<path fill="#6E6E6E" d="M5.312,30.218l-1.521-2.211h0.96l1.044,1.624l1.09-1.624h0.902l-1.521,2.211l1.629,2.379H6.917
			l-1.148-1.753L4.6,32.597H3.673L5.312,30.218z"/>
		<path fill="#6E6E6E" d="M10.435,32.707c-1.296,0-2.146-0.955-2.146-2.405c0-1.301,0.793-2.398,2.184-2.398
			c0.916,0,1.765,0.502,1.921,1.566h-0.797c-0.111-0.556-0.541-0.884-1.136-0.884c-0.967,0-1.359,0.872-1.359,1.716
			c0,0.85,0.375,1.72,1.352,1.72c0.75,0,1.091-0.497,1.173-1.174h0.805C12.351,31.965,11.583,32.707,10.435,32.707z"/>
		<path fill="#6E6E6E" d="M16.584,28.684h-2.506V29.9h2.329v0.651h-2.329v1.354h2.547v0.69h-3.346v-4.59h3.308v0.677H16.584z"/>
		<path fill="#6E6E6E" d="M20.614,32.597h-3.146v-4.59h0.814v3.892h2.334L20.614,32.597L20.614,32.597z"/>
		<path fill="#6E6E6E" d="M24.441,32.597h-3.146v-4.59h0.813v3.892h2.334V32.597L24.441,32.597z"/>
		<path fill="#6E6E6E" d="M28.433,28.684h-2.509V29.9h2.326v0.651h-2.326v1.354h2.547v0.69h-3.345v-4.59h3.309v0.677H28.433z"/>
		<path fill="#6E6E6E" d="M33.038,32.597h-0.83l-2.141-3.379v3.379h-0.76v-4.59h0.844l2.114,3.383v-3.383h0.772V32.597
			L33.038,32.597z"/>
		<path fill="#6E6E6E" d="M36.036,32.707c-1.295,0-2.146-0.955-2.146-2.405c0-1.301,0.793-2.398,2.186-2.398
			c0.916,0,1.766,0.502,1.92,1.566h-0.8c-0.11-0.556-0.541-0.884-1.134-0.884c-0.968,0-1.361,0.872-1.361,1.716
			c0,0.85,0.373,1.72,1.354,1.72c0.747,0,1.088-0.497,1.172-1.174h0.806C37.951,31.965,37.185,32.707,36.036,32.707z"/>
		<path fill="#6E6E6E" d="M42.186,28.684H39.68V29.9h2.327v0.651H39.68v1.354h2.547v0.69h-3.346v-4.59h3.307v0.677H42.186z"/>
		<path fill="#6E6E6E" d="M48.863,32.597h-0.865l-0.438-1.217h-1.818l-0.452,1.217h-0.833l1.774-4.594h0.855L48.863,32.597z
			 M46.666,28.836l-0.715,1.934h1.397L46.666,28.836z"/>
		<path fill="#6E6E6E" d="M49.646,28.007l0.837,3.494l0.943-3.494h0.819l0.91,3.494l0.863-3.494h0.817l-1.27,4.59h-0.818
			l-0.927-3.525l-0.947,3.525h-0.834l-1.209-4.59H49.646z"/>
		<path fill="#6E6E6E" d="M59.183,32.597h-0.864L57.88,31.38h-1.819l-0.45,1.217h-0.832l1.774-4.594h0.857L59.183,32.597z
			 M56.983,28.836l-0.716,1.934h1.397L56.983,28.836z"/>
		<path fill="#6E6E6E" d="M61.907,28.007c0.825,0,1.547,0.328,1.547,1.275c0,0.556-0.275,0.959-0.759,1.127
			c0.585,0.129,0.644,0.575,0.683,1.045c0.043,0.548,0.057,0.936,0.245,1.139H62.76c-0.117-0.172-0.125-0.489-0.148-0.911
			c-0.043-0.725-0.224-0.98-1.004-0.98h-1.072v1.892h-0.801v-4.59h2.173V28.007z M60.533,30.101h1.064
			c0.528,0,1.057-0.078,1.057-0.734c0-0.604-0.47-0.702-0.955-0.702h-1.168v1.437H60.533z"/>
		<path fill="#6E6E6E" d="M66.157,28.007c0.565,0,1.063,0.078,1.502,0.47c0.438,0.393,0.678,1.011,0.678,1.747
			c0,0.683-0.149,1.367-0.646,1.864c-0.381,0.38-0.767,0.509-1.488,0.509h-1.791v-4.59H66.157L66.157,28.007z M65.208,31.92h0.949
			c1.076,0,1.373-0.716,1.373-1.659c0-0.941-0.419-1.573-1.425-1.573H65.21v3.232H65.208z"/>
		<path fill="#6E6E6E" d="M71.724,29.36c-0.053-0.573-0.433-0.806-1-0.806c-0.548,0-0.876,0.238-0.876,0.638
			c0,0.44,0.283,0.466,1.166,0.696c0.78,0.2,1.655,0.388,1.655,1.374c0,1.039-0.92,1.437-1.824,1.437
			c-1.088,0-1.933-0.517-1.933-1.624h0.794c0,0.708,0.536,0.987,1.186,0.987c0.619,0,0.986-0.27,0.986-0.722
			c0-0.478-0.393-0.56-1.07-0.735c-0.972-0.251-1.728-0.411-1.728-1.347c0-0.817,0.665-1.338,1.696-1.338
			c0.934,0,1.675,0.418,1.712,1.443L71.724,29.36L71.724,29.36z"/>
		<path fill="#6E6E6E" d="M74.24,30.011c0.295-0.048,0.44-0.228,0.468-0.559H74.24v-1.229h1.09v0.965c0,0.9-0.362,1.299-1.09,1.372
			V30.011z"/>
		<path fill="#6E6E6E" d="M78.034,32.468h-1.23v-2.528h-0.961v-0.927h0.113c0.571,0,1.076-0.345,1.094-0.955h0.984V32.468z"/>
		<path fill="#6E6E6E" d="M81.247,29.222c-0.055-0.229-0.215-0.343-0.47-0.343c-0.556,0-0.702,0.478-0.763,0.941
			c0.258-0.217,0.575-0.322,0.935-0.322c0.916,0,1.46,0.521,1.46,1.398c0,1.031-0.806,1.622-1.722,1.622
			c-1.264,0-1.832-0.971-1.832-2.148c0-1.279,0.543-2.359,1.91-2.359c0.82,0,1.433,0.369,1.608,1.213h-1.127V29.222z M80.081,30.914
			c0,0.356,0.25,0.618,0.595,0.618c0.34,0,0.599-0.266,0.599-0.624c0-0.35-0.259-0.622-0.599-0.622
			C80.329,30.286,80.081,30.552,80.081,30.914z"/>
	</g>
	<g>
		<path fill="#6E6E6E" d="M25.232,37.039h-2.027v0.969h1.763v0.728h-1.763v1.712h-0.914v-4.172h2.939v0.764H25.232z"/>
		<path fill="#6E6E6E" d="M28.444,40.443h-0.92v-4.172h0.92V40.443z"/>
		<path fill="#6E6E6E" d="M31.011,36.271h0.932l1.717,2.795v-2.795h0.878v4.172h-0.914l-1.729-2.798v2.798h-0.884V36.271z"/>
		<path fill="#6E6E6E" d="M40.771,40.443h-0.96l-0.329-0.932H37.93l-0.338,0.932h-0.938l1.587-4.176h0.944L40.771,40.443z
			 M38.709,37.293l-0.557,1.554h1.108L38.709,37.293z"/>
		<path fill="#6E6E6E" d="M45.834,40.443H42.88v-4.172h0.915v3.388h2.041v0.784H45.834z"/>
		<path fill="#6E6E6E" d="M49.035,40.443h-0.919v-4.172h0.919V40.443z"/>
		<path fill="#6E6E6E" d="M53.821,37.517c-0.037-0.407-0.305-0.625-0.792-0.625c-0.421,0-0.673,0.177-0.673,0.476
			c0,0.362,0.443,0.392,1.277,0.626c0.743,0.212,1.217,0.499,1.217,1.194c0,0.984-0.868,1.35-1.718,1.35
			c-1.129,0-1.798-0.546-1.812-1.491h0.907c0.02,0.564,0.388,0.787,0.945,0.787c0.479,0,0.773-0.211,0.773-0.556
			c0-0.329-0.282-0.388-1.144-0.632c-0.677-0.194-1.33-0.366-1.33-1.211c0-0.756,0.634-1.249,1.606-1.249
			c0.879,0,1.587,0.397,1.604,1.331H53.821z"/>
		<path fill="#6E6E6E" d="M60.259,37.051h-1.252v3.393h-0.92v-3.393h-1.256v-0.779h3.428V37.051z"/>
	</g>
</g>
</svg>
