<?xml version="1.0" encoding="iso-8859-1"?>
<!-- Generator: Adobe Illustrator 17.0.0, SVG Export Plug-In . SVG Version: 6.00 Build 0)  -->
<!DOCTYPE svg PUBLIC "-//W3C//DTD SVG 1.1//EN" "http://www.w3.org/Graphics/SVG/1.1/DTD/svg11.dtd">
<svg version="1.1" id="&#x421;&#x43B;&#x43E;&#x439;_1"
	 xmlns="http://www.w3.org/2000/svg" xmlns:xlink="http://www.w3.org/1999/xlink" x="0px" y="0px" width="125.683px"
	 height="51.819px" viewBox="0 0 125.683 51.819" style="enable-background:new 0 0 125.683 51.819;" xml:space="preserve">
<g>
	<g>
		<path style="fill:#959595;" d="M51.629,22.934L34.122,50.465c5.037-1.683,9.384-4.838,12.573-9.126
			c3.338-4.489,5.103-9.827,5.103-15.439C51.798,24.913,51.741,23.915,51.629,22.934"/>
		<path style="fill:#959595;" d="M23.674,51.799h2.225c2.265,0,4.517-0.294,6.694-0.875L51.399,21.35
			c-0.523-2.95-1.548-5.763-3.046-8.362L23.674,51.799z"/>
		<path style="fill:#959595;" d="M43.076,6.399l-28.869,45.4h8.23L47.75,11.991C46.304,9.719,44.774,7.889,43.076,6.399"/>
	</g>
	<polygon style="fill:#959595;" points="9.257,30.15 0.197,30.15 13.036,51.646 17.594,44.475 	"/>
	<polygon style="fill:#959595;" points="26.702,30.15 19.314,30.15 22.872,36.17 	"/>
	<g>
		<path style="fill:#959595;" d="M0,0v29.165h27.338L42.246,5.812C37.647,2.064,31.842,0,25.899,0H0z"/>
	</g>
	<polygon style="fill:#959595;" points="0,31.774 0,51.819 11.88,51.819 	"/>
	<polygon style="fill:#959595;" points="10.432,30.15 18.265,43.483 22.237,37.174 18.128,30.15 	"/>
</g>
<g>
	<path style="fill:#959595;" d="M65.741,46.67l0.178,0.178h4.435l0.176-0.178l-2.305-6.209h-0.178L65.741,46.67z M71.064,47.911
		l-0.355-0.176h-5.145l-0.354,0.176l-1.241,3.194l-0.178,0.178h-0.532l-0.178-0.178v-0.532l4.435-11.531l0.177-0.178h0.887
		l0.178,0.178l4.435,11.531v0.532l-0.178,0.178h-0.532l-0.178-0.178L71.064,47.911z"/>
	<polygon style="fill:#959595;" points="82.387,51.105 82.21,51.282 81.322,51.282 81.145,51.105 79.016,44.009 78.839,44.009 
		76.71,51.105 76.533,51.282 75.645,51.282 75.468,51.105 72.985,43.122 72.985,42.59 73.163,42.413 73.694,42.413 73.872,42.59 
		76.001,49.686 76.177,49.686 78.306,42.59 78.484,42.413 79.371,42.413 79.549,42.59 81.678,49.686 81.854,49.686 83.983,42.59 
		84.161,42.413 84.692,42.413 84.87,42.59 84.87,43.122 	"/>
	<path style="fill:#959595;" d="M91.158,47.201l-0.179-0.176c0,0-0.887-0.176-1.95-0.176c-2.129,0-2.838,0.71-2.838,1.95
		c0,1.065,0.531,1.775,2.129,1.775c1.95,0,2.838-1.419,2.838-2.662V47.201z M92.044,51.282h-0.533l-0.176-0.176l-0.176-0.888h-0.179
		c-0.354,0.532-1.064,1.241-2.838,1.241c-1.95,0-3.016-1.063-3.016-2.661c0-1.95,1.419-2.838,3.726-2.838
		c1.065,0,2.129,0.178,2.129,0.178l0.179-0.178v-0.531c0-1.598-0.533-2.308-2.308-2.308c-1.773,0-2.306,0.887-2.306,1.775
		l-0.176,0.176h-0.71l-0.178-0.176c0-1.419,1.064-2.662,3.37-2.662c2.661,0,3.37,1.243,3.37,3.195v5.677L92.044,51.282z"/>
	<path style="fill:#959595;" d="M97.954,42.412l0.178,0.178v0.532l-0.178,0.178h-0.886c-1.775,0-2.484,1.241-2.484,3.016v4.789
		l-0.178,0.178h-0.71l-0.177-0.178V42.59l0.177-0.178h0.533l0.176,0.178l0.178,1.064h0.178c0.532-0.887,1.419-1.241,2.483-1.241
		H97.954z"/>
	<path style="fill:#959595;" d="M99.094,46.847c0,2.483,1.066,3.726,2.838,3.726c1.776,0,2.838-1.243,2.838-3.726
		c0-2.484-1.063-3.726-2.838-3.726C100.16,43.122,99.094,44.363,99.094,46.847 M104.594,43.654h0.176v-4.612l0.178-0.178h0.71
		l0.179,0.178v12.063l-0.179,0.178h-0.531l-0.179-0.178l-0.178-1.065h-0.176c-0.355,0.71-1.243,1.419-2.838,1.419
		c-2.484,0-3.726-1.951-3.726-4.612c0-2.661,1.241-4.613,3.726-4.613C103.352,42.234,104.239,42.944,104.594,43.654"/>
	<g>
		<path style="fill:#959595;" d="M74.333,20.904h-1.69l-0.185-0.189l-0.187-0.938h-0.187c-0.375,0.376-1.312,1.314-3.371,1.314
			c-3.747,0-6.184-2.813-6.184-6.747c0-3.935,2.437-6.748,6.368-6.748c3.747,0,5.25,2.061,5.622,3.937l-0.185,0.187h-2.25
			l-0.187-0.187c-0.378-0.751-0.938-1.684-3-1.684c-2.435,0-3.746,1.871-3.746,4.494c0,2.623,1.312,4.496,3.746,4.496
			c2.062,0,3-1.123,3-2.622l-0.187-0.187h-3.185l-0.189-0.189v-1.874l0.189-0.186h5.81l0.185,0.186v6.747L74.333,20.904z"/>
		<path style="fill:#959595;" d="M81.868,9.85c-2.436,0-3.745,1.872-3.745,4.494c0,2.624,1.309,4.497,3.745,4.497
			c2.438,0,3.746-1.872,3.746-4.497C85.614,11.723,84.306,9.85,81.868,9.85 M81.868,21.091c-3.934,0-6.371-2.812-6.371-6.747
			s2.437-6.747,6.371-6.747c3.935,0,6.368,2.812,6.368,6.747S85.802,21.091,81.868,21.091"/>
		<path style="fill:#959595;" d="M95.67,9.85c-2.436,0-3.747,1.872-3.747,4.494c0,2.624,1.312,4.497,3.747,4.497
			c2.437,0,3.747-1.872,3.747-4.497C99.417,11.723,98.107,9.85,95.67,9.85 M95.67,21.091c-3.935,0-6.372-2.812-6.372-6.747
			s2.437-6.747,6.372-6.747c3.937,0,6.371,2.812,6.371,6.747S99.607,21.091,95.67,21.091"/>
		<path style="fill:#959595;" d="M107.519,10.034h-1.689l-0.189,0.189v8.244l0.189,0.189h1.689c2.62,0,3.558-1.313,3.558-4.312
			C111.076,11.348,110.138,10.034,107.519,10.034 M107.332,20.904h-4.127l-0.186-0.189V7.973l0.186-0.186h4.127
			c4.681,0,6.368,2.436,6.368,6.557C113.701,18.467,112.013,20.904,107.332,20.904"/>
		<path style="fill:#959595;" d="M67.618,24.872h-1.684l-0.19,0.186v8.245l0.19,0.187h1.684c2.622,0,3.562-1.313,3.562-4.312
			C71.18,26.181,70.24,24.872,67.618,24.872 M67.43,35.737h-4.123l-0.186-0.185V22.809l0.186-0.189h4.123
			c4.683,0,6.372,2.437,6.372,6.558C73.802,33.303,72.113,35.737,67.43,35.737"/>
	</g>
	<polygon style="fill:#959595;" points="84.272,35.737 75.466,35.737 75.277,35.552 75.277,22.809 75.466,22.621 84.272,22.621 
		84.46,22.809 84.46,24.682 84.272,24.871 78.089,24.871 77.904,25.057 77.904,27.68 78.089,27.866 83.899,27.866 84.086,28.056 
		84.086,29.928 83.899,30.117 78.089,30.117 77.904,30.302 77.904,33.303 78.089,33.491 84.272,33.491 84.46,33.677 84.46,35.552 	
		"/>
	<path style="fill:#959595;" d="M90.926,35.924c-3.746,0-5.435-1.872-5.435-4.308l0.19-0.189h2.248l0.186,0.189
		c0,1.313,0.749,2.061,3,2.061c1.685,0,2.622-0.562,2.622-1.685c0-1.314-0.749-1.69-3.371-2.063
		c-2.626-0.374-4.685-1.31-4.685-3.935c0-1.872,1.499-3.559,5.059-3.559c3.56,0,5.058,1.686,5.058,3.932l-0.185,0.19h-2.25
		l-0.187-0.19c0-1.123-0.562-1.686-2.624-1.686c-1.686,0-2.246,0.563-2.246,1.313c0,1.124,0.75,1.501,3.371,1.872
		c2.623,0.377,4.685,1.501,4.685,4.126C96.362,34.052,94.862,35.924,90.926,35.924"/>
	<polygon style="fill:#959595;" points="99.983,35.737 97.736,35.737 97.549,35.552 97.549,22.809 97.736,22.621 99.983,22.621 
		100.171,22.809 100.171,35.552 	"/>
	<g>
		<path style="fill:#959595;" d="M113.081,35.737h-1.686l-0.187-0.185l-0.186-0.938h-0.186c-0.377,0.372-1.312,1.312-3.373,1.312
			c-3.75,0-6.186-2.811-6.186-6.747c0-3.935,2.436-6.744,6.371-6.744c3.747,0,5.243,2.061,5.624,3.932l-0.19,0.19h-2.246l-0.19-0.19
			c-0.375-0.748-0.936-1.685-2.998-1.685c-2.438,0-3.751,1.875-3.751,4.497c0,2.626,1.313,4.498,3.751,4.498
			c2.062,0,2.998-1.124,2.998-2.624l-0.187-0.186h-3.185l-0.187-0.189v-1.872l0.187-0.187h5.808l0.19,0.187v6.747L113.081,35.737z"
			/>
	</g>
	<polygon style="fill:#959595;" points="114.812,22.621 117.438,22.621 117.812,22.81 122.871,31.428 123.057,31.428 123.057,22.81 
		123.244,22.621 125.496,22.621 125.683,22.81 125.683,35.551 125.496,35.737 122.871,35.737 122.496,35.551 117.438,26.931 
		117.25,26.931 117.25,35.551 117.063,35.737 114.812,35.737 114.624,35.551 114.624,22.81 	"/>
</g>
</svg>
