<?xml version="1.0" encoding="utf-8"?>
<!-- Generator: Adobe Illustrator 20.1.0, SVG Export Plug-In . SVG Version: 6.00 Build 0)  -->
<svg version="1.1" id="Layer_1" xmlns="http://www.w3.org/2000/svg" xmlns:xlink="http://www.w3.org/1999/xlink" x="0px" y="0px" width="82.4px" height="42px"
	 viewBox="0 0 82.4 42" style="enable-background:new 0 0 82.4 42;" xml:space="preserve">
<style type="text/css">
	.st0{fill:#f0f0f0;}
	.st1{fill:#959595;}
	.st2{fill:#f0f0f0;}
</style>
<path class="st0" d="M0,42.1C0,28,0,14,0-0.1c27.5,0,54.9,0,82.4,0c0,14.1,0,28.1,0,42.2C54.9,42.1,27.5,42.1,0,42.1z"/>
<path class="st1" d="M80.4,1.9c0,12.7,0,25.4,0,38.2c-12.7,0-25.4,0-38.2,0c0-12.8,0-25.5,0-38.2C54.9,1.9,67.6,1.9,80.4,1.9z"/>
<path class="st1" d="M2,1.9c12.7,0,25.5,0,38.2,0c0,12.7,0,25.4,0,38.2c-12.7,0-25.4,0-38.2,0C2,27.3,2,14.6,2,1.9z"/>
<path class="st0" d="M56,19.1c-0.1,0.7-0.3,1.4-0.4,2.1c-0.2,0.9-0.4,1.7-0.5,2.6v0.1c-0.5,0-0.9,0-1.4,0c-0.5-1.9-1-3.8-1.5-5.7
	c0.4,0,0.8,0,1.2,0c0.3,1.6,0.8,3.2,1,4.8c0.3-1.6,0.6-3.2,1-4.8c0.5,0,1,0,1.5,0c0.3,1.6,0.7,3.2,1,4.8c0.3-1.7,0.7-3.2,1-4.8
	c0.4,0,0.7,0,1.1,0c-0.5,1.9-1,3.8-1.5,5.7c-0.5,0-0.9,0-1.4,0c-0.1-0.4-0.2-0.9-0.3-1.3c-0.2-1.1-0.5-2.2-0.7-3.3
	C56.1,19.2,56.1,19.2,56,19.1C56.1,19.1,56,19.1,56,19.1z"/>
<path class="st0" d="M74.4,15.7c-0.5,0-0.9,0-1.4,0c-0.7-1.5-1.5-3-2.2-4.5c0,1.5,0,3,0,4.5c-0.3,0-0.7,0-1,0c0-1.9,0-3.8,0-5.7
	c0.5,0,1,0,1.5,0c0.7,1.5,1.5,2.9,2.1,4.4c-0.1-1.5,0-3,0-4.4c0.3,0,0.7,0,1,0C74.4,11.9,74.4,13.8,74.4,15.7z"/>
<path class="st0" d="M75.9,20.6c-0.1-1.1-0.7-1.9-1.8-2.2c-0.3-0.1-0.7-0.2-1.1-0.2c-0.6,0-1.2,0-1.8,0v5.7c0.5,0,0.9,0,1.4,0
	c0.4,0,0.8,0,1.2-0.1c0.9-0.2,1.6-0.7,1.9-1.6C75.9,21.6,75.9,21.1,75.9,20.6z M74.5,22.2c-0.3,0.6-1.2,0.9-2.1,0.8v-3.9
	c0.8,0,1.7,0,2.1,0.8C74.9,20.6,74.9,21.4,74.5,22.2z"/>
<path class="st0" d="M51.8,11.3c-0.5-0.8-1.3-1.2-2.2-1.3c-0.7-0.1-1.4,0-2.2-0.1c0,0,0,0-0.1,0v5.7l0,0c0.8,0,1.5,0.1,2.3-0.1
	c0.7-0.1,1.3-0.3,1.7-0.8C52.3,13.9,52.2,12.2,51.8,11.3z M50.7,14c-0.5,0.8-1.3,0.8-2.2,0.8v-3.9c0.8,0,1.6,0,2.1,0.7
	C51.1,12.2,51.1,13.4,50.7,14z"/>
<path class="st0" d="M67.6,14.7c0-0.5,0-0.9,0-1.4c-0.4,0-0.8,0-1.2,0c0-0.3,0-0.6,0-0.9c0.7,0,1.5,0,2.2,0c0,1,0,2.1,0,3.1
	c-0.7,0.3-1.5,0.4-2.3,0.3c-0.6-0.1-1.2-0.3-1.6-0.8c-0.5-0.4-0.7-1-0.8-1.6c-0.1-0.7-0.1-1.3,0.2-1.9c0.4-0.9,1.2-1.4,2.2-1.5
	c0.7-0.1,1.3-0.1,2,0.1h0.1c0,0.3-0.1,0.7-0.1,1c-0.5-0.2-1-0.3-1.5-0.3c-1.1,0-1.8,0.7-1.9,1.8c0,0.4,0,0.7,0.1,1
	c0.2,0.7,0.8,1.1,1.5,1.2C67,14.8,67.3,14.8,67.6,14.7z"/>
<path class="st0" d="M70.2,23.7c-0.2-0.6-0.5-1.2-0.7-1.8c-0.1-0.4-0.3-0.7-0.7-0.9c0.1,0,0.1,0,0.2,0c0.9-0.3,1.3-1.5,0.7-2.3
	c-0.3-0.3-0.7-0.5-1.1-0.5c-0.7-0.1-1.5-0.1-2.2-0.1c-0.1,0-0.2,0-0.2,0v5.8h1.1v-2.4c0.1,0,0.3,0,0.4,0c0.4,0,0.7,0.2,0.8,0.6
	c0.1,0.3,0.2,0.6,0.3,0.9s0.2,0.6,0.3,0.9h1.1C70.2,23.8,70.2,23.7,70.2,23.7z M68.3,20.5c-0.2,0.1-0.8,0.2-1.1,0.1v-1.5
	c0.4,0,0.7,0,1.1,0.1c0.3,0.1,0.5,0.3,0.5,0.6C68.7,20.1,68.6,20.3,68.3,20.5z"/>
<path class="st0" d="M50.2,18.1h-1.3c-0.7,1.9-1.4,3.8-2.1,5.8h1.1c0.2-0.4,0.3-0.9,0.5-1.3h2.3c0.2,0.4,0.3,0.9,0.5,1.3h1.2
	C51.6,21.9,50.9,20,50.2,18.1z M48.7,21.7c0.3-0.9,0.6-1.7,0.8-2.6c0.2,0.9,0.5,1.7,0.8,2.6H48.7z"/>
<path class="st0" d="M63.1,18.1h-1.2c-0.7,1.9-1.4,3.8-2.1,5.8h1.1c0.2-0.4,0.3-0.9,0.5-1.3h2.3c0.2,0.4,0.3,0.9,0.5,1.3h1.2
	C64.6,21.9,63.9,20,63.1,18.1z M61.7,21.7c0.3-0.9,0.6-1.7,0.8-2.6c0.2,0.9,0.5,1.7,0.8,2.6H61.7z"/>
<path class="st0" d="M55.5,27.5c-0.2-0.8-0.8-1.4-1.9-1.4c-0.8,0-1.3,0.4-1.6,1.1c-0.3,0.6-0.3,1.3-0.3,1.9c0,0.4,0,0.7,0.1,1
	c0.1,0.5,0.2,1,0.6,1.4c0.9,1,2.6,0.6,3.1-0.7C55.8,29.8,55.8,28.7,55.5,27.5z M54.4,30.5c0,0.2-0.1,0.4-0.3,0.5
	c-0.3,0.3-0.7,0.3-1,0c-0.2-0.3-0.3-0.6-0.3-0.9c-0.1-0.3-0.1-0.7-0.1-1c0-0.4,0-0.9,0.2-1.4c0.1-0.2,0.1-0.3,0.2-0.4
	c0.3-0.4,0.8-0.4,1,0c0.2,0.3,0.3,0.6,0.3,0.9C54.6,29,54.6,29.7,54.4,30.5z"/>
<path class="st0" d="M56.4,14.7c0,0.3,0,0.6,0,1c-0.5,0-1.1,0-1.6,0s-1.1,0-1.6,0c0-1.9,0-3.8,0-5.7c1.1,0,2.1,0,3.2,0
	c0,0.3,0,0.6,0,0.9c-0.7,0-1.4,0-2.1,0c0,0.5,0,0.9,0,1.4c0.6,0,1.3,0,2,0c0,0.3,0,0.6,0,0.9c-0.6,0-1.3,0-2,0c0,0.5,0,1,0,1.5
	C54.9,14.7,55.6,14.7,56.4,14.7z"/>
<path class="st0" d="M57.3,15.6c0-0.3,0.1-0.7,0.1-1c0.3,0.1,0.6,0.3,1,0.3c0.3,0,0.5,0,0.8-0.1s0.5-0.3,0.5-0.5
	c0-0.3-0.1-0.5-0.3-0.7s-0.5-0.3-0.8-0.4c-0.3-0.1-0.6-0.3-0.9-0.5c-0.7-0.6-0.7-2.1,0.5-2.6c0.8-0.3,1.5-0.2,2.3,0
	c0,0.3-0.1,0.6-0.1,1c-0.4-0.2-0.8-0.3-1.2-0.2c-0.2,0-0.3,0-0.5,0.1c-0.5,0.2-0.5,0.7-0.1,1c0.2,0.2,0.5,0.3,0.8,0.4
	c0.3,0.1,0.7,0.3,0.9,0.5c0.7,0.6,0.7,2.3-0.5,2.8c-0.7,0.3-1.4,0.2-2.2,0.1C57.5,15.6,57.4,15.6,57.3,15.6z"/>
<path class="st0" d="M64.1,27.1c-0.8,0-1.5,0-2.3,0c0,0.4,0,0.8,0,1.2c0.4-0.1,0.8-0.1,1.2,0c1,0.3,1.4,1.1,1.3,1.9
	c-0.1,1-0.8,1.7-1.9,1.8c-0.6,0.1-1.1,0-1.6-0.2c0-0.3,0-0.6,0-1c0.3,0.1,0.5,0.2,0.8,0.2c0.4,0,0.7,0.1,1-0.1
	c0.4-0.2,0.6-0.5,0.6-1c0-0.4-0.3-0.8-0.7-0.9c-0.5-0.1-1-0.1-1.5,0c-0.1,0-0.1,0-0.2,0.1c0-1,0-2,0-3.1c1.1,0,2.2,0,3.2,0
	C64.1,26.6,64.1,26.8,64.1,27.1z"/>
<path class="st0" d="M48.3,31.1c0.9,0,1.7,0,2.5,0c0,0.3,0,0.6,0,0.9c-1.2,0-2.5,0-3.7,0c0-0.3,0-0.6,0-1c0.4-0.3,0.7-0.6,1.1-1
	c0.4-0.3,0.7-0.7,1-1.1c0.2-0.3,0.4-0.7,0.4-1.1c0-0.5-0.3-0.8-0.7-0.8c-0.5-0.1-0.9,0.1-1.3,0.3c0,0-0.1,0-0.2,0.1
	c0-0.3-0.1-0.6-0.1-1c0.3-0.2,0.6-0.2,0.9-0.3c0.5-0.1,1-0.1,1.4,0c0.8,0.2,1.2,0.9,1.1,1.7c0,0.7-0.4,1.2-0.8,1.7
	c-0.1,0.4-0.4,0.7-0.7,0.9C49,30.7,48.7,30.9,48.3,31.1z"/>
<path class="st0" d="M57.8,27.5c-0.3,0.3-0.6,0.5-0.9,0.8c-0.2-0.3-0.4-0.5-0.5-0.8c0.5-0.4,1.1-0.8,1.6-1.2c0.3,0,0.7,0,1,0
	c0,0.1,0,5.5,0,5.7c-0.4,0-0.7,0-1.1,0c0-0.8,0-1.5,0-2.3C57.8,29,57.8,28.2,57.8,27.5z"/>
<path class="st0" d="M62.9,10c0,1.9,0,3.8,0,5.7c-0.4,0-0.7,0-1.1,0c0-1.9,0-3.8,0-5.7C62.1,10,62.5,10,62.9,10z"/>
<path class="st2" d="M56,19.1V19C56.1,19,56.1,19.1,56,19.1C56.1,19.1,56,19.1,56,19.1z"/>
<path class="st0" d="M24.1,32c-2,0-4,0-6,0c0-7.4,0-14.7,0-22.1c2,0,4,0,6,0C24.1,17.3,24.1,24.7,24.1,32z"/>
<path class="st0" d="M16.1,32c-2,0-4,0-6,0c0-4.7,0-9.4,0-14.1c2,0,4,0,6,0C16.1,22.7,16.1,27.3,16.1,32z"/>
<path class="st0" d="M16.5,12.9c0,1.9-1.5,3.4-3.4,3.4s-3.4-1.5-3.4-3.4s1.5-3.4,3.4-3.4S16.5,11,16.5,12.9z"/>
<path class="st0" d="M32.1,9.9c0,2,0,4,0,6c-2,0-4,0-6,0c0-2,0-4,0-6C28.1,9.9,30.1,9.9,32.1,9.9z"/>
<path class="st0" d="M32.1,18c0,2,0,4,0,6c-2,0-4,0-6,0c0-2,0-4,0-6C28.1,18,30.1,18,32.1,18z"/>
</svg>
