<?xml version="1.0" encoding="utf-8"?>
<!-- Generator: Adobe Illustrator 20.1.0, SVG Export Plug-In . SVG Version: 6.00 Build 0)  -->
<svg version="1.1" id="Слой_1" xmlns="http://www.w3.org/2000/svg" xmlns:xlink="http://www.w3.org/1999/xlink" x="0px" y="0px"
	 viewBox="0 0 315.7 84.1" style="enable-background:new 0 0 315.7 84.1;" xml:space="preserve">
<style type="text/css">
	.st0{fill:#6E6E6E;}
</style>
<g>
	<polygon class="st0" points="249.6,2.2 242.6,32.7 235.7,2.2 235.7,2.2 235.7,2.2 215.2,2.2 215.2,2.2 215.2,2.2 208.7,30.8 
		202.2,2.2 180.7,2.2 198,77.8 198.8,77.8 218.5,77.8 218.5,77.8 225.4,47.4 232.4,77.8 232.4,77.8 252.9,77.8 252.9,77.8 
		270.1,2.2 	"/>
	<path class="st0" d="M94.9,77.8h20.5L98.2,2.2H72.1L54.9,77.8h20.5L78,66.4h14.3L94.9,77.8z M81.6,50.5l3.5-15.4l3.5,15.4H81.6z"/>
	<polygon class="st0" points="315.7,19.6 315.7,2.2 298.3,2.2 290.7,2.2 277.2,2.2 277.2,77.8 290.7,77.8 298.3,77.8 315.7,77.8 
		315.7,60.4 298.3,60.4 298.3,48.7 313.9,48.7 313.9,31.3 298.3,31.3 298.3,19.6 	"/>
	<path class="st0" d="M39.1,44.2c6.2-4.1,10.3-11.1,10.3-19.1c0-12-9.3-21.9-21.1-22.8V2.2H0v10.7v64.9h21.2V51.1l10.2,26.7h20.5
		L39.1,44.2z M20.5,33.5V16.9c4.6,0,8.3,3.7,8.3,8.3C28.8,29.8,25.1,33.5,20.5,33.5z"/>
	<path class="st0" d="M177.2,73.5c-0.9-1.1-5.6-6.7-5.7-6.9c3.6-7.7,3.2-16.2,3.2-16.2s0-1.9-0.1-23.6c0-17.7-9.3-25.7-22.4-26.7
		c0,0,0,0,0,0c-4.5-0.4-9.7-0.1-9.7-0.1l0,0c-13.5,0.7-23,8.8-23,26.8c0,21.7,0,23.6,0,23.6s-1.5,28.4,23.6,28.4c3.6,0,8.8,0,10.7,0
		c1.1,0,4.6-0.2,5.5-0.6l0,0c0,0,2.3,3.3,3.6,4.8c1.2,1.5,4.2,1.2,5.9,0c1.8-1.2,6.1-4,7.8-5.3C178.3,76.5,178.1,74.7,177.2,73.5z
		 M141.5,52.3c-1-3.6-1.7-8.2-1.7-13.1c0-11.7,3.5-21.2,7.8-21.2s7.8,9.5,7.8,21.2c0,2.7-0.2,5.3-0.5,7.7c0,0-2.3,0-4.8,0
		C142.7,46.9,141.5,52.3,141.5,52.3z"/>
</g>
</svg>
