<svg xmlns="http://www.w3.org/2000/svg" viewBox="0 0 41.52 47.73"><defs><style>.cls-1{fill:none;stroke:#7a7e7f;stroke-linecap:round;stroke-linejoin:round;stroke-width:1.02px}</style></defs><title>icon</title><g id="Layer_2" data-name="Layer 2"><g id="Layer_1-2" data-name="Layer 1"><path class="cls-1" d="M29.21 13.35C29.28 10.28 25.38.59 20.51 2s-1.89 8.83-1 10.45C23 19 25.55 19 27.15 18.63"/><path class="cls-1" d="M39.59 15.73a5.07 5.07 0 0 0-3.08-2.85 8.81 8.81 0 0 0-7.58.64 4.38 4.38 0 0 0-2.16 3.77A3.8 3.8 0 0 0 29 20.37a9.06 9.06 0 0 0 6.22 1c2.28-.35 3.67-1.25 4.31-2.87"/><path class="cls-1" d="M26.59 5.8c-.06-.24 0-5.29 4.19-5.29 1.78 0 3 1.43 3.65 3.45s.26 7.44-.39 8.36m-6.48 18.9a4.09 4.09 0 0 0 2.1-.83c1.89-1.54 2.59-2.84 2.59-8.93m-9.42 6.95c-1-1.8-1.07-5.09 1.67-10"/><path class="cls-1" d="M29.31 35.49c-1-2.51-1.51-4.75-3.26-6a3.53 3.53 0 0 0-3.6-.8c-5.17 2-2.32 9.79-1.41 12.62.53 1.66 1.86 4.75 4.15 5.5 4.14 1.37 8.41-.28 4.12-11.32z"/><path class="cls-1" d="M30.94 44.51c4.73 2.71 9.23.24 7.1-5.75a69.38 69.38 0 0 0-3.41-8.2 4.51 4.51 0 0 0-3-2.66m-15.76-4.84a15.53 15.53 0 0 1 5 .2 4.45 4.45 0 0 1 1.48.59M8.91 26.91c0 .1 0 .22-.06.36M12.47 33a9.68 9.68 0 0 0 4.8.86 7.17 7.17 0 0 0 1.26-.22l.9-.26m-3.56-10.32a12.53 12.53 0 0 0-4.48 1.31c-2 1.09-2.33 2-2.48 2.54a18 18 0 0 1-2.21-5.73c-1.12-4.52-.45-5.93.24-7.07A4.48 4.48 0 0 1 9.52 12a4.11 4.11 0 0 1 2.53.17c1.61.67 2.48 2.24 3 4.45a29.74 29.74 0 0 1 .82 6.44z"/><path class="cls-1" d="M.51 41.73A21.88 21.88 0 0 1 4 31.22c1.41-2.13 4.33-4.83 6.37-3.76 3.21 1.69 2.18 6.46 1.4 8.43a36.1 36.1 0 0 1-2.52 5.47c-1.25 2.15-1.61 2.79-2.44 3.3a4.47 4.47 0 0 1-4.4.29 4.12 4.12 0 0 1-1.9-3.22z"/><path class="cls-1" d="M18.54 33.67a14.67 14.67 0 0 1-.62 4.07c-1.1 4.16-2.25 5-2.95 5.46a4.55 4.55 0 0 1-3.75.46C10 43.36 9.53 42.55 9.4 41m-.88-28.66a13.63 13.63 0 0 0-.67-2.39 2.65 2.65 0 0 1-.33-1.42.74.74 0 0 1 1.35-.36 2.32 2.32 0 0 1 .45 1.38c.11.69.35 1.53.57 2.36m31.02 3.65c-.22-.47-1-.06-1.32.17a2 2 0 0 0-.62.89 1.14 1.14 0 0 0 .17.9c.42.59 1.14.83 1.5.58s.13-.48 0-1.06c-.1-.97.62-.74.27-1.48z"/></g></g></svg>