<svg xmlns="http://www.w3.org/2000/svg" viewBox="0 0 44.62 42.5"><defs><style>.cls-1{opacity:.4}.cls-2{fill:#858585}</style></defs><title>Cabel</title><g id="Layer_2" data-name="Layer 2"><g id="Layer_1-2" data-name="Layer 1"><g class="cls-1"><path class="cls-2" d="M2.26 13.19c-.1-.2-3-4.4-2-8.3a5.93 5.93 0 0 1 3.3-4c7-3.8 11.95 5.84 12.25 6.24l-.9.6c0-.1-4.75-9.24-10.95-5.94a5.41 5.41 0 0 0-2.8 3.4c-.8 3.4 1.9 7.4 1.9 7.5z"/></g><g class="cls-1"><path class="cls-2" d="M27 30.89c-4.1 0-8.9-3.6-9.1-3.8l.6-.8c.1.1 6.9 5.3 10.7 3.1a2.3 2.3 0 0 0 1.1-1.5c.6-2.5-3.38-5.83-3.38-5.83l.8-.5c.1.2 4.18 3.73 3.48 6.63a3.31 3.31 0 0 1-1.6 2.2 7.51 7.51 0 0 1-2.6.5z"/></g><g class="cls-1"><path class="cls-2" d="M27.46 32.89c-3.6 0-7.4-2.6-10-5.8l.8-.6c2.3 2.8 7.8 7.3 12.1 4.6a2.89 2.89 0 0 0 1.3-1.9c.6-3.1-4.38-7.13-4.38-7.23l.8-.6c.2.2 5.28 4.43 4.58 8a3.5 3.5 0 0 1-1.7 2.5 6.43 6.43 0 0 1-3.5 1.03z"/></g><g class="cls-1"><path class="cls-2" d="M25.46 34.69c-4.9-.1-9.6-6.2-9.8-6.5l.8-.6c0 .1 4.6 6 8.9 6.1a4.85 4.85 0 0 0 3.9-2.1c.1-.1 1.42-2.43-2.78-9.63l.9-.5C32 29.36 30.16 32.09 30 32.19a5.18 5.18 0 0 1-4.54 2.5z"/></g><g class="cls-1"><path class="cls-2" d="M3.36 12c-.1-.1-2.3-3.3-1.7-6.4a5.42 5.42 0 0 1 2.5-3.5C9.46-1.22 14.41 7 14.61 7.32l-.7.7c-.1-.1-4.65-7.84-9.25-5a4.8 4.8 0 0 0-2.1 2.8c-.5 2.6 1.5 5.6 1.5 5.6z"/></g><g class="cls-1"><path class="cls-2" d="M4.86 11.29c0-.1-1.6-3.5-.4-6.2a5.12 5.12 0 0 1 3.2-2.7c4-1.4 6.95 4.54 7.15 4.84l-.8.6c0-.1-2.65-5.64-6-4.54a3.78 3.78 0 0 0-2.6 2.1c-1 2.3.4 5.4.4 5.4z"/></g><path class="cls-2" d="M15.26 30.89a1.29 1.29 0 0 1-1.1-.5L2 15.29a2.09 2.09 0 0 1-.4-1.2 3.59 3.59 0 0 1 1.5-2.5c1.6-1.4 6.65-3.16 11.85-4.76.7-.2 3-.3 3.45.26l11.92 13.59-14.53 7.71a1.8 1.8 0 0 0-.9 1 .9.9 0 0 0 .1.5h.4l.5.9c-.03.1-.53.1-.63.1zm1.8-23.4h-.3c-7.1 2.1-11.9 3.9-13 4.9-.9.8-1.2 1.4-1.2 1.7a.88.88 0 0 0 .2.6l11.3 14.1a3.13 3.13 0 0 1 1.3-1.2l13.42-7.21L17.66 7.69a1.07 1.07 0 0 0-.6-.2z"/><path class="cls-2" d="M13.16 32.19a2.89 2.89 0 0 1-1.7-.6c-1.9-2.4-11-14-11.4-15a1 1 0 0 1 .1-.9 3.44 3.44 0 0 1 2-1.4l.3.9c-.5.2-1.3.5-1.4.9v.2c.3.8 7 9.4 11.2 14.6a1.57 1.57 0 0 0 2-.1l-1-1.3.8-.6 1.5 2-.3.3a3 3 0 0 1-2.1 1z"/><path class="cls-2" d="M12.16 31.29l-1-.3a4.64 4.64 0 0 1 1.8-2.5l.5.9a3.76 3.76 0 0 0-1.3 1.9z"/><g class="cls-1"><path class="cls-2" transform="rotate(-31.21 17.467 32.398)" d="M16.96 27.75h1v9.3h-1z"/></g><g class="cls-1"><path class="cls-2" d="M27.03 22.2l.79-.62 7.99 7.72-.79.62-7.99-7.72z"/></g><path class="cls-2" d="M17.96 29.18l1-.5.7.61-1.1.6-.6-.71zm2.6-1.5l6.87-4.05.37.76-6.44 3.79-.8-.5zm-4.1 2.11l.5-.11.5.5-.5.3-.5-.69zm13.41-6.68l-.53-.56c.31-.17.58-.4.61-.6a2.66 2.66 0 0 0-.28-1l.65-.3a1.89 1.89 0 0 1 .37 1.35 1.33 1.33 0 0 1-.82 1.11zm12 10.45l-3 2.75 2.75 3 3-2.75zm0 .94l1.84 2-2 1.84-1.84-2zm-7.37-7.09l-1.15 1 2.75 3 1.15-1zm1.72 3l-1.84-2 .1-.09 1.84 2z"/><path class="cls-2" transform="rotate(-42.72 41.29 36.814)" d="M40.95 36.27h.69v1.09h-.69z"/><path class="cls-2" transform="rotate(-42.77 42.252 35.984)" d="M41.89 35.44h.69v1.09h-.69z"/><path class="cls-2" d="M38.45 28.31l-4.51 4.19 4.5 4.87L43 33.18zm.06 8.08L35 32.56l3.5-3.28 3.5 3.83zm-16.17-.46a2 2 0 0 0-1.66-.49l-.52-.6-1.65 1.45.53.6a1.92 1.92 0 0 0 .33 1.81l2.31 2.69 3-2.69zM19.91 37l.11-.27-.27-.31.24-.21.27.3.3-.08a1 1 0 0 1 1 .24l1.7 1.93L21.7 40 20 38.11c-.38-.4-.09-1.11-.09-1.11z"/><path class="cls-2" d="M23.68 38.27l-2.36 2.07 1.9 2.17 2.36-2zm-.13 1.33l.66.76-.91.82-.66-.76z"/></g></g></svg>