<svg xmlns="http://www.w3.org/2000/svg" viewBox="0 0 43.57 43.9"><defs><style>.cls-1{fill:none;stroke:#7a7e7f;stroke-miterlimit:10;stroke-width:1.02px}</style></defs><title>2</title><g id="Layer_2" data-name="Layer 2"><path class="cls-1" d="M31.43 16.96h6.81l4.82-4.82V5.33l-2.18-2.18-7.59 7.59h-.45v-.45l7.59-7.6L38.25.51h-6.82l-4.82 4.82.01 6.81 4.81 4.82zM16.96 31.75l-4.81-4.82H5.33L.52 31.75l-.01 3.09h10.74l.32.32-.32.32H.51v3.08l4.82 4.82h6.82l4.81-4.82v-6.81zm8.23-1.53l4.82-4.82v-3.09H24.8l-.32-.32.32-.32h5.21v-3.08l-4.82-4.82h-6.81l-4.83 4.82v3.08h5.21l.32.32-.32.32h-5.2v3.02l4.82 4.89h6.81z" id="Layer_1-2" data-name="Layer 1"/></g></svg>