<svg id="Layer_1" xmlns="http://www.w3.org/2000/svg" viewBox="0 0 50 50"><style>.st0{fill:#858585}.st1{opacity:.3}</style><path class="st0" d="M25 0v1c8.5 0 16.4 4.5 20.7 11.9 6.7 11.4 2.8 26.1-8.6 32.8C33.5 47.9 29.3 49 25 49c-8.5 0-16.4-4.5-20.7-11.9C-2.4 25.7 1.4 11 12.9 4.3 16.5 2.1 20.7 1 25 1V0m0 0c-4.3 0-8.6 1.1-12.6 3.4-11.9 7-15.9 22.3-8.9 34.2C8.1 45.6 16.4 50 25 50c4.3 0 8.6-1.1 12.6-3.4 11.9-7 15.9-22.3 8.9-34.2C41.9 4.4 33.6 0 25 0z"/><g class="st1"><path class="st0" d="M9 35.9c-3.5 0-6.1-1-7.2-3-2.9-5 2.4-15.7 14.1-22.5 5.2-3.1 11.3-5 16.7-5.3 5.3-.3 9.2 1 10.6 3.5 3 5.1-3.8 14.4-15.4 21.2-5.5 3.2-11.2 5.3-16 5.9-1 .1-1.9.2-2.8.2zM33.9 6h-1.3c-5.2.3-11.1 2.1-16.3 5.1C5.4 17.6 0 27.8 2.6 32.3c1.2 2.1 4.4 3 9 2.4 4.7-.6 10.3-2.7 15.6-5.8 10.8-6.3 17.6-15.4 15-19.8-1-2-4.1-3.1-8.3-3.1z"/></g><g class="st1"><path class="st0" d="M14.3 44.4c-3.6 0-6.1-1.1-7.3-3.1-3-5.1 3.7-14.3 15.2-21.1 5.4-3.2 11-5.3 15.9-5.9 5-.6 8.5.4 9.9 2.9 3 5.1-3.7 14.3-15.2 21.1-5.4 3.2-11 5.3-15.9 5.9-.9.1-1.8.2-2.6.2zm26.5-29.2c-.8 0-1.7.1-2.6.2-4.7.6-10.2 2.6-15.5 5.7C11.9 27.5 5.2 36.3 7.9 40.8c1.2 2.1 4.4 3 9 2.4 4.7-.6 10.2-2.6 15.5-5.7 10.8-6.3 17.5-15.2 14.8-19.7-1-1.7-3.3-2.6-6.4-2.6z"/></g><g class="st1"><path class="st0" d="M33.4 47.6c-2.4 0-5.1-.9-7.9-2.6-4.5-2.8-8.9-7.5-12.2-13.2-7-11.9-7.4-24.6-1-28.4 3.2-1.9 7.5-1.3 12.1 1.5 4.5 2.8 8.9 7.5 12.2 13.2 7 11.9 7.4 24.6 1 28.4-1.3.8-2.7 1.1-4.2 1.1zm-17-44.3c-1.3 0-2.6.3-3.7.9-5.9 3.5-5.3 15.6 1.4 27C17.4 36.8 21.6 41.3 26 44c4.3 2.6 8.2 3.2 11 1.5 5.9-3.5 5.3-15.6-1.4-27-3.3-5.6-7.5-10.1-11.9-12.8-2.6-1.5-5.1-2.4-7.3-2.4z"/></g></svg>