<svg id="Layer_1" xmlns="http://www.w3.org/2000/svg" viewBox="0 0 50 50"><style>.st0{opacity:.3}.st1{fill:#858585}</style><g class="st0"><path class="st1" d="M39.8 34.4l-.8-.5c3.6-6.9-.3-16.2-8.7-20.6-4.1-2.2-8.6-2.9-12.8-2-4.1.9-7.4 3.2-9.1 6.5l-.9-.5c1.9-3.6 5.4-6.1 9.8-7 4.4-.9 9.2-.2 13.5 2.1 8.9 4.7 12.9 14.6 9 22z"/></g><g class="st0"><path class="st1" d="M47.9 37.8l-.9-.5c2.4-5 2.4-10.9-.2-16.6-2.6-5.7-7.4-10.5-13.6-13.5C20.5 1.1 6.1 4.6 1.1 15l-.9-.4C5.5 3.6 20.5 0 33.6 6.4c6.4 3.1 11.3 8.1 14 14 2.8 5.9 2.8 12.1.3 17.4z"/></g><path class="st1" d="M31.2 46.4L18.8 28H0L37.8 1.4l-6.6 45zM3.1 27h16.3l11.3 16.7 5.9-40.2L3.1 27z"/><g class="st0"><path class="st1" d="M30.6 45.6l-12-6.9-.4-11 1-.1.4 10.5 11.5 6.6z"/></g><g class="st0"><path class="st1" d="M18.9 38.8L0 28l.7-.7 18.7 10.6z"/></g><g class="st0"><path transform="rotate(-53.437 27.6 15.648)" class="st1" d="M12 15.1h31.2v1H12z"/></g><g class="st0"><path transform="rotate(-63.435 28.018 20.874)" class="st1" d="M8.2 20.4h39.7v1H8.2z"/></g></svg>