<svg id="Layer_1" xmlns="http://www.w3.org/2000/svg" viewBox="0 0 50 50"><style>.st0{opacity:.4}.st1{fill:#858585}</style><g class="st0"><path class="st1" d="M14.1 43.1c-2.7 0-5.1-.6-7-1.9C4.5 39.4 2.7 36.6 2 33 .9 27.2 3 19.7 7.5 13.2 11 8.1 16.2 4 21.6 2c5.5-2 10.7-1.8 14.2.7 2.6 1.8 4.2 4.6 4.8 8.2 1 6.4-1.4 14.4-6.3 20.9-5.7 7.6-13.8 11.3-20.2 11.3zm-6.4-2.7c5.9 4 18 1.2 25.8-9.2 4.8-6.3 7.1-14 6.1-20.1-.5-3.3-2.1-6-4.4-7.6C32 1.2 27.1 1 21.9 2.9c-5.2 2-10.2 5.9-13.6 10.8C3.9 20.1 1.9 27.2 3 32.8c.6 3.3 2.2 5.9 4.7 7.6z"/></g><path class="st1" d="M15.1 38.2c-2.1 0-4.1-.5-5.5-1.5-2.1-1.4-3.5-3.7-4.1-6.5-.9-4.6.7-10.5 4.3-15.7 5.8-8.4 16.5-12.4 22.4-8.3 2 1.4 3.4 3.7 3.8 6.5.8 5-1.1 11.3-5 16.5-4.4 6.1-10.8 9-15.9 9zM26.6 5.6c-5.3 0-11.8 3.6-15.9 9.5-3.4 5-5 10.5-4.2 14.9.5 2.5 1.7 4.6 3.6 5.8 5.6 3.8 15.3-.7 20.2-7.2 3.7-4.9 5.6-11 4.8-15.7-.4-2.6-1.6-4.6-3.4-5.9-1.4-1-3.2-1.4-5.1-1.4z"/><path class="st1" d="M14.6 35.8c-1.8 0-3.5-.4-4.9-1.4-1.9-1.3-3.2-3.3-3.7-5.8-.8-4.1.7-9.4 3.9-14 2.5-3.6 6.1-6.5 9.9-7.9 3.9-1.5 7.6-1.3 10.1.5 1.8 1.3 3 3.3 3.4 5.9.7 4.5-1 10.1-4.4 14.7-3.8 5-9.5 8-14.3 8zM24.8 6.7c-1.5 0-3 .3-4.7.9-3.6 1.4-7.1 4.1-9.5 7.5-3 4.4-4.4 9.4-3.6 13.3.4 2.2 1.5 4 3.2 5.2 5 3.3 13.5-.6 17.9-6.4 3.3-4.4 4.9-9.7 4.3-14-.4-2.3-1.4-4.1-3-5.2-1.3-.9-2.8-1.3-4.6-1.3z"/><g class="st0"><path class="st1" d="M14.5 45.5c-2.9 0-5.5-.7-7.4-2-2.9-1.9-4.8-5-5.5-8.7-1.2-6.3 1-14.2 5.9-21.3 3.8-5.4 9.3-9.8 15.1-12C28.5-.7 34-.4 37.8 2.2c2.7 1.9 4.5 4.9 5.1 8.8 1.1 6.8-1.5 15.4-6.8 22.4-6.1 8.2-14.7 12.1-21.6 12.1zM30.1 1c-2.3 0-4.7.5-7.2 1.4-5.7 2.1-11 6.4-14.6 11.6-4.7 6.8-6.9 14.5-5.7 20.5.7 3.5 2.4 6.3 5.1 8.1 6.4 4.3 19.3 1.3 27.8-9.9 5.1-6.8 7.6-15 6.6-21.6-.6-3.6-2.2-6.4-4.7-8.2C35.3 1.7 32.8 1 30.1 1z"/></g><g class="st0"><path class="st1" d="M19 50c-3 0-5.7-.7-7.7-2.1-3-2-5-5.1-5.7-9.1-1.3-6.5 1-14.8 6.1-22.1C15.6 11 21.3 6.5 27.4 4.2c6-2.2 11.8-1.9 15.8.8 2.8 2 4.7 5.1 5.3 9.2 1.1 7.1-1.5 16-7 23.2C35.1 45.9 26.1 50 19 50zM35.2 3.7c-2.4 0-4.9.5-7.5 1.5-5.9 2.2-11.4 6.6-15.2 12.1-4.9 7.1-7.1 15.1-6 21.3.7 3.7 2.5 6.6 5.3 8.4 6.6 4.5 20.1 1.4 28.9-10.3 5.3-7 7.9-15.7 6.8-22.5-.6-3.7-2.3-6.7-4.9-8.5-2-1.3-4.5-2-7.4-2z"/></g></svg>