<svg xmlns="http://www.w3.org/2000/svg" width="50" height="54.757" viewBox="339.299 488.43 50 54.757"><path fill="#858585" d="M346.42 511.793c-3.016 0-5.362-.894-6.479-2.793-2.458-4.246 2.346-11.396 11.061-16.423 8.603-4.916 17.205-5.586 19.663-1.34 1.229 2.123.67 4.916-1.452 8.155-2.123 3.017-5.475 5.921-9.497 8.268-4.805 2.793-9.609 4.133-13.296 4.133zm17.876-22.232c-3.575 0-8.268 1.34-12.736 4.021-7.821 4.469-12.625 11.284-10.614 14.859s10.39 2.793 18.21-1.788c3.911-2.234 7.15-5.139 9.161-7.932 1.899-2.793 2.458-5.251 1.453-6.927-.894-1.451-2.905-2.233-5.474-2.233z" opacity=".3"/><path fill="#858585" d="M350.554 500.845c-1.117 0-1.899-.335-2.346-1.005-.335-.782-.223-1.899.559-3.017.67-1.005 1.787-1.899 3.128-2.681 2.905-1.676 5.81-1.788 6.703-.335.894 1.564-.67 3.91-3.575 5.586-1.341.782-2.682 1.229-3.911 1.341-.223.111-.335.111-.558.111zm5.698-6.927c-1.006 0-2.346.335-3.799 1.229a11.915 11.915 0 0 0-2.793 2.346c-.447.67-.67 1.34-.447 1.788.223.335.894.559 1.676.447 1.005-.112 2.234-.559 3.463-1.229 2.346-1.341 3.687-3.352 3.128-4.134-.111-.223-.558-.447-1.228-.447z" opacity=".3"/><path fill="#858585" d="M352.341 503.526c-1.005 0-1.899-.335-2.234-1.005-.447-.782-.223-1.788.447-2.793.67-.894 1.676-1.899 3.017-2.57 1.229-.67 2.57-1.229 3.687-1.229 1.34-.111 2.234.224 2.681 1.006.894 1.452-.67 3.798-3.463 5.474-1.453.67-2.906 1.117-4.135 1.117zm5.363-6.591h-.335c-1.006.112-2.123.447-3.24 1.117s-2.011 1.452-2.569 2.234c-.447.67-.67 1.229-.447 1.676.447.782 2.682.67 4.916-.67s3.463-3.128 3.017-3.91c-.225-.336-.671-.447-1.342-.447zm19.175 5.038l-.967.559-6.088-10.547.968-.558zm-29.823 17.222l-.967.558L340 509.207l.968-.559z" opacity=".3"/><path fill="#858585" d="M388.933 522.91l-.967.557-12.622-21.868.967-.558zm-29.732 17.163l-.967.559-12.627-21.866.967-.559z"/><path fill="#858585" d="M352.565 522.184c-2.905 0-5.251-.782-6.368-2.458h.112l-.112-.336.782-.67h-.112c2.123 3.575 10.613 2.793 18.434-1.676 3.799-2.234 7.039-5.139 8.938-8.156 1.787-2.793 2.234-5.363 1.229-7.15l1.006-.559c1.229 2.123.67 5.139-1.341 8.268s-5.362 6.256-9.385 8.491c-4.581 2.793-9.385 4.246-13.183 4.246z"/><path fill="#858585" d="M345.861 519.279c-2.458-4.134 2.57-11.507 11.172-16.535 8.379-4.916 17.206-5.363 19.664-1.117l-1.006.559c-2.123-3.575-10.391-2.905-18.211 1.564-7.82 4.581-12.736 11.396-10.613 14.971l-1.006.558z" opacity=".3"/><path fill="#858585" d="M364.631 543.187c-3.017 0-5.251-.894-6.368-2.458l-.224-.335 1.006-.559c1.005 1.676 3.463 2.458 6.814 2.234 3.575-.224 7.709-1.676 11.619-3.91 3.799-2.234 7.039-5.139 8.938-8.155 1.787-2.793 2.234-5.363 1.229-7.15l1.006-.559c1.229 2.123.67 5.139-1.341 8.268-2.011 3.128-5.362 6.256-9.385 8.49-4.021 2.347-8.379 3.799-12.066 4.022-.335.112-.781.112-1.228.112z"/><path fill="#858585" d="M358.039 540.394c-1.229-2.122-.67-5.027 1.564-8.155 2.123-3.017 5.475-6.033 9.608-8.379 8.379-4.916 17.205-5.363 19.663-1.117l-1.006.558c-2.123-3.574-10.391-2.904-18.211 1.564-3.91 2.234-7.15 5.14-9.161 8.044-1.899 2.793-2.458 5.251-1.564 6.927l-.893.558z" opacity=".3"/></svg>