<svg id="Layer_1" xmlns="http://www.w3.org/2000/svg" viewBox="0 0 50 50"><style>.st0{opacity:.4}.st1{fill:#858585}</style><g class="st0"><path class="st1" d="M12.9 27.1c-2.3 0-4.6-.1-7-.4l.1-1c17.2 1.8 32.6-3.1 40.1-12.8l.8.6c-6.7 8.6-19.4 13.6-34 13.6z"/></g><g class="st0"><path class="st1" d="M12.6 24.4c-2.2 0-4.5-.1-6.9-.4l.1-1c16.3 1.7 30.3-2.7 37.4-11.8l.8.6c-6.2 8.1-17.7 12.6-31.4 12.6z"/></g><g class="st0"><path class="st1" d="M11.6 21.8c-1.9 0-3.9-.1-5.9-.3l.1-1C20.9 22 33.9 17.8 40.5 9.3l.8.6c-5.9 7.6-16.8 11.9-29.7 11.9z"/></g><g class="st0"><path class="st1" d="M10.5 19c-1.6 0-3.3-.1-4.9-.2l.1-1c14 1.2 25.9-2.8 32-10.6l.8.6C32.9 15 22.7 19 10.5 19z"/></g><g class="st0"><path class="st1" d="M9.3 16.9c-1.2 0-2.5 0-3.8-.1l.1-1c12.7.9 23.2-2.8 28.9-10l.8.6c-5.4 6.7-14.7 10.5-26 10.5z"/></g><g class="st0"><path class="st1" d="M7.7 15.8c-.7 0-1.5 0-2.2-.1v-1c11.5.5 21.4-3 26.5-9.5.4-.5.7-.9 1-1.4l.8.6c-.3.5-.7 1-1.1 1.5-4.8 6.3-14.1 9.9-25 9.9z"/></g><g class="st0"><path class="st1" d="M8.3 11.5c-1 0-2 0-3-.1l.1-1c11 .7 20.6-2.6 25.4-8.8l.8.6C27 8.1 18.4 11.5 8.3 11.5z"/></g><g class="st0"><path class="st1" d="M14.3 33c-2.6 0-5.4-.1-8.1-.5l.1-1c18.3 2 34.6-3.1 42.5-13.3l.8.6C42.5 27.9 29.6 33 14.3 33z"/></g><g class="st0"><path class="st1" d="M5.5 48.8c-1.7 0-3.5-.1-5.3-.2l.1-1c18 1.3 33.4-4 41.3-14.1 3.2-4.2 6.1-10.2 7.2-15.1l1 .2c-1.1 5-4 11.2-7.4 15.5C35 43.5 21.5 48.8 5.5 48.8z"/></g><path class="st1" d="M29.3 30.1l-1.4-5.4 2.6-.8 1.4 5.3-2.6.9zm-.1-4.7l.9 3.4.7-.2-.9-3.4-.7.2z"/></svg>