<svg id="Layer_1" xmlns="http://www.w3.org/2000/svg" viewBox="0 0 50 50"><style>.st0{opacity:.3}.st1{fill:#858585}</style><g class="st0"><path class="st1" d="M23 39.1c-2.4 0-4.6-.7-6.6-2.1-5.5-4.1-6-12.8-1.1-19.4 5-6.6 13.5-8.7 19-4.6 2.7 2 4.3 5.1 4.5 8.8.2 3.7-1 7.4-3.4 10.6-3.2 4.3-7.9 6.7-12.4 6.7zm-6.8-20.9c-4.6 6.2-4.2 14.3.9 18 5 3.8 12.9 1.8 17.5-4.4 2.2-3 3.4-6.5 3.2-10-.2-3.4-1.6-6.2-4-8.1-5.1-3.7-13-1.7-17.6 4.5z"/></g><g class="st0"><path class="st1" d="M21.1 50c-4.3 0-8.2-1.3-11.6-3.7C-.1 39.1-1 23.6 7.8 11.9 12 6.2 17.8 2.2 24 .7c6.3-1.6 12.4-.5 17.2 3 4.7 3.5 7.5 9 7.9 15.5.3 6.5-1.8 13.2-6 18.8-4.2 5.7-10 9.7-16.3 11.2-2 .6-3.8.8-5.7.8zm8.5-49c-1.7 0-3.5.2-5.4.7-6 1.5-11.6 5.3-15.6 10.8-8.4 11.3-7.7 26.1 1.6 33 4.5 3.3 10.3 4.3 16.3 2.9 6.1-1.5 11.7-5.3 15.7-10.8s6.1-11.9 5.8-18.2c-.3-6.2-3-11.5-7.4-14.8-3.1-2.4-6.9-3.6-11-3.6z"/></g><path class="st1" d="M21.1 50c-4.3 0-8.2-1.3-11.6-3.7l.6-.8c4.5 3.3 10.3 4.3 16.3 2.9 6.1-1.5 11.7-5.3 15.7-10.8 8.4-11.3 7.7-26.1-1.6-33-1.8-1.3-3.8-2.3-6-2.9l.3-1c2.3.6 4.4 1.6 6.3 3 9.7 7.2 10.6 22.6 1.8 34.4-4.2 5.7-10 9.7-16.3 11.2-1.8.5-3.7.7-5.5.7zm-5.7-29.1c-1.2 2.7-3.2 3.9-5.6 3.3-2-.5-2.7-2.3-1.4-5 1.3-2.7 3.5-3.7 5.5-3.2 2.1.5 2.6 2.3 1.5 4.9zm-5.6-1.4c-1 2.1-.7 3.5.5 3.8 1.4.4 2.7-.7 3.7-2.8.9-2 .9-3.4-.6-3.8-1.2-.2-2.6.7-3.6 2.8z"/><path class="st1" d="M23.5 23c-1.1 2.7-3.1 3.9-5.4 3.3-2.1-.5-2.8-2.3-1.6-5 1.2-2.7 3.3-3.8 5.4-3.2 2.1.5 2.7 2.3 1.6 4.9zm-5.6-1.4c-.9 2.1-.6 3.5.7 3.8 1.5.4 2.7-.7 3.6-2.8.8-2 .7-3.4-.7-3.8-1.3-.3-2.7.7-3.6 2.8zm7.4.8c.2-.5.7-.7 1.3-.5.6.1.8.6.6 1-.2.4-.7.7-1.3.5-.5-.1-.8-.5-.6-1zm-1.8 4.4c.2-.5.7-.7 1.3-.5.6.1.8.6.6 1-.2.4-.7.7-1.3.5-.5-.1-.8-.6-.6-1zm-13.4 20c-.7.1-1.2-.3-1.3-.8-.1-.5.2-.9.8-1 .6-.1 1.2.3 1.3.8.1.5-.2.9-.8 1zm17.2-19.7c.3.3 1.1.9 2.1 1.1 1.8.5 2.7-.3 3-.9.4-1.1-.7-2-2.1-2.3l-.8-.2.3-.8.8.2c1 .3 2.5.2 2.8-.8.2-.6-.1-1.3-1.4-1.7-.8-.2-1.7-.1-2.3 0l-.1-.9c.7-.2 1.8-.2 2.9.1 2 .5 2.6 1.7 2.2 2.7-.3.8-1.2 1.4-2.6 1.4 1.2.5 2 1.5 1.6 2.7-.5 1.3-2.2 2.1-4.8 1.4-1.2-.3-2.1-.9-2.5-1.2l.9-.8zm7.6 3.3l.2-.7 1.4-.5c3.4-1.3 5-2 5.4-3.2.3-.8 0-1.7-1.5-2.1-.9-.2-1.9-.1-2.4.1l-.2-.9c.9-.3 2-.4 3.2-.1 2.2.6 2.8 2 2.4 3.2-.5 1.5-2.3 2.3-5.1 3.4l-1.1.4 4.8 1.2-.3.9-6.8-1.7z"/></svg>