<svg xmlns="http://www.w3.org/2000/svg" viewBox="0 0 50 53.8"><style>.st0{fill:#858585}.st1{opacity:.3}.st2{fill:none;stroke:#858585;stroke-miterlimit:10}</style><g id="Layer_4"><path class="st0" d="M28.8 53.8c-3.2 0-6.9-.5-10.8-1.6C6.8 49.1-.8 42.6.6 37.3s11.4-6.9 22.6-3.7c5.3 1.5 10 3.8 13.2 6.5 3.4 2.8 4.8 5.8 4.1 8.4-.9 3.5-5.5 5.3-11.7 5.3zM12.4 33c-5.7 0-10 1.6-10.8 4.6-1.3 4.6 6.2 10.7 16.6 13.7 10.5 2.9 20 1.6 21.3-3 .6-2.2-.7-4.8-3.8-7.3-3.2-2.7-7.7-4.9-12.9-6.4-3.6-1.1-7.2-1.6-10.4-1.6z"/><g class="st1"><path class="st0" d="M28.7 48.7c-2.9 0-6.1-.5-9.3-1.4-9.8-2.7-16.4-8.4-15.1-13 1.3-4.6 9.9-6 19.6-3.3 4.6 1.3 8.7 3.3 11.5 5.7 2.9 2.5 4.2 5.1 3.6 7.3-.6 2.2-3.1 3.8-6.9 4.4-1.1.2-2.2.3-3.4.3zm-14-18c-5 0-8.7 1.4-9.4 3.9-1.1 3.9 5.5 9.3 14.4 11.8 4.4 1.2 8.8 1.6 12.3 1.1 3.4-.5 5.5-1.8 6.1-3.7.5-1.8-.6-4.1-3.3-6.3-2.7-2.3-6.7-4.2-11.1-5.5-3.2-.9-6.3-1.3-9-1.3z"/></g><path class="st0" d="M31.4 14c-.8 0-1.7-.1-2.6-.4-2.9-.8-4.7-2.5-4.3-4 .4-1.5 2.9-1.9 5.8-1.1 1.3.4 2.4.9 3.2 1.6.9.8 1.3 1.6 1.1 2.4-.3.9-1.5 1.5-3.2 1.5zm-3.8-4.9c-1.2 0-2 .3-2.2.8-.2.8 1.3 2.1 3.6 2.7 2.3.7 4.3.3 4.5-.4.1-.3-.2-.8-.8-1.3-.7-.6-1.7-1.1-2.9-1.4-.7-.3-1.5-.4-2.2-.4z"/><g class="st1"><path class="st0" d="M30.6 17c-.8 0-1.7-.1-2.6-.4-1.3-.4-2.4-.9-3.2-1.6-.9-.8-1.3-1.6-1.1-2.4.2-.8 1-1.3 2.2-1.4 1-.2 2.3-.1 3.6.3 2.9.8 4.7 2.5 4.3 4-.4 1-1.6 1.5-3.2 1.5zm-3.8-4.8c-.3 0-.6 0-.8.1-.7.1-1.2.4-1.3.7-.1.3.2.8.8 1.3.7.6 1.7 1.1 2.9 1.4 2.3.7 4.3.3 4.5-.4.2-.8-1.3-2.1-3.6-2.7-1-.3-1.8-.4-2.5-.4z"/></g><path class="st0" d="M39.7 46.3c-3.2-4.5-2.8-13.3-2.5-19.7.1-2.6.2-4.8.1-6.1-.7-5.7-4.4-6.4-4.5-6.4h-.1l-.1-.1s-3.3-2.2-8-1.8c-1.8.2-7 .6-10.1 8.7-3.2 8.4-10 13.6-10.3 13.8l-.6-.8c.1-.1 6.9-5.3 10-13.5 3.3-8.6 9-9.1 10.8-9.3 4.7-.4 8 1.5 8.6 1.9.7.1 4.6 1.2 5.3 7.2.2 1.4.1 3.7-.1 6.3-.3 6.3-.7 14.9 2.3 19.1l-.8.7z"/><path class="st0" d="M29.5 48.2c-2.5 0-4.5-2-4.5-4.5s2-4.5 4.5-4.5 4.5 2 4.5 4.5-2 4.5-4.5 4.5zm0-8c-1.9 0-3.5 1.6-3.5 3.5s1.6 3.5 3.5 3.5 3.5-1.6 3.5-3.5-1.5-3.5-3.5-3.5z"/><g class="st1"><path class="st0" d="M30.3 45.2c-.9 0-1.7-.7-1.7-1.7 0-.9.7-1.7 1.7-1.7s1.7.7 1.7 1.7c-.1.9-.8 1.7-1.7 1.7zm0-2.3c-.4 0-.7.3-.7.7 0 .4.3.7.7.7.4 0 .7-.3.7-.7-.1-.4-.3-.7-.7-.7z"/></g><path class="st0" d="M43.3 23.8l-.9-.4c1.3-2.9 1.3-6.1.1-9.1-1.2-2.9-3.4-5.3-6.3-6.5l.4-.9c3.2 1.4 5.6 3.9 6.9 7.1 1.2 3.1 1.2 6.6-.2 9.8z"/><path class="st0" d="M48 25.8l-.9-.4c1.8-4.2 1.8-8.8.2-13-1.7-4.2-4.9-7.5-9.1-9.3l.4-.9c4.4 1.9 7.8 5.4 9.6 9.9 1.8 4.4 1.7 9.3-.2 13.7zm-37.7-9.2l-1-.1c.3-3.4 2-6.5 4.7-8.7 2.7-2.2 6-3.2 9.4-2.8l-.1 1c-3.2-.3-6.2.6-8.7 2.6s-3.9 4.9-4.3 8z"/><path class="st0" d="M5.2 16.1l-1-.1C5.3 6.2 14.1-1.1 24-.1l-.1 1C14.5 0 6.2 6.8 5.2 16.1z"/></g></svg>