<svg xmlns="http://www.w3.org/2000/svg" viewBox="0 0 50 53.8"><style>.st0{fill:#858585}.st1{opacity:.3}.st2{fill:none;stroke:#858585;stroke-miterlimit:10}</style><g id="Layer_4"><path class="st0" d="M33.9 52.9c-3.8 0-8-.6-12.2-1.8C9 47.5.3 40.1 1.9 34.2c1.7-5.9 12.9-7.8 25.7-4.2 6 1.7 11.4 4.3 15.1 7.5 3.8 3.2 5.5 6.6 4.7 9.5-.8 2.9-4 4.9-8.9 5.7-1.5.1-3 .2-4.6.2zM15.3 29.2c-6.6 0-11.4 1.9-12.4 5.3C1.4 39.7 10 46.8 22 50.2c5.9 1.6 11.7 2.2 16.3 1.4 4.5-.7 7.4-2.5 8.1-4.9.7-2.5-.8-5.5-4.3-8.4-3.6-3-8.8-5.6-14.7-7.3-4.3-1.2-8.5-1.8-12.1-1.8z"/><g class="st1"><path class="st0" d="M33.9 47.1c-3.3 0-6.9-.5-10.6-1.6-5.2-1.5-9.9-3.8-13.1-6.5-3.3-2.8-4.8-5.7-4.1-8.3.7-2.5 3.5-4.3 7.8-5 4.2-.6 9.3-.2 14.5 1.3 5.2 1.5 9.9 3.8 13.1 6.5 3.3 2.8 4.8 5.7 4.1 8.3-.7 2.5-3.5 4.3-7.8 5-1.2.2-2.6.3-3.9.3zM17.8 26.5c-1.3 0-2.6.1-3.8.3-3.9.6-6.4 2.1-7 4.2s.7 4.7 3.7 7.2c3.1 2.6 7.6 4.9 12.7 6.3 5.1 1.4 10.1 1.9 14.1 1.2 3.9-.6 6.4-2.1 7-4.2.6-2.1-.7-4.7-3.7-7.2-3.1-2.6-7.6-4.9-12.7-6.3-3.5-1-7.1-1.5-10.3-1.5z"/></g><path class="st0" d="M42 6.1l-1-.3c.2-.9-1.5-2.5-4.2-3.2-1.3-.4-2.6-.5-3.7-.3-.9.1-1.5.5-1.6.9l-1-.3c.2-.8 1.1-1.4 2.4-1.6 1.2-.2 2.6-.1 4.1.4 3.3.9 5.4 2.8 5 4.4z"/><g class="st1"><path class="st0" d="M37 10.9c-.9 0-1.9-.1-3-.4-3.2-.9-5.4-2.8-4.9-4.4.2-.8 1.1-1.4 2.4-1.6 1.2-.2 2.6-.1 4.1.4 3.2.9 5.4 2.8 4.9 4.4-.2 1-1.6 1.6-3.5 1.6zm-4.3-5.5c-.3 0-.7 0-1 .1-.9.1-1.5.5-1.6.9-.2.9 1.5 2.5 4.2 3.2 2.7.8 5 .3 5.3-.6.2-.9-1.5-2.5-4.2-3.2-.9-.3-1.9-.4-2.7-.4z"/></g><path class="st0" d="M46.5 44.3c-3.6-5.1-3.1-15.2-2.8-22.5.1-2.9.3-5.5.1-7-.8-6.7-6.7-8.7-7-8.8h-.1s-2.2-1.2-7.5-.7c-2 .2-8 .7-11.5 9.9C14 24.9 6 31 5.9 31.1l-.6-.8c.1-.1 7.9-6 11.4-15.4C20.4 5.1 26.9 4.5 29 4.3c5.3-.5 7.7.6 8.1.8.6.2 6.8 2.6 7.6 9.6.2 1.6.1 4.2-.1 7.2-.3 7.2-.8 17 2.6 21.9l-.7.5z"/><path class="st0" d="M34.9 46.5c-2.8 0-5.1-2.3-5.1-5.1s2.3-5.1 5.1-5.1 5.1 2.3 5.1 5.1-2.3 5.1-5.1 5.1zm0-9.1c-2.2 0-4.1 1.8-4.1 4.1 0 2.2 1.8 4.1 4.1 4.1 2.2 0 4.1-1.8 4.1-4.1-.1-2.3-1.9-4.1-4.1-4.1z"/><g class="st1"><path class="st0" d="M35.7 43.1c-1 0-1.8-.8-1.8-1.8s.8-1.8 1.8-1.8 1.8.8 1.8 1.8-.8 1.8-1.8 1.8zm0-2.7c-.5 0-.8.4-.8.8s.4.8.8.8.8-.4.8-.8-.3-.8-.8-.8z"/></g><path class="st0" d="M24.3 28.2l5.5-8.8-4.2-.7 2.9-9.5 9.1 2-3.7 4.8 5.3.6-14.9 11.6zM26.9 18l4.6.7-3.4 5.3 8.6-6.6-4.6-.5 3.8-5-6.7-1.4-2.3 7.5z"/></g></svg>