<svg xmlns="http://www.w3.org/2000/svg" viewBox="0 0 50 53.8"><style>.st0{opacity:.3}.st1{fill:#858585}</style><g id="Layer_4"><g class="st0"><path class="st1" d="M21.7 38.7c-.3 0-.6-.1-.9-.2L14.2 36c-.8-.5-1.1-1.6-.6-2.4l8.5-14.5c.5-.8 1.6-1.1 2.4-.6l6.5 2.4c.5.3.8.7.9 1.1.1.5.1.9-.2 1.3l-8.5 14.5c-.3.6-.9.9-1.5.9zm-7-3.6l6.6 2.4c.4.3.9.1 1.1-.2l8.5-14.5c.1-.2.1-.4.1-.6-.1-.2-.2-.4-.4-.5l-6.5-2.4c-.5-.3-.9-.1-1.1.2L14.5 34c-.3.4-.2.9.2 1.1z"/></g><g class="st0"><path class="st1" d="M18.8 36.3c-.3 0-.5-.1-.8-.2-.4-.2-.6-.6-.7-1-.1-.4 0-.8.3-1.2.5-.8 1.5-1 2.2-.6.4.2.6.6.7 1 .1.4 0 .8-.3 1.2-.3.5-.9.8-1.4.8zm.3-2.3c-.2 0-.4.1-.6.4-.1.2-.2.4-.1.5 0 .1.1.2.2.3.2.2.6 0 .8-.3.1-.2.2-.4.1-.5 0-.1-.1-.2-.2-.3-.1-.1-.2-.1-.2-.1z"/></g><path class="st1" d="M25.3 43.2c-4.6 0-9.4-2.4-12.7-6.9-2.4-3.3-3.7-7.2-3.5-10.9.2-3.8 1.8-7 4.6-9.1 2.8-2 6.3-2.7 10-1.8 3.7.9 7 3.2 9.4 6.5 5.1 6.8 4.6 15.8-1.1 20-1.9 1.5-4.3 2.2-6.7 2.2zm-4.9-28c-2.3 0-4.4.7-6.1 2-2.5 1.9-4 4.8-4.2 8.3-.2 3.5 1 7.2 3.3 10.3 4.7 6.4 12.8 8.4 18 4.5 5.2-3.9 5.6-12.2.9-18.6-2.3-3.1-5.5-5.3-8.9-6.1-1-.3-2-.4-3-.4z"/><path class="st1" d="M27.5 47.9c-6.3 0-13-3.4-17.6-9.6-3.4-4.5-5.2-9.9-4.9-15.1.3-5.3 2.5-9.7 6.3-12.5 7.8-5.8 19.9-2.9 26.9 6.6 3.4 4.6 5.1 9.9 4.8 15.2-.3 5.3-2.5 9.7-6.3 12.5-2.6 2-5.9 2.9-9.2 2.9zM20.7 8.7c-3.2 0-6.2.9-8.7 2.8-3.6 2.6-5.7 6.8-6 11.8-.3 5 1.4 10.1 4.6 14.5 6.7 9 18.1 11.9 25.5 6.4 3.6-2.6 5.7-6.8 5.9-11.8.3-5-1.4-10.1-4.6-14.5-4.3-6-10.7-9.2-16.7-9.2z"/><path class="st1" d="M29.5 52.8c-8.1 0-16.7-4.4-22.5-12.2-9-12.1-8.1-28 1.9-35.4s25.5-3.7 34.4 8.4c9 12.1 8.1 28-1.9 35.4-3.5 2.5-7.6 3.8-11.9 3.8zM20.7 2.3c-4.1 0-8 1.2-11.3 3.6C-.2 13-.9 28.3 7.7 39.9c8.6 11.6 23.5 15.3 33 8.2 9.6-7.1 10.3-22.4 1.7-34C36.8 6.5 28.5 2.3 20.7 2.3z"/></g></svg>