<svg xmlns="http://www.w3.org/2000/svg" viewBox="0 0 50 53.8"><style>.st0{opacity:.3}.st1{fill:#858585}</style><g class="st0" id="Layer_4"><path class="st1" d="M22.7 48.1l2.3-.6.4.7-2.3.6-.4-.7zm3.8-1.1l2.3-.6.4.7-2.3.6-.4-.7zm3.9-1l2.3-.6.4.7-2.3.6-.4-.7zm3.8-1.1l2.3-.6.4.7-2.3.6-.4-.7zm3.9-1.1l2.3-.6.4.7-2.3.6-.4-.7zM18.7 49v-.7c.8.2 1.6.2 2.4.1l.2.7c-.8.1-1.7.1-2.6-.1zm-4.3-1.8l.5-.5c.7.5 1.4.9 2.2 1.2l-.2.6c-.9-.4-1.7-.8-2.5-1.3zm-2.6-2.8c-.1-.2-.2-.3-.3-.5l.8-.2c.1.2.2.3.2.5.3.5.7 1 1.1 1.4l-.6.4c-.4-.5-.8-1.1-1.2-1.6zm-.8-2.1c-.2-.8-.2-1.5 0-2.3l.9.2c-.1.7-.1 1.3 0 2l-.9.1zm.5-3.6c.4-.7.8-1.2 1.5-1.7l.6.6c-.5.4-1 .9-1.3 1.5l-.8-.4zm2.9-2.5c.3-.1.7-.3 1-.4l1.3-.4.4.7-1.3.4-.9.3-.5-.6zm3.9-1.2l2.3-.6.4.7-2.3.6-.4-.7zm3.9-1l2.3-.6.4.7-2.3.6-.4-.7zm3.9-1.1l2.3-.6.4.7-2.3.6-.4-.7zm3.9-1.1l2.3-.6.4.7-2.3.6-.4-.7zm3.9-1l2.3-.6.4.7-2.3.6-.4-.7zm3.9-1.1l1.9-.5c.1 0 .3-.1.4-.1l.4.7c-.2.1-.3.1-.5.1l-1.9.5-.3-.7zm3.6-1.3c.6-.4 1.1-.9 1.5-1.4l.8.4c-.4.6-1 1.1-1.7 1.6l-.6-.6zm2.1-2.5c.2-.6.3-1.3.3-2l.9.1c.1.8 0 1.5-.3 2.2l-.9-.3zm0-3.3c-.1-.3-.2-.6-.4-.9-.2-.3-.4-.7-.7-1l.7-.3c.3.4.5.7.7 1.1.2.3.3.7.5 1l-.8.1zm-4.3-4.4l.3-.6c.9.4 1.6.9 2.3 1.5l-.6.5c-.5-.6-1.2-1-2-1.4zm-4-.8l-.2-.8c.9 0 1.8.1 2.8.3l-.1.7c-.9-.2-1.7-.3-2.5-.2zm-1.9.2l-2 .5-.4-.7 2-.5c.1 0 .2-.1.4-.1l.3.7c-.1.1-.2.1-.3.1zm-22.2 5.1l2.4-.6.4.7-2.4.6-.4-.7zm4-1.1l2.4-.6.4.7-2.4.6-.4-.7zm3.9-1l2.4-.6.4.7-2.4.6-.4-.7zm4-1l2.4-.6.4.7-2.4.6-.4-.7zm3.9-1.1l2.4-.6.4.7-2.4.6-.4-.7zM8.7 24.1l1.2-.3-.4-.7-1.2.3z"/></g><g id="Layer_3"><path class="st1" d="M40.8 33.2c-2 0-3.6-1.6-3.6-3.6s1.6-3.6 3.6-3.6 3.6 1.6 3.6 3.6-1.6 3.6-3.6 3.6zm0-6.2c-1.4 0-2.6 1.2-2.6 2.6s1.2 2.6 2.6 2.6 2.6-1.2 2.6-2.6-1.2-2.6-2.6-2.6z"/><path class="st1" d="M40.8 43.5l-.3-.3c-.3-.3-8-6.7-8-13.6 0-4.6 3.7-8.3 8.3-8.3s8.3 3.7 8.3 8.3c0 6.9-7.6 13.3-8 13.6l-.3.3zm0-21.2c-4 0-7.3 3.3-7.3 7.3 0 5.7 5.8 11.3 7.3 12.6 1.4-1.3 7.3-6.9 7.3-12.6 0-4-3.3-7.3-7.3-7.3zM9 13.9c-2 0-3.7-1.7-3.7-3.7S7 6.5 9 6.5s3.7 1.7 3.7 3.7c0 2.1-1.7 3.7-3.7 3.7zm0-6.4c-1.5 0-2.7 1.2-2.7 2.7s1.2 2.7 2.7 2.7 2.7-1.2 2.7-2.7S10.5 7.5 9 7.5z"/><path class="st1" d="M9 24.5l-.3-.3c-.3-.3-8.2-6.9-8.2-14C.5 5.5 4.3 1.7 9 1.7s8.5 3.8 8.5 8.5c0 7.1-7.8 13.7-8.2 14l-.3.3zM9 2.7c-4.1 0-7.5 3.4-7.5 7.5 0 5.8 6 11.6 7.5 12.9 1.5-1.3 7.5-7.1 7.5-12.9 0-4.1-3.4-7.5-7.5-7.5z"/></g></svg>