<svg xmlns="http://www.w3.org/2000/svg" viewBox="0 0 50 53.8"><style>.st0{opacity:.3}.st1{fill:#858585}</style><g id="Layer_3"><g class="st0"><path class="st1" d="M9 23.3c-2.7 0-4.8-.8-5.8-2.5C1 17 5.3 10.6 13.1 6.1c7.7-4.4 15.4-5 17.6-1.2 1.1 1.9.6 4.4-1.3 7.3-1.9 2.7-4.9 5.3-8.5 7.4-4.3 2.5-8.6 3.7-11.9 3.7zM25 3.4c-3.2 0-7.4 1.2-11.4 3.6-7 4-11.3 10.1-9.5 13.3s9.3 2.5 16.3-1.6c3.5-2 6.4-4.6 8.2-7.1 1.7-2.5 2.2-4.7 1.3-6.2-.8-1.3-2.6-2-4.9-2z"/></g><g class="st0"><path class="st1" d="M12.7 13.5c-1 0-1.7-.3-2.1-.9-.3-.7-.2-1.7.5-2.7.6-.9 1.6-1.7 2.8-2.4 2.6-1.5 5.2-1.6 6-.3.8 1.4-.6 3.5-3.2 5-1.2.7-2.4 1.1-3.5 1.2-.2.1-.3.1-.5.1zm5.1-6.2c-.9 0-2.1.3-3.4 1.1-1 .6-1.9 1.4-2.5 2.1-.4.6-.6 1.2-.4 1.6.2.3.8.5 1.5.4.9-.1 2-.5 3.1-1.1 2.1-1.2 3.3-3 2.8-3.7-.1-.2-.5-.4-1.1-.4z"/></g><g class="st0"><path class="st1" d="M14.3 15.9c-.9 0-1.7-.3-2-.9-.4-.7-.2-1.6.4-2.5.6-.8 1.5-1.7 2.7-2.3 1.1-.6 2.3-1.1 3.3-1.1 1.2-.1 2 .2 2.4.9.8 1.3-.6 3.4-3.1 4.9-1.3.6-2.6 1-3.7 1zm4.8-5.9h-.3c-.9.1-1.9.4-2.9 1s-1.8 1.3-2.3 2c-.4.6-.6 1.1-.4 1.5.4.7 2.4.6 4.4-.6s3.1-2.8 2.7-3.5c-.2-.3-.6-.4-1.2-.4z"/></g><g class="st0"><path transform="rotate(-30 33.109 10.03)" class="st1" d="M32.6 4.6h1v10.9h-1z"/></g><g class="st0"><path transform="rotate(-30 6.413 25.444)" class="st1" d="M5.9 20h1v10.9h-1z"/></g><path transform="rotate(-30 40.973 23.703)" class="st1" d="M40.5 12.4h1V35h-1z"/><path transform="rotate(-30 14.365 39.067)" class="st1" d="M13.9 27.8h1v22.6h-1z"/><path class="st1" d="M14.5 32.6c-2.6 0-4.7-.7-5.7-2.2h.1l-.1-.3.7-.6h-.1c1.9 3.2 9.5 2.5 16.5-1.5 3.4-2 6.3-4.6 8-7.3 1.6-2.5 2-4.8 1.1-6.4l.9-.5c1.1 1.9.6 4.6-1.2 7.4s-4.8 5.6-8.4 7.6c-4.1 2.5-8.4 3.8-11.8 3.8z"/><g class="st0"><path class="st1" d="M8.5 30c-2.2-3.7 2.3-10.3 10-14.8 7.5-4.4 15.4-4.8 17.6-1l-.9.5c-1.9-3.2-9.3-2.6-16.3 1.4-7 4.1-11.4 10.2-9.5 13.4l-.9.5z"/></g><path class="st1" d="M25.3 51.4c-2.7 0-4.7-.8-5.7-2.2l-.2-.3.9-.5c.9 1.5 3.1 2.2 6.1 2 3.2-.2 6.9-1.5 10.4-3.5 3.4-2 6.3-4.6 8-7.3 1.6-2.5 2-4.8 1.1-6.4l.9-.5c1.1 1.9.6 4.6-1.2 7.4s-4.8 5.6-8.4 7.6c-3.6 2.1-7.5 3.4-10.8 3.6-.3.1-.7.1-1.1.1z"/><g class="st0"><path class="st1" d="M19.4 48.9c-1.1-1.9-.6-4.5 1.4-7.3 1.9-2.7 4.9-5.4 8.6-7.5 7.5-4.4 15.4-4.8 17.6-1l-.9.5c-1.9-3.2-9.3-2.6-16.3 1.4-3.5 2-6.4 4.6-8.2 7.2-1.7 2.5-2.2 4.7-1.4 6.2l-.8.5z"/></g></g></svg>