<svg xmlns="http://www.w3.org/2000/svg" viewBox="0 0 50 53.8"><style>.st0{opacity:.3}.st1{fill:#858585}</style><g id="Layer_4"><g class="st0"><path class="st1" d="M23.9 47.6c-1.1 0-2.2-.6-2.8-1.6L2.7 14.6c-.4-.7-.6-1.6-.3-2.5.2-.8.8-1.6 1.5-2l14.4-5.3c1.5-.9 3.5-.4 4.4 1.2l18.4 31.4c.4.7.6 1.6.3 2.5-.2.8-.8 1.6-1.5 2h-.1l-14.3 5.3c-.5.3-1 .4-1.6.4zM19.8 5.5c-.4 0-.8.1-1.1.3L4.3 11.1c-.4.3-.8.8-1 1.3-.2.6-.1 1.2.2 1.7L22 45.5c.6 1.1 2 1.4 3.1.8L39.5 41c.5-.3.9-.8 1-1.4.2-.6.1-1.2-.2-1.7L21.8 6.6c-.4-.7-1.2-1.1-2-1.1z"/></g><g class="st0"><path class="st1" d="M22.3 49.6c-.3 0-.6 0-.8-.1-.8-.2-1.6-.8-2-1.5L1 16.6C.1 15 .7 13 2.2 12.1l14.4-5.3c.7-.4 1.5-.5 2.4-.3.8.2 1.6.8 2 1.5l18.4 31.4c.4.7.6 1.6.3 2.5-.2.8-.8 1.6-1.5 2h-.1l-14.3 5.3c-.4.2-.9.4-1.5.4zM18.2 7.4c-.4 0-.8.1-1.1.3L2.6 13c-1 .6-1.4 2-.7 3.1l18.4 31.4c.3.5.8.9 1.4 1 .6.2 1.2.1 1.7-.2L37.8 43c.5-.3.9-.8 1-1.4.2-.6.1-1.2-.2-1.7L20.2 8.5c-.3-.5-.8-.9-1.4-1-.2-.1-.4-.1-.6-.1z"/></g><g class="st0"><path class="st1" d="M30.3 42.5c-1 0-2-.5-2.6-1.5-.9-1.4-.6-3.3.6-4.1 1.3-.8 3.1-.3 4 1.1.4.7.6 1.5.5 2.2-.1.8-.5 1.4-1.2 1.9-.3.2-.8.4-1.3.4zm-1.4-4.8c-.8.5-1 1.7-.4 2.7s1.8 1.3 2.6.8c.4-.2.6-.7.7-1.2.1-.5-.1-1.1-.4-1.6-.5-.9-1.7-1.2-2.5-.7z"/></g><g class="st0"><path class="st1" d="M45.6 35.3c-.3 0-.5 0-.8-.1-.7-.2-1.4-.7-1.8-1.4-.4-.7-.6-1.5-.5-2.2.1-.8.5-1.4 1.2-1.8 1.3-.8 3.1-.3 4 1.1.9 1.4.6 3.3-.6 4.1-.5.1-1 .3-1.5.3zm-.6-5c-.3 0-.6.1-.8.2-.4.2-.6.7-.7 1.2-.1.5.1 1.1.4 1.6.3.5.8.8 1.3 1 .5.1 1 .1 1.3-.2.8-.5 1-1.7.4-2.7-.5-.8-1.2-1.1-1.9-1.1z"/></g><path class="st1" d="M47.4 34.5c-1 0-2-.5-2.6-1.5-.4-.7-.6-1.5-.5-2.2.1-.8.5-1.4 1.2-1.9 1.3-.8 3.1-.3 4 1.1.4.7.6 1.5.5 2.2-.1.8-.5 1.4-1.2 1.9-.5.3-1 .4-1.4.4zm-1.5-4.7c-.4.2-.6.7-.7 1.2-.1.5.1 1.1.4 1.6.6 1 1.8 1.3 2.6.8.4-.2.6-.7.7-1.2.1-.5-.1-1.1-.4-1.6-.6-1-1.8-1.4-2.6-.8zm-12.8 8.6l-.4-.9 1.9-.9.4.9-1.9.9zm3.5-1.5l-.4-.9 2.4-1.1.4.9-2.4 1.1zm4-1.8l-.4-.9 2.4-1.1.4.9-2.4 1.1z"/><path transform="rotate(-24.361 31.431 38.626)" class="st1" d="M30.7 38.1h1.5v1h-1.5z"/><path class="st1" d="M17.8 36.4l-.8-.6c.1-.2.5-.7.7-.9 2.1-2.1 2.9-4.5 3.1-5.2l-.5-.8c-1.1-.5-2.4-1.9-2.7-2.2-.3-.1-1.1-.5-1.6-1.3-.4-.7-.4-1.3-.3-1.7-.4-.7-1.6-2.8-2-3.9-.5-3.1 1.9-4.1 2.4-4.3.4-.2 2.8-1.2 5.2 1 .8 1.1 2 3.2 2.3 3.8.4.2.9.5 1.3 1.2.4.8.3 1.6.2 2 .2.5.6 2.1.4 3.2l.5.8c.7.2 3.5 1.1 6.6.9h1.2l-.1 1h-1.1c-3.9.3-7.1-.9-7.2-1l-.2-.1-.8-1.5.1-.2c.2-.8-.2-2.4-.4-3l-.1-.3.1-.2s.2-.7-.1-1.3c-.3-.6-.8-.8-.8-.8h-.3l-.1-.2s-1.5-2.7-2.3-3.8c-1.8-1.6-3.6-1-4.1-.7-.6.2-2.2.9-1.8 3.2.5 1.3 2 3.9 2.1 3.9l.1.2-.1.2s-.2.4.2 1c.4.7 1.2.9 1.2.9h.1l.1.1c.4.5 1.7 1.8 2.6 2.1l.1.1.9 1.5v.2c0 .1-.8 3.2-3.4 5.9-.2.1-.4.5-.7.8z"/></g></svg>