<svg id="Layer_1" xmlns="http://www.w3.org/2000/svg" viewBox="0 0 38 50"><style>.st0{fill:#858585}.st1{opacity:.3}</style><path class="st0" d="M20 49.4c-1.8 0-3.5-.3-5.3-.8-4.5-1.4-8.1-4.5-10.3-8.6-8.2-15.6-.9-38.3-.8-38.5l.2-.5.5.1c.2.1 23 7 31.2 22.6 4.5 8.6 1.2 19.2-7.4 23.7-2.6 1.4-5.3 2-8.1 2zM4.4 2.3c-1 3.3-6.4 23.3.9 37.3 2 3.9 5.5 6.8 9.7 8.1 4.2 1.3 8.7.9 12.6-1.1 8.1-4.2 11.2-14.2 7-22.3-7.4-14.1-26.9-21-30.2-22z"/><g class="st1"><path class="st0" d="M9.7 29.5c-5.2 0-9-3.8-9-3.9l-.1-.1v-.2c-.2-1.3.6-3 2.2-4.5 2.9-2.8 7.4-3.8 12-2.7 3.9.9 7.5.5 10.4.3 3.5-.3 6.3-.6 7.9 1.4.1.2.6.7.3 1.3-.3.7-1.4.9-3.5 1.1-3.2.3-8.1.9-12.2 4.2-2.9 2.3-5.6 3.1-8 3.1zM1.5 25c1 1 7.7 7 15.5.6 4.3-3.6 9.6-4.1 12.7-4.5 1.1-.1 2.4-.3 2.6-.5 0 0-.1-.1-.2-.3-1.2-1.5-3.6-1.3-7-1-3 .3-6.7.6-10.7-.3-6.3-1.4-10.1 1.6-11.1 2.5-1.2 1.3-1.9 2.6-1.8 3.5z"/></g><g class="st1"><path class="st0" d="M30.9 30.9c-1.7 0-3-1.4-3-3s1.4-3 3-3c1.7 0 3 1.4 3 3s-1.4 3-3 3zm0-5c-1.1 0-2 .9-2 2s.9 2 2 2 2-.9 2-2-.9-2-2-2z"/></g><g class="st1"><path class="st0" d="M27.3 38c-1.2 0-2.1-1-2.1-2.1s1-2.1 2.1-2.1 2.1 1 2.1 2.1-1 2.1-2.1 2.1zm0-3.2c-.6 0-1.1.5-1.1 1.1 0 .6.5 1.1 1.1 1.1s1.1-.5 1.1-1.1c0-.6-.5-1.1-1.1-1.1z"/></g><g class="st1"><path class="st0" d="M6.8 31.8s1 7.4 5.9 10.2c4.7 2.7 7.1 1.8 7.1 1.8s-9.3-1-13-12z"/></g></svg>