<svg xmlns="http://www.w3.org/2000/svg" width="49.959" height="53.586" viewBox="339.746 489.113 49.959 53.586"><path fill="#858585" d="M388.833 505.991l.873.658-27.058 35.89-.872-.658z" opacity=".3"/><path fill="#858585" d="M366.764 489.333l.874.658-27.04 35.904-.874-.658z"/><path fill="#858585" d="M377.834 497.668l.872.659-27.075 35.876-.873-.659z" opacity=".3"/><path fill="#858585" d="M356.748 492.503l-3.608 4.482 6.452 4.703 3.608-4.484-6.452-4.701m-.219-1.531l8.202 5.904-4.922 6.234-8.201-5.906 4.921-6.232z"/><path fill="#858585" d="M356.748 497.861l-3.608 4.481 6.452 4.594 3.608-4.483-6.452-4.592m-.219-1.531l8.202 5.906-4.922 6.231-8.201-5.903 4.921-6.234z"/><path fill="#858585" d="M359.153 502.236h1.095v5.467h-1.095zm4.484-5.36h1.095v5.469h-1.095zm-12.03.329h1.095v5.359h-1.095zm4.485-5.686h1.094v5.47h-1.094z"/><path opacity=".3" fill="#858585" d="M356.748 515.685l-3.608 4.484 6.452 4.594 3.608-4.483-6.452-4.595m-.219-1.529l8.202 5.903-4.922 6.232-8.201-5.904 4.921-6.231z"/><path opacity=".3" fill="#858585" d="M356.748 521.044l-3.608 4.484 6.452 4.592 3.608-4.482-6.452-4.594m-.219-1.531l8.202 5.906-4.922 6.232-8.201-5.904 4.921-6.234z"/><path opacity=".3" fill="#858585" d="M359.153 525.419h1.095v5.467h-1.095zm4.484-5.359h1.095v5.47h-1.095zm-12.03.328h1.095v5.359h-1.095zm4.485-5.685h1.094v5.467h-1.094zm23.622-6.453l-3.608 4.484 6.451 4.594 3.608-4.484-6.451-4.594m-.111-1.532l8.202 5.906-4.921 6.232-8.202-5.904 4.921-6.234z"/><path opacity=".3" fill="#858585" d="M379.714 513.609l-3.608 4.481 6.451 4.594 3.608-4.481-6.451-4.594m-.111-1.531l8.202 5.906-4.921 6.231-8.202-5.906 4.921-6.231z"/><path opacity=".3" fill="#858585" d="M382.119 517.875h1.094v5.467h-1.094zm4.593-5.36h1.094v5.47h-1.094zm-12.03.438h1.095v5.356h-1.095zm4.485-5.688h1.093v5.47h-1.093z"/></svg>