<svg xmlns="http://www.w3.org/2000/svg" width="60.001" height="37.587" viewBox="334.546 496.422 60.001 37.587"><path opacity=".3" fill="#858585" d="M372.092 517.477c-.453.68 0 1.473 1.018 1.697 1.019.34 2.263 0 2.828-.68.452-.678 0-1.469-1.018-1.695-1.02-.224-2.263 0-2.828.678zm9.5 2.828c-.453.68 0 1.471 1.018 1.695 1.019.34 2.263 0 2.828-.678.452-.68 0-1.471-1.018-1.697-1.132-.224-2.376 0-2.828.68z"/><path fill="#858585" d="M362.704 514.651c-.452.68 0 1.471 1.019 1.695 1.019.229 2.262 0 2.827-.678.452-.68 0-1.471-1.018-1.697-1.132-.224-2.375 0-2.828.68z"/><path opacity=".3" fill="#858585" d="M353.204 511.823c-.452.68 0 1.471 1.019 1.697 1.019.34 2.262 0 2.827-.68.452-.678 0-1.469-1.018-1.695-1.131-.227-2.375.113-2.828.678zm-9.387-2.713c-.451.678 0 1.469 1.02 1.695 1.018.34 2.262 0 2.827-.678.452-.68 0-1.471-1.019-1.697-1.131-.34-2.374 0-2.828.68zm43.203 7.012c1.019.338 2.263 0 2.828-.68.566-.68 0-1.471-1.018-1.695-1.019-.34-2.263 0-2.827.678-.566.677-.001 1.357 1.017 1.697z"/><path fill="#858585" d="M391.544 510.127c1.018.338 2.262 0 2.827-.68.453-.678 0-1.471-1.019-1.695-1.018-.34-2.262 0-2.828.678-.564.68-.111 1.471 1.02 1.697z"/><path opacity=".3" fill="#858585" d="M378.085 527.997c1.018.34 2.262 0 2.828-.68.452-.678 0-1.471-1.019-1.695-1.018-.227-2.262 0-2.827.678-.452.566 0 1.357 1.018 1.697zm-4.41 5.878c1.018.34 2.262 0 2.827-.678.452-.68 0-1.471-1.019-1.697-1.018-.338-2.262 0-2.826.68-.565.68-.113 1.471 1.018 1.695z"/><path fill="#858585" d="M377.633 513.293c1.018.338 2.262 0 2.827-.678.453-.68 0-1.471-1.019-1.697-1.018-.34-2.262 0-2.826.678-.565.68-.113 1.36 1.018 1.697z"/><path opacity=".3" fill="#858585" d="M382.044 507.413c1.018.34 2.262 0 2.828-.678.452-.68 0-1.471-1.019-1.697-1.018-.338-2.262 0-2.827.68-.453.564-.001 1.355 1.018 1.695zm-13.346 17.755c1.018.34 2.262 0 2.827-.68.452-.68 0-1.471-1.018-1.695-1.018-.34-2.262 0-2.827.678-.565.567-.113 1.36 1.018 1.697zm-4.523 5.995c1.018.34 2.262 0 2.827-.678.453-.68 0-1.473-1.019-1.697-1.018-.227-2.262 0-2.826.68-.565.679 0 1.355 1.018 1.695zm3.958-20.698c1.018.34 2.262 0 2.828-.678.452-.68 0-1.471-1.019-1.697-1.018-.338-2.262 0-2.826.68-.453.678-.001 1.471 1.017 1.695zm4.411-5.881c1.018.34 2.262 0 2.828-.678.452-.68 0-1.471-1.019-1.697-1.018-.338-2.262 0-2.827.68-.453.567-.001 1.358 1.018 1.695z"/><path fill="#858585" d="M359.198 522.34c1.019.34 2.262 0 2.826-.678.453-.68 0-1.471-1.018-1.697s-2.262 0-2.827.68c-.564.678.002 1.471 1.019 1.695zm-4.523 5.994c1.018.34 2.262 0 2.827-.678.564-.68 0-1.473-1.019-1.697-1.018-.34-2.262 0-2.826.68-.453.567 0 1.358 1.018 1.695zm3.958-20.695c1.018.338 2.262 0 2.827-.68.453-.678 0-1.469-1.019-1.695-1.018-.34-2.262 0-2.826.678-.452.68 0 1.471 1.018 1.697z"/><path opacity=".3" fill="#858585" d="M363.157 501.758c1.018.338 2.261 0 2.826-.678.565-.68 0-1.471-1.018-1.697-1.018-.338-2.262 0-2.828.678-.45.566.002 1.357 1.02 1.697zm-13.459 17.756c1.019.338 2.262 0 2.827-.68.565-.678 0-1.471-1.019-1.695-1.018-.34-2.262 0-2.827.68-.564.678.002 1.469 1.019 1.695zm-4.41 5.994c1.018.338 2.262 0 2.827-.68.451-.678 0-1.471-1.019-1.695-1.019-.34-2.262 0-2.827.678-.452.564.002 1.357 1.019 1.697zm3.958-20.584c1.018.34 2.262 0 2.827-.678.452-.68 0-1.471-1.019-1.697-1.018-.338-2.262 0-2.827.678-.451.566.002 1.357 1.019 1.697z"/><path fill="#858585" d="M353.657 498.93c1.018.34 2.262 0 2.826-.678.565-.678 0-1.471-1.018-1.697-1.02-.338-2.263 0-2.828.68-.564.678.002 1.355 1.02 1.695z"/><path opacity=".3" fill="#858585" d="M340.312 516.799c1.019.34 2.263 0 2.827-.678.453-.68 0-1.471-1.018-1.697-1.019-.34-2.263 0-2.827.678-.452.566 0 1.357 1.018 1.697zm-4.524 5.881c1.018.34 2.262 0 2.827-.68.451-.678 0-1.469-1.019-1.695-1.018-.34-2.262 0-2.827.68-.564.678.002 1.355 1.019 1.695z"/></svg>