<svg xmlns="http://www.w3.org/2000/svg" viewBox="0 0 49.9 50"><defs><style>.cls-1{opacity:.2}.cls-2{fill:#858585}.cls-3{opacity:.3}.cls-4{fill:#d3d3d3}.cls-5{fill:none}</style></defs><title>icon_aiia_US_EU</title><g id="Layer_2" data-name="Layer 2"><g id="Layer_1-2" data-name="Layer 1"><g class="cls-1"><path class="cls-2" d="M24.95 0v1A24 24 0 0 1 37 45.7 23.16 23.16 0 0 1 24.95 49a24 24 0 0 1-12.1-44.7A23.16 23.16 0 0 1 24.95 1V0m0 0a24.93 24.93 0 0 0-21.5 37.6A24.67 24.67 0 0 0 24.95 50a24.93 24.93 0 0 0 21.5-37.6A24.67 24.67 0 0 0 24.95 0z"/></g><g class="cls-3"><path class="cls-2" d="M8.95 35.9c-3.5 0-6.1-1-7.2-3-2.9-5 2.4-15.7 14.1-22.5a38 38 0 0 1 16.7-5.3c5.3-.3 9.2 1 10.6 3.5 3 5.1-3.8 14.4-15.4 21.2a44.33 44.33 0 0 1-16 5.9c-1 .1-1.9.2-2.8.2zM33.85 6h-1.3a38.17 38.17 0 0 0-16.3 5.1C5.35 17.6-.05 27.8 2.55 32.3c1.2 2.1 4.4 3 9 2.4a43.49 43.49 0 0 0 15.6-5.8c10.8-6.3 17.6-15.4 15-19.8-1-2-4.15-3.1-8.3-3.1z"/></g><g class="cls-3"><path class="cls-2" d="M14.25 44.4c-3.6 0-6.1-1.1-7.3-3.1-3-5.1 3.7-14.3 15.2-21.1A42.62 42.62 0 0 1 38 14.3c5-.6 8.5.4 9.9 2.9 3 5.1-3.7 14.3-15.2 21.1a42.62 42.62 0 0 1-15.9 5.9 24.62 24.62 0 0 1-2.55.2zm26.5-29.2a24.62 24.62 0 0 0-2.6.2 42.72 42.72 0 0 0-15.5 5.7c-10.8 6.4-17.5 15.2-14.8 19.7 1.2 2.1 4.4 3 9 2.4a42.72 42.72 0 0 0 15.5-5.7c10.8-6.3 17.5-15.2 14.8-19.7-1-1.7-3.3-2.6-6.4-2.6z"/></g><g class="cls-3"><path class="cls-2" transform="rotate(-30.7 24.538 24.755)" d="M24.24.91h1v47.9h-1z"/></g><path class="cls-4" d="M40.22 12.58s0 .17-.07.28-.13.18-.3.34-.11.16-.25.28 0 .17-.12.29-.19.22-.27.29-.16 0-.21 0a.11.11 0 0 1-.14 0l-.15-.17a.29.29 0 0 0-.27-.07c-.11 0-.15 0-.33-.06a1 1 0 0 0-.57.06c-.15.09-.08-.06-.44-.13s-.14 0-.32-.15a.23.23 0 0 0-.15-.06.84.84 0 0 1-.27 0h-.25c-.07 0-.19-.18-.22-.22s-.44-.19-.61-.28S35 13 35 13l-.11-.07a.91.91 0 0 1-.25-.13 1.43 1.43 0 0 0-.7-.25c-.25 0-.18 0-.28-.14s-.47-.07-.52-.13-.23-.11-.17-.1l.39.12h.37c.31 0 0-.08-.09-.23a1.09 1.09 0 0 0-.19-.16 1.26 1.26 0 0 0-.46-.25s-.08 0-.19.14-.1 0-.22.14-.16 0-.33.15-.09.27-.18.44-.52.17-.61.22a4.3 4.3 0 0 0-.34.29s-.1 0-.17.05h-.08a1.32 1.32 0 0 1-.36.14 1 1 0 0 1-.28 0c-.17 0-.23.17-.32.24s0 .22 0 .33.19.2.28.29 0 .07-.06.19-.24.22-.39.23-.08 0-.22 0-.31.21-.37.26-.09.08-.23 0a.26.26 0 0 0-.27 0s-.27.17-.38.26-.23.14-.31.21-.11 0-.18 0a.22.22 0 0 0-.16 0 .19.19 0 0 1-.2 0 .27.27 0 0 1-.18-.1c-.06-.09 0-.19 0-.29s-.2-.14-.27-.16-.05-.25-.05-.25-.06.19-.13.13-.28.06-.28.06l-.17.21-.24.16-.2.18-.28.22s-.12.14-.39.43a1.93 1.93 0 0 1-.36.33 1.4 1.4 0 0 0-.14.16 1.22 1.22 0 0 0-.2.28c0 .09 0 .14-.08.2a.87.87 0 0 0-.21.28c-.08.16 0 0 0 .09v.14h-.06a.82.82 0 0 1-.18.07 1 1 0 0 0-.17.14l-.22.18a.67.67 0 0 1-.22.08.43.43 0 0 0-.29 0c-.14.08-.05.14-.05.14l.08.15c0 .07 0 .19.09.26s-.08.18-.06.26-.07.15-.15.28-.17.18-.15.34a1.37 1.37 0 0 0 0 .38c0 .08 0 .17.08.25a.91.91 0 0 0 .2.15l.08.12s-.06.21 0 .31-.2.31-.2.31a1.37 1.37 0 0 0-.13.35.81.81 0 0 1-.17.31c0 .06.2.15 0 .52a.73.73 0 0 0 0 .69.94.94 0 0 1 0 .26.64.64 0 0 0 .08.3 2.65 2.65 0 0 0 0 .51c0 .18 0 .1.06.22s.13.07.23.11.07 0 .19 0 .16.18.28.31.08.06.19.18.11.2.25.36l.1.11a.15.15 0 0 1 0 .12v.39a.64.64 0 0 0 .1.19l.15.17c.08.09 0 0 .08.16s0 0 .07.11.28.05.28.05h.13c.15 0 .27-.17.27-.17s.18.08.26.05a.74.74 0 0 0 .28 0H26a.62.62 0 0 1 .29 0h.07l.15.17h.31a1.32 1.32 0 0 0 .31-.08h.34l.61-.09a3.92 3.92 0 0 1 .49-.11c.22 0 .22-.13.22-.13l.13-.15a1.51 1.51 0 0 1 .14-.29c.05 0 .06-.18.24-.35l.38-.36c.15-.14.1 0 .23-.07a.36.36 0 0 0 .16-.13v-.05l.11-.21a1.38 1.38 0 0 0 .13-.22.76.76 0 0 1 .15-.29c.08-.07 0-.16.13-.25a.12.12 0 0 0 0-.17v-.06l.2-.25a3.85 3.85 0 0 1 .32-.29c.12-.12.15 0 .42-.1s.12.08.21.22.14.06.24 0 .17-.26.26-.34a2.06 2.06 0 0 0 .23-.36h.21a1 1 0 0 1 .36.05.24.24 0 0 1 .21.24.67.67 0 0 0 0 .1 2.42 2.42 0 0 0 .12.27l.07.11c.07.08 0 .25.16.48s.63.26 1 .26h.22a.55.55 0 0 1 .26 0 .92.92 0 0 1 .25.16 3 3 0 0 0 .37.31c.27.14.43 0 .34.11s.24.37.37.34.42.29.46.72a5 5 0 0 0 .49 1.44l.09.17c.2.32 1.51.78 1.51.78a6.77 6.77 0 0 1 .83.81c.17.24.59.31.78.38h.08a1.62 1.62 0 0 0 .69.44c.4.11.32.58.78.77s.5-.08.6-.46.36-.34.47-.45.23-.51.4-.67-.11-.41.12-.86a.86.86 0 0 0 0-1 1.41 1.41 0 0 1 0-1c.06-.3 0-.37-.22-.5l-.11-.06c-.32-.19.09-.86.09-.85s.05-.3-.15-.64-.38-.51-.67-.54.35-.13.35-.28a1.86 1.86 0 0 0 .08-.46v-.4c0-.1.17-.39.19-.52a2 2 0 0 0 .06-.56c0-.23 0-.26-.18-.38s-.12-.16-.37-.47a1.56 1.56 0 0 1-.26-.39l-.18-.11a3.56 3.56 0 0 1-.4-.27c-.19-.15-.22-.27-.33-.31a.73.73 0 0 1-.37-.26c-.16-.17 0-.18-.05-.31-.12-.15-.15-.21-.12-.34s-.22-.21-.14-.34a.73.73 0 0 0 0-.4 2.56 2.56 0 0 0 0-.32v-.53a2.11 2.11 0 0 1 .07-.53c0-.07.12-.2.1-.28a2.13 2.13 0 0 1 0-.56 1.42 1.42 0 0 0 0-.54 4.06 4.06 0 0 1-.2-.7c-.08-.39-.51-.94-.52-1.13s-.16-.01-.16-.01zm-16.44 8l.08-.07h.05z"/><path class="cls-2" d="M3.83 26.87a1.37 1.37 0 0 0 .09-.21 4.49 4.49 0 0 0 0-.51c0-.06-.37.37-.37.37s.05.45.05.54.2.28.17.34.06.36 0 .48a1.36 1.36 0 0 0 0 .35l.19.06.1-.19c0-.09 0-.19-.05-.29l.13-.24-.14-.15-.15-.2c.01-.11-.01-.22-.02-.35zm2.9-2.21a.43.43 0 0 1 .38-.14c.11 0 .15 0 .12-.16s-.14-.19 0-.49.1-.49-.17-.28-.26.15-.46.29-.22.42-.32.36.11-.46.11-.46 0-.4-.09-.19-.43.53-.33.32-.19 0-.19 0l-.17-.07s-.22.24-.22.14-.22.17-.2.09 0-.23-.07-.18-.32.23-.4.46.18.29.22.21.18-.13.18-.13-.07.19-.1.25l-.16.42v-.21l-.05-.22-.11-.09-.14.33-.11.28v.23l-.11-.29v.32c0 .09.48.46.44.53s-.3 0-.3 0a1.6 1.6 0 0 0-.07-.28c0-.07-.28 0-.28 0v.86l.19.17.16-.27c0 .12 0 .24-.07.36l.12.07.12-.24a3.74 3.74 0 0 0 .35-.53l.26-.53v-.24s.28-.25.42-.19.31-.11.42 0a.37.37 0 0 1 .09.41c-.06.16.12.46.12.45a.19.19 0 0 1 0 .2c-.05.11-.23.26-.24.36s0 .3 0 .3.1.48.18.31 0-.16.07-.27.17-.65.45-.49.39 0 .46-.13.33-.26.29-.29.1-.26-.19-.19-.31-.13-.12-.14.35-.09.25-.31 0-.43-.28-.38-.37 0-.37 0a.64.64 0 0 1-.08-.33z"/><path class="cls-4" d="M10.18 26.87l-.13.29a1.41 1.41 0 0 0 .06.49.8.8 0 0 1 .08.47c0 .13.21.5.21.49l.2-.38a1.83 1.83 0 0 0 .21-.63l.14.05.16-.11a.5.5 0 0 0 .06-.21.31.31 0 0 0-.08-.17H11l-.15-.11-.14-.12a.5.5 0 0 0-.19.27c0 .15-.1.16-.1.16v-.19a.87.87 0 0 0-.16.22c-.01-.14.03-.77-.08-.52z"/><path class="cls-2" d="M2.57 26l.09-.24h.11l.1-.14-.19-.17-.17.09-.09.18-.1.34.15-.06zm.55.84c0-.1.15-.17.1-.25l-.12-.18-.1-.17-.18.21.11.1s.15.22.07.19-.27-.18-.26-.11.07.33.07.33l.19.08zm.04 1.45l.2-.11s.12.21.21 0 0-.25 0-.25.09-.25.11-.34-.25-.23-.25-.23l.07-.14s-.07-.31-.17-.34-.05.28-.09.36l-.12.23v.2l.15.2-.13.13c-.14.07.02.29.02.29z"/><path class="cls-4" d="M9.27 10.94a5.55 5.55 0 0 0-.38.72c0 .09-.22.44-.24.47s0-.24-.13-.15a.88.88 0 0 0-.16 0l-.11.09h-.16a2 2 0 0 1-.1.22l-.14.14-.17.13v.21h-.07l-.06.13-.13.16v.14l-.07.1-.06.18-.09.19H7l-.11.14v.35h-.08l-.12.22v.13h-.1l-.1.17v.36l-.08.06-.09.21-.05.06v.46l-.13.17h-.05v.2l-.09.26.05.26-.05.22s0-.22-.16.15l-.36.73a1.7 1.7 0 0 0-.09.55c0 .06-.09.34-.09.34s-.36 1.29-.22 1.07.31-.16.17.14-.11.7-.25 1.08-.11.77 0 .43.38-.72.38-.72-.26 1.08 0 .76.25-.21.38-.5 0-.52.28-.73.29-.3.45-.17.4.12.46.35a1 1 0 0 1 0 .49s.12.19.21-.07 0-.55.11-.5a1.23 1.23 0 0 0 .37.07 1.11 1.11 0 0 0-.28.31c-.07.14-.1.37 0 .27a1.45 1.45 0 0 0 .32-.39s.12.19.09.31a5.5 5.5 0 0 0-.1.57.87.87 0 0 0 .28.66c.28.19.36.21.52.31s.39.41.53.37.23 0 .36-.14a1.28 1.28 0 0 0 .2-.34h.2c.09 0 .13-.1.23-.33s0-.21 0-.31-.16-.47-.16-.47 0-.24-.14-.28 0 .06 0-.32 0-.45-.11-.53-.2-.08-.17-.13a1.12 1.12 0 0 1 .05-.46c.1-.22.17 0 .24-.58a5.53 5.53 0 0 0 .07-.93c0-.3-.14-.16 0-.49s.1-.28.19-.63.08-.53.14-.66.15-.71.28-1.18.11-.37.08-.3-.4.56-.49.72-.07-.26-.07-.26 0-.28.1-.24.19 0 .32-.21.17-.44 0-.39-.19 0-.31.08-.13.07-.26.18-.29.2-.25.13a4.92 4.92 0 0 1 .19-.47l.2-.39c.06-.11.2-.21.14-.27s-.11 0-.17.07a.75.75 0 0 0 .14-.36c0-.21 0-.4-.08-.22s0-.23 0-.23-.08-.25-.23 0-.39.37-.22.06.24-.56.19-.51l-.38.31s-.08 0 .07-.58a6.6 6.6 0 0 0 .1-.85c.07-.11.08-.23.16-.39a.52.52 0 0 0 .06-.3s-.19-.02-.4.32zm2.4 3.46c0 .22-.07.18-.15.34a.73.73 0 0 0-.12.36 1 1 0 0 1-.11.39c-.06.11-.1 0-.21 0s-.18.68-.09.66.11-.25.2-.45.05.07 0 .12a3.78 3.78 0 0 0 0 .41l.23-.31v.27s.13-.3.2-.33a.86.86 0 0 0 .29-.34c.06-.13.14-.28.1-.32a1.78 1.78 0 0 1 .15-.69 1.19 1.19 0 0 0 0-.62c-.16-.02-.45.29-.49.51z"/><path class="cls-2" d="M3.38 26.46a1.15 1.15 0 0 1 .13-.25.64.64 0 0 0 .08-.21s-.16-.19-.2-.11a2.33 2.33 0 0 0-.09.28z"/><path class="cls-4" d="M13.54 36.47a5 5 0 0 0-.78.34c-.41.22-.35.29-.48.33s-.13 0-.22.18a.81.81 0 0 0-.07.48c0 .1.08.12.08.12a2.85 2.85 0 0 1 .12-.46c.06-.06.13 0 .19-.06s.17-.22.26-.22.1-.19.1-.19.17 0 .18.06.12-.09.12-.09.1.06.08.11a1.29 1.29 0 0 0 .42-.6zM26 31.92c-.24 0-.19-.28-.37-.09s0 .21-.41.37a6.13 6.13 0 0 1-.7.24 2.26 2.26 0 0 0-.61.23 3.33 3.33 0 0 0-.25.27c-.1.12-.15.25-.27.31s-.41.13-.39.47v.12a1.71 1.71 0 0 0-.24-.15c-.12-.06-.12 0-.38.1s-.42.22-.54.3a.29.29 0 0 0-.13.29v.11a.2.2 0 0 0-.13-.15c-.15 0-.21.06-.27.13s-.23.23-.23.23-.2 0-.15-.11 0-.19-.07-.24 0 0-.23 0h-.35l-.39-.06h-.11a3 3 0 0 0-.62.3 3.24 3.24 0 0 0-.32.29l-.18.24c-.09 0-.32.07-.36.14s-.47-.07-.57.08a.88.88 0 0 1-.27.23s0-.23-.08-.21-.06.06-.21.14-.37.24-.26.08.06-.14.06-.14l-.35.38a.49.49 0 0 1 0 .25c0 .08-.2.06-.29.19s0 .17-.11.29a.13.13 0 0 1-.19 0h-.15l-.19.28c0 .06-.06.37.1.36s.33 0 .26.08-.15.17-.27.09-.11-.26-.22-.26h-.11v-.21s0-.13-.09 0-.05.14 0 .22 0 .16 0 .24v.17a.14.14 0 0 1 0 .1s-.18-.07-.16 0-.07.24 0 .3l.24.15s-.14.25 0 .34a.36.36 0 0 1 .14.29s-.14-.35-.34-.26-.22 0-.3.19 0 .23 0 .32a.26.26 0 0 0 0 .08s0 .09-.21.14-.23.09-.3 0-.15 0-.17.07-.06 0-.11.1-.15.16-.14.19.3.16.43 0 .17-.13.28-.13.15 0 .21-.12.21-.19.29-.14.27-.1.12-.14a.14.14 0 0 0-.13 0v-.2c0-.05 0-.2.15-.19a.73.73 0 0 1 .24.1h.22c.07 0 .61.38.65.4s.23.14.19.27-.08.17 0 .23.11 0 .11.06.06.15 0 .18-.12.14.06.2.16.15.17.19 0 .09.16.17.32.2.36 0 .13 0 .17.09 0 .08 0 .1.08.16.35.32c.06 0 .13.23.28.11a.63.63 0 0 1 .55-.11 3.11 3.11 0 0 1 .78.18 2.09 2.09 0 0 0 .73.08l.31.05a.8.8 0 0 0 .49 0 4.89 4.89 0 0 0 .62-.19c.15-.06.27-.27.45-.26a1.37 1.37 0 0 0 .49 0h.19a15.39 15.39 0 0 1 1.48.7c.36.2 1.54.79 1.55.79s.68.24.54.28.23.07.37.12a1.43 1.43 0 0 1 .38.16c.25.14.63.33.76.4l.71.43s-.13.13.17.16.55-.07.71 0 .23.33.46.33.43.19.49.11.12.08.36.18.35.1.33 0-.23-.13-.4-.21-.32-.17-.24-.2a.79.79 0 0 1 .38.08l.44.18a2.73 2.73 0 0 1 .38.2l.11.17s-.14.07 0 .13a2.69 2.69 0 0 1 .3.23s.13-.18.19-.24.09-.17.13-.15.22.22.18.28.17.28.17.28a3.36 3.36 0 0 0 .49 0 1.49 1.49 0 0 1 .5 0h.17a1.09 1.09 0 0 0 .46 0s0-.07.13-.06a.69.69 0 0 0 .28-.05.26.26 0 0 0 .14 0l.16-.09a1.65 1.65 0 0 0 .41-.12.82.82 0 0 1 .23-.28 1 1 0 0 0 .29-.26l.2-.32a.75.75 0 0 1 0-.16 1.1 1.1 0 0 1 .11-.18 1.41 1.41 0 0 0 .13-.17v-.27a1.35 1.35 0 0 1-1 .69h-.74c-.34 0-.56.11-.5-.05s.13-.11-.09-.27-.31-.17-.28-.27.19 0-.13-.23-.37-.08-.46 0a.37.37 0 0 1-.44.15c-.24-.05-.4-.19-.32-.35a.26.26 0 0 0-.12.1c-.07 0-.2.08-.25-.14s0-.35-.16-.28-.31.27-.43.22-.58.09-.37-.16.45-.25.39-.39 0-.2-.25-.21-.58 0-.5-.07.61-.57.53-.83a.62.62 0 0 0-.34-.43c-.16-.08-.18 0-.41 0s0-.28-.27-.16-.37.26-.49.21 0 0 0-.05a3 3 0 0 1 .29-.22c.22-.19.42-.12.51-.35s.21-.33.15-.48a2.51 2.51 0 0 0-.57-.54 1.3 1.3 0 0 1-.29-.33.23.23 0 0 1 .25.09c.11.14.07 0-.1-.25s-.26-.24-.26-.46 0-.27-.29-.29-.62.05-.65-.14-.1-.53-.1-.66 0-.59.18-.72.53-.46.5-.49-.29 0-.13-.16.08-.21.08-.21l-.29-.24s-.09-.24-.19-.3l-.33-.19c-.14-.07 0-.15-.2-.26s-.94-.52-1.21-.66 0-.18.1-.19-.05 0-.15-.2-.18-.18-.22-.28a1.11 1.11 0 0 1 0-.43.51.51 0 0 0-.3-.59 1.83 1.83 0 0 0-.73-.24zm7.75 13.63zm10.69-27.27c-.33-.06-.21 0-.21 0a3 3 0 0 0 .2.33c.07.09 0 .12 0 .31a4.3 4.3 0 0 0 0 .45c0 .17-.19.32-.17.46s-.1.38-.09.54.06.17.22.37.21.19.43.29 0 .16.07.45 0 .26.08.51.19.16.29.18.13.17.21.34.08.11.38.15.27-.26.36-.34.1-.34.1-.34l-.87-2.27v-.06c-.16-.15-.26-.24-.13-.36s-.05-.15-.05-.15-.09 0-.22-.14.17-.06.19-.12-.13-.23-.34-.43-.12-.11-.45-.17z"/><path class="cls-2" d="M1.76 29.2c0-.13.35-.5.28-.33s-.09.34-.05.31a4.55 4.55 0 0 0 .23-.45 1.46 1.46 0 0 0 .13-.38 3.61 3.61 0 0 1 .23-.42v-.54l-.21.29s-.12-.13-.16-.05a.64.64 0 0 0 .09.37c.07.09-.2.33-.2.33l.05-.23-.3.28v-.23c0-.08 0 .23-.09.24s-.13-.2-.13-.2a.94.94 0 0 1-.13.32 1.49 1.49 0 0 0-.14.25c0 .13 0 .26.06.4 0-.1.17-.21.15-.08s0 .21 0 .28.14-.03.19-.16zm.24.53a1.17 1.17 0 0 0-.3 0s-.05.13-.08.24.1.5.16.75a4.65 4.65 0 0 1 .22-.78v-.21z"/><path class="cls-4" d="M10.29 32zM41.55 7.44a.48.48 0 0 1-.13.2l.43.08z"/><path class="cls-2" d="M5.56 39.27l.33.46M41.46 7.37A24.07 24.07 0 0 0 27 1.23a.55.55 0 0 0 0 .23l-.36.22v.16l-.22.22a.32.32 0 0 0-.06-.23c-.08-.1-.2.09-.23.14a2.07 2.07 0 0 0-.07.2.86.86 0 0 0-.16.25 1.56 1.56 0 0 0 0 .38l.1.2s-.25.27-.39.27-.33 0-.13-.2-.22-.15-.39 0-.21.18 0 .33.47.08.56.17 0 .09 0 .09a.38.38 0 0 0-.26.06.82.82 0 0 0-.19.55c0 .11.36.06.32.14a.79.79 0 0 1-.52.27c-.21 0-.27.31.07.21s.39.11.2.1a.79.79 0 0 0-.4.06l-.19.13s0-.09-.21-.12a.26.26 0 0 1-.24-.16 1.1 1.1 0 0 1-.4.11c-.21 0 0-.08.06-.13a5.47 5.47 0 0 0 .7-.34c.26-.19.54-.53.4-.66a.5.5 0 0 0-.59 0 .72.72 0 0 1-.53.19 1 1 0 0 0-.69.3c-.2.17-.28.18-.39.18s-.28.32-.28.32-.26 0-.2-.08h.06a.46.46 0 0 1-.2 0 1.06 1.06 0 0 0-.3.11l.05.09-.19-.15v.45l-.15-.16v.26l-.15-.24a.37.37 0 0 0-.19.18c-.08.16-.06.27 0 .32s-.09.07-.13.11a2 2 0 0 0-.14.17l-.1.14c-.1.14-.27.09-.19.16s0 .22-.07.27.12.23.12.23-.17.22-.25.23-.06.13 0 .24a.18.18 0 0 1 0 .25 1.21 1.21 0 0 0 0 .29l.11.2s.12.19.08.25 0 .31-.08.37.06.26 0 .31l-.24.13-.28.22s.16.2.14.27a1.34 1.34 0 0 1-.11.21c-.06.13-.14.19-.1.23a.61.61 0 0 0 .19.07l.31-.22-.34.33.27.2.15-.29v.39l.33.09s.1.12.35-.15.18-.42.23-.48-.1-.38 0-.28.13.1.24 0c.15-.12-.11.24.13.18s.2 0 .47.09a.64.64 0 0 1 .32.24.25.25 0 0 0 .3 0c.09-.07.11-.14.07-.2s.08-.16.19-.25.19-.2 0-.36a1.79 1.79 0 0 1-.21-.42s.28-.45.07-.56-.4.15-.76-.1-.09-.52 0-.77a3.37 3.37 0 0 0 .03-.44s-.21.09-.18 0 0-.21 0-.27.18-.22.22-.26l.08-.05c.11-.08.3-.19.31-.1s.11.15.06.19a3.42 3.42 0 0 0-.1.59s-.15.27.08.4l.48.28a.14.14 0 0 0 .17 0c.1-.06.25 0 .33-.08l.27-.22s.16-.18.21-.22.12-.07.15-.12a.46.46 0 0 0 0-.19h.06l.1-.09.21-.09-.07.24v.13l-.53.45s-.22.48.15.41h.18c.24 0 .33.14.25.22a.2.2 0 0 1-.22.05s-.36-.1-.48.13-.09.22.16.27.1.09.2.11.06.15.19.15 0 .06 0 .13-.09.17 0 .13-.26.31-.26.31h-.23s-.17.23-.25.37-.25.39-.25.39h-.07l-.14.06s-.27 0-.27.09a.46.46 0 0 1-.16.25.49.49 0 0 1-.27.1c-.09 0-.16.15-.27 0s-.07-.14 0-.31.08-.19 0-.21-.17.16-.22 0-.11-.34-.23-.24a.31.31 0 0 0-.15.24 1.24 1.24 0 0 1 0 .19s-.17.16-.12.22a1.51 1.51 0 0 0 .2.18 1.93 1.93 0 0 0 .4.08s.14.21.07.26 0 0-.17.3c-.25.37-.39.26-.33.52s.19.21 0 .44c-.17.2-.06.18-.07.26a.91.91 0 0 1-.12.2h-.09c-.22 0-.19.24-.22 0s.07-.19 0-.33 0-.18-.15-.14-.13.26-.28.27 0-.06-.18-.15-.13-.17-.34-.15-.22.11-.22.11a.28.28 0 0 0-.38-.18c-.28.11-.33.24-.33.24l.12-.27a.34.34 0 0 0 0-.39 2.77 2.77 0 0 0-.38.2c-.1.08-.09.23-.14.21a.21.21 0 0 1 0-.24 1.09 1.09 0 0 0 .07-.23l-.44.28a1.11 1.11 0 0 1 0 .36c0 .17 0 .24.07.31s.29-.06.29-.06-.05.24 0 .19.28-.25.23-.17a1.56 1.56 0 0 0-.12.21l.15-.12s-.08.3 0 .26.25-.26.25-.26a.1.1 0 0 1 .17 0A.59.59 0 0 0 20 13s.22-.11.09.15-.12.26-.18.3.28 0 .24.1-.27.19-.25.24.19 0 .26 0 .36-.06.33-.32a.29.29 0 0 1-.09.33.33.33 0 0 0-.12.5.94.94 0 0 1 .28-.31c.21-.16.16-.17.28-.27l.26-.22a4.46 4.46 0 0 0 .35-.31 1.29 1.29 0 0 0 .17-.19v.06c.07.06.16.18.08.25s0 .2 0 .2a.45.45 0 0 1-.34.22c-.21 0-.2 0-.06.12s.22.07.1.16a2.15 2.15 0 0 0-.22.2 2.14 2.14 0 0 0-.36.23c-.07.08.08.23.13.28s0-.17.36-.18a2.62 2.62 0 0 1 .61 0 1.07 1.07 0 0 1 .29.2c.1.1.43.34.33.42a.54.54 0 0 0-.1.11 1 1 0 0 0-.1.16l-1.34.84s-.47.5-.07.57l.08.06a3 3 0 0 1 .29.27c.2.21.11.41.12.52s.07.3.16.23.43.26.43.26 0 .07.21-.1.18-.09.2-.14a.26.26 0 0 1 .38-.15c.19.11.24.12.33 0s-.11-.17.07-.31.17-.21.36-.36l.31-.24s0-.25.06-.31-.13-.32 0-.42-.33-.18-.26-.45 0-.42.1-.53a.9.9 0 0 0 .23-.27l-.17-.35a.18.18 0 0 1 0-.31c.21-.17.56-.2.68-.34a.44.44 0 0 0 .08-.37.08.08 0 0 0 0-.05c0-.08-.12-.13.15-.27s.42-.23.58-.08.09.12.38.09a2.39 2.39 0 0 0 .7-.09c.18-.07.25-.25.64-.14s.63 0 .52.16.15.09-.1.29-.22.22-.38.35-.21.21-.08.21a5.21 5.21 0 0 0 .76-.22l-.12-.31s.16-.15.13-.29-.06-.25 0-.33-.27-.11-.37-.1-.12-.25.2-.21.37-.23-.1-.18a1.65 1.65 0 0 0-.62.17.32.32 0 0 1-.18-.07l-.3.12-.22-.08a.54.54 0 0 0-.33 0 2.61 2.61 0 0 1-.39 0s-.32-.17-.18-.28.06-.14.12-.16h.14a1.58 1.58 0 0 0 .46 0c.07 0 .27.07.43 0s.26 0 .33-.06a1.3 1.3 0 0 0 .24 0h.47a1.69 1.69 0 0 0 .31.28c.07 0 .35.18.42.09h.18a1.6 1.6 0 0 1 .26.18l.24.05a1.1 1.1 0 0 0 .24-.05c.07 0 .26-.17.26-.17l-.14-.11.06-.07h-.24l.27-.08v-.15h-.44l-.29-.08s-.18-.13 0-.1.14 0 .14-.16-.13 0 0-.13.1-.22.19-.23a.79.79 0 0 0 .32-.08l.11.14a1 1 0 0 0 .36.25c.09 0 .26.1.33 0a.21.21 0 0 1 .23-.05l.26.1.3-.2s.13 0 .14-.09 0-.18 0-.18a.26.26 0 0 1 .26-.17c.22 0 .22 0 .38-.13s-.06-.24.06-.3a1.57 1.57 0 0 0 .33-.23h.09a.19.19 0 0 1 .08.06c.07.07.35.33.4.41a.33.33 0 0 1 .09.22c0 .11-.08.2 0 .3s.17.15.25.23a4 4 0 0 0 .49.43 1.27 1.27 0 0 0 .36.19 4 4 0 0 0 .57.09c.43.07.45.25.7.26s.28-.16.64.07c0 0 .29.42.58.4s.3-.13.62 0a1.32 1.32 0 0 0 .64.07.4.4 0 0 1 .15 0 .53.53 0 0 1 .13.13 2.42 2.42 0 0 0 .31.35c.17.14.22.2.35.22s.17.09.3-.14-.08-.17.13-.36a2.24 2.24 0 0 0 .39-.52.24.24 0 0 1 0-.33c.16-.15.1-.24.17-.41s.16-.25.1-.34-.09-.25-.05-.28l.14-.12a2.1 2.1 0 0 0 .24-.23c.05-.07-.28-.07-.13-.21s.23-.16.15-.28 0-.31 0-.31l.03-.23s-.23-.11-.12-.21 0 0 .09-.29a.35.35 0 0 0-.19-.41.49.49 0 0 0-.17 0c-.09 0-.25-.06-.29 0s-.14.14-.24.15a.85.85 0 0 1-.34 0h-.08a1.93 1.93 0 0 1-.22-.19 3 3 0 0 1 0 .69c-.05.13-.34.32-.37.41a1.29 1.29 0 0 1-.64-.05c-.23-.08-.11-.17-.37-.18a2.49 2.49 0 0 1-.59-.09.32.32 0 0 1-.14-.07c-.08-.08-.14-.59.14-.49a1.27 1.27 0 0 0 .93.08.73.73 0 0 0 .52 0c.22-.13.24-.54.39-.53s.33.23.6.07.53-.25.65-.35l.13-.13a3.63 3.63 0 0 1 .43-.4c.36-.3.28-.44.47-.37s.25.21.47 0a.2.2 0 0 1 .09 0c.04-.19.14 0 .38-.27zM26.1 9.27h.06zm-.39-1.65zM39 11zm-1.24-5.84l.07-.07z"/><path class="cls-4" d="M25.35 13.82c.12-.1.06-.19 0-.28s-.33 0-.28.1.16.27.28.18zM8.78 42.13c-.13.07-.3-.09-.49-.18s-.3 0-.45 0l-.17-.06.33.31a.12.12 0 0 1 .09 0 .42.42 0 0 1 .18.07 1.57 1.57 0 0 1 .18.14l.41-.13s.37.08.25-.07a.25.25 0 0 0-.33-.08z"/><path class="cls-2" d="M3.55 25.61c0 .11.24.23.26.18l.19-.34.2-.45c.08-.16.16-.28.22-.4s.05-.26.14-.54a.43.43 0 0 0-.07-.43l-.24.46s-.18.53-.42 1-.08-.27-.08-.27l.25-.61c0-.05.15-.41.15-.41l.31-.6s.1-.22 0-.21-.22 0-.14-.21a2.33 2.33 0 0 0 .13-.37l-.05-.14s.21-.59.22-.66-.1.21-.14.3-.19-.26-.18-.39a6.88 6.88 0 0 1 .41-.86 3.33 3.33 0 0 0 .18-.43c0-.14-.08-.45 0-.6s.13-.48.19-.64.17-.61.17-.61l.12-.4a.64.64 0 0 0-.39.29 5 5 0 0 0-.25.51l-.24.51-.33.71-.32.68a3.17 3.17 0 0 0-.31 1 2.84 2.84 0 0 1-.36.87.51.51 0 0 0 0 .38l.16.13.14.07s-.06.14-.14.15-.17.15-.17.15a1.28 1.28 0 0 1-.06.23l-.2.4c0 .1.07.41.07.41l.2.14s.21 0 .25-.1a2.92 2.92 0 0 0 .14-.35c0-.12.12-.35.14-.4s.18-.13.18-.13.08.09.05.14-.12.09-.12.09l-.1.14v.35l-.13.26c0 .07 0 .18-.05.3a1.27 1.27 0 0 1-.34.36c-.11.07.06.36.06.36l.16-.32s.17.19.14.3z"/><path class="cls-4" d="M25.49 14.18l.31.31.12-.09v-.12l.09-.11s-.23-.36-.28-.37h-.17c-.05 0-.1.1-.1.1l-.06.11v.12z"/><path class="cls-2" d="M2.45 31.17l.16.08a4.22 4.22 0 0 1 .22-.39 1.44 1.44 0 0 0 .17-.73c0-.1.08 0 .29-.19s.1-.18.24-.43-.12-.11-.09-.15a1.14 1.14 0 0 0 .15-.44c0-.16-.29.32-.47.11a2.22 2.22 0 0 1-.29-.74.15.15 0 0 0 0-.14l-.18.33.23.18a.26.26 0 0 0-.22.07.43.43 0 0 0 .12.55c-.06 0-.15-.06-.16 0s-.11-.13-.07 0-.08.22-.21.29-.07.13-.2.3a4.5 4.5 0 0 0-.23.42c-.11.18-.12.23-.05.4s.28 0 .2.11-.1.28-.05.24.51-.57.51-.57l-.23.39c-.13.21-.27.44-.12.57s.28-.26.28-.26z"/><path class="cls-4" d="M19.13 14.63c.2-.08.15-.13.25-.3a1.44 1.44 0 0 1 .28-.36c.18-.2-.22-.35-.21-.43s.15 0-.07 0-.31 0 0-.19-.1-.12-.21-.1-.12.08-.32.23.05.28.05.28 0 .1-.25.14-.19.13-.06.31.14.07.25 0 .06.08 0 .18a.24.24 0 0 0 0 .31c.06.04.1.01.29-.07zm-1.41-9.04c.13-.11.06-.29.18-.39s.13.13.12.13c-.26.36-.29.34.11.3s.19-.17.42-.23.08-.07 0-.36-.09-.21.07-.39.29 0 .41 0a1.44 1.44 0 0 0 .42-.23c.18-.15.14-.25.06-.19a.62.62 0 0 1-.5.17 1.82 1.82 0 0 0-.76.26.76.76 0 0 1 .2-.13 2.63 2.63 0 0 0 .49-.34 1 1 0 0 0 .29-.42c.13-.24-.07-.25-.07-.25l-.49.43-.5.44c-.2.18-.2.29-.5.55l-.49.43c-.15.13 0 .24.1.37s.31-.03.44-.15z"/><path class="cls-2" d="M5.89 38.33h.81l.57-.21.38.55.45.24s.32.21.32 0v-.21l.21.3s0 .32.21.26.08.15.17-.06l.06-.2a.32.32 0 0 1 .33-.32h.32c-.05-.16-.19 0 0-.27l.22-.34c.07-.1 0-.19.14-.21s.19 0 .18-.15a.21.21 0 0 0-.11-.18s-.18 0 .08-.26.07-.39.24-.37.26 0 .25-.09-.13-.19 0-.18.27-.11.32 0 .07.07.19.13a1.06 1.06 0 0 0 .42.16c.17 0 .37.08.27-.14s0-.15-.28-.32-.51-.27-.53-.29a.48.48 0 0 1-.37-.48 3.48 3.48 0 0 1 0-.66c0-.19.07-.15 0-.3s-.1-.17-.07-.23 0-.07 0-.12a.35.35 0 0 0 0-.14l-.11-.07-.07.12v-.2l-.06-.09s-.09.14-.08.1.06-.18 0-.22l-.23-.15s-.33-.28 0-.1.37.3.28.06-.19-.28-.19-.28l.09-.07s-.07-.35-.17-.43-.1 0 0-.26.07-.36.11-.44l.11-.19s-.07 0-.18-.16-.17-.4-.12-.56 0-.27 0-.39l.06-.11c0-.07.07-.13 0-.16a.12.12 0 0 1 0-.11.47.47 0 0 1 0-.14c0-.11 0-.23.05-.31a1.51 1.51 0 0 0 0 .49c.08.2.32.28.28.05s-.06-.21 0-.35.06-.3.11-.4a3.69 3.69 0 0 0 .09-.42 1 1 0 0 0 0-.37c0-.18-.11-.17-.15 0s-.13-.17-.15-.13a.39.39 0 0 0 0 .3c.06.06 0 .16 0 .2a.61.61 0 0 1-.11.23c-.07.08-.18.22-.24.16s-.17-.14-.17-.23a.46.46 0 0 0 0-.21c0-.11-.08-.44-.19-.23s-.2.22-.25.45a4.92 4.92 0 0 1-.06.53 1.37 1.37 0 0 0 0 .41 2.13 2.13 0 0 1 0 .25.12.12 0 0 1-.11.07 1.06 1.06 0 0 1 0-.25c0-.14-.05-.25 0-.4s0-.17 0-.26v-.24a.78.78 0 0 0 0-.19c0-.06-.11-.11-.07-.19s.18-.41.26-.53.16-.38.2-.44a3 3 0 0 0 .16-.31v-.3a.77.77 0 0 1 .08-.55c.14-.34.18-.42.07-.55s-.15-.21-.22-.21-.07.18-.19.1-.13 0-.14.21a1.34 1.34 0 0 1 0 .42c-.05.1-.21.18-.15 0s.07-.28.1-.43 0-.12 0-.26 0-.15-.11 0-.06.14-.21.23-.28.2-.35.1 0 0-.09-.24a3.45 3.45 0 0 0-.72-.59 2 2 0 0 1 .12.63 2 2 0 0 0 0 .54c0 .09 0 .19-.08.13s-.14 0-.18 0-.19.33-.17-.13 0-.26-.11-.33-.16 0-.21.1-.13.09-.23 0-.2 0-.27.2-.06.36-.14.4-.32.21-.12.41.13.32.22.39.18.12.12.22-.06.51.16.48.24 0 .33.09.3.45.07 1.23a2 2 0 0 0 .34.35c.12.07.12.1.12.25s.09.18 0 .29 0 .18-.16.11-.07.06-.19-.07-.13 0-.17-.23-.06-.06-.12-.25-.12-.26-.14-.21l-.3.45a.22.22 0 0 0-.25.1c-.09.15-.39.08-.5.27a2.54 2.54 0 0 0-.17.37.85.85 0 0 0-.21-.35c-.12-.09-.23.15-.23.14s-.45-1.06-.14-1.58c.05-.09 0-.44-.12-.25s0-.19.06-.3 0-.09.09-.24 0 .13.07-.24.06-.43 0-.47-.1.19-.21.23l-.17.06a2 2 0 0 1 .13-.21.86.86 0 0 0 .13-.22c0-.07.05 0 0-.15s-.11-.12 0-.24 0-.17.13-.26 0 0 .09-.18 0 0 .06-.3.16-.41 0-.47-.23.21-.22-.08.1-.34 0-.37-.27.07-.29.13-.12.06-.13.24.14.3.15.4-.07.13 0 .29 0 .21 0 .33.06.07 0 .12-.2.06-.14-.09.13-.3 0-.3-.31 0-.27.22.07.3 0 .28-.3-.24-.25-.11 0 .3 0 .45-.06.3 0 .42 0 .24.05.33.12.16.1.2.05.19-.08.1-.18-.09-.24 0l-.16.29a1 1 0 0 0-.09.21l-.11.33a.27.27 0 0 0-.32.11c-.11.19-.19.28-.18.39a.56.56 0 0 0 .07.31c.07.07.16.16.1.18s-.09 0-.21 0-.11-.06-.2.1-.31.67-.31.67-.1 0 0-.18-.05-.42-.23-.14-.14.4-.27.42H2a24 24 0 0 0 2.64 6h.68z"/><path class="cls-5" d="M13.91 38.42h-2a.37.37 0 0 1 .09.16.38.38 0 0 0 .2.23.39.39 0 0 1 .12.09l.07.15c.08.17.08.1.18.25s0 .07.07.23 0-.06.09-.12c.09-.05 0-.14.19-.38s.26-.25.26-.26h.14a.56.56 0 0 1 .19.06 1.25 1.25 0 0 1 .11.13c0 .06.18.12.25.24a.37.37 0 0 0 .19.18c.07 0 0 .09-.09.12a.64.64 0 0 1-.21 0c-.09 0-.1 0-.13.05s.1.07.15.07 0 0 0 .05l-.34.11c-.07 0-.12 0-.17-.06s0 0-.07.06-.1.06-.21.23a.55.55 0 0 1-.17.16 1.92 1.92 0 0 1-.27.14h-.07c-.06 0-.41 0-.49.1a.28.28 0 0 0 0 .31c.05.1-.19.19-.31.31s-.09.07-.23.15-.54.25-.54.25-.13.14-.2.23a1.93 1.93 0 0 1-.6.2c-.13 0-.12-.09-.18-.2s-.08-.11-.27-.23-.51.06-.71 0-.18.1-.31.06-.06-.09-.14-.06a.51.51 0 0 1-.34 0c-.08 0-.12.07-.22.09s-.24-.11-.4-.18-.19-.14-.3-.12l-.11-.12q-.66-.76-1.25-1.55l-.33-.46c-.31-.44-.59-.9-.87-1.35h-.27l2.66 5 6.47-1 1.32-1.55z"/><path class="cls-5" d="M9.7 39c-.06.22 0 .27.11.34a1.28 1.28 0 0 1 .18.17l.05.05c.06.05 0 .12.18.25s.41.38.59.5.31 0 .46.06.12 0 .19-.08.14.06.25-.11 0-.36.16-.39.08-.11 0-.11-.07-.07-.07-.19-.07-.2-.23-.3.05-.43.19-.65a.21.21 0 0 1 .08-.08h-.93l-1.21.28c.08.12.06.02 0 .26z"/><path class="cls-4" d="M5.89 39.73q.59.79 1.25 1.55l.11.12c.11 0 .18.06.3.12s.3.2.4.18.14-.14.22-.09a.51.51 0 0 0 .34 0c.08 0 0 0 .14.06s.11-.08.31-.06.52-.16.71 0 .21.12.27.23 0 .24.18.2a1.93 1.93 0 0 0 .6-.2c.06-.09.2-.23.2-.23s.39-.17.54-.25.11 0 .23-.15.36-.21.31-.31a.28.28 0 0 1 0-.31c.08-.07.43-.08.49-.1h.07a1.92 1.92 0 0 0 .27-.14.55.55 0 0 0 .17-.16c.1-.16.1-.07.21-.23s0-.06.07-.06c.05 0 .1.08.17.06l.34-.11v-.05s-.19 0-.15-.07 0 0 .13-.05a.64.64 0 0 0 .21 0c.08 0 .15-.08.09-.12a.37.37 0 0 1-.19-.18c-.07-.12-.21-.18-.25-.24a1.25 1.25 0 0 0-.11-.13.56.56 0 0 0-.19-.06h-.14s-.12 0-.26.26-.1.33-.19.38c-.05.06-.06.16-.09.12 0-.16 0-.07-.07-.23s-.09-.08-.18-.25l-.07-.15a.39.39 0 0 0-.12-.09.38.38 0 0 1-.2-.23.37.37 0 0 0-.09-.16h-.06a.21.21 0 0 0-.08.08c-.14.22-.36.55-.19.65s.23.18.23.3 0 .19.07.19.1.08 0 .11-.05.22-.16.39-.17 0-.25.11 0 .11-.19.08-.27.06-.46-.06-.43-.37-.59-.5-.12-.2-.18-.25l-.06-.22a1.28 1.28 0 0 0-.18-.17c-.09-.07-.16-.12-.11-.34s.08-.12 0-.28h-.3a.32.32 0 0 0-.33.32l-.08.2c-.08.21 0 0-.17.06S8.61 39 8.61 39l-.21-.3v.21c0 .21-.32 0-.32 0l-.45-.24-.38-.55-.57.21h-.79l-.52-.42h-.69c.28.46.56.91.87 1.35z"/></g></g></svg>