<svg id="Layer_1" xmlns="http://www.w3.org/2000/svg" viewBox="0 0 46 50"><style>.st0{opacity:.3}.st1,.st2{fill:#858585}.st2{opacity:.3}</style><g class="st0"><path transform="rotate(-36.994 13.049 32.602)" class="st1" d="M12.5 12.1h1v41.1h-1z"/></g><path transform="rotate(-36.994 33.224 17.405)" class="st1" d="M32.7-3.1h1V38h-1z"/><g class="st0"><path transform="rotate(-36.994 23.137 25.004)" class="st1" d="M22.6 4.5h1v41.1h-1z"/></g><path class="st1" d="M30.4 3.6l3.3 4.1-5.9 4.3-3.3-4.1 5.9-4.3m.2-1.4l-7.5 5.4 4.5 5.7 7.5-5.4-4.5-5.7z"/><path class="st1" d="M30.4 8.5l3.3 4.1-5.9 4.2-3.3-4.1 5.9-4.2m.2-1.4l-7.5 5.4 4.5 5.7 7.5-5.4-4.5-5.7z"/><path class="st1" d="M27.3 12.5h1v5h-1zm-4.2-4.9h1v5h-1zm11 .3h1v4.9h-1zM30 2.7h1v5h-1z"/><path class="st2" d="M30.4 24.8l3.3 4.1-5.9 4.2-3.2-4.1 5.8-4.2m.2-1.4l-7.5 5.4 4.5 5.7 7.5-5.4-4.5-5.7z"/><path class="st2" d="M30.4 29.7l3.3 4.1-5.9 4.2-3.3-4.1 5.9-4.2m.2-1.4l-7.5 5.4 4.5 5.7 7.5-5.4-4.5-5.7z"/><path class="st2" d="M27.3 33.7h1v5h-1zm-4.2-4.9h1v5h-1zm11 .4h1v4.9h-1zM30 24h1v5h-1zM9.4 18l3.3 4.1-5.9 4.2-3.3-4.1L9.4 18m.2-1.4L2.1 22l4.5 5.7 7.5-5.4-4.5-5.7z"/><path class="st2" d="M9.4 22.9l3.3 4.1-5.9 4.2-3.3-4.1 5.9-4.2m.2-1.4l-7.5 5.4 4.5 5.7 7.5-5.4-4.5-5.7z"/><path class="st2" d="M6.2 26.8h1v5h-1zm-4.1-4.9h1v5h-1zm11 .4h1v4.9h-1zm-4.2-5.2h1v5h-1z"/></svg>