<svg id="Layer_1" xmlns="http://www.w3.org/2000/svg" width="50" height="50" viewBox="0 0 50 50"><style>.st0{opacity:.3}.st1{fill:#858585}.st2{opacity:.1}.st3{fill:none;stroke:#858585;stroke-miterlimit:10}</style><g class="st0"><path class="st1" d="M45.1 31.4l-.8-.6c3.2-3.9 4.7-7.2 4.1-9.4-.3-1.2-1.4-2.2-3-2.8-.6-.2-1.3-.4-2-.5l.1-1c.8.1 1.6.3 2.3.5 2 .7 3.2 1.9 3.7 3.4.8 3.3-2 7.5-4.4 10.4z"/></g><g class="st0"><path class="st1" d="M3.8 29.8c-2.1 0-3.5-.5-4-1.6-.7-1.5.3-3.8 3-6.7 7.6-8.3 29-21.7 39.8-17.6 2.2.8 3.6 2.1 4.2 3.9.8 2.6-.2 6.1-2.9 10.2l-.9-.6c2.6-3.8 3.5-7.1 2.8-9.4-.5-1.5-1.7-2.6-3.6-3.3-10-3.7-31.1 9.1-38.7 17.4C1.2 24.6.2 26.7.7 27.7c.4.8 1.8 1.2 4.1 1 2.4-.4 5.3-1.5 8.7-3.3l.5.9c-3.5 1.8-6.6 3-9.1 3.4-.4.1-.8.1-1.1.1z"/></g><g class="st0"><path class="st1" d="M11.4 40c-1.8 0-2.9-.3-3.4-1.2s-.2-2.1.9-3.7c4.5-6.6 23.7-19.3 34.6-18l.8.1-.5.5C35.9 29.7 19.4 40 11.5 40h-.1zm30.4-21.9c-10.8 0-28 11.6-32.1 17.7-.9 1.2-1.1 2.2-.9 2.7.3.5 1.2.8 2.7.8 8.1-.1 23.7-10.9 31-21.2h-.7z"/></g><path class="st1" d="M40 32.2l-7.8 7.6 4.1 4 8-8.2.5.7-8.6 9-5.5-5.4 8.5-8.4"/><path class="st1" d="M43.6 35.6l-3.4-3 3.7-3.7 3.2 3.2-3.5 3.5zm-2-2.9l1.8 1.8 2.3-2.3-1.8-1.8-2.3 2.3zm-27.4-4.5l-3-4.2 6.8-4.8 3 4.2-6.8 4.8zm-1.5-4.1l1.8 2.7 5.1-3.7-1.8-2.7-5.1 3.7z"/><path class="st1" d="M21.9 26.2l-6.4-8.8L28.6 8l6.4 8.8-13.1 9.4zM17 17.6l5.2 7.2 11.5-8.2-5.2-7.2L17 17.6z"/><path transform="rotate(-47.094 42.004 33.794)" class="st1" d="M41.5 30h1v7.5h-1z"/><path class="st1" d="M30.9 45.4l-.7-.7 1.9-1.7.5.5.9-.8.7.7-1.7 1.5-.5-.5z"/><g class="st2"><path transform="rotate(-36.245 34.937 10.62)" class="st1" d="M34.4 7.3h1v6.6h-1z"/></g><path class="st3" d="M32.3 41.2L30 43.4c-.3.3-.3.9 0 1.2l1.7 1.7c.3.3.9.3 1.2 0l2.3-2.3m-1.5-28.6l4.3-3.1c.6-.4.8-1.3.3-2l-2.2-3.1c-.4-.6-1.3-.8-2-.3L29.8 10"/></svg>