<svg id="Layer_1" xmlns="http://www.w3.org/2000/svg" viewBox="0 0 36 50"><style>.st0{fill:#858585}.st1{opacity:.3}.st2{fill:none;stroke:#858585;stroke-miterlimit:10}</style><path class="st0" d="M19.6 41.2c-.4 0-.8-.1-1.2-.2-3.9-1.1-10.9-2.8-11-2.8-.3-.1-4.7-2-6.3-6.3-1-2.6-.7-5.4.8-8.4 4.6-9.4 8.9-17.7 9.2-18.4.1-.4.9-2.5 3.4-3.7C17.5 0 21.7.6 27 3.1c.4.2 7.6 3.4 8.4 9.7.3 2.4-1.4 5.8-1.5 6l-8.7 17.9c-.1.1-2 4.5-5.6 4.5zm-11.9-4s7.1 1.7 11 2.8c3.5.9 5.6-3.8 5.7-3.8l8.8-17.9s1.6-3.3 1.4-5.4c-.9-5.8-7.9-8.9-8-8.9-4.9-2.3-9-2.9-11.7-1.7C12.6 3.4 12 5.4 12 5.4v.1c0 .1-4.5 8.7-9.2 18.4-1.4 2.8-1.6 5.4-.8 7.6 1.5 3.9 5.7 5.7 5.7 5.7z"/><path class="st0" d="M26.1 8l-.8-.6c1.1-1.3 2.2-2 3.5-2 2.1-.1 3.6 1.5 3.7 1.6l-.7.7s-1.3-1.4-2.9-1.3c-1 0-2 .5-2.8 1.6z"/><g class="st1"><path class="st0" d="M24.1 7.4l-.9-.5c.9-1.5 2-2.3 3.3-2.6 2.1-.4 3.8.8 3.9.8l-.6.8s-1.5-1-3.1-.7c-.9.3-1.8 1-2.6 2.2z"/></g><g class="st1"><path class="st0" d="M21.6 6.2l-.9-.4c0-.1.9-1.8 2.9-2.5 1.5-.5 3.3-.3 5.3.7l-.5.9c-1.7-.9-3.2-1.1-4.5-.7-1.6.6-2.3 2-2.3 2z"/></g><g class="st1"><path class="st0" d="M19.2 5.2l-.9-.4c0-.1.9-1.9 2.9-2.6 1.5-.5 3.3-.3 5.2.6l-.4.9c-1.7-.8-3.2-1-4.5-.6-1.6.6-2.3 2.1-2.3 2.1z"/></g><g class="st1"><path class="st0" d="M16.6 4.5l-.9-.5s2.2-4.2 7.5-2.6l-.3 1c-4.4-1.4-6.2 2-6.3 2.1z"/></g><path class="st0" d="M16.8 40.6c-6.5-1.9-4.4-11.1-4.4-11.1l1 .2c0 .1-1.9 8.3 3.7 10l-.3.9z"/><g class="st1"><path class="st0" d="M13.4 39.7C7 36.6 9.6 28.2 9.6 28.2l1 .3c-.1.3-2.3 7.6 3.2 10.3l-.4.9z"/></g><g class="st1"><path class="st0" d="M10.4 38.9c-5.6-4.2-3.1-11.8-3-11.9l.9.3c0 .1-2.3 7 2.7 10.7l-.6.9z"/></g><g class="st1"><path class="st0" d="M8.9 38.5c-6.3-4-3.8-12-3.8-12.1l1 .3c-.1.3-2.2 7.4 3.4 11l-.6.8z"/></g><g class="st1"><path class="st0" d="M7.2 38.1C.5 33.3 2.9 26 3 25.9l.9.3c-.1.3-2.3 6.7 3.9 11.1l-.6.8z"/></g><g class="st1"><path transform="rotate(-81.17 13.346 6.492)" class="st0" d="M12.8 4.3h1v4.5h-1z"/></g><g class="st1"><path transform="rotate(-81.17 12.381 8.636)" class="st0" d="M11.9 6.4h1v4.5h-1z"/></g><g class="st1"><path transform="rotate(-81.17 11.05 11.109)" class="st0" d="M10.6 8.9h1v4.5h-1z"/></g><g class="st1"><path transform="rotate(-81.17 9.886 13.483)" class="st0" d="M9.4 11.2h1v4.5h-1z"/></g><g class="st1"><path transform="rotate(-78.498 8.708 15.821)" class="st0" d="M8.2 13.6h1V18h-1z"/></g><g class="st1"><path transform="rotate(-78.469 7.417 18.227)" class="st0" d="M6.9 16h1v4.5h-1z"/></g><g class="st1"><path transform="rotate(-75.043 6.345 20.698)" class="st0" d="M5.8 18.5h1v4.4h-1z"/></g><g class="st1"><path transform="rotate(-75.048 5.08 23.469)" class="st0" d="M4.6 21.3h1v4.4h-1z"/></g><g class="st1"><path class="st0" d="M21.3 32.3c-3.8-4.7-12.5-7.4-12.6-7.4l.3-1c.4.1 9.2 2.8 13.1 7.7l-.8.7z"/></g><g class="st1"><path class="st0" d="M22.7 29.6c-3.8-4.7-12.5-7.4-12.6-7.4l.3-1c.4.1 9.2 2.8 13.1 7.7l-.8.7z"/></g><g class="st1"><path class="st0" d="M24 27.1c-3.8-4.7-12.5-7.4-12.6-7.4l.3-1c.4.1 9.2 2.8 13.1 7.7l-.8.7z"/></g><g class="st1"><path class="st0" d="M25.1 24.6c-3.8-4.7-12.5-7.4-12.6-7.4l.3-1c.4.1 9.2 2.8 13.1 7.7l-.8.7z"/></g><g class="st1"><path class="st0" d="M26.3 22.2c-3.6-5.1-12.5-7.4-12.6-7.4l.2-1c.4.1 9.4 2.4 13.1 7.8l-.7.6z"/></g><g class="st1"><path class="st0" d="M27.5 19.7c-3.6-5.1-12.3-7.3-12.4-7.3l.2-1c.4.1 9.1 2.3 12.9 7.7l-.7.6z"/></g><g class="st1"><path class="st0" d="M28.6 17.2C25 12.1 16.4 9.9 16.3 9.9l.2-1c.4.1 9 2.3 12.8 7.7l-.7.6z"/></g><g class="st1"><path class="st0" d="M29.4 15.1c-3.6-5.1-12-7.2-12.1-7.2l.2-1c.4.1 8.9 2.2 12.7 7.6l-.8.6z"/></g><path class="st0" d="M17.1 40.5c-.3 0-.5 0-.5-.1l.2-1c.1 0 2.8.6 5.2-4.6 2.6-5.6 9.2-19.1 9.2-19.2.7-1.5 2.4-5.9 1-7.6l.8-.5c2.1 2.6-.7 8.4-.9 8.7-.1.1-6.6 13.6-9.2 19.2-2.2 4.6-4.7 5.1-5.8 5.1z"/><g class="st1"><path transform="rotate(-36.534 32.22 17.965)" class="st0" d="M31.7 16.4h1v3.2h-1z"/></g><g class="st1"><path transform="rotate(-36.547 31.289 19.976)" class="st0" d="M30.8 18.4h1v3.2h-1z"/></g><g class="st1"><path transform="rotate(-36.539 30.156 22.217)" class="st0" d="M29.7 20.6h1v3.2h-1z"/></g><g class="st1"><path transform="rotate(-30.026 29.03 24.627)" class="st0" d="M28.5 23h1v3.3h-1z"/></g><g class="st1"><path transform="rotate(-31.096 27.88 26.969)" class="st0" d="M27.4 25.4h1v3.2h-1z"/></g><g class="st1"><path transform="rotate(-32.258 26.56 29.58)" class="st0" d="M26.1 27.9h1v3.3h-1z"/></g><g class="st1"><path transform="rotate(-32.285 25.35 32.072)" class="st0" d="M24.9 30.4h1v3.2h-1z"/></g><g class="st1"><path transform="rotate(-32.264 24.083 34.839)" class="st0" d="M23.6 33.2h1v3.2h-1z"/></g><path class="st0" d="M13.3 36.2h-.4l.2-1s3.4.5 6.7-6.3c3.6-7.4 7.9-16.2 7.9-16.2l.9.4s-4.4 8.8-7.9 16.2c-3.1 6.3-6.3 6.9-7.4 6.9z"/><g class="st1"><path class="st0" d="M21 40h1v9h-1z"/></g><g class="st1"><path class="st0" d="M13 39h1v10h-1z"/></g><g class="st1"><path class="st0" d="M7 38h1v11H7z"/></g></svg>