<svg xmlns="http://www.w3.org/2000/svg" width="50" height="50" viewBox="339.25 490.905 50 50"><path fill="#858585" d="M364.25 491.905c-13.2 0-24 10.8-24 24s10.8 24 24 24 24-10.8 24-24-10.8-24-24-24m0-1c13.8 0 25 11.2 25 25s-11.2 25-25 25-25-11.2-25-25 11.2-25 25-25z" opacity=".3"/><path fill="#858585" d="M360.35 524.305c2.802 0 5.301-1 7.102-2.899l.7-.7-.9-.101c-.1 0-5.5-.8-10.6-2.8-4.802-1.8-7.9-4.3-8-4.3l-.802-.6v1c0 4.101 2.802 7.601 7.602 9.5 1.598.6 3.298.9 4.898.9zm5.6-3c-2.602 2.101-6.3 2.5-10.3 1s-6.5-4.3-6.9-7.5c1.3.9 3.9 2.5 7.3 3.8 4 1.6 8.1 2.4 9.9 2.7zm-3.5-10.4c1.7-1.9 3.6-2.101 5.5-1.4 1.8.7 3.1 2.2 3.1 4.7 0 0-1-2.1-3.7-3.1-2.7-1.1-4.9-.2-4.9-.2zm-12.1-4.9c1.5-1.7 3.2-1.899 4.802-1.3 1.6.6 2.698 1.9 2.6 4.2 0 0-.8-1.9-3.2-2.8-2.302-1-4.202-.1-4.202-.1z"/><path fill="#858585" d="M349.75 502.305c.1-.1 1.7-3.3 5.5-3l.1-1c-4.398-.3-6.398 3.4-6.398 3.5l.798.5zm26 9.799c0-.199 1.2-5.3-2.4-8l-.6.801c3 2.3 2 7 2 7l1 .199z" opacity=".3"/></svg>