<svg id="Layer_1" xmlns="http://www.w3.org/2000/svg" viewBox="0 0 50 50"><style>.st0{opacity:.3}.st1{fill:#858585}</style><g class="st0"><path class="st1" d="M4.2 35C1.7 32.1-1 28-.1 24.8c.4-1.6 1.7-2.7 3.7-3.4.7-.2 1.4-.4 2.2-.5l.1 1c-.7.1-1.4.2-2 .5-1.7.6-2.7 1.5-3 2.7-.6 2.2.9 5.5 4.1 9.4l-.8.5z"/></g><g class="st0"><path class="st1" d="M14.1 43.8c-.4-.3-1-.9-1.9-1.5-2.1-1.6-5.3-4.1-8-7.2l.7-.7c2.7 3 5.8 5.5 7.9 7.1.9.7 1.6 1.2 2 1.6l-.7.7z"/></g><g class="st0"><path class="st1" d="M45.4 33.4h-1.1l-.6-.1c-3.1-.5-11.5-1.8-20.7-10.1l.7-.7c9 8.2 17.1 9.4 20.2 9.9l.5.1c2.2.2 3.6-.2 4-1 .5-1-.5-3.1-2.8-5.6C38.1 17.4 17.1 4.7 7.1 8.4c-1.9.8-3.1 1.9-3.6 3.3-.7 2.3.2 5.5 2.8 9.3l-.8.6c-2.8-4.1-3.8-7.6-3-10.2.6-1.8 2-3.1 4.2-3.9 10.8-4 32.2 9.3 39.7 17.6 2.7 3 3.7 5.2 3 6.7-.5 1.1-1.9 1.6-4 1.6z"/></g><g class="st0"><path class="st1" d="M37.8 44h-.1c-7.9 0-24.3-10.4-32.2-22.4L5 21l.8-.1c10.9-1.3 30.1 11.4 34.5 18 1.1 1.6 1.4 2.9.9 3.8-.4.8-1.6 1.3-3.4 1.3zm-31-22.2C14 32.1 29.6 42.8 37.7 43c1.4 0 2.4-.3 2.7-.8.3-.6 0-1.5-.8-2.8-4.3-6.2-22.2-18.2-32.8-17.6z"/></g></svg>