<svg id="Layer_1" xmlns="http://www.w3.org/2000/svg" viewBox="0 0 45 46"><style>.st0{opacity:.3}.st1{fill:#858585}.st2{fill:#fff}</style><g class="st0"><path class="st1" d="M43.5 37.1l-.4-.9.6-.3v-.7h1v1.4zm-18.1 7.7l-.4-.9 1.8-.8.4.9-1.8.8zm3.6-1.5l-.4-.9 1.8-.8.4.9-1.8.8zm3.6-1.6l-.4-.9L34 40l.4.9-1.8.8zm3.7-1.5l-.4-.9 1.8-.8.4.9-1.8.8zm3.6-1.6l-.4-.9 1.8-.8.4.9-1.8.8zM22 46.3v-1.8h1v.2l.2-.1.4 1zm1-3.7h-1v-1.9h1v1.9zm0-3.7h-1V37h1v1.9zm0-3.7h-1v-1.9h1v1.9zm0-3.8h-1v-1.9h1v1.9zm0-3.7h-1v-1.9h1v1.9zm0-3.7h-1v-1.9h1V24zm0-3.8h-1v-1.3l1.2-.5.4.9-.6.3zm2.4-1.7l-.4-.9 1.8-.8.4.9-1.8.8zM29 17l-.4-.9 1.8-.8.4.9-1.8.8zm3.6-1.6l-.4-.9 1.8-.8.4.9-1.8.8zm3.7-1.5l-.4-.9 1.8-.8.4.9-1.8.8zm3.6-1.5l-.4-.9 1.8-.8.4.9-1.8.8zm4.8-1.4h-1v-.3l-.2.1-.4-.9 1.6-.7zm0 22.4h-1v-1.9h1v1.9zm0-3.8h-1v-1.9h1v1.9zm0-3.7h-1V24h1v1.9zm0-3.7h-1v-1.9h1v1.9zm0-3.8h-1v-1.9h1v1.9zm0-3.7h-1v-1.9h1v1.9z"/></g><g class="st0"><path class="st1" d="M21.8 27.6l-.4-.9.6-.3v-.6h1v1.3zM3.7 35.3l-.4-.9 1.8-.8.4.9-1.8.8zm3.6-1.5l-.4-.9 1.8-.8.4.9-1.8.8zm3.6-1.6l-.4-.9 1.8-.8.4.9-1.8.8zm3.7-1.5l-.4-.9L16 29l.4.9-1.8.8zm3.6-1.5l-.4-.9 1.8-.8.4.9-1.8.8zM.3 36.8V35h1v.3l.2-.1.4.9zm1-3.6h-1v-1.9h1v1.9zm0-3.8h-1v-1.9h1v1.9zm0-3.7h-1v-1.9h1v1.9zm0-3.7h-1v-1.9h1V22zm0-3.8h-1v-1.9h1v1.9zm0-3.7h-1v-1.9h1v1.9zm0-3.7h-1V9.4l1.2-.5.4.9-.6.3zM3.7 9l-.4-.9 1.8-.8.4.9-1.8.8zm3.6-1.5l-.4-.9 1.8-.8.4.9-1.8.8zM10.9 6l-.3-1 1.8-.8.4.9-1.9.9zm3.7-1.6l-.4-.9 1.8-.8.4.9-1.8.8zm3.6-1.5l-.4-.9 1.8-.8.4.9-1.8.8zM23 1.5h-1v-.2l-.2.1-.4-1L23-.3zm0 22.4h-1V22h1v1.9zm0-3.7h-1v-1.9h1v1.9zm0-3.8h-1v-1.9h1v1.9zm0-3.7h-1v-1.9h1v1.9zM23 9h-1V7.1h1V9zm0-3.8h-1V3.4h1v1.8z"/></g><g class="st0"><path transform="rotate(-66.94 22.07 19.033)" class="st1" d="M21.6 18.5h1v1h-1z"/><path class="st1" d="M19.6 18.5l-1.8-.8.4-.9 1.8.8-.4.9zM16 17l-1.8-.8.4-.9 1.8.8-.4.9zm-3.6-1.6l-1.8-.8.4-.9 1.8.8-.4.9zm-3.7-1.5l-1.8-.8.4-.9 1.8.8-.4.9zm-3.6-1.5l-1.8-.8.4-.9 1.8.8-.4.9zM1.3 11h-1V9.2l1.6.7-.4.9-.2-.1zm0 22.4h-1v-1.9h1v1.9zm0-3.8h-1v-1.9h1v1.9zm0-3.7h-1V24h1v1.9zm0-3.7h-1v-1.9h1v1.9zm0-3.8h-1v-1.9h1v1.9zm0-3.7h-1v-1.9h1v1.9zm.2 22.4l-1.2-.5v-1.4h1v.7l.6.3zm18.1 7.7l-1.8-.8.4-.9 1.8.8-.4.9zM16 43.3l-1.8-.8.4-.9 1.8.8-.4.9zm-3.6-1.6l-1.8-.7.4-.9 1.8.8-.4.8zm-3.7-1.5l-1.8-.8.4-.9 1.8.8-.4.9zm-3.6-1.6l-1.8-.8.4-.8 1.8.8-.4.8z"/><path transform="rotate(-66.94 22.07 45.304)" class="st1" d="M21.6 44.8h1v1h-1z"/></g><g class="st0"><path class="st2" d="M22.5 26.8L44.2 36"/><path transform="rotate(-66.94 22.932 26.967)" class="st1" d="M22.4 26.5h1v1h-1z"/><path class="st1" d="M41.3 35.3l-1.8-.8.4-.9 1.8.8-.4.9zm-3.6-1.5l-1.8-.8.4-.9 1.8.8-.4.9zm-3.6-1.6l-1.8-.8.4-.9 1.8.8-.4.9zm-3.7-1.5l-1.8-.8.4-.9 1.8.8-.4.9zm-3.6-1.5l-1.8-.8.4-.9 1.8.8-.4.9z"/><path transform="rotate(-66.94 43.755 35.825)" class="st1" d="M43.3 35.3h1v1h-1z"/></g><g class="st0"><path class="st2" d="M44.2 9.7L22.5.5"/><path transform="rotate(-66.94 43.755 9.554)" class="st1" d="M43.3 9.1h1v1h-1z"/><path class="st1" d="M41.3 9l-1.8-.8.4-.9 1.8.8-.4.9zm-3.6-1.5l-1.8-.8.4-.9 1.8.8-.4.9zM34.1 6l-1.8-.8.4-.9 1.7.7-.3 1zm-3.7-1.6l-1.8-.8.4-.9 1.8.8-.4.9zm-3.6-1.5L25 2.1l.4-.9 1.8.8-.4.9z"/><path transform="rotate(-66.94 22.931 .695)" class="st1" d="M22.4.2h1v1h-1z"/></g><path class="st1" d="M9.3 40.5V29l10-4.1v11.5l-10 4.1zm1-10.9V39l8-3.3v-9.3l-8 3.2zm-9 6.4h-1V25.2l9.3-3.8.4.9-8.7 3.6z"/><g class="st0"><path class="st1" d="M1 36.4l-.4-.9L9.3 32V21.9h1v10.7z"/></g><path class="st1" d="M9.6 40.2L.3 36.4V24.9l9.7 3.9-.4 1-8.3-3.4v9.3l8.7 3.6z"/><g class="st0"><path transform="rotate(-67.839 14.278 34.13)" class="st1" d="M13.8 29.3h1V39h-1z"/></g><path transform="rotate(-67.839 14.28 23.71)" class="st1" d="M13.8 18.8h1v9.7h-1z"/></svg>