<svg id="Layer_1" xmlns="http://www.w3.org/2000/svg" viewBox="0 0 48 48"><style>.st0{fill:#858585}.st1{opacity:.3}</style><path transform="rotate(-64.437 19.029 40.036)" class="st0" d="M14.9 39.5h8.3v1h-8.3z"/><path transform="rotate(-64.437 16.275 37.52)" class="st0" d="M11.6 37H21v1h-9.4z"/><path transform="rotate(-64.437 13.745 34.536)" class="st0" d="M8 34h11.6v1H8z"/><path transform="rotate(-64.437 9.92 34.264)" class="st0" d="M6 33.8h7.8v1H6z"/><path transform="rotate(-64.437 8.335 30.395)" class="st0" d="M3.5 29.9h9.7v1H3.5z"/><path transform="rotate(-64.437 6.746 27.536)" class="st0" d="M1 27h11.6v1H1z"/><path transform="rotate(-64.437 5.746 23.536)" class="st0" d="M0 23h11.6v1H0z"/><path transform="rotate(-64.437 21.673 41.78)" class="st0" d="M18.4 41.3H25v1h-6.6z"/><path transform="rotate(-64.437 25.444 41.166)" class="st0" d="M20.3 40.7h10.2v1H20.3z"/><path transform="rotate(-64.437 28.745 41.536)" class="st0" d="M23 41h11.6v1H23z"/><path transform="rotate(-64.437 32.336 40.78)" class="st0" d="M25.4 40.3h13.8v1H25.4z"/><path transform="rotate(-64.437 34.323 42.901)" class="st0" d="M29.8 42.4h9.1v1h-9.1z"/><path transform="rotate(-64.437 36.473 44.677)" class="st0" d="M33.9 44.2h5.2v1h-5.2z"/><path transform="rotate(-64.437 41.85 38.797)" class="st0" d="M36.1 38.3h11.6v1H36.1z"/><path transform="rotate(-64.437 42.85 31.797)" class="st0" d="M37.1 31.3h11.6v1H37.1z"/><path transform="rotate(-64.437 32.01 12.704)" class="st0" d="M18.6 12.2h26.7v1H18.6z"/><path transform="rotate(-64.437 34.048 16.72)" class="st0" d="M22.9 16.2h22.3v1H22.9z"/><path transform="rotate(-64.437 34.098 24.892)" class="st0" d="M29.8 24.4h8.6v1h-8.6z"/><path transform="rotate(-64.437 38.432 24.101)" class="st0" d="M31 23.6h14.8v1H31z"/><path transform="rotate(-64.437 42.242 25.405)" class="st0" d="M33 24.9h18.5v1H33z"/><path transform="rotate(-64.437 25.996 18.012)" class="st0" d="M19.6 17.5h12.8v1H19.6z"/><path transform="rotate(-64.437 23.945 15.028)" class="st0" d="M15.4 14.5h17.2v1H15.4z"/><path transform="rotate(-64.437 21.747 12.349)" class="st0" d="M11.3 11.8h20.9v1H11.3z"/><path transform="rotate(-64.437 18.699 12.45)" class="st0" d="M8.4 11.9H29v1H8.4z"/><path transform="rotate(-64.437 15.355 13.169)" class="st0" d="M5.8 12.7h19.1v1H5.8z"/><path transform="rotate(-64.437 11.927 14.064)" class="st0" d="M3.4 13.6h17.1v1H3.4z"/><path transform="rotate(-64.437 7.445 17.073)" class="st0" d="M0 16.6h14.8v1H0z"/><g class="st1"><path class="st0" d="M31 47.7c-4.3 0-9.2-1.2-14-3.5C6.5 39.2.2 30.6 2.8 25.1c1.3-2.7 4.6-4.3 9.1-4.5 4.5-.1 9.7 1.1 14.7 3.5s9.3 5.7 12 9.2c2.8 3.6 3.6 7.2 2.2 9.9-1.3 2.7-4.6 4.3-9.1 4.5H31zM12.6 21.6h-.7c-4.2.1-7.1 1.5-8.3 3.9-2.4 5.1 3.7 13 13.7 17.8 4.9 2.3 9.9 3.5 14.2 3.4 4.2-.1 7.1-1.5 8.3-3.9 1.1-2.4.4-5.5-2.1-8.9-2.6-3.4-6.7-6.6-11.6-8.9-4.5-2.2-9.3-3.4-13.5-3.4z"/></g></svg>