<svg id="Layer_1" xmlns="http://www.w3.org/2000/svg" viewBox="0 0 50 48"><style>.st0{fill:#858585}.st1{opacity:.3}</style><path class="st0" d="M15.2 43.5c-.5 0-1-.1-1.6-.4-.9-.4-1.6-1-1.9-1.6L2.4 20c-.6-1.3.4-3 1.8-3.6L35.9.6c1.5-.7 3-.3 3.6 1L48.2 20c.7 1.4.1 3.2-1.2 3.9l-9.3 4.5-1.5 5.3-4.8 2.3-.2-.4c-.2-.5-.3-.5-.3-.6l-.1-.2c0-.1-.1-.2-.1-.2-.1 0-.3 0-.4.1l-2.1 1-1.1 2.3-.2.1-10.7 5.2c-.3.1-.6.2-1 .2zm21.1-42L4.7 17.2c-1 .5-1.7 1.6-1.4 2.3L12.6 41c.2.4.7.9 1.4 1.1.7.3 1.3.4 1.7.2l10.6-5.1 1.1-2.4 2.4-1.1s.6-.3 1.1-.2c.2.1.6.3.8.7l.1.2v.1l3.6-1.7 1.5-5.3 9.7-4.7c.9-.4 1.2-1.7.8-2.5L38.6 2.1c-.4-.8-1.3-1.1-2.3-.6z"/><g class="st1"><path class="st0" d="M14.5 47.2c-.5 0-1-.1-1.6-.4-.9-.4-1.6-1-1.9-1.6L.7 23.7c-.3-.7-.2-1.4.2-2.2.4-.6 1-1.2 1.6-1.5L35.1 4.3c.7-.3 1.4-.4 2-.2.7.2 1.2.6 1.5 1.3l8.8 18.3c.7 1.4.1 3.2-1.2 3.9L36.9 32l-1.5 5.3-4.8 2.3-.2-.4c-.2-.5-.3-.5-.3-.6l-.1-.1c0-.1-.1-.2-.1-.2-.1 0-.3 0-.4.1l-2.1 1-1.1 2.4L15.4 47c-.2.2-.6.2-.9.2zM36.5 5c-.3 0-.6.1-.9.2L3 21c-.5.2-.9.7-1.2 1.1-.2.3-.4.8-.1 1.2L12 44.8c.2.4.8.9 1.4 1.2.7.3 1.3.4 1.7.2L25.6 41l1.1-2.4 2.4-1.1s.6-.3 1.1-.2c.2.1.6.3.8.7l.1.2v.1l3.6-1.7 1.5-5.3 9.7-4.7c.9-.4 1.2-1.7.8-2.5L37.8 5.8c-.2-.4-.5-.7-.9-.8h-.4z"/></g><path class="st0" d="M28.8 10.7l-1.7-3.6L39 1.4l.4.9-11 5.3.8 1.7L40.3 4l.4.9zm2.3 4.6l-1.7-3.5L41.3 6l.5.9-11.1 5.3.9 1.8 11-5.3.4.9zm2.3 4.7l-1.6-3.6 11.9-5.7.4.9-11 5.3.8 1.8 11-5.3.5.9zm2.3 4.7l-1.6-3.6L46 15.4l.4.8-11 5.4.8 1.7L47.3 18l.4.9z"/></svg>