<svg xmlns="http://www.w3.org/2000/svg" width="50" height="50" viewBox="339.25 490.905 50 50"><path fill="#858585" d="M364.25 491.905c13.199 0 24 10.8 24 24 0 13.199-10.802 23.999-24 23.999-13.199 0-24-10.8-24-23.999 0-13.2 10.801-24 24-24m0-1c-13.8 0-25 11.199-25 25 0 13.8 11.2 25 25 25s25-11.199 25-25-11.2-25-25-25z" opacity=".3"/><path fill="#858585" d="M368.75 522.904c-7.2 0-13-5.8-13-13 0-7.199 5.8-12.999 13-12.999s13 5.8 13 12.999c0 7.2-5.8 13-13 13zm0-24.999c-6.6 0-12 5.399-12 11.999 0 6.602 5.4 12.001 12 12.001s12-5.399 12-12.001a11.97 11.97 0 0 0-12-11.999z" opacity=".3"/><path fill="#858585" d="M370.55 509.505l-4.401-.8.201-1 3.501.6 1.099-2.7 1 .4z"/><path fill="#858585" d="M369.801 509.093l.938-.348 1.255 3.375-.937.348z"/><path fill="#858585" d="M373.551 518.105l-.601-.5c-1.602-1.4-5.701-5-13.3-9.301l-.9-.5 15.5-6.6.101.601c.099.299 1.6 7.399-.601 15.5l-.199.8zm-12.5-10.2c6.398 3.699 10.199 6.8 11.999 8.399 1.5-6.199.8-11.899.502-13.699l-12.501 5.3z"/></svg>