<svg id="Layer_1" xmlns="http://www.w3.org/2000/svg" viewBox="0 0 52 44"><style>.st0{fill:#858585}.st1{opacity:.3}.st2{fill:none;stroke:#858585;stroke-miterlimit:10}.st3{opacity:.4}</style><path class="st0" d="M23.1 41.7l-.3-1 23.8-8.9.4.9z"/><g class="st1"><path class="st0" d="M2.9 14.9l-.3-.9 23.8-8.9.4.9z"/></g><path class="st0" d="M23.1 36.9l-.3-.9 23.8-9 .4.9z"/><g class="st1"><path class="st0" d="M18 43h-1v-6.6l5-2.1.4.9-4.4 1.9z"/></g><g class="st1"><path class="st0" d="M15 39h-1v-6.9l5-2 .3 1-4.3 1.7z"/></g><g class="st1"><path class="st0" d="M12 36h-1v-7.1l5-1.9.3 1-4.3 1.6z"/></g><g class="st1"><path class="st0" d="M8 31H7v-6.4l5-2.2.4.9L8 25.2z"/></g><g class="st1"><path class="st0" d="M5 27H4v-6.7l5-2 .3.9L5 21z"/></g><g class="st1"><path class="st0" d="M2 23H1v-7l5-1.9.3 1L2 16.7z"/></g><path class="st0" d="M2.9 10.2l-.3-1L26.4.3l.4.9z"/><g class="st1"><path class="st0" d="M46.4 32.5L26.2 5.8l.8-.6 20.2 26.7z"/></g><path class="st0" d="M22.4 41.1l-20.2-26 .8-.6 20.2 26zm.3-4.7L2.2 9.6 3 9l20.5 26.8z"/><g class="st1"><path class="st0" d="M50 26h-1v-5.7l-5.5 2.2-.3-1 6.8-2.7z"/></g><g class="st1"><path class="st0" d="M52 29h-1v-5.5l-5.5 2.1-.3-1 6.8-2.5z"/></g><g class="st1"><path class="st0" d="M46 23h-1v-5.9l-5.5 2.3-.3-1 6.8-2.8z"/></g><g class="st1"><path class="st0" d="M43 18h-1v-5.3l-5.5 2-.3-.9 6.8-2.5z"/></g><g class="st1"><path class="st0" d="M40 14h-1V8.5l-5.5 2.1-.3-.9L40 7z"/></g><g class="st1"><path class="st0" d="M37 10h-1V4.2l-5.5 2.3-.3-1L37 2.7z"/></g><path class="st0" d="M46.5 27.8L26 1l.8-.6 20.5 26.8zM23 36h1v5h-1z"/><path class="st0" d="M46 27h1v5h-1z"/><g class="st1"><path class="st0" d="M26 1h1v4h-1z"/></g><path class="st0" d="M2 10h1v5H2zm23.6 3.9l-1.3-.4.7-.3 1.7.5.4.4-7.7 2.3-.4-.5 6.6-2zm-5.1 3.8l.6-.2 1.2.1c2.8.4 4.2.5 5.4.1.8-.3 1.4-.7.8-1.2-.3-.3-.9-.5-1.4-.6l.6-.4c.7.1 1.4.4 1.8.8.8.8-.1 1.5-1.2 1.8-1.5.5-3.1.3-5.4.1l-.9-.1 1.5 1.7-.9.3-2.1-2.4zm4.6 2.3c1-.3 2-.3 2.8 0 0-.5.6-.9 1.2-1.1 1.3-.4 2.6-.2 3.2.4.7.7.1 1.4-1 1.7-.7.2-1.6.3-2.5 0 0 .6-.4 1.1-1.4 1.4-1.4.5-2.9.2-3.5-.5-.5-.8.1-1.5 1.2-1.9zm1.9 2c1-.3 1.2-.8 1-1.4-.7-.3-1.5-.4-2.3-.1-.8.2-1.3.8-.8 1.2.4.4 1.3.5 2.1.3zm2.8-2.7c-.8.3-1 .7-.8 1.2.5.2 1.3.3 2 .1.6-.2 1.1-.6.7-1-.5-.5-1.3-.5-1.9-.3z"/><g class="st3"><path class="st0" d="M25.6 16.7l-1.3-.4.7-.3 1.7.5.4.4-7.7 2.3-.4-.5 6.6-2zm-5.1 3.8l.6-.2 1.2.1c2.8.4 4.2.5 5.4.1.8-.3 1.4-.7.8-1.2-.3-.3-.9-.5-1.4-.6l.6-.4c.7.1 1.4.4 1.8.8.8.8-.1 1.5-1.2 1.8-1.5.5-3.1.3-5.4.1h-.8l1.5 1.7-.9.3-2.2-2.5zm4.6 2.3c1-.3 2-.3 2.8 0 0-.5.6-.9 1.2-1.1 1.3-.4 2.6-.2 3.2.4.7.7.1 1.4-1 1.7-.7.2-1.6.3-2.5 0 0 .6-.4 1.1-1.4 1.4-1.4.5-2.9.2-3.5-.5-.5-.7.1-1.5 1.2-1.9zm1.9 2c1-.3 1.2-.8 1-1.4-.7-.3-1.5-.4-2.3-.1-.8.2-1.3.8-.8 1.2.4.4 1.3.5 2.1.3zm2.8-2.7c-.8.3-1 .7-.8 1.2.5.2 1.3.3 2 .1.6-.2 1.1-.6.7-1-.5-.5-1.3-.5-1.9-.3z"/></g></svg>