<svg id="Layer_1" xmlns="http://www.w3.org/2000/svg" viewBox="0 0 54 50"><style>.st0{opacity:.3}.st1{fill:#858585}</style><g class="st0"><path class="st1" d="M30.1 47.4c-1.2 0-2.4-.6-3-1.7L7 11.5c-.5-.8-.6-1.8-.4-2.7.2-.9.8-1.7 1.6-2.1L24 .9c1.6-.9 3.7-.4 4.7 1.3l20.1 34.2c1 1.7.4 3.8-1.2 4.8h-.1L31.8 47c-.5.3-1.1.4-1.7.4zM25.7 1.5c-.4 0-.9.1-1.3.3L8.7 7.6c-.5.3-.9.8-1.1 1.5s-.1 1.3.3 1.9L28 45.2c.7 1.2 2.2 1.6 3.4.9l15.7-5.8c1.2-.7 1.6-2.2.9-3.4L27.8 2.7c-.4-.8-1.3-1.2-2.1-1.2z"/></g><g class="st0"><path class="st1" d="M28.4 49.6c-1.2 0-2.4-.6-3-1.7L5.2 13.6c-1-1.7-.4-3.8 1.2-4.8L22.2 3c.7-.4 1.7-.6 2.6-.3.9.2 1.7.8 2.1 1.6L47 38.5c1 1.7.4 3.8-1.2 4.8h-.1L30 49.1c-.5.3-1.1.5-1.6.5zm-4.5-46c-.4 0-.9.1-1.3.3L6.9 9.7c-1.1.7-1.5 2.2-.8 3.4l20.1 34.2c.7 1.2 2.2 1.6 3.4.9l15.7-5.8c1.2-.7 1.6-2.2.9-3.4L26 4.8c-.3-.6-.9-1-1.5-1.2h-.6z"/></g><g class="st0"><path class="st1" d="M37.1 41.8c-.3 0-.6 0-.8-.1-.8-.2-1.5-.8-2-1.5-1-1.5-.7-3.5.7-4.4.7-.4 1.5-.5 2.3-.3.8.2 1.5.8 2 1.5s.7 1.6.5 2.4c-.1.8-.6 1.5-1.2 2-.5.2-1 .4-1.5.4zm-1.6-5.2c-.9.6-1.1 1.9-.4 3 .3.5.8.9 1.4 1.1.5.2 1.1.1 1.5-.2.4-.3.7-.7.8-1.3.1-.6-.1-1.2-.4-1.7-.3-.5-.8-.9-1.4-1.1-.5-.1-1.1-.1-1.5.2z"/></g><path class="st1" d="M29.1 24.9l-9.3-2.8 2.7-1-2.6-4.1 7.2-2.8 2.5 4.1 2.5-1-3 7.6zM22.8 22l5.7 1.7 1.8-4.6-1.2.5-2.5-4.1-5.3 2 2.5 4.1-1 .4zm14.4 2.8l-.7-1-13.2 5.4.7 1z"/><g class="st0"><path class="st1" d="M27.1 26.9l-9.3-2.8 2.7-1-2.6-4.1 7.2-2.8 2.5 4.1 2.5-1-3 7.6zM20.8 24l5.7 1.7 1.8-4.6-1.2.5-2.5-4.1-5.3 2 2.5 4.1-1 .4zm14.4 3.8l-.7-1-13.2 5.4.7 1z"/></g></svg>