<svg xmlns="http://www.w3.org/2000/svg" width="55" height="55.631" viewBox="336.792 488.293 55 55.631"><path fill="#858585" d="M353.824 497.28c0-4.119 1.225-7.014 3.673-8.238 6.234-3.339 17.923 4.787 26.496 18.591 4.007 6.457 6.679 13.248 7.569 18.924.779 5.9-.445 10.02-3.451 11.689-6.233 3.34-17.923-4.787-26.495-18.591-4.008-6.457-6.679-13.248-7.57-18.925-.222-1.224-.222-2.337-.222-3.45zm36.848 32.617c0-1.002-.111-2.115-.223-3.229-.779-5.565-3.451-12.134-7.347-18.59-8.238-13.025-19.371-21.151-25.048-18.146-2.671 1.447-3.673 5.232-2.894 10.576.779 5.566 3.451 12.134 7.347 18.591 8.126 13.024 19.259 21.263 24.936 18.146 2.116-1.002 3.229-3.674 3.229-7.348z" opacity=".3"/><path fill="#858585" d="M345.586 502.178c0-4.007 1.225-7.013 3.785-8.349 6.234-3.34 17.923 4.787 26.495 18.591s10.353 27.274 4.008 30.614c-6.234 3.34-17.923-4.787-26.495-18.591-5.121-8.238-7.793-16.365-7.793-22.265zm36.849 32.506c0-5.678-2.672-13.804-7.682-21.819-8.016-13.025-19.259-21.263-24.825-18.146-5.677 3.006-3.674 16.142 4.453 29.167 8.015 13.024 19.259 21.263 24.937 18.146 2.115-1.114 3.117-3.785 3.117-7.348z" opacity=".3"/><path fill="#858585" d="M361.394 506.186l7.125 1.113-3.34-12.58 8.461 13.582 6.457.668-2.449 5.677 8.46 13.692-10.13-8.794-2.783 5.678-2.895-10.688-8.906-8.348zm8.572 2.449l-5.343-.891 6.679 6.234 2.227 8.127 2.115-4.342 5.678 5.01-5.01-8.127 2.115-4.898-5.566-.557-4.787-7.681 1.892 7.125z"/><path fill="#858585" d="M349.816 493.495l7.682-4.453.556.89-7.57 4.453zm28.945 48.759l7.68-4.564.557.891-7.569 4.564z" opacity=".3"/><path fill="#858585" d="M347.145 536.465l1.113-.445c.111 0 8.461-3.674 7.459-8.35l1.113-.223c1.002 4.453-4.564 7.793-7.014 9.018l5.01 2.115 1.447 4.23c6.234-1.336 7.125-6.346 7.125-6.346l1.113.111c0 .111-1.113 6.123-8.572 7.348h-.445l-1.67-4.676-6.679-2.782z"/><path fill="#858585" d="M336.792 520.546l1.559.223c.111 0 7.57 1.113 10.576-.891.668-.445 1.002-1.002 1.113-1.67l1.113.223c-.223.891-.668 1.781-1.559 2.338-2.561 1.67-7.347 1.447-9.908 1.225l5.344 5.454-4.23 4.008c5.009 1.336 9.017 1.447 11.8.111 2.449-1.225 3.006-3.006 3.117-3.006l1.113.334c0 .111-.779 2.227-3.562 3.674-3.229 1.559-7.792 1.559-13.582-.223l-.891-.223 4.676-4.453-6.679-7.124z"/></svg>