<svg id="Layer_1" xmlns="http://www.w3.org/2000/svg" viewBox="0 0 54 50"><style>.st0{fill:#858585}.st1{opacity:.3}</style><path class="st0" d="M16.7 13.5c-1.2 0-2.2-.3-2.5-1.1-.8-1.8 2.4-4.4 5.8-5.9s7.4-2.1 8.2-.3c.3.6.2 1.6-1.3 3.1-1.1 1-2.7 2-4.5 2.8-1.9.8-4 1.4-5.7 1.4zm3.7-6.1c-3.7 1.7-5.6 3.8-5.2 4.6s3.2.8 6.9-.8c1.7-.8 3.2-1.7 4.2-2.6 1-1 1.2-1.6 1.1-1.9-.5-.9-3.3-1-7 .7zM9 33.2c-1.6 0-3.6-1.3-5.1-3.5-.9-1.3-1.4-2.8-1.4-4.1-.1-1.4.4-2.5 1.3-3.1.8-.6 2-.5 3.2.1 1.2.6 2.3 1.7 3.1 3 1.9 2.9 1.9 6 .2 7.2-.3.3-.8.4-1.3.4zM5.1 23.1c-.3 0-.6.1-.9.2-.6.4-.9 1.1-.8 2.2.1 1.1.5 2.4 1.3 3.6 1.5 2.3 3.8 3.6 5.1 2.8 1.2-.8 1-3.5-.5-5.8-.7-1.1-1.7-2.1-2.7-2.6-.5-.3-1-.4-1.5-.4z"/><path class="st0" d="M47.6 36.3c0-.1-3.2-11.8-7.9-19-.9-1.3-1.1-2.5-.6-3.6 1-2.2 4.7-3.1 6-3.3.7-4.8-.2-7-1.1-8-.9-1-1.8-1-1.9-1C33.6 2 25.1 6 25 6l-.4-.9c.1 0 8.7-4.1 17.5-4.7.1 0 1.5 0 2.6 1.4 1.5 1.8 1.9 4.9 1.3 9.2l-.1.4h-.4c-1.3.2-4.8 1-5.5 2.8-.3.8-.2 1.6.5 2.7 4.9 7.3 8 19.1 8.1 19.3l-1 .1zM3.8 23.8l-.8-.6c0-.1 4.7-6.6 11.4-12.3l.6.8C8.4 17.3 3.8 23.8 3.8 23.8zm20.5 23.4c0-.2-3-16.1-8.2-20-.6-.2-3.2 2.4-5.6 5.5l-.8-.6c2-2.6 5.6-6.7 7-5.7 5.5 4.1 8.4 20 8.5 20.6l-.9.2z"/><g class="st1"><path class="st0" d="M24.2 47.1c-.1-.1-.1-.2-.1-.2-1.4-3.1 2.9-8 9.7-11 6.5-2.9 12.7-3 14.5-.3l-.8.5c-1.5-2.2-7.4-1.9-13.2.7-6.1 2.7-10.4 7.2-9.2 9.7l.1.2-1 .4z"/></g><path class="st0" d="M29.5 49.3c-2.5 0-4.5-.7-5.3-2.1l.9-.5c1.3 2.4 7.3 2.1 13.3-.6 6.1-2.7 10.4-7.2 9.2-9.7 0-.1-.1-.2-.1-.2l.4-.3.4-.3c.1.2.2.3.2.4 1.4 3.1-2.9 8-9.7 11-3.4 1.5-6.7 2.3-9.3 2.3z"/><g class="st1"><path class="st0" d="M43.9 11.6c-.5 0-1-.2-1.5-.4-1.4-.8-2.6-2.8-3.1-5.1-.7-2.9.3-5.1 2.7-5.7l.3 1c-1.8.5-2.5 2.1-2 4.5.5 2 1.5 3.7 2.7 4.4.5.3.9.4 1.3.3l.3 1h-.7z"/></g></svg>