<svg id="Layer_1" xmlns="http://www.w3.org/2000/svg" viewBox="0 0 52 38"><style>.st0{opacity:.3}.st1{fill:#858585}</style><g class="st0"><path class="st1" d="M29.1 29.8c-2 0-4.1-.3-6.1-1-3.6-1.2-6.6-3.4-8.5-6-2-2.7-2.5-5.7-1.6-8.3 1.8-5.4 9.4-7.7 16.8-5.2 3.6 1.2 6.6 3.4 8.5 6 2 2.7 2.5 5.7 1.6 8.3-.9 2.6-3.2 4.6-6.4 5.6-1.3.4-2.8.6-4.3.6zM23.5 9.2c-4.7 0-8.6 2-9.8 5.5-.8 2.3-.3 5 1.5 7.4 1.8 2.5 4.7 4.5 8.1 5.7 3.4 1.2 6.9 1.3 9.8.4 2.9-.9 4.9-2.6 5.7-4.9.8-2.3.3-5-1.5-7.4-1.8-2.5-4.7-4.5-8.1-5.7-1.8-.7-3.8-1-5.7-1z"/></g><path transform="rotate(-31.781 16.54 3.822)" class="st1" d="M16 .3h1v7h-1z"/><path transform="rotate(-31.788 35.474 34.379)" class="st1" d="M35 30.9h1v7h-1z"/><path transform="rotate(-15.284 7.457 24.172)" class="st1" d="M3.7 23.7h7.5v1H3.7z"/><path transform="rotate(-15.284 44.563 14.032)" class="st1" d="M40.8 13.5h7.5v1h-7.5z"/><path transform="rotate(-69.978 5.202 11.617)" class="st1" d="M4.7 6.6h1v9.9h-1z"/><path transform="rotate(-69.978 46.767 26.763)" class="st1" d="M46.3 21.8h1v10h-1z"/><path transform="rotate(-65.914 19.655 34.174)" class="st1" d="M15.9 33.7h7.5v1h-7.5z"/><path transform="rotate(-65.983 33.134 3.985)" class="st1" d="M29.4 3.5h7.4v1h-7.4z"/><g class="st0"><path transform="rotate(-58.532 41.795 28.883)" class="st1" d="M41.3 26.9h1v4h-1z"/></g><g class="st0"><path transform="rotate(-58.527 9.99 9.412)" class="st1" d="M9.5 7.4h1v4h-1z"/></g><g class="st0"><path transform="rotate(-46.701 15.48 29.725)" class="st1" d="M13.9 29.2h3.2v1h-3.2z"/></g><g class="st0"><path transform="rotate(-46.742 36.103 7.83)" class="st1" d="M34.5 7.3h3.2v1h-3.2z"/></g><g class="st0"><path transform="rotate(-15.138 29.696 33.593)" class="st1" d="M29.2 32h1v3.2h-1z"/></g><g class="st0"><path transform="rotate(-15.116 21.795 4.342)" class="st1" d="M21.3 2.7h1v3.2h-1z"/></g><g class="st0"><path transform="matrix(.9989 -.04592 .04592 .9989 -.89 .364)" class="st1" d="M5.5 19h4v1h-4z"/></g><g class="st0"><path transform="rotate(-2.688 44.543 17.835)" class="st1" d="M42.6 17.3h4v1h-4z"/></g><g class="st0"><path transform="rotate(-85.296 26.924 4.58)" class="st1" d="M25.4 4.1h3.1v1h-3.1z"/></g><g class="st0"><path transform="rotate(-85.296 24.556 33.212)" class="st1" d="M23 32.7h3.1v1H23z"/></g><g class="st0"><path transform="rotate(-80.654 7.139 16.096)" class="st1" d="M6.6 14h1v4.1h-1z"/></g><g class="st0"><path transform="rotate(-80.671 44.969 22.318)" class="st1" d="M44.5 20.3h1v4.1h-1z"/></g><g class="st0"><path transform="rotate(-45.498 13.26 6.675)" class="st1" d="M12.8 4.8h1v3.8h-1z"/></g><g class="st0"><path transform="rotate(-45.494 38.335 31.318)" class="st1" d="M37.8 29.4h1v3.8h-1z"/></g><g class="st0"><path transform="rotate(-29.12 12.062 27)" class="st1" d="M10.3 26.5h3.5v1h-3.5z"/></g><g class="st0"><path transform="rotate(-29.12 40.491 11.155)" class="st1" d="M38.7 10.7h3.5v1h-3.5z"/></g></svg>