<svg id="Layer_1" xmlns="http://www.w3.org/2000/svg" viewBox="0 0 50 48"><style>.st0{fill:#858585}.st1{opacity:.3}</style><path class="st0" d="M36.6 35.2c-5.4 0-11.6-1.6-17.5-4.5C5.9 24.4-2.1 13.5 1.2 6.5 2.8 3.1 6.8 1.1 12.5.9 18.1.7 24.7 2.3 31 5.3c13.1 6.4 21.1 17.2 17.8 24.2-1.6 3.4-5.6 5.4-11.3 5.6-.4.1-.7.1-.9.1zM13.4 1.9h-.8c-5.3.2-9 2-10.5 5.1-3.1 6.5 4.7 16.8 17.3 22.9 6.2 3 12.5 4.5 17.9 4.4 5.3-.2 9-2 10.5-5.1 3.1-6.5-4.7-16.8-17.3-22.9-5.8-2.9-11.8-4.4-17.1-4.4z"/><g class="st1"><path class="st0" d="M16.4 47.9c-1.7 0-3.6-.5-5.5-1.4-2-1-3.7-2.3-4.8-3.8-1.1-1.6-1.4-3.1-.9-4.3 1.2-2.5 5.4-2.7 9.8-.7 2 1 3.7 2.3 4.8 3.8 1.1 1.6 1.4 3.1.9 4.3-.6 1.2-1.9 1.9-3.9 2-.2.1-.3.1-.4.1zM9.5 37.3c-1.6 0-2.9.5-3.3 1.5-.4.9-.1 2.1.8 3.3 1 1.3 2.5 2.6 4.4 3.5 1.9.9 3.8 1.4 5.4 1.3 1.5-.1 2.6-.6 3-1.5.4-.9.1-2.1-.8-3.3-1-1.3-2.5-2.6-4.4-3.5-1.8-.9-3.6-1.3-5.1-1.3z"/></g><g class="st1"><path class="st0" d="M17.8 44.9c-1.6 0-3.6-.5-5.5-1.4-4.3-2.1-6.8-5.7-5.6-8.1.6-1.2 1.9-1.9 3.9-2 1.8-.1 3.9.4 5.9 1.4 2 1 3.7 2.3 4.8 3.8 1.1 1.6 1.4 3.1.9 4.3-.8 1.3-2.4 2-4.4 2zm-6.9-10.5h-.4c-1.5.1-2.6.6-3 1.5-.9 1.9 1.5 5 5.2 6.8 3.7 1.8 7.6 1.7 8.5-.2.4-.9.1-2.1-.8-3.3-1-1.3-2.5-2.6-4.4-3.5-1.8-.9-3.6-1.3-5.1-1.3z"/></g><g class="st1"><path class="st0" d="M39.2 34.7l-1-.2c.7-4.4-5.3-10.9-14.1-15.2-8.5-4.1-17.2-4.9-20.3-1.7l-.7-.7c3.4-3.5 12.4-2.8 21.4 1.5 9.3 4.5 15.5 11.3 14.7 16.3z"/></g><g class="st1"><path class="st0" d="M47.2 31.3l-1-.2c1-5.8-6.9-14.2-18.2-19.7C17 6.1 5.7 5.1 1.7 9.2L1 8.5c4.4-4.4 15.9-3.6 27.5 2 11.7 5.7 19.8 14.7 18.7 20.8z"/></g><path class="st0" d="M30.8 39.5c-4.1 0-9.2-1.3-14.4-3.8-4.8-2.3-9-5.4-11.7-8.6-2.8-3.3-3.7-6.5-2.6-8.9.2-.4.5-.9.9-1.3l.7.7c-.3.4-.6.7-.8 1-.9 2-.1 4.8 2.4 7.8 2.6 3.1 6.6 6.1 11.3 8.4 9.4 4.6 19.1 4.9 21 .7.1-.3.2-.6.3-1l1 .2c-.1.5-.2.9-.4 1.3-.8 2.3-3.8 3.5-7.7 3.5z"/><g class="st1"><path class="st0" d="M30.2 39l-1-.2c.6-2.9-3.6-7.4-9.5-10.2-5.8-2.9-11.8-3.3-13.7-1.1l-.7-.6c2.2-2.7 8.5-2.3 15 .8 6.4 3.1 10.6 7.9 9.9 11.3z"/></g><path class="st0" d="M24.4 42.3h-.3c-2.9-.1-6.3-1-9.6-2.6-7-3.4-11.3-8.7-9.7-12.1.1-.2.3-.5.5-.7l.4-.4 1.2 1.3-.9.6-.3-.4c-1.3 2.8 3 7.7 9.3 10.8 3.2 1.5 6.4 2.4 9.2 2.5 2.6 0 4.4-.6 5-1.9.1-.2.1-.4.2-.6l1 .2c-.1.3-.1.6-.3.8-.9 1.7-2.9 2.5-5.7 2.5z"/></svg>