<svg id="Layer_1" xmlns="http://www.w3.org/2000/svg" viewBox="0 0 50 50"><style>.st0{fill:#858585}.st1{opacity:.3}</style><path class="st0" d="M12.6 30.6c-1.2.4-2.7 0-3.3-.7-.6-.8-.1-1.7 1.2-2.1 1.2-.4 2.7 0 3.3.7.5.8 0 1.7-1.2 2.1zm26.8 14.9c-1.5.5-3.3 0-4.1-.9-.7-1-.1-2.1 1.5-2.5s3.3 0 4.1.9.1 2-1.5 2.5z"/><g class="st1"><path transform="rotate(-36.965 25.102 26.264)" class="st0" d="M24.6 4.6h1V48h-1z"/></g><path class="st0" d="M11 7.6l1.1 4.7 4.1-2.2z"/><g class="st1"><path class="st0" d="M29.6 32.2l-.9-.5 6.1-12.4-4.1-5.4.8-.6 4.4 5.9z"/></g><path class="st0" d="M28 12.2l1.8 2.4 3-1.3L31 11z"/><g class="st1"><path class="st0" d="M33 37H16.8l-5.5-7 .8-.7 5.1 6.7H33z"/></g></svg>