<svg xmlns="http://www.w3.org/2000/svg" viewBox="0 0 60.11 38.5"><defs><style>.cls-1{fill:#858585}.cls-2{opacity:.4}</style></defs><title>money</title><g id="Layer_2" data-name="Layer 2"><g id="Layer_1-2" data-name="Layer 1"><path class="cls-1" d="M25.72 35.07L8.08 24.89 42.44 5l17.65 10.21zM9.86 24.89L25.72 34 58.3 15.21 42.44 6.06z"/><g class="cls-2"><path class="cls-1" d="M25.74 38.5L8.1 28.33 42.46 8.46l17.65 10.18zM9.88 28.33l15.86 9.14 32.58-18.83-15.86-9.15z"/></g><path class="cls-1" d="M36.58 23.39a11.1 11.1 0 0 1-5.24-1.5c-1.71-1-2.73-2.21-2.73-3.28a1.64 1.64 0 0 1 .88-1.44c1.52-.89 4.73-.42 7.3 1.06 1.72 1 2.74 2.22 2.74 3.29a1.63 1.63 0 0 1-.9 1.43 4.22 4.22 0 0 1-2.05.44zm-5-5.78a3.23 3.23 0 0 0-1.59.33.75.75 0 0 0-.44.67c0 .55.6 1.54 2.28 2.51C34 22.4 37 22.88 38.2 22.18a.74.74 0 0 0 .44-.66C38.64 21 38 20 36.35 19a10.36 10.36 0 0 0-4.81-1.39zm-21.08-.32a4.39 4.39 0 0 1-2.16-.52L.78 12.4a1.56 1.56 0 0 1 0-2.71L16.66.52a4.7 4.7 0 0 1 4.34 0l7.56 4.36a1.56 1.56 0 0 1 0 2.71l-15.91 9.17a4.39 4.39 0 0 1-2.15.53zm-9.27-6.83a.67.67 0 0 0 0 1.16L8.79 16a3.84 3.84 0 0 0 3.42 0l15.88-9.18a.67.67 0 0 0 0-1.16L20.53 1.3a3.84 3.84 0 0 0-3.42 0z"/><g class="cls-2"><path class="cls-1" d="M10.53 20.19a4.39 4.39 0 0 1-2.16-.52L.81 15.3a1.56 1.56 0 0 1 0-2.71l15.88-9.16a4.7 4.7 0 0 1 4.31 0l7.56 4.36a1.56 1.56 0 0 1 0 2.71l-15.88 9.17a4.39 4.39 0 0 1-2.15.52zM18.84 3.8a3.51 3.51 0 0 0-1.71.4L1.26 13.37a.67.67 0 0 0 0 1.16l7.56 4.36a3.84 3.84 0 0 0 3.42 0l15.87-9.16a.67.67 0 0 0 0-1.16L20.56 4.2a3.51 3.51 0 0 0-1.72-.4z"/></g><path class="cls-1" transform="rotate(-29.73 14.348 8.467)" d="M3.03 8.03h22.63v.89H3.03z"/><path class="cls-1" transform="rotate(-29.73 11.385 6.793)" d="M.07 6.35H22.7v.89H.07z"/></g></g></svg>