<svg xmlns="http://www.w3.org/2000/svg" viewBox="0 0 36.87 36.88"><defs><style>.cls-1{fill:none;stroke:#7a7e7f;stroke-linecap:round;stroke-miterlimit:10;stroke-width:1.02px}</style></defs><title>3</title><g id="Layer_2" data-name="Layer 2"><g id="Layer_1-2" data-name="Layer 1"><path class="cls-1" d="M18.44 36.15L9.58 27.3.72 18.44 18.44.72l8.86 8.86 8.85 8.86-17.71 17.71z"/><path class="cls-1" d="M9.45 9.71l3.22 3.23a.42.42 0 0 0 .59 0l.58-.58A.45.45 0 0 0 14 12a2.72 2.72 0 1 1 2.22 2.22.44.44 0 0 0-.39.13l-.58.58a.42.42 0 0 0 0 .59l3.09 3.09"/><path class="cls-1" d="M27 9.58l-3.19 3.22a.42.42 0 0 0 0 .59l.58.58a.44.44 0 0 0 .39.13 2.72 2.72 0 1 1-2.22 2.22.44.44 0 0 0-.13-.39l-.58-.58a.42.42 0 0 0-.59 0l-3.09 3.09M27 27.3l-3.23-3.23a.42.42 0 0 0-.59 0l-.58.58a.44.44 0 0 0-.13.39 2.72 2.72 0 1 1-2.22-2.22.44.44 0 0 0 .39-.13l.58-.58a.42.42 0 0 0 0-.59l-3.09-3.09"/><path class="cls-1" d="M9.45 27.16l3.23-3.23a.42.42 0 0 0 0-.59l-.58-.58a.44.44 0 0 0-.39-.13 2.72 2.72 0 1 1 2.22-2.22.45.45 0 0 0 .13.39l.58.58a.42.42 0 0 0 .59 0l3.09-3.09"/></g></g></svg>