<svg xmlns="http://www.w3.org/2000/svg" viewBox="0 0 50 53.8"><style>.st0{fill:#858585}.st1{opacity:.3}.st2{fill:none;stroke:#858585;stroke-miterlimit:10}</style><g id="Layer_3"><path transform="rotate(-20.702 35.853 36.822)" class="st0" d="M23.1 36.3h25.5v1H23.1z"/><g class="st1"><path transform="rotate(-20.702 15.68 9.924)" class="st0" d="M2.9 9.4h25.5v1H2.9z"/></g><path transform="rotate(-20.702 35.853 32.02)" class="st0" d="M23.1 31.5h25.5v1H23.1z"/><path transform="rotate(-20.702 15.68 5.12)" class="st0" d="M2.9 4.6h25.5v1H2.9z"/><g class="st1"><path transform="rotate(-37 37.686 18.865)" class="st0" d="M37.2 2.1h1v33.6h-1z"/></g><path transform="rotate(-37.59 13.669 27.858)" class="st0" d="M13.2 11.3h1v33.1h-1z"/><path transform="rotate(-37.364 13.85 22.706)" class="st0" d="M13.4 5.8h1v33.8h-1z"/><path transform="rotate(-37.364 37.631 14.059)" class="st0" d="M37.1-2.9h1v33.8h-1z"/><path class="st0" d="M24 36h1v5h-1zm23-9h1v5h-1z"/><g class="st1"><path class="st0" d="M27 1h1v4h-1z"/></g><path class="st0" d="M3 10h1v5H3z"/><path transform="rotate(-20.702 35.853 48.821)" class="st0" d="M23.1 48.3h25.5v1H23.1z"/><g class="st1"><path transform="rotate(-20.702 15.68 21.924)" class="st0" d="M2.9 21.4h25.5v1H2.9z"/></g><path transform="rotate(-20.702 35.853 44.019)" class="st0" d="M23.1 43.5h25.5v1H23.1z"/><path transform="rotate(-20.702 5.743 20.88)" class="st0" d="M3.6 20.4h4.2v1H3.6z"/><g class="st1"><path transform="rotate(-20.702 17.659 16.177)" class="st0" d="M7 15.7h21.3v1H7z"/></g><g class="st1"><path transform="rotate(-37 37.687 30.865)" class="st0" d="M37.2 14.1h1v33.6h-1z"/></g><path transform="rotate(-37.59 13.669 39.858)" class="st0" d="M13.2 23.3h1v33.1h-1z"/><path transform="rotate(-37.364 13.85 34.706)" class="st0" d="M13.4 17.8h1v33.8h-1z"/><path transform="rotate(-37.36 45.759 36.7)" class="st0" d="M45.3 33.2h1v7.1h-1z"/><g class="st1"><path transform="rotate(-37.364 35.486 23.255)" class="st0" d="M35 9.9h1v26.8h-1z"/></g><g class="st1"><path class="st0" d="M38.1 36s-.6-1.9-2.2-4.4c-1.6-2.4-3.5-3.2-3.5-3.2l.4-.9c.1 0 2.2 1 4 3.6 1.7 2.6 2.3 4.5 2.3 4.6l-1 .3z"/></g><g class="st1"><path class="st0" d="M34.1 38s-.6-1.9-2.2-4.4c-1.6-2.4-3.5-3.2-3.5-3.2l.4-.9c.1 0 2.2 1 4 3.6 1.7 2.6 2.3 4.5 2.3 4.6l-1 .3z"/></g><g class="st1"><path class="st0" d="M29.1 40s-.6-1.9-2.2-4.4c-1.6-2.4-3.5-3.2-3.5-3.2l.4-.9c.1 0 2.2 1 4 3.6 1.7 2.6 2.3 4.5 2.3 4.6l-1 .3z"/></g><g class="st1"><path class="st0" d="M24.1 42s-.6-1.9-2.2-4.4c-1.6-2.4-3.5-3.2-3.5-3.2l.4-.9c.1 0 2.2 1 4 3.6 1.7 2.6 2.3 4.5 2.3 4.6l-1 .3z"/></g><path class="st0" d="M24 48h1v5h-1zm23-9h1v5h-1z"/><g class="st1"><path class="st0" d="M27 13h1v4h-1z"/></g><path class="st0" d="M3 22h1v5H3z"/><g class="st1"><path class="st0" d="M20.8 30.9c-1.5 0-2.5-.5-2.5-.5-2-1.1-2.8-3.6-2.4-7.5.2-2.6 1.4-3.7 2.4-4.1 1.9-.9 4.4-.1 6.1 1.1 2 1.3 4 3.7 4 6 0 1-.5 2.5-2.5 3.6-2.2 1.1-3.9 1.4-5.1 1.4zm-2.1-1.4c.2.1 2.6 1.3 6.4-.9 1.3-.7 2-1.7 2-2.8.1-1.9-1.8-4-3.5-5.1-1.8-1.2-3.8-1.6-5.1-1-1 .5-1.6 1.6-1.8 3.3-.2 3.4.5 5.6 2 6.5z"/></g></g></svg>