<svg xmlns="http://www.w3.org/2000/svg" viewBox="0 0 50 50"><style>.st0{opacity:.3}.st1{fill:#858585}</style><g id="Layer_3"><g class="st0"><path class="st1" d="M26 37c-4.2 0-9.9-1.2-17-5.2-5.5-3.1-8.4-7-8.5-11.5C.2 13.9 5.8 8.1 11 4.7 17.7.4 25-1 30.4 1.1c4.5 1.7 7.6 5.4 9.3 11.2 2.4 7.9 1.1 13.5-.5 16.8-1.7 3.6-3.9 5.3-4 5.4-.8.6-3.9 2.5-9.2 2.5zM25 1.1c-4.2 0-8.9 1.5-13.4 4.4-5 3.2-10.3 8.8-10.1 14.8.1 4.1 2.8 7.7 8 10.6 15.5 8.7 23.7 3.8 25.2 2.7.2-.1 8.4-6.7 4.1-21.1-1.7-5.4-4.6-9-8.8-10.5-1.5-.6-3.2-.9-5-.9z"/></g><path class="st1" d="M32.9 21.1h-.6l.1-1c.7.1 1.3 0 1.9-.3 1.6-.9 2-3.4.8-5.5-1-1.7-2.9-2.7-4.5-2.3l-.2-1c2-.4 4.4.8 5.5 2.8 1.5 2.6 1 5.6-1.2 6.9-.5.2-1.1.4-1.8.4z"/><g class="st0"><path class="st1" d="M33 21.1c-.5 0-1.1-.1-1.6-.3-1.2-.5-2.3-1.4-3-2.6-.7-1.2-.9-2.6-.6-4 .3-1.3 1.1-2.4 2.1-3l.5.9c-.8.5-1.4 1.3-1.6 2.4-.3 1.1-.1 2.3.5 3.3s1.5 1.8 2.5 2.2c1 .4 1.9.3 2.7-.1l.5.9c-.7.1-1.3.3-2 .3z"/></g><path class="st1" d="M47.8 45l-.7-.7c1.3-1.3 1-3.8-.7-5.5-1.7-1.7-4.2-2-5.5-.7-.1.1-.3.3-.4.5l-.8-.6c.1-.2.3-.4.5-.6 1.7-1.7 4.8-1.4 6.9.7 2.2 2 2.5 5.2.7 6.9z"/><g class="st0"><path class="st1" d="M45 46h-.5c-1.3-.1-2.6-.8-3.6-1.8-2.1-2.1-2.4-5.2-.7-6.9l.8.7c-1.3 1.3-1 3.8.7 5.5.8.8 1.9 1.4 3 1.5 1 .1 1.9-.2 2.6-.8l.7.7c-.8.7-1.8 1.1-3 1.1z"/></g><path class="st1" d="M8.9 36.6c-.2-.8.3-1.6 1.3-2.4.9-.7 2.1-1.2 3.4-1.4 3-.6 5.5.1 5.8 1.7l-1 .2c-.2-.8-2.1-1.4-4.6-.9-1.2.2-2.3.7-3 1.3-.6.5-1 1-.9 1.4l-1 .1z"/><g class="st0"><path class="st1" d="M12.8 38.5c-.6 0-1.3-.1-1.8-.2-1.2-.3-1.9-.9-2.1-1.7l1-.2c.1.4.6.8 1.4 1 .9.2 2.1.2 3.3 0 1.2-.2 2.3-.7 3-1.3.6-.5 1-1 .9-1.4l1-.2c.2.8-.3 1.6-1.3 2.4-.9.7-2.1 1.2-3.4 1.4-.7.2-1.4.2-2 .2z"/></g><path class="st1" d="M41 38l-.8-.6c2.4-3.1 4.5-7.4 3.4-10.2-2.4-5.7-10.6-6-10.6-6v-1c.4 0 8.9.4 11.5 6.7 1.6 4-2.3 9.5-3.5 11.1z"/><path class="st1" d="M48.8 43.2l-.8-.6c1.9-3 .8-10.3-1.4-15.3-6.8-15.6-15-15.5-15-15.5v-1c.3 0 8.9-.2 16 16.1 2.2 5.3 3.4 12.9 1.2 16.3zm-20.4 3.2c-.6 0-1.2-.1-1.8-.3-6.1-1.9-8.2-11.4-8.3-11.8l1-.2c0 .1 2.1 9.2 7.6 11 5.5 1.8 12.7-7.1 12.8-7.2l.8.6c-.3.4-6.4 7.9-12.1 7.9zM18.3 34.2c-.1-.4-3.1-10.7 1.1-13.3 4.1-2.6 13.8-.8 14.2-.7l-.2 1c-.1 0-9.7-1.8-13.5.6-3 1.9-1.5 9.5-.7 12.2l-.9.2z"/><path class="st1" d="M9 36.6c-.9-5.9 1.4-11.4 7.6-17.7 6.9-7 13.6-7.9 13.9-8l.1 1c-.1 0-6.7.9-13.3 7.7-5.9 6.1-8.2 11.3-7.3 16.9l-1 .1z"/><path class="st1" d="M29.5 50c-1.8 0-3.5-.2-4.8-.6C12 45.2 9 37 8.9 36.7l.9-.3c0 .1 2.9 8 15.1 12 6.2 2 19.4-1.6 22.2-4.1l.7.7c-2.3 2.1-11.4 5-18.3 5z"/></g></svg>