<svg id="Layer_2" xmlns="http://www.w3.org/2000/svg" viewBox="0 0 50 50"><style>.st0{fill:#858585;stroke:#858585;stroke-miterlimit:10}.st1{opacity:.3}.st2{fill:#858585}.st3{fill:#fff}</style><path class="st0" d="M22.2 16.2s2.1 5.1 4.2 6.7-8 12.3-13.1 8.6.4-14.9 2.5-16.3c2-1.4 4.5-1.6 6.4 1zm10.2-2.9s.5 4.8.9 6.6c.5 2.2 11.2 4.2 12.5-.9 1.3-5.1-7.6-10.1-9.7-9.8s-3.8 1.3-3.7 4.1z"/><g class="st1"><path class="st2" d="M25 1c13.2 0 24 10.8 24 24S38.2 49 25 49 1 38.2 1 25 11.8 1 25 1m0-1C11.2 0 0 11.2 0 25s11.2 25 25 25 25-11.2 25-25S38.8 0 25 0z"/></g><path class="st2" d="M30.3 41.4c-2.3 0-4.4-.8-5.8-2.4l-.6-.6.7-.1c.1 0 4.5-.7 8.7-2.3 3.9-1.5 6.5-3.5 6.6-3.5l.7-.5v.8c0 3.4-2.3 6.2-6.2 7.8-1.3.6-2.7.8-4.1.8z"/><path class="st3" d="M23.3 21.6c-1.7-1.1-3.2-.9-4.5 0-1.2.9-2 2.3-1.5 4.2 0 0 .4-1.8 2.3-3.1 1.9-1.4 3.7-1.1 3.7-1.1zM40 17.1c-.8-1.4-2-1.7-3.2-1.5-1.2.2-2.2 1-2.5 2.5 0 0 .9-1.2 2.6-1.5 1.9-.4 3.1.5 3.1.5z"/><path class="st2" d="M9.5 10.5s-5 4.5-4.8 9c.1 2-5.2-3.2-2.9-9.1 1.4-3.4 7.7.1 7.7.1zm26.6-7.1s3.7 2 5.8 4.4c.9 1.1 1.8-3.6-1.7-6.4-2-1.6-4.1 2-4.1 2zM35 24.2s-4.3 1.4-4.8 2.3c-.5.9 1.9 4.3 4.8 3.7s4.1-7.4 0-6z"/></svg>