<svg xmlns="http://www.w3.org/2000/svg" viewBox="0 0 42.21 49.68"><defs><style>.cls-1,.cls-5{opacity:.4}.cls-2,.cls-5{fill:#858585}.cls-3,.cls-4{fill:none;stroke-miterlimit:10}.cls-3{stroke:#000}.cls-4{stroke:#858585}.cls-5{isolation:isolate}</style></defs><title>Smaptphone</title><g id="Layer_2" data-name="Layer 2"><g id="Layer_1-2" data-name="Layer 1"><g id="Layer_2-2" data-name="Layer 2"><g id="Layer_1-2-2" data-name="Layer 1-2"><g class="cls-1"><path class="cls-2" d="M20.4 49.74a2.49 2.49 0 0 1-2.51-2.07L12.33 33.1a8.9 8.9 0 0 1-.11-3.38L20.08 2A1.9 1.9 0 0 1 22 .72a1.87 1.87 0 0 1 1.7 1.42l6.2 14.33a6.9 6.9 0 0 1 .08 4.9l-1.19 4.44-1-.22L29 21.15a6.43 6.43 0 0 0-.19-4.54L22.59 2.36c-.11-.44-.44-.55-.76-.65a.77.77 0 0 0-.76.55L13.2 29.93a9.14 9.14 0 0 0 .22 2.84L19 47.33a1.46 1.46 0 0 0 1.42 1.2 1.47 1.47 0 0 0 1.42-1.09L24.1 39l.56 1.43-1.86 7.38a2.36 2.36 0 0 1-2.4 1.93z" transform="translate(0 -.5)"/></g><g class="cls-1"><path class="cls-2" d="M21.37 45.22L15 28.1V28l6.92-24.94 6.8 15.51v.11zM15.61 28.1l5.77 15 6.8-24.56-6-13.64z" transform="translate(0 -.5)"/></g><path class="cls-2" d="M37 42.13h-.11l-12.24-1.31-.11-.33L24.1 39l.11-.11L27.59 26c.11-.33.33-.55.65-.44l.76.11 10.91 1a2.54 2.54 0 0 1 1.86 1.09 2.39 2.39 0 0 1 .33 2.07l-3.53 11.43a2.07 2.07 0 0 1-1.57.87zm-11.59-2.19L37 41.14h.11l.09-.14h-.11c-1.31-.22-9.17-1-11.79-1.2zm-.11-1.31c2.4.22 10.59 1.09 11.9 1.2a.65.65 0 0 1 .44.11l3.27-10.59a1.19 1.19 0 0 0-.22-1.2 1.86 1.86 0 0 0-1.09-.65l-11.24-1z" transform="translate(0 -.5)"/><g class="cls-1"><path class="cls-2" d="M19.42 50.18a5.46 5.46 0 0 1-1.31-.18 3.81 3.81 0 0 1-2.4-2.73L10 33.32a7.27 7.27 0 0 1 .11-4c3.06-10.59 7.1-26.59 8.3-27.79a3.53 3.53 0 0 1 3.7-.81l-.44 1 .33-.45-.22.44a2.47 2.47 0 0 0-2.51.55c-.76.87-3.06 10.44-8.08 27.36A7.11 7.11 0 0 0 11 33l5.6 14a2.86 2.86 0 0 0 1.75 2 2.6 2.6 0 0 0 2.51-.33l.76.76-.11.11a3.36 3.36 0 0 1-2.09.64z" transform="translate(0 -.5)"/></g><path class="cls-2" d="M1.09 36.33a.91.91 0 0 0 .07.75 1.28 1.28 0 0 0 .78.33l10.22 1 .42 1.13-10.79-1a2.19 2.19 0 0 1-1.57-.9 1.86 1.86 0 0 1 0-1.73" transform="translate(0 -.5)"/><ellipse class="cls-5" cx="17.37" cy="38.55" rx=".59" ry="2.69" transform="rotate(-20.62 15.979 38.287)"/></g></g><path class="cls-2" d="M1.07 35.83l-.48-.87 9.36-5.33-.09 1.2-8.79 5zm5.7-12.55l-.55-.85 6.79-3.85-.34 1.34-5.9 3.36z"/><path class="cls-2" d="M1.06 36.34l-.94-.27c.14-.4 3.42-9.81 4.31-11.25a5.65 5.65 0 0 1 2-2l.46.89-.23-.44.23.44a4.76 4.76 0 0 0-1.59 1.63c-.71 1.12-3.3 8.32-4.24 11z" transform="translate(0 -.5)"/></g></g></svg>