<svg xmlns="http://www.w3.org/2000/svg" width="29" height="20.679" viewBox="349.75 505.566 29 20.679"><g fill="#414042"><path d="M369.672 523.596c-4.035 0-7.313-3.278-7.313-7.313s3.278-7.313 7.313-7.313c2.396 0 4.539 1.135 5.926 3.026l3.152-.126c-1.639-3.404-5.043-5.674-9.078-5.674-5.17 0-9.331 3.783-9.961 8.826h-6.304c-.252 0-.252-.126-.252-.126v-4.917c0-.504.504-.757.504-.757h6.557c.252 0 .126-.126.126-.126v-3.53h-7.691c-.882 0-1.639.63-2.144 1.261-.504.757-.756 1.765-.756 1.765v17.148c0 .378.504.505.504.505h3.026v-8.574c0-.252.126-.126.126-.126h6.304c.63 4.917 4.917 8.7 9.961 8.7 4.035 0 7.439-2.27 9.078-5.675h-3.278c-1.261 1.891-3.405 3.026-5.8 3.026"/><path d="M369.672 512.627c1.261 0 2.27.504 2.899 1.513h2.9a6.151 6.151 0 0 0-5.8-4.035 6.188 6.188 0 0 0-6.178 6.178 6.188 6.188 0 0 0 6.178 6.178 6.152 6.152 0 0 0 5.8-4.035h-3.026c-.63.757-1.639 1.388-2.773 1.388-1.892 0-3.53-1.514-3.53-3.531s1.638-3.656 3.53-3.656"/></g></svg>