<svg xmlns="http://www.w3.org/2000/svg" width="64" height="32.508" viewBox="332.974 499.651 64 32.508"><g fill="#414042"><path d="M355.069 515.017v.127l-.127.127h-1.905c-.127 0-.127-.127-.127-.127s0-.127-.127-.127l-1.016-2.413-.381-.762c-.127-.254-.254-.381-.381-.508-.254-.254-.381-.381-.508-.381-.127-.127-.381-.127-.635-.127h-.762v4.317l-.127.127c-.127 0-.254 0-.381.127h-1.016c-.127 0-.254 0-.381-.127-.127 0-.127 0-.127-.127v-10.159c-.127-.254-.127-.381 0-.508s.254-.127.508-.127h4.064c.381 0 .889.127 1.143.381.381.127.635.381.889.635s.381.508.508.889c.254.254.381.635.381 1.016s0 .762-.127 1.016-.254.635-.381.762c-.127.254-.381.381-.635.635-.254.127-.508.381-.889.381.127.127.381.127.508.254l.381.381c.127.127.254.381.381.508l.381.762.889 2.159c.127.254.127.381.127.508-.127.254-.127.254-.127.381zm-2.92-7.493c0-.381-.127-.635-.254-.889s-.381-.381-.762-.508c-.127-.127-.254-.127-.381-.127h-1.651v3.175h1.143c.381 0 .635 0 .889-.127s.381-.127.635-.381c.127-.127.254-.254.254-.508.127-.127.127-.381.127-.635zm11.809 3.556c0 .635-.127 1.27-.254 1.778s-.381 1.016-.762 1.397-.762.635-1.27.889-1.143.254-1.778.254-1.27-.127-1.777-.254a11.169 11.169 0 0 1-1.27-.762c-.381-.381-.635-.762-.762-1.27-.127-.635-.254-1.143-.254-1.778s.127-1.27.254-1.778.381-1.016.762-1.397.762-.635 1.27-.889 1.143-.381 1.777-.381c.635 0 1.27.127 1.778.254s.889.508 1.27.762c.381.381.508.762.762 1.27.127.635.254 1.27.254 1.905zm-2.159.127c0-.381 0-.762-.127-1.016 0-.254-.127-.635-.254-.762-.127-.254-.381-.381-.508-.508-.254-.127-.508-.254-.889-.254-.254 0-.635 0-.889.127s-.381.254-.635.508l-.381.762c-.127.254-.127.635-.127 1.016s0 .762.127 1.016c0 .254.127.635.254.762.127.254.381.381.508.508.254.127.508.254.889.254s.635 0 .889-.127.381-.254.635-.508l.381-.762c0-.254.127-.635.127-1.016zm12.572 3.81v.127l-.127.127c-.127 0-.254 0-.381.127h-1.016c-.128 0-.255 0-.382-.127-.127 0-.127 0-.127-.127v-4.571h-4.063v4.571l-.127.127c-.127 0-.254 0-.381.127h-1.016c-.127 0-.254 0-.381-.127-.127 0-.127 0-.127-.127v-10.667l.127-.127c.127 0 .254 0 .381-.127h1.016c.127 0 .254 0 .381.127.127 0 .127 0 .127.127v4.19h4.063v-4.19l.127-.127c.127 0 .254 0 .382-.127h1.016c.127 0 .254 0 .381.127.127 0 .127 0 .127.127v10.54zm8.889-3.048c0 .635-.127 1.143-.381 1.523s-.508.762-.889 1.143c-.381.254-.762.508-1.271.635-.508.127-1.016.254-1.523.254-.381 0-.762 0-1.016-.127-.381 0-.635-.127-.889-.254-.255-.127-.509-.127-.636-.254s-.254-.127-.381-.254-.127-.127-.127-.254v-1.27c0-.127 0-.127.127-.127h.127c.127 0 .127 0 .381.127.127.127.382.254.509.254.254.127.508.254.762.254.254.127.635.127 1.143.127.254 0 .508 0 .762-.127s.381-.127.508-.254l.381-.381c.127-.127.127-.381.127-.635s-.127-.508-.254-.635-.254-.381-.508-.508l-.762-.381c-.254-.127-.508-.254-.889-.381-.254-.127-.635-.254-.889-.508-.254-.127-.508-.381-.763-.635-.254-.254-.381-.508-.508-.889s-.254-.762-.254-1.143c0-.508.127-1.016.254-1.397.254-.381.508-.762.763-1.016.381-.254.762-.508 1.143-.635.508-.127.889-.254 1.396-.254h.762c.254 0 .508.127.763.127.254.127.381.127.635.254.381.254.508.381.635.381l.127.127v1.397c0 .127 0 .127-.127.127h-.127s-.127 0-.254-.127-.254-.127-.508-.254-.381-.127-.636-.254c-.254-.127-.508-.127-.889-.127-.254 0-.508 0-.635.127-.127 0-.381.127-.508.254-.127.254-.254.381-.254.508s-.127.254-.127.508.127.508.254.635.254.381.508.508l.762.381c.254.127.508.254.889.381.255.127.636.254.89.508.254.127.508.381.762.635s.381.508.508.889c.127.255.127.636.127 1.017zm-33.27 13.333v.381l-.127.127-.127.127c-.127 0-.254.127-.381.127s-.254.127-.508.127h-.508c-.381 0-.762 0-1.016-.127s-.635-.254-.762-.508c-.254-.254-.381-.508-.508-.889s-.127-.762-.127-1.27.127-.89.254-1.271.254-.635.508-1.016c.254-.254.508-.508.889-.635s.635-.254 1.143-.254h.508c.127 0 .254 0 .381.127.127 0 .254.127.381.127s.127.127.254.127l.127.127v1.016h-.127s-.127 0-.127-.127c-.127 0-.127-.127-.254-.127s-.254-.127-.381-.127-.381-.127-.508-.127c-.254 0-.381 0-.635.127-.127.127-.381.254-.508.381s-.254.381-.254.635-.127.509-.127.89 0 .635.127.889.127.508.254.635.254.254.508.381c.127.127.381.127.635.127s.381 0 .508-.127c.127 0 .254-.127.381-.127s.254-.127.254-.127c.127 0 .127-.127.127-.127h.127v.254c-.381 0-.381.127-.381.254zm4.825-1.396c0 .381 0 .635-.127.889l-.381.762c-.127.254-.381.381-.635.508s-.635.127-1.016.127-.635 0-.889-.127-.508-.254-.635-.381-.254-.381-.381-.635-.127-.635-.127-.889c0-.381 0-.635.127-.889l.381-.763c.127-.254.381-.381.635-.508s.635-.127 1.016-.127.635 0 .889.127.508.254.635.381.254.381.381.635c.127.255.127.636.127.89zm-1.143.127v-.508c0-.127-.127-.254-.127-.381-.127-.128-.127-.254-.254-.254-.127-.128-.254-.128-.508-.128-.127 0-.254 0-.381.128a.272.272 0 0 0-.254.254c-.127.127-.127.254-.127.381v1.016c0 .127.127.254.127.381.127.127.127.254.254.254.127.127.254.127.508.127.127 0 .254 0 .381-.127a.273.273 0 0 0 .254-.254c.127-.127.127-.254.127-.381v-.508zm8.382 1.904c0 .127 0 .127 0 0 0 .127-.127.127-.127.127h-.889v-2.793c0-.127 0-.255-.127-.255 0-.126-.127-.126-.254-.126h-.254c-.127 0-.254 0-.381.126-.127.128-.254.255-.381.509v2.793h-1.016v-2.793c0-.127 0-.254-.127-.254 0-.127-.127-.127-.254-.127h-.254c-.127 0-.254 0-.381.127s-.254.254-.381.508v2.793h-1.016v-4.191h1.016v.127c.254-.254.381-.381.635-.508s.508-.127.635-.127h.381c.127 0 .254.127.381.127.127.127.254.127.254.254.127.127.127.127.127.254l.381-.381c.127-.127.254-.127.381-.254.127 0 .254-.127.381-.127h.381c.254 0 .508 0 .635.127s.381.254.381.381c.127.127.254.381.254.508 0 .254.127.382.127.636v2.539h-.508zm5.079-2.031c0 .381 0 .635-.127 1.016-.127.254-.127.508-.381.762-.127.254-.381.381-.508.508-.254.127-.508.127-.762.127h-.254c-.127 0-.127 0-.255-.127-.126 0-.126-.127-.253-.127l-.254-.254v1.905h-1.016v-5.843h1.016v.635c.127-.127.254-.254.381-.254.126-.127.254-.127.381-.254.127 0 .254-.127.381-.127h.381c.254 0 .508 0 .762.127s.381.254.508.508.254.381.254.636c-.381.254-.254.508-.254.762zm-1.27.127v-.508c0-.127-.127-.254-.127-.381a.272.272 0 0 0-.254-.254c-.127-.128-.254-.128-.381-.128h-.255c-.126 0-.126 0-.253.128-.127 0-.127.126-.254.254l-.254.254v1.27a.992.992 0 0 0 .508.508c.127.127.253.127.38.127.128 0 .255 0 .382-.127l.254-.254c.127-.127.127-.254.127-.381.127-.254.127-.381.127-.508zm3.175 1.904c0 .127 0 .127 0 0 0 .127-.128.127-.128.127h-.889v-6.095h1.017v5.968zm2.285 0c0 .127 0 .127 0 0 0 .127-.127.127-.127.127h-.889v-4.191h1.016v4.064zm.127-5.206c0 .254 0 .381-.127.508h-.508c-.254 0-.381 0-.508-.127s-.127-.254-.127-.508 0-.381.127-.508.254-.127.508-.127.381 0 .508.127c0 .254.127.381.127.635zm4.318 5.206c0 .127 0 .127 0 0l-.127.127h-.635v-.381c-.127.127-.381.254-.508.381-.254.127-.381.127-.635.127s-.381 0-.635-.127c-.127 0-.381-.127-.509-.254-.127-.127-.254-.254-.254-.381-.127-.127-.127-.381-.127-.508 0-.254 0-.381.127-.635l.382-.381c.127-.127.381-.254.635-.254s.635-.127.889-.127h.381v-.635c0-.128-.127-.128-.127-.255 0 0-.127-.127-.254-.127h-.889c-.127 0-.254.127-.381.127s-.254.127-.254.127h-.255v-.635s0-.127.127-.127c0 0 .128-.127.255-.127s.254-.127.381-.127.254-.127.508-.127h.508c.254 0 .635 0 .762.127.254 0 .381.127.508.254s.254.254.254.508c.127.254.127.381.127.763v2.666h-.254zm-1.016-1.65h-.889c-.127 0-.254.127-.254.127-.127 0-.127.127-.127.254v.254c0 .127 0 .254.127.381s.254.127.381.127.254 0 .381-.127l.381-.381v-.635zm5.968 1.65c0 .127 0 .127 0 0 0 .127-.127.127-.127.127h-.889v-2.793c0-.127-.127-.255-.127-.255 0-.126-.127-.126-.254-.126h-.254c-.127 0-.254 0-.381.126l-.508.509v2.793h-1.016v-4.191h1.016v.381c.254-.254.508-.381.635-.508.254-.127.508-.127.762-.127s.508 0 .635.127.381.254.508.381.254.381.254.509c0 .254.128.508.128.762v2.285h-.382zm3.301-.381v.254c0 .127 0 .127-.127.127 0 0-.127 0-.127.127h-.635c-.254 0-.381 0-.635-.127-.127 0-.254-.127-.381-.254s-.127-.254-.254-.508c0-.127-.127-.381-.127-.635v-2.032h-.508s-.127 0-.127-.127v-.889h.635v-1.016h1.016v1.016h1.016v.889c0 .127-.127.127-.127.127h-.889v1.905c0 .254 0 .381.127.508s.254.127.381.127h.508v.127c.254.254.254.381.254.381z"/><path d="M392.402 532.16h-54.984c-2.413 0-4.444-2.032-4.444-4.444v-23.62c0-2.413 2.032-4.444 4.444-4.444h55.111c2.413 0 4.445 2.032 4.445 4.444v23.62c-.127 2.411-2.032 4.444-4.572 4.444zm-54.984-31.366c-1.905 0-3.301 1.396-3.301 3.301v23.62c0 1.777 1.523 3.302 3.301 3.302h55.111c1.778 0 3.302-1.524 3.302-3.302v-23.62c0-1.777-1.523-3.301-3.302-3.301h-55.111z"/></g></svg>