<svg xmlns="http://www.w3.org/2000/svg" width="32" height="22.954" viewBox="346.72 504.429 32 22.954"><path d="M369.809 517.661c.81 3.646 3.915 6.211 7.831 6.211.405 0 .675 0 1.08-.135v3.511c-.405 0-.811.135-1.215.135-6.481 0-11.478-5.131-11.478-11.477a11.468 11.468 0 0 1 11.478-11.477h1.215v3.511c-.405 0-.811-.135-1.215-.135-3.781 0-7.021 2.7-7.832 6.211h6.752v3.511l-6.616.134zm-10.532-9.722c-.405 0-.675-.135-1.081-.135-4.456 0-7.966 3.511-7.966 7.966s3.51 7.966 7.966 7.966c.405 0 .675 0 1.081-.135v3.51h-1.215c-6.211.271-11.342-4.86-11.342-11.206 0-6.346 5.131-11.477 11.342-11.477.405 0 .81 0 1.215.135v3.376z" fill="#414042"/></svg>