<svg id="Layer_1" xmlns="http://www.w3.org/2000/svg" viewBox="0 0 52 44"><style>.st0{opacity:.3}.st1{fill:#858585}</style><g class="st0"><path class="st1" d="M42.4 43.4h-.2c-.4 0-9.6-.5-13-1.2C22.9 41 17.5 37.1 13.6 31L1.4 12.3l17-6 .2.5-.2-.5L36.1 0l11.7 17.8c3.7 5.6 4.3 11.4 1.7 16.3-1.3 2.6-6.7 8.9-6.9 9.1l-.2.2zM2.9 12.8l11.5 17.7c3.8 5.8 9 9.6 14.9 10.8 3.1.6 11.1 1 12.6 1.1.9-1.1 5.5-6.5 6.6-8.7 2.4-4.6 1.8-10-1.7-15.3L35.7 1.2 2.9 12.8z"/></g><g class="st0"><path class="st1" d="M40.1 36.4h-.2c-.3 0-7.4-.4-10.1-.9-4.8-1-9-4-12.1-8.7L8.1 12.2l27-9.6 9.1 13.9c2.9 4.4 3.3 8.9 1.3 12.7-1 2-5.2 6.9-5.4 7.1v.1zM9.7 12.7l8.8 13.5c2.9 4.5 6.9 7.3 11.5 8.3 2.3.5 8.4.8 9.7.9.8-.9 4.2-5 5.1-6.7 1.8-3.5 1.4-7.6-1.3-11.7L34.8 3.8 9.7 12.7z"/></g><path class="st1" d="M37.7 29.1h-.2c-.2 0-4.9-.2-6.6-.6-3.2-.7-6-2.6-8-5.8L16.5 13l18-6.4 6 9.2c1.9 2.9 2.2 5.9.9 8.5-.7 1.3-3.4 4.5-3.5 4.7l-.2.1zM18 13.5l5.6 8.7c1.9 2.9 4.4 4.7 7.4 5.3 1.5.3 5.2.5 6.2.6.6-.7 2.7-3.2 3.2-4.3 1.2-2.2.9-4.9-.8-7.5L34 7.8l-16 5.7z"/></svg>