<svg id="Layer_2" xmlns="http://www.w3.org/2000/svg" viewBox="0 0 52 44"><style>.st0{opacity:.3}.st1{fill:#858585}</style><g class="st0"><path class="st1" d="M34.6 21c-.5-.9-1.2-1.9-1.6-2.6l-.2-.3c-2.9-4.7-9.2-7.5-14-6.3s-6.4 6.2-3.5 11.1c.3.6.7 1.1 1.1 1.6l.2.2c.9.9 1.5 2 2.1 2.9 3 5 2 10.4-2.2 12.9l.6.6c4.6-2.6 5.6-8.4 2.4-13.7-.6-1-1.3-2.1-2.2-3l-.2-.2c-.4-.5-.7-1-1-1.5-2.6-4.5-1.2-9 3.2-10.2s10.1 1.5 12.8 5.8l.2.3c.5.6 1 1.6 1.6 2.5.2.4.5.8.6 1.1 3.9 6.4 5.6 13.1 4.8 19.5l.9.2c.8-6.5-.9-13.3-4.9-19.9-.3-.2-.5-.6-.7-1z"/><path class="st1" d="M25.9 22.6c-.6-1-1.2-2-1.5-2.6l-.8.2c.3.6.9 1.6 1.5 2.6.5.9 1.1 1.9 1.4 2.4 3.7 6.2 4 13.1.8 18.1l.8.4c3.3-5.2 3-12.4-.8-18.8-.3-.4-.8-1.3-1.4-2.3z"/><path class="st1" d="M30.4 21.9c-.5-.9-1-1.8-1.6-2.5l-.1-.1c-1.5-2.5-4.9-4.1-7.5-3.4-2.6.7-3.4 3.3-1.9 5.9.2.4.5.7.8 1l.1.1c.9 1 1.7 2.1 2.4 3.3 3.4 5.7 3.1 11.9-.8 15.8l.7.5c4.1-4.1 4.4-10.5.8-16.5-.7-1.2-1.6-2.4-2.5-3.4l-.1-.1c-.2-.3-.5-.6-.6-.9-1.3-2.2-.6-4.4 1.5-5 2.2-.6 5 .7 6.3 2.9l.1.2c.6.8 1.1 1.6 1.6 2.5.2.4.4.8.7 1.2 3.9 6.5 5.2 13.4 3.4 19.5l.9.3c1.7-6.3.5-13.3-3.5-20-.3-.6-.5-.9-.7-1.3z"/><path class="st1" d="M36.4 16.2C32.2 10 23.5 6.4 16.6 8.1c-6.9 1.7-9.2 8.9-5.1 16 .7 1.1 1.4 2.2 2.3 3.2l.2.5c2.3 3.9 1 7.9-2.9 9.1l.4.7c4.7-1.4 5.7-5.7 3.2-10-.1-.1-.3-.6-.3-.6-.9-.9-1.6-2-2.2-3-3.8-6.8-1.7-13.6 4.8-15.2 6.5-1.6 14.7 1.7 18.6 7.7l.2.2c.8 1.1 1.6 2.2 2.3 3.4 3.6 5.8 5.6 12 6 18l.9.1c-.3-6.1-2.4-12.4-6.1-18.2-.7-1.2-1.5-2.3-2.3-3.4l-.2-.4z"/><path class="st1" d="M12.1.6C.5 3.3-3.3 15.3 3.6 27.4c.5.9 1.1 1.8 1.8 2.7l.1.1c.8 1.3 2.4 2.1 3.7 1.7 1.3-.4 1.7-1.9.9-3.3l-.1-.1c-.7-.9-1.3-1.8-1.8-2.7C2.9 16.5 5.8 7.2 14.8 5s20.7 3.2 26.1 11.9l.1.2c.3.5.6 1 .9 1.4 3.2 5.2 5.4 10.6 6.5 16h.9C48.2 29 46 23.6 42.7 18.3c-.3-.5-.6-1-.9-1.4l-.1-.2C36 7.6 23.8 2.1 14.4 4.3S1.9 16.3 7.5 26c.5 1 1.2 2 1.9 2.9.6 1 .3 2-.6 2.3-.9.2-2-.3-2.6-1.2l-.1-.2c-.6-.9-1.2-1.7-1.7-2.6-6.7-11.6-3-23.2 8.1-25.9s25.7 4 32.5 14.8c2.8 4.4 4.6 8.2 5.9 12.1l.9-.1c-1.3-3.9-3.2-7.8-6-12.2-7-11.2-22.1-18-33.7-15.3z"/></g></svg>