<svg id="Layer_1" xmlns="http://www.w3.org/2000/svg" viewBox="0 0 52 44"><style>.st0{fill:#858585}.st1{opacity:.3}.st2{fill:none;stroke:#858585;stroke-miterlimit:10}</style><path class="st0" d="M23.1 41.7l-.3-1 23.8-8.9.4.9z"/><g class="st1"><path class="st0" d="M2.9 14.9l-.3-.9 23.8-8.9.4.9z"/></g><path class="st0" d="M23.1 36.9l-.3-.9 23.8-9 .4.9z"/><g class="st1"><path class="st0" d="M18 43h-1v-6.6l5-2.1.4.9-4.4 1.9z"/></g><g class="st1"><path class="st0" d="M15 39h-1v-6.9l5-2 .3 1-4.3 1.7z"/></g><g class="st1"><path class="st0" d="M11.5 35.5h-1v-7.1l5-1.9.3 1-4.3 1.6z"/></g><g class="st1"><path class="st0" d="M8 31H7v-6.4l5-2.2.4.9L8 25.2z"/></g><g class="st1"><path class="st0" d="M5 27H4v-6.7l5-2 .3.9L5 21z"/></g><g class="st1"><path class="st0" d="M2 23H1v-7l5-1.9.3 1L2 16.7z"/></g><path class="st0" d="M2.9 10.2l-.3-1L26.4.3l.4.9z"/><g class="st1"><path class="st0" d="M46.4 32.5L26.2 5.8l.8-.6 20.2 26.7z"/></g><path class="st0" d="M22.4 41.1l-20.2-26 .8-.6 20.2 26zm.3-4.7L2.2 9.6 3 9l20.5 26.8z"/><g class="st1"><path class="st0" d="M50 26h-1v-5.7l-5.5 2.2-.3-1 6.8-2.7z"/></g><g class="st1"><path class="st0" d="M52 29h-1v-5.5l-5.5 2.1-.3-1 6.8-2.5z"/></g><g class="st1"><path class="st0" d="M46 23h-1v-5.9l-5.5 2.3-.3-1 6.8-2.8z"/></g><g class="st1"><path class="st0" d="M43 18h-1v-5.3l-5.5 2-.3-.9 6.8-2.5z"/></g><g class="st1"><path class="st0" d="M40 14h-1V8.5l-5.5 2.1-.3-.9L40 7z"/></g><g class="st1"><path class="st0" d="M37 10h-1V4.2l-5.5 2.3-.3-1L37 2.7z"/></g><path class="st0" d="M46.5 27.8L26 1l.8-.6 20.5 26.8zM23 36h1v5h-1z"/><path class="st0" d="M46 27h1v5h-1z"/><g class="st1"><path class="st0" d="M26 1h1v4h-1z"/></g><path class="st0" d="M2 10h1v5H2zm15.8 3.3c0 .2 0 .7.4 1.1.7.7 1.7.7 2.3.4 1.1-.4 1-1.1.5-1.6l-.3-.3.8-.3.3.3c.4.4 1.2.8 2.1.5.6-.2 1-.6.5-1.1-.3-.3-.9-.6-1.3-.7l.6-.4c.5.1 1.2.4 1.6.9.7.8.2 1.5-.8 1.9-.8.3-1.7.3-2.5-.1.3.6-.1 1.3-1.1 1.6-1.2.4-2.7.3-3.6-.7-.4-.5-.5-1-.5-1.3l1-.2zm2.3 3.5c.4-.2.9-.1 1.1.1.2.2 0 .5-.4.6-.4.1-.9.1-1.1-.1-.2-.2 0-.5.4-.6zm8.2.4l-1.3-.5.7-.4 1.7.6.4.5-7.6 2.7-.5-.6 6.6-2.3zm-1.7 4.4l-2.8.4-.5-.6 9-1.3.5.7-6.7 4.3-.5-.6 2.1-1.3-1.1-1.6zm1.9 1.2l1.9-1.2c.4-.3.9-.5 1.3-.7-.5.1-1.1.2-1.6.3l-2.6.4 1 1.2z"/><g class="st1"><path class="st0" d="M17.8 16c0 .2 0 .7.4 1.1.7.7 1.7.7 2.3.4 1.1-.4 1-1.1.5-1.6l-.3-.3.8-.3.3.3c.4.4 1.2.8 2.1.5.6-.2 1-.6.5-1.1-.3-.3-.9-.6-1.3-.7l.6-.4c.5.1 1.2.4 1.6.9.7.8.2 1.5-.8 1.9-.8.3-1.7.3-2.5-.1.3.6-.1 1.3-1.1 1.6-1.2.4-2.7.3-3.6-.7-.4-.5-.5-1-.5-1.3l1-.2zm2.3 3.4c.4-.2.9-.1 1.1.1.2.2 0 .5-.4.6-.4.1-.9.1-1.1-.1-.2-.2 0-.4.4-.6zm8.2.4l-1.3-.5.7-.4 1.7.6.4.5-7.6 2.7-.5-.6 6.6-2.3zm-1.7 4.5l-2.8.4-.5-.6 9-1.3.5.7-6.7 4.3-.5-.6 2.1-1.3-1.1-1.6zm1.9 1.1l1.9-1.2c.4-.3.9-.5 1.3-.7-.5.1-1.1.2-1.6.3l-2.6.4 1 1.2z"/></g></svg>