<svg id="Layer_1" xmlns="http://www.w3.org/2000/svg" viewBox="0 0 54 60.2"><style>.st0{opacity:.3}.st0,.st1{fill:none;stroke:#858585;stroke-miterlimit:10}</style><path class="st0" d="M39.1 3.6L47.2.3l-1.6 3.8 1.6 2.7-8.1 3.2m-7.6 38.8V34.6c0-6.6-5.4-11.9-12-11.9s-12 5.4-12 11.9v14.1h24z"/><path class="st0" d="M53.5 39.8V25.1c0-6.6-5.4-11.9-12-11.9s-12 5.4-12 11.9v14.7h24zm-22.2 8.7l22.2-8.7M7.1 48.5l22.4-8.7M15.1 23.5l21.6-9.3m2.8 16v-27m-8 57v-11"/><path class="st1" d="M31.5 43.3L1 57.1V38.7l30.5-13.9z"/><path class="st1" d="M1 38.7l18.1 1.2 12.4-15.1"/><ellipse class="st0" cx="39.7" cy="32.8" rx="2.3" ry="2.8"/></svg>