<svg id="Layer_1" xmlns="http://www.w3.org/2000/svg" viewBox="0 0 54 50"><style>.st0{opacity:.3}.st0,.st1{fill:none;stroke:#858585;stroke-miterlimit:10}</style><path class="st0" d="M46.5 39.9c.4 3.4-7.7 7.3-18.2 8.6-10.5 1.3-20.7-.5-21.1-4-.4-3.4 9.1-7.2 19.6-8.5 10.5-1.3 19.3.4 19.7 3.9zM20.1 9.8s1.1 10.6 5.5 13.7c2.9 2 9.5 6.8 12.2 1.6s6.4-19.4-3.6-23.2c-9.1-3.5-14.6 2.2-14.1 7.9z"/><ellipse transform="rotate(-4.255 25.4 13.558)" class="st1" cx="25.4" cy="13.6" rx="2.1" ry="3.3"/><path class="st0" d="M23.1 20.4s1.2 5.6-2.4 6.8-12.1 5.1-12.6 8.7-.8 7.8-.8 7.8"/><path class="st1" d="M25.8 16.9s.6 4.3 4.3 5.8l3.7 1.6m-1-22.9s-8-1.3-7.7 8.8"/><path class="st0" d="M35.6 27.2c1.5.4 8.3 1.7 9.5 5.1 1.2 3.4 1.5 7.6 1.5 7.6"/></svg>