<svg xmlns="http://www.w3.org/2000/svg" width="66" height="27.698" viewBox="331.25 502.233 66 27.698"><g fill="#FFF"><path d="M368.094 507.288c.484.104 1.42.035 2.251-.07.865-.104 1.662-.346 1.869-.484.381-.242.797-1.004.797-1.73 0-1.523-1.351-2.77-3.013-2.77s-2.805 1.039-3.013 2.561c-.069 1.002.762 2.387 1.109 2.493m-11.427-.555c.243.139 1.004.381 1.87.484.866.105 1.8.174 2.25.07.346-.07 1.212-1.455 1.074-2.494-.174-1.523-1.316-2.561-2.979-2.561s-3.013 1.246-3.013 2.77c.001.727.382 1.489.798 1.731m5.748 19.012c-.692-.174-1.177-.9-1.177-1.975v-13.436c-2.008-.104-3.74-.312-5.021-.555v15.203c0 1.385.485 2.805 1.697 3.809 1.697 1.385 4.812 1.488 6.129.416v-3.395c.034-.067-.763.14-1.628-.067m11.357 0c-.692-.174-1.179-.9-1.179-1.975v-13.955c-1.279.242-3.012.449-5.021.52v14.613c0 1.385.483 2.805 1.695 3.809 1.697 1.385 4.813 1.49 6.131.416v-3.395c.037-.033-.725.174-1.626-.033m-26.732-16.137h4.779v20.117h-4.779z"/><path d="M341.361 509.538c-5.575 0-10.111 4.537-10.111 10.111s4.536 10.111 10.111 10.111c5.574 0 10.11-4.537 10.11-10.111.002-5.574-4.535-10.111-10.11-10.111zm.104 15.685c-3.082 0-5.54-2.492-5.54-5.574s2.493-5.574 5.54-5.574c3.082 0 5.575 2.492 5.575 5.574s-2.493 5.574-5.575 5.574zm51.007-15.615h4.778v20.117h-4.778z"/><path d="M386.827 509.538c-5.575 0-10.111 4.537-10.111 10.111s4.536 10.111 10.111 10.111 10.11-4.537 10.11-10.111-4.535-10.111-10.11-10.111zm.104 15.685c-3.081 0-5.54-2.492-5.54-5.574s2.493-5.574 5.54-5.574c3.082 0 5.541 2.492 5.541 5.574s-2.459 5.574-5.541 5.574z"/></g></svg>