<svg xmlns="http://www.w3.org/2000/svg" width="66" height="27.7" viewBox="331.25 502.231 66 27.7"><path d="M368.094 507.287c.484.104 1.42.035 2.251-.069.865-.104 1.662-.346 1.869-.485.381-.242.797-1.004.797-1.731 0-1.523-1.351-2.77-3.013-2.77s-2.805 1.039-3.013 2.562c-.069 1.004.762 2.389 1.109 2.493m-11.427-.554c.243.139 1.004.381 1.87.485s1.8.173 2.25.069c.346-.069 1.212-1.454 1.074-2.493-.173-1.523-1.316-2.562-2.978-2.562s-3.013 1.247-3.013 2.77c0 .727.381 1.489.797 1.731m5.748 19.011c-.692-.173-1.177-.9-1.177-1.974v-13.436c-2.008-.104-3.74-.312-5.021-.554v15.202c0 1.385.485 2.805 1.697 3.809 1.697 1.386 4.813 1.489 6.129.416v-3.394c.034-.069-.763.139-1.628-.069m11.357 0c-.692-.173-1.178-.9-1.178-1.974v-13.955c-1.28.242-3.012.45-5.021.52v14.612c0 1.386.484 2.806 1.696 3.81 1.697 1.385 4.813 1.489 6.13.415v-3.394c.036-.034-.726.174-1.627-.034m-26.732-16.137h4.779v20.119h-4.779z"/><path d="M341.361 509.538c-5.575 0-10.111 4.536-10.111 10.111 0 5.575 4.536 10.111 10.111 10.111 5.575 0 10.111-4.536 10.111-10.111.001-5.575-4.536-10.111-10.111-10.111zm.104 15.686c-3.082 0-5.54-2.493-5.54-5.575s2.493-5.575 5.54-5.575c3.082 0 5.575 2.493 5.575 5.575s-2.493 5.575-5.575 5.575zm51.007-15.617h4.778v20.119h-4.778z"/><path d="M386.827 509.538c-5.575 0-10.111 4.536-10.111 10.111 0 5.575 4.536 10.111 10.111 10.111s10.111-4.536 10.111-10.111c0-5.575-4.536-10.111-10.111-10.111zm.104 15.686c-3.081 0-5.54-2.493-5.54-5.575s2.493-5.575 5.54-5.575c3.082 0 5.541 2.493 5.541 5.575s-2.459 5.575-5.541 5.575z"/></svg>