<svg xmlns="http://www.w3.org/2000/svg" width="46" height="19.307" viewBox="341.25 506.427 46 19.307"><g fill="#FFF"><path d="M366.929 509.952c.338.072.989.023 1.569-.048.603-.072 1.158-.241 1.303-.338.267-.169.557-.7.557-1.207 0-1.062-.941-1.932-2.102-1.932-1.158 0-1.954.725-2.1 1.786-.048.701.532 1.666.773 1.739m-7.965-.386c.169.097.7.266 1.303.338.604.071 1.256.121 1.569.048.242-.048.845-1.014.749-1.738-.121-1.062-.917-1.786-2.076-1.786s-2.1.869-2.1 1.932c.001.506.266 1.037.555 1.206m4.007 13.25c-.481-.121-.819-.628-.819-1.376v-9.364c-1.4-.072-2.606-.217-3.5-.386v10.595c0 .966.338 1.955 1.183 2.655 1.183.965 3.354 1.036 4.272.289v-2.365c.022-.048-.533.096-1.136-.048m7.916 0c-.481-.121-.819-.628-.819-1.376v-9.727c-.894.169-2.101.313-3.5.362v10.185c0 .966.338 1.955 1.183 2.655 1.183.965 3.355 1.037 4.272.289v-2.365c.022-.023-.508.121-1.136-.023m-18.632-11.247h3.331v14.021h-3.331z"/><path d="M348.297 511.52c-3.886 0-7.047 3.162-7.047 7.048 0 3.885 3.162 7.047 7.047 7.047s7.047-3.161 7.047-7.047a7.055 7.055 0 0 0-7.047-7.048zm.073 10.934a3.862 3.862 0 0 1-3.861-3.886c0-2.147 1.737-3.887 3.861-3.887a3.885 3.885 0 0 1 3.886 3.887 3.884 3.884 0 0 1-3.886 3.886zm35.55-10.885h3.33v14.021h-3.33z"/><path d="M379.985 511.52a7.056 7.056 0 0 0-7.048 7.048c0 3.885 3.161 7.047 7.048 7.047 3.886 0 7.048-3.161 7.048-7.047a7.056 7.056 0 0 0-7.048-7.048zm.073 10.934a3.862 3.862 0 0 1-3.86-3.886c0-2.147 1.737-3.887 3.86-3.887a3.863 3.863 0 0 1 3.862 3.887 3.863 3.863 0 0 1-3.862 3.886z"/></g></svg>